<?xml version="1.0" standalone="no"?>
<!DOCTYPE svg PUBLIC "-//W3C//DTD SVG 1.1//EN" "http://www.w3.org/Graphics/SVG/1.1/DTD/svg11.dtd" >
<svg xmlns="http://www.w3.org/2000/svg">
<metadata></metadata>
<defs>
<font id="stampeteregular" horiz-adv-x="439" >
<font-face units-per-em="1000" ascent="800" descent="-200" />
<missing-glyph horiz-adv-x="354" />
<glyph unicode=" "  horiz-adv-x="354" />
<glyph unicode="&#x09;" horiz-adv-x="354" />
<glyph unicode="&#xa0;" horiz-adv-x="354" />
<glyph unicode="!" horiz-adv-x="311" d="M122 736l6 -13h-7l-5 11zM237 419l-9 -13.5t-13 -18.5q3 -3 9 -10q6 -6 6 -13q0 -2 -5.5 -4t-12 -5.5t-8.5 -8.5q36 -57 36 -65q0 -9 -14 -29q-15 -20 -16 -27l-6 -1q-8 0 -18 5q-2 -4 -2 -6q0 -3 4 -7q1 1 -2 2t-9 2q-8 0 -20 -12q0 -10 13 -23q-10 0 -22 -5 q0 -8 16 -18q8 4 19 4q19 0 41 -21q-16 -4 -31.5 -7.5t-22.5 -5.5l-6 -1l-19 -1q-14 20 -14 45q0 8 4 33t4 31q0 15 -6 26q-3 1 -3 5t5 16t5 16q1 11 0 15.5t-3 8t-2 4.5q0 2 2 40q1 22 0 39q11 3 11 14q0 19 -11 39q3 6 3 15q0 5 -2.5 11t-2.5 12q0 16 9 26q-5 7 -18 17 q2 3 5.5 11.5t4.5 11.5q-4 15 -4 18v1q13 7 13 28q-1 1 -3 4q-8 -8 -11 -8q3 13 3 22q0 11 -4 11l-3 -1l-3 -1q-2 0 -2 4t7 16t7 19q0 3 -2 19q6 16 6 15q0 10 -6 29t-12 22q11 29 16 33q9 10 33 10q13 0 20 -13q3 3 3 8q17 0 30 -8l13 8q0 -3 -12 -15q8 -10 8 -22 q0 -6 -5 -19t-5 -17q0 -7 6 -18l-36 -9q8 -5 31 -3q0 -17 13 -43l-6 2q-1 -2 -16 -19v-32q3 -2 9 -4q0 -3 -2.5 -16.5t-2.5 -17.5q0 -9 12 -11q-12 -45 -12 -59q0 -2 1 -7l2 -6q3 -10 3 -19q0 -8 -3 -13q3 -12 15 -35zM199 784l17 5l-2 6l-15 -5v-6zM202 664l6 12l-6 2 l-6 -11zM214 647h8v12h-8v-12zM225 299l5 4l-7 7l-4 -5zM235 36q0 -15 -13 -25t-30 -10q-6 0 -13 6l-6 4t-5 3l-2 2q7 7 20 7q1 0 7.5 1.5t11.5 2.5t10 0l7 7l-8 12q-9 11 -9 15q12 4 16 3q14 -11 14 -28z" />
<glyph unicode="&#x22;" horiz-adv-x="426" d="M214 792q-13 -15 -12 -40q-11 -15 -22 -15q-8 0 -10 7l-2 6q-4 -4 -2 -13q3 -15 3 -18q-12 6 -17 1q-1 -3 8 -12.5t9 -10.5q-13 5 -27 21q-5 -23 -53 -32q-8 18 -8 44q0 36 9 54q16 7 50 35l6 -9q7 -10 15 -10q26 0 53 -8zM109 596v-23h-11v23h11zM394 792q-4 -4 -9 -52 q-4 -46 -3 -58q-11 -15 -22 -15q-8 0 -10 7l-2 6q-4 -4 -2 -13q3 -15 3 -18q-12 6 -17 1q-1 -3 8 -12.5t9 -10.5q-13 5 -27 21q-5 -23 -53 -32q-8 18 -8 44q0 106 9 124q16 7 50 35l6 -9q7 -10 15 -10q26 0 53 -8z" />
<glyph unicode="$" horiz-adv-x="472" d="M310 945q-4 -6 -6 -53q-2 -52 -1 -58q-9 -15 -21 -16q-8 -1 -10 6l-3 6q-3 -4 -1 -13q2 -10 2 -11q2 2 2 4q-2 5 4 5q4 0 47 -26q44 -27 50 -34q7 -13 13 -26q13 -23 24 -25v-86q-16 -14 -24 -17q-6 -2 -24 -2q-3 0 -21.5 2t-23.5 2q-4 0 -5.5 1.5t-3.5 5t-2 4.5 q1 27 -15 58q-19 37 -50 37q-34 0 -54 -32q-16 -26 -13 -54q0 -2 -3 -15.5t-3 -17.5q0 -31 12 -49q12 -21 22 -31q2 -6 -7 -15q5 -3 17 -3l-7.5 -7.5t-12.5 -12t-10 -5.5t-10 2q-2 1 -4 -1q0 -7 3 -10l54 26q0 -9 2 -13q4 4 4 9q27 -20 70 -58q55 -68 81 -108q4 -7 0 -17 q4 -4 14 -17q-2 -20 2 -44l4 -33q0 -2 -4 -12.5t-4 -13.5q0 -7 6 -8q-13 -34 -18 -89q-10 -6 -19 -19q-12 -16 -20 -24q1 -1 6 -9q-11 0 -16 3q0 -1 -3 -10q-1 -3 -2.5 -5t-4 -2.5t-4.5 -1t-8 -0.5h-10h-6q-1 -4 -1.5 -15t-0.5 -17q-2 -47 0 -59q-1 -1 -2.5 -3.5t-2.5 -3.5 t-2.5 -3t-3.5 -3t-4.5 -2t-5.5 -1q-8 0 -10 7l-3 6q-4 -4 -1 -13q3 -15 3 -18q-12 5 -17 0q0 -3 9 -11.5t9 -10.5q-14 3 -28 20q-5 -24 -51 -34q-8 16 -10 43q-4 69 -1 103q-22 3 -41 13q-15 7 -41 31q-45 42 -45 107q0 32 10 43.5t41 11.5q17 0 23 -2q12 -4 30 -17 q4 -19 20 -57q19 -30 30 -30q3 0 13 -4.5t14 -4.5q3 0 10.5 4.5t11.5 4.5t7 -3.5t5 -6.5l2 -3q7 4 7 10q0 1 -2 3q19 30 22 35q13 22 13 39q0 15 -10 25q8 8 11 14q-2 11 -4 47q-6 14 -17 30q-28 29 -87 93l7 25q0 -9 4 -13q4 0 7 1q4 4 7 17t4 15l-4 3q-8 2 -21 9q0 1 2 3 t5 4l6 4t5 4q0 -1 -11 19q-3 -3 -5 -4q-4 -4 -4 -7q0 -4 11 -4q-18 -8 -28 -2l-12 -12q4 -3 13 -3q-9 -10 -4 -15q-9 -1 -25 0q-85 40 -85 206q0 27 3 42q5 10 12 31q2 2 7.5 6t8.5 7q-4 1 -13 9l2 3q2 2 5.5 4.5t7.5 2.5q12 0 12 3q-2 23 14 39q15 15 44 26q3 1 14 5 q-6 103 2 122q22 12 48 38l7 -10q7 -9 15 -8q25 1 54 -5zM120 715l-12 11q0 -10 -10 -20q2 0 11 4.5t11 4.5zM264 99h-3q1 1 3 0z" />
<glyph unicode="&#x26;" d="M300 910q-2 -2 -7 -42q-5 -38 -3 -48q-14 -12 -19 -12t-6.5 5.5t-2.5 5.5q-3 -3 -1 -11q0 -5 1 -7q5 1 16 1t17 1q5 0 24 3t25 3q37 0 50 -19q10 -14 10 -55q0 -28 -10.5 -39.5t-37.5 -11.5q-10 0 -90 2q-60 3 -90 3q-12 0 -25 -25q-13 -23 -13 -35q0 -6 7 -9 q3 -24 3 -84q0 -7 -5 -14q4 -12 4 -47q8 -8 11 -8q2 0 7 2.5t8 2.5q4 0 14 -7t13 -7q6 0 60 2q40 3 60 3q27 0 27 -47q0 -39 -4 -46q-7 -18 -37 -18q-8 0 -35.5 2t-35.5 2q-9 0 -36 -7q-28 -6 -33 -11q-4 -4 -12 -39q-7 -32 -7 -40l2 -6q2 -6 2 -16q0 -19 -10 -56v-2 q0 -1 -1.5 -7.5t-1.5 -8.5q0 -8 7 -26q7 -19 9 -27l-8 -5v-16l7 -3q1 1 1 4q0 2 -1 7t-1 6h16q4 -4 13 -40q4 2 5 9.5t2 8.5q2 0 3 -7q1 -10 3 -10l9 8v-5q0 -8 4 -12q5 1 15 6l-8 3v17q4 0 22 18v-21q0 -4 2 -10q3 3 8 16q30 9 36 24q9 -18 18 -18q3 0 7.5 2t8.5 5t5 3 q24 8 63 8q15 0 24 -28t18 -31q-3 -2 -12 -11q-5 -28 -9 -35q-7 -19 -28 -19q-4 0 -18.5 6.5t-18.5 6.5q-5 0 -14 -9l-9 9h-3q-11 -15 -9 -38l-8 -10q-5 -5 -14 -5q-8 0 -10 6l-2 7q-4 -4 -2 -13q3 -15 3 -18q-12 6 -17 1q-1 -3 8 -12.5t9 -10.5q-14 4 -27 21 q-5 -23 -53 -32q-8 18 -8 44q0 36 9 54q10 6 17 10l-2 2q-1 2 -2 3q-14 -13 -37 -13q-1 0 -3.5 0.5t-7.5 1t-10 0.5q-10 1 -22 -1l1 2q0 6 -9 6q-4 0 -6.5 -4.5t-4.5 -4.5q-1 0 -16 4.5t-23 4.5l-19 583q-2 51 -7 98q-6 60 -6 61q0 16 18 49q6 3 24 3q45 2 113 3v4 q0 87 7 101q13 6 41 29q1 0 6 -7.5t11 -7.5q20 0 44 -8zM212 -197v-23h-11v23h11zM130 27l4 4l-6 7l-5 -4z" />
<glyph unicode="'" horiz-adv-x="325" d="M214 792q-13 -15 -12 -40q-11 -15 -22 -15q-8 0 -10 7l-2 6q-4 -4 -2 -13q3 -15 3 -18q-12 6 -17 1q-1 -3 8 -12.5t9 -10.5q-13 5 -27 21q-5 -23 -53 -32q-8 18 -8 44q0 36 9 54q16 7 50 35l6 -9q7 -10 15 -10q26 0 53 -8zM109 596v-23h-11v23h11z" />
<glyph unicode="(" horiz-adv-x="336" d="M188 -7q-4 0 -43 17q-38 18 -46 23q-12 8 -25 35q-6 5 -23 26q-11 27 -13 68v83q0 6 1 13v17q-2 11 -5 17q-1 4 6 14q0 10 1 31q1 15 -1 34q-1 18 -12 29q8 2 12 -2l3 2q3 2 7 5t6 4q-2 0 -6 -4q-2 -3 3 -11l3 2q2 3 5.5 6t5.5 4q0 14 -9 14q-10 0 -17 -3q5 5 -4 13 q0 1 3 3.5t7.5 5.5t6.5 5q-4 4 -17 3q-2 21 2 40l-1 3q-2 3 -4 5q-1 8 -1 24q2 15 13 25v24q-10 10 -13 8q8 13 8 19q0 3 -6.5 11.5t-6.5 14.5q0 31 14 82q7 25 31 51q41 43 77 44q7 -1 23 4q55 -16 44 -57q-10 -40 -23 -40q-9 0 -13 -4l-8 8q-7 -7 -18 -24q-4 1 -13.5 -6.5 t-13.5 -15.5q-9 -19 -9 -49q0 -7 7 -57q5 -39 8 -76q-2 -14 -1 -76q0 -19 -1 -39q-2 -28 0 -45q2 -29 5 -41q-9 -26 -9 -63q0 -46 13 -99q31 -17 47 -17q86 -53 0 -108zM85 440h20v8h-20v-8zM101 406q-3 0 -10 -7q-8 8 -15 8q0 -2 5 -11t5 -10q1 2 7.5 10t7.5 10zM71 378 q-5 5 -19 5q4 0 4 -10q5 5 15 5zM65 328l2 6l-11 6l-2 -7zM71 251l6 12l-6 2l-6 -11z" />
<glyph unicode=")" horiz-adv-x="377" d="M144 -7q-86 55 0 108q16 0 47 17q13 53 13 99q0 37 -9 63q3 12 5 41q2 17 0 45q-1 20 -1 39q1 62 -1 76q3 37 8 76q7 50 7 57q0 30 -9 49q-4 8 -13.5 15.5t-13.5 6.5q-11 17 -18 24l-8 -8q-4 4 -13 4q-13 0 -23 40q-11 41 44 57q16 -5 23 -4q36 -1 77 -44q24 -26 31 -51 q14 -51 14 -82q0 -6 -6.5 -14.5t-6.5 -11.5q0 -6 8 -19q-3 2 -13 -8v-24q11 -10 13 -25q0 -16 -1 -24q-2 -2 -4 -5l-1 -3q4 -19 2 -40q-13 1 -17 -3q2 -2 6.5 -5t7.5 -5.5t3 -3.5q-9 -8 -4 -13q-7 3 -17 3q-9 0 -9 -14q2 -1 5.5 -4t5.5 -6l3 -2q5 8 3 11q-4 4 -6 4 q2 -1 6 -4t7 -5l3 -2q4 4 12 2q-11 -11 -12 -29q-2 -19 -1 -34l1 -31q7 -10 6 -14q-3 -6 -5 -17v-17q1 -7 1 -13v-83q-2 -41 -13 -68q-17 -21 -23 -26q-13 -27 -25 -35q-8 -5 -46 -23q-39 -17 -43 -17zM227 440h20v8h-20v-8zM231 406q2 -2 8 -10t7 -10q0 1 5 10t5 11 q-7 0 -15 -8q-7 7 -10 7zM261 378q10 0 15 -5q0 10 4 10q-14 0 -19 -5zM265 334l2 -6l11 5l-2 7zM255 263l6 -12l6 3l-6 11z" />
<glyph unicode="+" horiz-adv-x="486" d="M221 517l67 -5l4 -63q1 -1 -2 -24q-2 -27 -1 -32q0 -4 1 -8q61 1 117 -1q3 -2 19 -23l-5 -67l-63 -4q-1 -1 -24 1q-24 3 -32 2q-1 -1 -3 -1q-3 -1 -4 -1v-4q0 -54 1 -59q1 -4 1.5 -14t0.5 -15q1 -4 -1 -31q0 -11 4 -18q-31 -2 -36 0q-4 -3 -17 -5q-2 0 -18.5 2t-22.5 2 q-12 15 -12 17l2 121h-1q-54 0 -59 -1q-4 -1 -14 -1.5t-15 -0.5q-4 -1 -31 1q-11 0 -18 -4q-1 31 0 36q-3 4 -5 17q0 2 2 18.5t2 22.5q15 12 17 12l122 -2q-2 79 1 113q2 3 23 19z" />
<glyph unicode="," horiz-adv-x="406" d="M311 96q-5 -5 -9 -53q-5 -49 -4 -57q-11 -15 -22 -15q-7 0 -9 7l-2 6q-4 -2 -2 -13q3 -15 3 -18q-13 7 -17 1q-1 -4 5 -10q11 -11 12 -13q-14 5 -27 21q-4 -22 -53 -31q-8 18 -8 44q0 103 8 124q17 7 51 34l7 -9q6 -9 13 -9q29 0 54 -9z" />
<glyph unicode="-" horiz-adv-x="497" d="M426 361l-5 -67l-63 -4q-1 -1 -24 1q-24 3 -32 2q-8 -3 -39 -4q-30 -2 -67 -2q-54 0 -59 -1q-4 -1 -14 -1.5t-15 -0.5q-4 -1 -31 1q-11 0 -18 -4q-1 31 0 36q-3 4 -5 17q0 2 2 18.5t2 22.5q15 12 17 12l188 -3q97 3 144 0q3 -2 19 -23z" />
<glyph unicode="." horiz-adv-x="361" d="M138 9q-15 0 -31 19q-15 20 -15 31q0 18 28 40q29 23 48 23t31 -16t12 -40q0 -26 -24 -43q-20 -14 -49 -14z" />
<glyph unicode="/" horiz-adv-x="421" d="M240 750l2 -15l-7 2l-2 12zM263 368q-19 -16 -29 -24q9 -26 6 -37q-7 -10 -21 -29q-21 -29 -27 -52t-1 -59q1 -10 2.5 -18.5t2.5 -12.5v-4q-2 -8 -21 -23q-17 -14 -22 -24l-5 2q-10 2 -16 8q-3 -1 -4 -4t2 -8q1 1 0 2t-3.5 2t-5.5 1q-9 3 -23 -6q-2 -10 8 -25 q-12 3 -24 1q-2 -9 11 -22q10 1 20 0q16 -4 35 -31h-61l-20 5q-8 24 -2 47q2 9 12 32t11 28q4 13 1 26q-3 3 -2 7q1 3 9 14t9 14q15 42 35 120q1 5 13 42q6 19 10 43q12 0 15 11q4 17 -2 40q6 8 7 14t3 25t3 25q4 16 16 23q-8 13 -14 21l16 20v18v1q16 5 20 24q-1 1 -1 2 q-1 2 -1 3q-11 -6 -13 -5q5 10 9 20q2 10 -1 22t-3 13q1 3 10.5 13.5t11.5 17.5q2 8 3 19l9 13q3 10 2 29q-2 21 -7 25q16 23 24 28q10 7 35 1q11 -3 16 -17q3 2 5 7q16 -4 27 -15l14 4q0 -3 -15 -11q6 -11 2 -24q-1 -4 -9 -16t-9 -16q-2 -9 1 -19h-37q7 -6 29 -10 q-3 -17 3 -45l-6 3q-8 -6 -20 -14l-13 -51q3 -4 8 -6q-1 -4 -7 -16t-6 -15q-3 -10 9 -14q-22 -39 -32 -81v-13q0 -9 -2 -19q-1 -6 -6 -11q0 -13 6 -39zM326 777l18 1l-1 6l-15 -1zM300 660l8 10l-5 4l-9 -9zM307 641l8 -2l3 11l-8 2zM192 157l-6 -3l-4 8l5 4z" />
<glyph unicode="0" horiz-adv-x="463" d="M219 74l-6 7l-5 -5l6 -6zM403 403l-5 -83q-5 -75 -6 -154l5 -9q-5 -35 -9 -62q-5 -19 -25 -36q-12 -9 -36 -29q-4 -6 -18 -19q-21 -10 -45 -10q-6 0 -4 6l-4 3q-7 0 -9 -5q-3 -8 -4 -8t-7.5 4t-10.5 4q-2 -1 -7 -2l4 -5l-2 3q-1 3 -4 6t-7 3q-3 0 -10 -4.5t-9 -4.5 q-8 0 -33 18q-5 4 -16.5 12t-17.5 12q-1 1 0 9q-28 11 -29 38q-6 2 -15 9q0 4 -5 20.5t-5 22.5t3.5 30.5t3.5 32.5q0 5 -4.5 24t-4.5 24v51q0 6 -2 14l-5 6l2 5l3 -1l2 1q5 42 5 63v37q-1 3 -6 13q2 36 2 63q0 30 -1 54t-1 55q0 9 13 39q1 9 -1 50q11 0 30 31l24 42 q7 2 25 8q9 5 14 20q5 -1 17 -1q6 0 26.5 1t26.5 1q32 0 75 -22q49 -25 49 -53q0 -6 -8 -11q8 -7 26 -23q0 -18 -7 -25q20 -25 20 -42q0 1 -6 -30l6 -7l-6 -4v-6q0 -4 2.5 -18.5t2.5 -19.5q0 -19 -15 -19q12 -15 14 -49q0 -9 -0.5 -26.5t-1.5 -26.5v-2l6 -7q5 -6 5 -11z M313 115q2 10 2 12q0 6 -13 13q1 7 1 25q0 19 -3 56t-3 57v192q0 28 3 87q4 52 4 87q0 5 -10 45q-31 28 -54 28q-22 0 -50 -23q-26 -22 -28 -45q-10 -239 -10 -475l4 -21q3 -21 1 -28l32 -15q17 -10 12 -30q9 4 20 13q1 -4 9 -13v4q0 9 4 13q0 -5 4 -13q20 20 41 18 q3 22 18 22q9 0 16 -9zM254 87h16v8h-16v-8zM133 132l-1 4h-10l6 -21q5 7 5 17zM157 74l13 6l-2 6l-11 -6v-6zM157 87q-1 1 -10 11q-5 6 -13 6h-4q4 0 9 -5q-7 -5 -12 -14q7 -5 24 -9q5 5 6 11z" />
<glyph unicode="1" horiz-adv-x="361" d="M308 75q0 -4 -5.5 -17t-5.5 -14q6 -14 4 -18q0 -1 -1.5 -6t-2.5 -8q-9 -14 -18 -14q-4 0 -6 2t-5 2q-4 0 -14 -6.5t-13 -6.5t-17 2t-18 2q-8 0 -16 8.5t-8 16.5t3 212q-2 38 -7 314q-1 0 -13 8t-17 8q-11 0 -68 -57q-25 15 -25 62q0 69 6 83q5 11 67 78q44 48 80 76 q30 6 33 6q19 0 33 -11q14 -20 14 -51q0 -6 -1.5 -28t-1.5 -28q0 -20 6 -34q2 -75 -1 -195q3 -3 13 -3q0 -2 -9 -10q4 -3 9 -3q0 -32 -13 -55q4 -4 0 -194q8 -13 8 -36q0 -1 -2 -33q-1 -13 -1 -29l7 -10q6 -9 6 -13zM233 572h21v8h-21v-8z" />
<glyph unicode="2" horiz-adv-x="497" d="M440 35q0 -12 -20 -27t-31 -15q-34 0 -90 7q-58 6 -88 6q-7 0 -31 -4.5t-32 -4.5q-3 0 -15 4.5t-16 4.5q-2 0 -6.5 -4.5t-8.5 -4.5q-14 0 -23 15q-8 13 -8 27q0 5 6 13t6 10t-3.5 12t-3.5 13l9 17q9 25 35 89l182 454q-3 11 -21 48q-32 23 -44 23q-13 0 -32 -12 q-18 -11 -26 -22q-7 -10 -16 -68q-7 0 -31.5 -5t-32.5 -5q-37 0 -37 43q0 28 20 71q21 42 44 62q17 14 56 24q34 10 62 10q4 0 13.5 -4t11.5 -4q153 -27 153 -150q0 -24 -12 -56q-1 -4 -9.5 -23t-12.5 -30q-3 -13 -9 -42q-2 -2 -24 -52q-113 -249 -135 -249q-7 0 -9 5 q-3 -3 -4 -16q3 -11 3 -18q0 -5 -5 -20t-5 -20q0 -12 19 -25t34 -13q33 0 47 9l9 -9q17 23 75 23q56 0 56 -87zM100 190l2 -6l-13 -6v6zM178 182h12v8h-12v-8zM276 54l5 4l-7 7l-4 -5zM256 52l-1 2l-10 5v-22q11 11 11 15zM207 36l11 11l-4 5l-11 -11zM168 66q0 13 -13 25 t-25 11h-2q12 -7 32 -31q-1 -1 -9.5 -2.5t-8.5 -6.5q0 -11 5 -11h16l1 2q2 2 3 5.5t1 7.5z" />
<glyph unicode="3" horiz-adv-x="469" d="M409 269q0 -5 -2 -55q-1 -25 -1 -56q0 -17 3 -20q-3 -8 -13 -41q-3 -9 -22 -40q-3 1 -9 -1v-11q0 -2 -1 -2q-2 0 -5 2t-5 2q-6 0 -5 -12q-1 0 -15.5 -11.5t-19.5 -11.5q-4 0 -4 1v1q0 2 -4 2q-6 0 -30 -11t-27 -11l-1 3q-2 3 -4.5 6.5t-6.5 3.5q-19 0 -55 -17 q-8 11 -39 29q-32 18 -36 34q-6 3 -16 13q-9 9 -20 39q-9 29 -9 43q0 53 33 53q7 0 30 -5.5t27 -5.5q8 -5 13 -13q8 -50 5 -61q21 -18 27 -39q8 3 14.5 5t11 3.5t7.5 3t4 1.5l1 1q3 0 13 -4.5t14 -4.5h6l-2 4q-3 -22 -3 -15q0 -5 7 -11q6 4 6 8q0 2 -1.5 7t-1.5 6 q27 2 30 14q7 0 15 -9q3 8 3 15q0 12 -6 24l4 -4q2 2 2 5q0 4 -6 16t-6 15q4 -4 7 -4q2 0 5 3q1 4 -4.5 9t-17.5 10q0 1 4.5 4.5t4.5 8.5q0 70 -12 137q-9 7 -35 18q-25 12 -35 12q-2 0 -5 -2.5t-5 -2.5q-49 0 -49 55q0 68 46 68q3 0 5 -2t6 -2q28 0 51.5 17.5t23.5 42.5 v131q0 15 -15.5 33t-30.5 18q-7 0 -17 -3q-16 -1 -20 -7.5t-9 -7.5q-3 0 -5.5 1.5t-4.5 3t-3 2.5l-2 2q-5 -4 -8 -11.5t-12 -13.5l8 -8q-5 -20 -15 -50q-33 -18 -51 -18q-30 0 -41 9.5t-11 38.5q0 50 34 94q34 45 82 58q21 6 86 6q28 0 65 -31q32 -27 47 -58q5 -11 13 -79 q7 -56 7 -84q0 -22 -8 -88q-19 -19 -19 -42q0 -7 13 -42q14 -38 16 -48q11 -47 11 -66zM313 113l5 -13h-6l-6 11zM351 503l11 11l-5 4l-11 -10zM363 175h8v16h-8v-16zM372 141q-5 0 -5 11q0 -5 -11 -16q5 3 16 5zM348 130l5 12l-6 2l-6 -11zM360 101q-1 2 -3.5 5t-6 7 t-6.5 8l-1 -2q-1 -2 -2.5 -5.5t-1.5 -7.5q0 -8 11 -19q2 14 10 14zM322 116h16v7h-16v-7zM351 56q0 6 -6 13q0 -4 -5 -9q-4 4 -9 4q0 -10 4 -17q4 4 16 9zM252 56l5 21h-8l-5 -21h8zM215 52h6l-5 13l-6 -3zM150 54h16v8h-16v-8z" />
<glyph unicode="4" horiz-adv-x="480" d="M322 38l6 -13h-7l-5 10zM321 2q-10 10 -13 10q-2 0 -3 -1v18q0 7 2 13q1 -2 14 -40zM273 777q0 -5 -8 -24q-7 -17 -7 -25q-2 -24 -2 -25q-3 -14 -15 -17q0 -6 9 -6q-5 -8 -5 -12q-12 2 -15 2q-2 0 -9 -1.5t-8 -1.5q-4 0 -10.5 9t-10.5 9t-4 -1v-2q0 -1 -5 -1q-3 0 -13 7 t-13 7v56l2 1q2 2 6 5l8 6q13 7 13 16q0 8 -7 16q22 11 38 11q56 0 56 -29zM429 123q-14 6 -16 8q-14 -14 -30 -34q-3 -13 -3 -75q0 -6 -10 -16h-15q-28 25 -28 41q0 7 4 11q0 7 -13 7l10 10t11 12.5t4 10.5q0 7 -7 14q9 0 17 8q-3 3 -11 20q-2 0 -7 -2t-9 -3 q-5 -12 -20 -28q0 -3 -9 -3q-6 0 -6 18q0 3 3 7t5 6.5t1 3.5q1 0 3 -1t3 -1q4 0 4 4t-13 26q-3 -4 -3 -13l-12 3h1q-3 0 -6 -3q18 -16 18 -22q-9 -2 -12 -5l-1 6q-2 6 -3.5 15t-1.5 16l-7 7q-8 -8 -8 -11q-1 4 -8 7l-3 -6l4 -4q-8 -8 -19 -8v-16q0 -4 -1 -6q-11 14 -11 20 t4 13q-1 1 -5 4t-7.5 6t-7.5 6q-1 -1 -1 -4q0 -5 8 -13q-3 0 -13 -7t-14 -7t-7 1.5l-5 2.5l-2 1q-2 -4 -2 -16t-2.5 -19t-10.5 -6q-5 0 -5 1q2 4 2 5t-1 1l-1 2l-1 -4q-1 -4 -3.5 -7t-6.5 -3q-35 0 -55 5l-9 -9q-15 5 -21.5 11t-7.5 11t-1 18q0 75 24 182q1 3 8.5 13.5 t7.5 11.5l-1 3q-2 4 -4 8.5t-2 7.5q0 4 5.5 18.5t5.5 15.5l-3 2l-4 -2q7 14 17 19q-4 4 -9 4q11 16 10 44v47q7 9 16 14q0 1 0.5 9t0.5 10t0.5 9.5t1 10t1.5 8.5t3 9.5t4 8.5t5 8.5t7 6.5q-7 15 -7 26q0 5 1 8q6 2 9 6q0 2 2.5 10t2.5 10q0 5 -7 12h30q0 -10 1 -13 q36 -15 62 -41q-7 -26 -12 -72q-6 -54 -9 -73q-2 -9 -10 -31q-8 -27 -8 -28q0 -2 3 -8t3 -7v-1q-21 -66 -27 -86q-2 -5 -16 -25q-9 -13 -9 -41q0 -6 9 -22q7 -13 11 -25q4 1 12.5 -1.5t10.5 -2.5q4 0 4 1v2q0 1 5 1q11 0 19 -2q7 -7 21 -29q6 0 16 3v8q-2 1 -11 6t-16 8 q1 0 11 3q5 1 13 -1q17 32 17 64q0 26 -10 49v56q1 0 5.5 1.5t11.5 3.5t15 5q24 8 28 8q6 0 26 -6.5t23 -6.5q11 -16 11 -51q0 -18 -7 -28q2 -20 2 -31q0 -22 -4 -39q41 -11 50 -38q4 -12 4 -67zM375 156l-26 5l2 -5q0 -5 -4 -5q3 0 8 -5h1q9 0 19 10zM102 134v8h-12v-8h12z M233 769l13 5l-2 7l-11 -6v-6zM220 763h10q-4 0 -4 11q-9 -6 -16 -12q6 0 10 1zM220 706h12v7h-12v-7zM139 560l6 12l-7 2l-5 -12zM402 178q-3 4 -1 16l-8 -11q-8 -11 -8 -15q7 0 17 10zM314 161h21v8h-21v-8zM267 140q-8 -16 -28 -36q-6 8 -6 18q16 0 34 18zM166 188h17v7 h-17v-7zM121 170q-5 0 -13 6v-14q-18 0 -18 -8q2 0 9 1t9 1q1 0 7 -2q0 10 6 16z" />
<glyph unicode="5" horiz-adv-x="438" d="M394 351q-7 -10 -10 -43q-2 -32 -5 -37q3 -42 3 -66q0 -153 -86 -191q-8 -16 -16 -16q-10 0 -47 -4q-36 -4 -47 -4q-4 0 -25 9q-22 8 -27 8q-4 0 -6 -2t-5 -2q-7 0 -27 18q-18 18 -24 31q-3 5 -8 31q-1 1 -6 5.5t-8 7.5q0 3 -5 21.5t-5 22.5q0 23 19 51q25 -5 67 -5 q6 -11 8 -36q11 -13 33 -41q26 -31 49 -32q11 9 9 14q5 3 14.5 8t15.5 8t11.5 8t7.5 9q15 28 15 62q0 21 -17 47q10 0 17 9v64q-5 10 -5 24q0 21 -1 24q-5 18 -17 30q-21 21 -36 21l-29 -6q-6 -4 -24 -20l-8 9q-6 -6 -9 -20q-23 -20 -46 -20q-10 0 -55 15q-11 14 -11 22 q0 3 3 21t3 23q8 247 4 315q-1 35 8 49t35 14l35 -5q7 -1 47 -5q-1 -2 -0.5 -4t2.5 -2.5t6 -0.5q2 0 8 4.5t11 4.5q4 0 12.5 -4.5t11.5 -4.5q4 0 7 4.5t6 4.5q4 0 6 -1.5t3 -3.5l1 -3q3 -1 41 -1q4 0 6 2t2 4l1 1q7 -1 20 0q5 0 9.5 0.5t7.5 0.5l2 1q9 0 20 -11 q15 -8 15 -40q0 -63 -57 -63q-4 0 -11 2t-14 5t-8 3l-33 -1q-16 0 -38 22q-2 0 -6 -4q-3 -2 -3 0q-2 0 -12 8q-14 -17 -14 -21q0 -3 2 -9q-10 10 -3 23l-4 3q-3 2 -8 6t-8 7l-8 -5q-9 -5 -16 -9q10 -8 18 -8q5 0 8.5 -3t4.5 -3q-13 -7 -37 2q-4 -11 -16 -29l12 -11q4 0 9 -5 t6 -5q-9 2 -20 10l-11 -11q12 -14 33 -39q-1 -2 -1 -7q0 -12 12 -38q14 -30 15 -36q4 -3 12 -8t12 -8q17 -10 42 -10q3 0 6 2t7 2q17 0 70 -41q26 -21 53 -65q0 -4 4 -28q4 -20 15 -25zM193 63l5 4l-6 7l-5 -5z" />
<glyph unicode="6" horiz-adv-x="433" d="M386 647h5q0 -14 -2 -20q-7 -12 -29 -12q-4 0 -9.5 -4t-8.5 -4q-10 0 -27 9t-23 18q-22 46 -36 58t-43 12q-14 0 -16 -1q-13 -9 -30 -25q-13 -16 -13 -54q0 -18 6 -53q6 -37 12 -45q6 -2 15 -6q0 -11 11 -11q1 0 5 -0.5t11.5 -1t15.5 -0.5q38 -2 42 -2q2 -2 7.5 -6t8 -6 t8 -6t8 -4.5t8 -3.5t7.5 -2t7 1q-3 -16 25 -29q2 -4 13 -43q16 -9 16 -40q0 -14 -8 -24q0 2 6 -9q5 -46 1 -64q2 0 -1 -6t-12 -22q5 -7 18 -17v-59q-4 -17 -17 -53q-1 -4 1 -5.5t7 -1.5q-4 -10 -58 -86q-10 -3 -34 -14l-23 -10q-1 0 -3 0.5t-5 0.5t-7.5 0.5t-9.5 0.5 q-15 1 -30 -1q-8 8 -14 8q-3 0 -6 -4.5t-7 -4.5q-5 0 -10 6.5t-6 6.5l-11 -9q-7 7 -26 20q-22 17 -26 22q-11 11 -21 33q-10 21 -22 28v215q7 6 22 21q-14 8 -18 23q-2 6 -4 12.5t-3 9.5t-1 4v181q-1 62 7 99q3 19 9 44q4 20 26 47q26 30 51 30q5 0 22 -12q19 -13 24 -16 q0 -4 5 -16q0 1 14 11q10 7 17 7q4 0 12.5 -2.5t10.5 -2.5l-2 -9q-2 -8 2 -13q5 2 19 0q14 -3 21 -1q-2 -8 -2 -11q0 -11 16 -12q15 -1 18 -4q0 -9 13.5 -20.5t23.5 -11.5q3 0 7 2q0 -6 -4 -10q9 -9 24 -20zM363 366l4 4l-6 7l-5 -4zM299 147v29q-17 5 -17 11q4 1 10 9 l2 134q0 17 -23 52q-16 25 -35 25q-24 0 -50 -19q-27 -21 -31 -40q-4 -13 -4 -34q0 -14 3 -44q3 -31 2 -42q0 -11 -6 -35q-5 -25 -5 -27q0 -26 9 -51q26 0 31 -3l-9 -8q3 -7 16.5 -16t20.5 -9q53 0 76 41q-1 8 10 27z" />
<glyph unicode="7" d="M368 661v-7h-16v7h16zM404 757q0 -9 -6 -16q-2 -2 -3.5 -4t-3 -3.5l-2.5 -2.5t-1 -2l-1 -1q3 -4 12 -3q0 -19 5 -22h-5q-6 -1 -10 9q-2 -6 -2 -10q0 -11 4 -15h-1q-11 0 -23 12l-7 -6q4 -2 10.5 -15.5t7.5 -14.5q-1 0 -11 10q-4 -1 -4 -7q0 3 -3 5t-6 3l-3 1l5 12 q1 1 1 2q-1 1 -8 1q-3 0 -5 -4t-6 -4q-3 0 -2 7q-2 2 -15 2q-2 0 -5 -3q16 -10 16 -20q0 -8 -7 -15q11 -11 31 -17q-7 -4 -7 -15q0 -2 1 -6q4 4 10 4q-3 -23 -22 -33q4 -18 13 -40q-9 3 -11 8q1 -3 1 -9q0 -4 -2 -14t-2 -12q0 -10 10 -17h-2q-7 2 -24 -9q0 -6 -2 -48 q0 -1 -5 -7t-8 -10q1 -4 1 -15q0 -34 -10 -61q-29 -76 -81 -228q-16 -48 -27 -111q-3 -15 -14 -15q-7 0 -33 -2.5t-33 -2.5q-5 0 -13 7t-9 7q6 8 13 20l-5 1q2 4 12 14q9 8 9 15q0 6 -7 10q15 0 21 -12q6 0 6 13q6 -5 19 -13q1 1 1 4t-7 17h22q-14 14 -20 14q-4 0 -14 -8 q-6 16 -28 23q12 29 10 41q8 6 15 14q0 21 7 53q21 47 48 180q3 6 10 21.5t10 23.5q25 68 29 107q5 0 10 -5l7 19q7 17 7 19q0 1 -1 6t-1 7v1q16 19 22 19q2 2 2 3q0 3 -7 16q0 12 19 12v17q0 -3 5 -8q1 5 6 15q-2 2 -29 2q-2 4 -2 8v7q1 3 1 7q11 0 19 -8q7 6 7 9 q0 10 1 11l-3 2q-5 -5 -22 -5q-8 0 -24 10q-19 11 -24 12l-3 -4l4 -2l-37 11l-3 -6q-3 -3 -4 -5q1 0 5.5 -1.5t12.5 -4.5t17 -6q0 -14 -16 -21v6q0 10 3 13q-6 7 -19 7q-3 0 -5.5 -1.5t-3.5 -3t-2 -3.5l-1 -2q-8 -11 -15 -32q-2 0 -24 -13q3 -3 8 -3q0 -24 -10 -61q0 1 -2 4 t-3.5 4t-5.5 1q-7 0 -48 -9q0 1 -7 23q-4 2 -15 9v3q2 22 2 48v11h-1q-6 0 -6 10q0 11 14 92q17 16 47 16q3 0 13 -4.5t14 -4.5q2 0 8.5 2t8.5 2q57 0 82 -17q22 22 44 22q-5 0 39 -9q5 5 4 22q10 -13 50 -21q28 -4 28 -36zM117 90v-17l-7 1h-2q-7 0 -10 -3q1 7 8 24 q8 -5 11 -5zM321 627h17v8h-17v-8zM105 681l5 4l-7 7l-4 -5zM118 654h21v7h-21v-7zM193 200l6 12l-7 2l-5 -11zM158 212h16v8h-16v-8zM161 182l11 11l-5 4l-11 -10zM145 146h16v8h-16v-8zM140 30h21v16q-8 -2 -21 -16z" />
<glyph unicode="8" horiz-adv-x="421" d="M198 56l-5 5l-11 -11l4 -5zM364 341l7 -7l-5 -4l-6 7zM379 654q-4 -4 -19 -2q-1 -1 -1 -3l3 -6q3 -6 3 -9q0 -4 -20 -26q-20 -20 -23 -27q-5 -13 -28 -59q2 38 2 45q0 21 -3 38h1q5 0 5 9q0 58 -19 83q-13 15 -40 20q-28 5 -32 10q-16 -24 -56 -65v-137q12 -12 30 -47 q33 -13 39 -13h35q14 0 23 19q12 29 13 29q18 -13 28 -49q11 -34 17 -59v-1q0 -2 -4 -13q15 -24 15 -35q0 -10 -9 -15v-11q1 -4 6 -12q10 8 15 8q0 -3 -6 -10.5t-6 -8.5q3 -4 8 -4q4 0 7 4q-1 -1 -1 -5q0 -2 1.5 -7.5t1.5 -7.5l-11 1q-7 0 -11 -4q10 -10 12 -10h17q1 0 7 -2 q0 -4 -15 -3q-1 -2 -1 -7q0 -1 5 -18q-8 -40 -8 -54q0 -27 14 -43v-25q-2 0 -11 -6.5t-13 -6.5q-5 0 -14 9q-13 -6 -13 -20q0 12 -6 18h3q6 0 10 6q-6 9 -16 9q-6 0 -24 -8q13 7 27 19l-8 7q-2 0 -7 -4t-7 -4q1 13 7 59q0 1 5 3.5t5 7.5q0 4 -12 19q-6 44 -10 66 q-5 34 -39 50l-1 1q-1 1 -2.5 2t-4 3t-4.5 4q-7 6 -18 6l-19 -5q-20 -5 -34 -8q-15 -17 -29 -30l1 -5q0 -4 -9 -65q2 -4 6 -5q2 -16 2 -29q0 -15 -2 -29q0 -2 -6 -13t-6 -15q0 -8 7 -12q1 -11 13 -43q11 -7 33 -29q45 -5 52 -6q5 -3 5 -11q0 -6 -3 -12q12 -3 14 -6 q3 -7 6 -10q4 7 3 26q25 0 31 -8q-1 -2 -1 -5q0 -1 2 -5q11 14 11 17q0 8 -13 12l12 11q11 -11 11 -22q0 -9 -11 -31q-11 1 -36 14q-5 -10 -5 -16t3 -10q-1 0 -14 -9q-7 -6 -15 -6q-2 0 -3.5 1.5t-2 3t-2 3t-3.5 1.5q-1 0 -3.5 -0.5t-7.5 -1t-10 -0.5q-9 -1 -20 1 q0 -1 -28 -10q2 0 6 4q-30 21 -42 21q-4 0 -4 -1l4 -3q-1 -1 -4 -1q-6 0 -13 6q-7 5 -11 9v15q0 6 -22 28q-21 23 -21 63q0 7 2.5 30t2.5 29l-2 2q-2 2 -3.5 5t-1.5 7q0 12 7 22q-4 20 -4 29q0 5 2 15q-2 8 -2 15q0 4 1 16t1 15q1 1 10 7q6 4 6 9q0 1 -1.5 8t-0.5 9v2 q3 2 10 9q6 11 6 35q0 26 -11 56l-11 29v133q0 6 15 19q0 3 -5 21t-5 25q0 4 10 14t10 11q2 13 8 27q25 35 48 48q13 8 48 19q31 10 49 10l3 -1q3 -1 9.5 -3.5t16.5 -6t23.5 -8t29.5 -10.5q3 -3 16.5 -19.5t23.5 -28.5l5 -22q5 -17 15 -24q-2 0 -9.5 1t-9.5 1q-3 0 -7 -2 q3 -3 17 -3v-4q0 -11 -4 -15q2 -1 8 -5.5zM352 95q0 -1 -4 -11t-2 -14q-9 -8 -28 -33v19q0 24 -15 28l11 11q9 -9 17 -9q9 8 9 22q3 -1 8 -4q4 -1 4 -9zM178 34q0 11 -17 19q8 8 8 12q0 3 -1 4q-18 -12 -25 -15q12 -17 35 -20zM92 503l2 6l-17 6v-7zM332 209l3 7l-21 10 l-2 -7zM110 325l2 6l-11 6l-3 -6zM271 78h-8q-9 0 -13 3h2q4 0 9 -3q1 0 2.5 6.5t3.5 6.5q4 -7 4 -13zM251 67l-5 -12l-7 3l6 11zM89 183l11 16l-6 4l-10 -16z" />
<glyph unicode="9" horiz-adv-x="450" d="M401 402v-277q0 -14 -26 -54t-32 -42q-5 -1 -11 -3t-9.5 -3t-6 -1.5t-3.5 -1.5h-1h-10l-3 1q6 10 4 16q-11 -14 -2 -25l-67 -14q-9 0 -34 4q-32 5 -35 5q-4 0 -16.5 9.5t-14.5 10.5q-49 16 -67 63q-12 28 -12 57q0 54 37 54l32 -6q6 -12 21 -12q0 -6 -8 -14l7 -7q8 8 8 9 v-3q1 -2 2.5 -6.5t2.5 -10.5q-4 1 -5.5 -1t-1.5 -7q0 -10 14 -36q-3 -17 4 -27q2 2 2 15q0 -6 8 -6q4 0 4.5 2t4.5 2t15 -7l10 -8q0 -1 1 -4.5t2 -7.5l2 -8q9 9 13 5l2 -14q5 0 10 14q1 0 2 -3l2.5 -7.5t4.5 -7.5q1 5 14 31q0 -5 8 -26q6 13 22 39q0 -14 11 -14q0 25 -4 85 q-4 53 -2 99q-4 10 -17 21.5t-23 12.5q-4 0 -23 3q-16 4 -24 4q-4 0 -9 -4t-9 -4t-5.5 1.5t-2.5 3.5l-1 2q-85 9 -125 93q-11 24 -11 70q0 13 2 37.5t2 36.5q0 10 2 90q-1 7 -9 7q0 1 7 11q-1 13 2 39q18 40 22 48q11 17 50 39q42 24 55 35q7 -9 29 -9q8 0 33 3q19 1 28 0 q32 -16 75 -35q3 -7 14 -29q26 -35 30 -64q1 -21 1 -62q1 -14 -1 -85q0 -18 -0.5 -40t-1 -34t-0.5 -18q0 -2 5.5 -14t5.5 -16zM298 135v-11h-7v11h7zM314 553q0 58 -10 91q-10 18 -18 34q-3 2 -9.5 8t-9.5 9q-10 3 -29 24q0 -6 -19 -6q7 -6 2 -11q-1 0 -6.5 2t-10.5 2 t-10 -2l-3 -1q-3 -16 -7 -19q-16 -10 -28 -31q1 -6 -1 -23q4 0 8 -4q-13 -14 -13 -45q0 -6 14 -88q-4 -7 -4 -21q0 -23 9 -50q30 -27 65 -27q17 0 37 13q21 13 24 28q3 32 12 90q0 2 3.5 12t3.5 15zM360 157l11 10l-4 5l-11 -11zM297 57q-4 0 -13 -9l12 -11q0 19 1 20z" />
<glyph unicode=":" horiz-adv-x="313" d="M138 9q-15 0 -31 19q-15 20 -15 31q0 18 28 40q29 23 48 23t31 -16t12 -40q0 -26 -24 -43q-20 -14 -49 -14zM147 422q-7 0 -26 10q-20 11 -30 14q3 6 10 14q6 8 6 16q0 4 -2.5 8t-2.5 9q0 18 25 28q19 9 40 9q10 0 26 -22q17 -23 17 -32q0 -24 -29 -41q-22 -13 -34 -13z " />
<glyph unicode=";" horiz-adv-x="313" d="M147 422q-7 0 -26 10q-20 11 -30 14q3 6 10 14q6 8 6 16q0 4 -2.5 8t-2.5 9q0 18 25 28q19 9 40 9q10 0 26 -22q17 -23 17 -32q0 -24 -29 -41q-22 -13 -34 -13zM208 91q-2 -2 -7 -42q-5 -37 -3 -48q-14 -12 -19 -12t-6.5 5.5t-2.5 5.5q-3 -3 -1 -11q0 -3 0.5 -6.5t1 -5.5 t0.5 -3q-10 5 -14 1q-2 -3 5 -8q7 -7 9 -11q-12 5 -22 18q-4 -19 -44 -26q-6 14 -6 36q0 87 7 101q13 6 41 29q1 0 6 -7.5t11 -7.5q20 0 44 -8z" />
<glyph unicode="&#x3c;" horiz-adv-x="606" d="M86 402q8 16 16 23.5t16 10t31 8t46 14.5q14 10 48 28q22 2 65 12q90 40 185 76q5 -5 8.5 -11.5t6 -12t4 -12.5t2.5 -11t1.5 -9l0.5 -5q0 -16 -13 -43t-24 -29q-47 -10 -67 -10h-3h-30q-20 -16 -68 -55q3 -8 17 -17q3 -2 3 -1q0 -14 34 -35l8 -8q1 3 6 3h44q7 -9 53 -25 q35 -12 35 -43q0 -52 -4 -65v-6q-12 -8 -24 -14q-79 58 -298 123q-71 21 -78 21q-25 12 -25 55q0 21 4 38z" />
<glyph unicode="=" horiz-adv-x="499" d="M438 415l-5 -67l-63 -4q-1 -1 -24 1q-24 3 -32 2q-8 -3 -39 -4q-30 -2 -67 -2q-54 0 -59 -1q-4 -1 -14 -1.5t-15 -0.5q-4 -1 -31 1q-11 0 -18 -4q-1 31 0 36q-3 4 -5 17q0 2 2 18.5t2 22.5q15 12 17 12l188 -3q97 3 144 0q3 -2 19 -23zM66 198l6 67l63 3q1 1 24 -2 q24 -3 32 -2q8 3 39 4q32 2 67 1q52 -1 59 0q4 1 14 1.5t15 0.5q4 1 31 -1q10 0 18 3q0 -33 -1 -36q3 -4 5 -17q0 -2 -2 -18.5t-2 -22.5q-17 -11 -18 -11l-187 5q-108 -2 -144 2q-3 2 -19 23z" />
<glyph unicode="&#x3e;" horiz-adv-x="614" d="M520 307q-8 -16 -16 -23.5t-16 -10t-31 -8t-46 -14.5q-14 -10 -48 -28q-22 -2 -65 -12q-90 -40 -185 -76q-5 5 -8.5 11.5t-6 12t-4 12.5t-2.5 11t-1.5 9l-0.5 5q0 16 13 43t24 29q47 10 67 10h3h30q20 16 68 55q-3 8 -17 17q-3 2 -3 1q0 14 -34 35l-8 8q-1 -3 -6 -3h-44 q-7 9 -53 25q-35 12 -35 43q0 52 4 65v6q12 8 24 14q79 -58 298 -123q71 -21 78 -21q25 -12 25 -55q0 -21 -4 -38z" />
<glyph unicode="?" horiz-adv-x="497" d="M277 484q52 -26 53 -26q3 3 3 10q-3 2 -4 1q-6 -2 -9 -2q-4 0 -10.5 5.5t-13 12l-7.5 7.5q13 0 17 3q-9 9 -7 15q10 10 22 31q12 18 12 49q0 4 -3 17.5t-3 15.5q3 28 -13 54q-20 32 -54 32q-31 0 -50 -37q-16 -31 -15 -58q0 -1 -2 -4.5t-3.5 -5t-5.5 -1.5t-23 -2t-22 -2 q-18 0 -24 2q-8 3 -24 17v86q11 2 24 25q6 13 13 26q6 7 50 34q43 26 47 26q3 0 4 -4.5t5 -4.5q5 0 7 1.5t1 5.5q14 2 33 2q23 0 55 -12q33 -13 46 -27q15 -15 13 -38q0 -3 12 -3q4 0 7.5 -2.5t5.5 -4.5l2 -3q-9 -8 -13 -9q2 -2 17 -13q5 -19 11 -31q3 -15 3 -42 q0 -166 -85 -206q-16 -1 -25 0q5 5 -4 15q8 0 13 3l-12 12q-10 -6 -28 2q8 0 8 3q0 5 -12 15q-2 1 -6 5t-6 5zM381 715q2 0 11.5 -4.5t10.5 -4.5q-10 10 -10 20zM318 101q-24 8 -44 8q-6 0 -11 7.5t-6 7.5q-28 -23 -41 -29q-7 -14 -7 -71q0 -22 6 -36q40 7 44 26 q10 -13 22 -18q-2 4 -9 11q-7 5 -5 8q4 4 14 -1q0 1 -0.5 3t-1 5.5t-0.5 6.5q-2 8 1 11q1 0 2.5 -5.5t6.5 -5.5t19 12q-1 7 2 33q5 25 8 27z" />
<glyph unicode="A" horiz-adv-x="491" d="M136 159l2 -7l-17 -5v7zM58 111l2 -6l-12 -5v6zM71 94q-2 0 -4.5 -9.5t-6.5 -9.5l-12 1q16 18 23 18zM90 35q-6 -15 -28 -25q-5 6 -28 28q2 3 9 9t8 8l-7 7q-2 0 -8 -2t-9 -2l-6 2q21 9 25 11q3 -5 44 -36zM475 52q-2 -4 -4 -44l-1 -5q-16 -10 -32 -10q-4 0 -7 4.5 t-6 4.5t-5 -2.5t-5 -2.5q-4 0 -3 7q-2 2 -4 2q-4 0 -4 -6q0 -1 -5 -3q-25 0 -35 19q-3 6 -16 77q-10 60 -35 60q-3 0 -6 -4.5t-7 -4.5q-2 0 -7.5 6.5t-9.5 6.5q-5 0 -5 -1l1 -1q0 -2 -5 -2q-4 0 -4 1l2 3l1 3l-3 2q-29 10 -39 25q-10 -13 -7 -29q-5 -1 -12 -1q-9 0 -16 5 q-3 -7 -10 -13q-2 8 -2 11q0 2 2 9t2 9q0 5 -7 11q-5 0 -19.5 1.5t-18.5 1.5q0 2 12 16l1 5q0 2 -3 5q-8 -8 -10 -8q0 6 8 14q-5 5 -10 5q-2 0 -6 -2q0 3 7 10q-2 1 -7 4.5t-8 6.5q-4 -4 -3 -17q-8 5 -11 5q0 2 12 14q-4 7 -14 14q-12 8 -16 12q3 4 5 10q3 0 11 -5l11 -7 l3 6q3 3 4 5q0 5 -33 24h-1q2 3 7 10q-3 6 -3 15q0 25 17 33q-2 1 -6.5 5t-8.5 6q-4 -4 -3 -13q-6 1 -12 7q14 6 30 17l-6 6q-3 -1 -5 -6q-5 8 -9 23q1 -1 6 -5.5t8 -7.5l2 9q0 4 6 4q4 0 5.5 -1t2.5 -2v-1q1 2 8 11l-7 6q-2 -1 -9 -5.5t-13 -7.5q-7 7 -10 13q11 0 15 -4 l6 7l1 5q0 2 -3 5q-4 -4 -10 -4q-2 10 -9 33q8 8 34 26v33q-4 4 -17 4q2 8 13 41q4 5 4 8q0 7 -17 12q9 23 22 27q-13 13 -13 21q0 18 14 68t16 72q13 3 56 17q31 10 56 10q24 0 48 -102l121 -516q2 -13 7 -37t8 -37q14 -57 28 -62zM104 499l5 -12h-6l-6 10zM317 167v15h-8 v-15h8zM265 171l-6 13l-6 -3l5 -10h7zM92 347v-12h-8v12h8zM156 262l-4 4l-11 -10l4 -5zM99 244l6 -2l-6 -12l-6 3zM46 189v-7h-16v7h16zM56 158l6 -4l-11 -15l-5 4zM236 515l11 11l-4 4l-11 -10zM119 593l11 11l-4 4l-11 -10zM125 457q-9 9 -9 15q-7 0 -7 -16q1 1 16 1z M302 296q0 36 -20 101q-25 76 -53 76q-35 0 -49 -81q-16 -95 -33 -112q16 -13 25 -21l-8 -9l19 -11l10 9q6 0 30 -4.5t32 -4.5q16 0 31 20q16 19 16 37zM129 341q-2 1 -11 6q-5 -8 -13 -19q1 0 24 13zM168 223q-9 9 -9 20h-17q7 -8 26 -20zM137 197q-6 -1 -11 4q-3 -3 -3 -6 l1 -7q1 2 -1.5 3t-8.5 1t-10 -4q-7 -7 -9 -7q7 -7 8 -7l12 5q3 -11 3 -15q0 -7 -6 -10q10 -21 12 -27l-10 9q-10 -10 -41 -12q22 19 22 26l-4 1q-5 0 -12 -7q-1 6 -6 11q8 6 13 8q-16 7 -26 9q3 3 9 3l9 -1q6 10 6 19v29q0 -2 5.5 -12t5.5 -14q0 -3 -1 -5h11l7 8 q-10 19 -13 22q34 -16 38 -24z" />
<glyph unicode="B" horiz-adv-x="416" d="M384 594q0 -7 -4 -12q-6 -6 -8 -10q4 -7 4 -17q0 -7 -4.5 -30t-4.5 -28q5 -3 17 -15q-2 0 -9 2t-9 2q-22 -53 -22 -70q0 -20 17 -52q17 -30 19 -42q-4 -4 0 -119q-1 -7 -5 -27.5t-6 -34.5q-14 -68 -45 -103q-23 -27 -48 -35q-16 -6 -60 -6q-11 0 -47 4q-45 5 -46 5 q-4 0 -7 -4.5t-7 -4.5h-44q-4 0 -30 14q0 8 3 35t3 33q0 99 3 147q0 10 -3 31q-4 24 -6 35q-1 3 2.5 16.5t3.5 14.5q-1 13 -1.5 49t-0.5 53q6 154 0 217q0 7 -5 32q-5 27 -5 29q0 4 2 6.5t4 4.5l2 1q1 3 1 13q0 4 -1.5 19t-1.5 19q0 25 18 43l161 -13q5 0 11 6q7 10 11 12 q6 -8 27 -26q15 -2 40 -12q44 -26 66 -79q1 -12 9 -38q-1 -16 -4 -47l2 -3q3 -3 5.5 -7t2.5 -8zM287 589q0 26 -2 32q-6 19 -18 48q-8 13 -28.5 25.5t-33.5 12.5q-25 0 -38 -7q-13 -6 -26.5 -21t-13.5 -23q0 -4 3 -35q3 -30 3 -45v-51q3 -34 19 -48t50 -14q7 0 24 7 q18 7 26 7q15 8 22 39l9 42q4 9 4 31zM308 192v34q0 4 -2.5 8.5t-5.5 7.5l-2 2q-3 25 -17 93q-3 11 -39 23q-30 10 -46 10q-11 0 -32 -8q-23 -11 -27 -20q-3 -15 -12 -36q3 -8 3 -54q0 -26 -4 -33l-6 -5q0 -5 9 -11.5t9 -7.5q-4 -1 -12 -6q1 -4 -0.5 -13.5t-3.5 -19 t-2 -10.5q0 -10 6 -6q6 -23 -1 -40q5 0 10 4l9 -9q7 1 23 8q31 -31 33 -31q4 0 6 4.5t5 4.5t5.5 -1t4.5 -2.5t3 -2.5l2 -1q-7 7 1 7q3 0 10.5 -2t11.5 -2q5 0 15 10q28 49 35 73q3 12 1 31q3 7 10 1zM291 53q-11 0 -20 19q0 -19 9 -26q4 4 11 7zM167 68l6 11l-6 3l-6 -12z M105 68l6 11l-7 3l-5 -12zM120 22l3 6l-21 10l-2 -6z" />
<glyph unicode="C" horiz-adv-x="398" d="M373 131q0 -4 -1 -8.5t-2 -7.5l-1 -3v-6q-9 -10 -39 -54q-23 -33 -40 -41q-39 -18 -102 -18q-4 0 -43 17q-38 18 -46 23q-12 8 -25 35q-6 5 -23 26q-11 27 -13 68v83q0 6 1 13v17q-2 11 -5 17q-1 4 6 14q0 10 1 31q1 15 -1 34q-1 18 -12 29q8 2 12 -2l3 2q3 2 7 5t6 4 q-2 0 -6 -4q-2 -3 3 -11l3 2q2 3 5.5 6t5.5 4q0 14 -9 14q-10 0 -17 -3q5 5 -4 13q0 1 3 3.5t7.5 5.5t6.5 5q-4 4 -17 3q-2 21 2 40l-1 3q-2 3 -4 5q-1 8 -1 24q2 15 13 25v24q-10 10 -13 8q8 13 8 19q0 3 -6.5 11.5t-6.5 14.5q0 31 14 82q7 25 31 51q41 43 77 44q7 -1 23 4 q32 2 64 2q13 0 36 -18q25 -19 43 -23q3 -4 14.5 -19.5t19.5 -26.5q15 -21 15 -57q0 -18 -15.5 -29.5t-34.5 -11.5q-17 0 -53 18q2 6 2 9q0 20 -32 41q-26 18 -38 18q-9 0 -13 -4l-8 8q-7 -7 -18 -24q-4 1 -13.5 -6.5t-13.5 -15.5q-9 -19 -9 -49q0 -7 7 -57q5 -39 8 -76 q-2 -14 -1 -76q0 -19 -1 -39q-2 -28 0 -45q2 -29 5 -41q-9 -26 -9 -63q0 -46 13 -99q31 -17 47 -17q17 0 27 5q26 15 26 39q0 5 -1 7q6 0 18.5 13.5t17.5 14.5q17 3 65 3q14 0 31 -32q1 -2 1 -20zM272 706h8v16h-8v-16zM85 440h20v8h-20v-8zM101 406q-3 0 -10 -7q-8 8 -15 8 q0 -2 5 -11t5 -10q1 2 7.5 10t7.5 10zM71 378q-5 5 -19 5q4 0 4 -10q5 5 15 5zM65 328l2 6l-11 6l-2 -7zM71 251l6 12l-6 2l-6 -11z" />
<glyph unicode="D" horiz-adv-x="425" d="M392 433q-2 3 -11 3q-18 0 -21 -17l1 -25q0 2 2 -1q0 -1 2 -5q3 -7 -1 -25q4 -12 12 -12v-238l-9 -2q-6 0 -5 -7q0 -3 0.5 -6t1 -4.5t0.5 -2.5q-18 -26 -61 -70q-25 -19 -34 -19q-13 0 -65 -4q-15 -1 -31 -2.5t-23 -2t-8 -0.5q-4 0 -12 4.5t-11 4.5q-6 0 -6 -3q3 -7 3 -6 q-10 13 -16 13t-6 -2t-6 -2t-4 5q2 6 0 8l-8 -9h-38q0 4 -2.5 18t-2.5 17q0 7 7 39q7 36 9 53q-3 19 -2 49l8 24q0 7 -7 14q-2 8 -2 10q0 1 3 3t6.5 4t4.5 3v16q-16 16 -16 23q0 5 5 13q-6 20 -6 23q8 11 8 16q-1 9 -13 31v16q9 1 14 5q9 4 12 14q-8 3 -26 -4q8 8 35 19 q-15 16 -44 35q7 19 36 30q7 9 18 28q0 1 1.5 5t1.5 8l-4 4q0 17 -16 43q-7 -9 -10 -9q-3 24 -22 27q-2 23 0 63q2 60 2 63q0 7 -6 23t-6 21q0 19 19 45l34 6q16 0 82 -22q2 2 5.5 9l4.5 9q0 -17 -3 -20v-2q1 -2 3 -3.5t6 -1.5q17 0 42 18l9 -9q4 4 4 11q0 -6 6 -13t12 -7 q4 0 6 2.5t5 2.5t10 -7t10 -7q11 0 18 9q3 -7 15 -18q3 -2 9 -6.5t9 -7.5q0 -7 -9 -14q2 -2 3.5 -6t3.5 -6q12 6 18 18q0 -11 16 -46q-6 -5 -6 -12q23 -8 23 -15q0 -19 -17 -53q7 -19 9 -31q-10 -25 -8 -31q-6 -16 -4 -26q5 -11 9 -18q-7 -13 -7 -48q21 -11 31 -20zM308 736 q-10 0 -10 10l-12 -11q21 0 22 1zM195 752h8v12h-8v-12zM184 745h12v8h-12v-8zM91 575h21q-5 12 -5 29q-3 -3 -16 -29zM63 622q-20 -11 -20 -22h15q5 5 5 22zM109 541l13 6l-2 6l-11 -5v-7zM60 585h12v8h-12v-8zM294 134l-2 -1q-1 -1 -4 -2t-7 -1t-5.5 1t-0.5 3l3 6 q8 10 6 15q5 57 3 71q-15 185 -15 263q0 4 3 22t3 20l-1 61v-3q2 34 13 45q-6 0 -17 14q0 4 -2 22q-19 37 -36 37q-4 0 -12 -2.5t-10 -2.5q-13 0 -22 18q-5 -2 -20 -8.5t-26 -11.5q-3 -4 -13 -14q-10 -61 -10 -117q0 -26 10 -47q0 -7 -0.5 -17t-1 -25t-0.5 -27 q-1 -27 -1 -59q0 -26 1 -47q2 -42 2 -46q0 -15 -4 -31.5t-8 -25.5l-3 -10q0 4 3 -2q5 -9 3 -29q0 -1 6 -5.5t6 -6.5l-7 -8q-5 0 -8 -5q2 -9 0 -18t-5 -9q13 -8 2 -28q9 -5 18 -12q-3 -3 -3 -16q5 5 22 17q4 -4 3 -6l-3 -2q-4 -2 -6.5 -4.5t-2.5 -4.5q3 0 8 -3q-1 -1 -40 -26 q11 -11 20 -11q4 0 4 2q-2 4 -2 5q2 2 4 2h12q15 0 23 -9q-2 6 -2 7q0 8 12 8l24 -5q3 8 8 8q11 -14 29 -18q-4 8 -13 23q1 1 8.5 9.5t11.5 7.5q8 -8 15 -8q-1 14 4 21q4 -4 10 -3q-5 3 -5 6q0 2 8 7q2 0 5 2t4 2q1 3 1 12zM331 160l5 4l-7 7l-4 -4zM263 67l7 4l-11 16 l-6 -4zM202 41l5 17h-6l-5 -14zM216 22l4 6l-16 11l-3 -6zM79 86l11 11h-15q4 0 4 -11zM254 117l7 -2l-6 -12l-6 3zM189 94h16q0 -16 -3 -21q-13 7 -13 21z" />
<glyph unicode="E" d="M213 16l-10 12q-7 0 -7 -13zM193 13q-4 0 -4 7q0 3 2 7q-5 0 -13 -5q9 -9 15 -9zM426 49q-3 -2 -12 -11q-5 -28 -9 -35q-7 -19 -28 -19q-4 0 -18.5 6.5t-18.5 6.5q-5 0 -14 -9l-9 9q-14 -2 -22 -2q-10 0 -38 5q-25 6 -37 6q-7 0 -5 -11q0 2 -9 11q-14 -13 -37 -13 q-1 0 -3.5 0.5t-7.5 1t-10 0.5q-10 1 -22 -1l1 2q0 6 -9 6q-4 0 -6.5 -4.5t-4.5 -4.5q-1 0 -16 4.5t-23 4.5l-19 583q-2 51 -7 98q-6 60 -6 61q0 16 18 49q6 3 24 3q27 1 103 3.5t114 3.5q5 0 24 3t25 3q37 0 50 -19q10 -14 10 -55q0 -28 -10.5 -39.5t-37.5 -11.5 q-10 0 -90 2q-60 3 -90 3q-12 0 -25 -25q-13 -23 -13 -35q0 -6 7 -9q3 -24 3 -84q0 -7 -5 -14q4 -12 4 -47q8 -8 11 -8q2 0 7 2.5t8 2.5q4 0 14 -7t13 -7q6 0 60 2q40 3 60 3q27 0 27 -47q0 -39 -4 -46q-7 -18 -37 -18q-8 0 -35.5 2t-35.5 2q-9 0 -36 -7q-28 -6 -33 -11 q-4 -4 -12 -39q-7 -32 -7 -40q4 -7 4 -22q0 -19 -10 -56v-2q0 -1 -1.5 -7.5t-1.5 -8.5q0 -8 7 -26q7 -19 9 -27l-8 -5v-16l7 -3q1 1 1 4q0 2 -1 7t-1 6h16q4 -4 13 -40q4 2 5 9.5t2 8.5q2 0 3 -7q1 -10 3 -10l9 8v-5q0 -8 4 -12q5 1 15 6l-8 3v17q4 0 22 18v-21q0 -4 2 -10 q3 3 8 16q30 9 36 24q9 -18 18 -18q3 0 7.5 2t8.5 5t5 3q24 8 63 8q15 0 24 -28t18 -31zM130 27l4 4l-6 7l-5 -4z" />
<glyph unicode="F" horiz-adv-x="381" d="M363 758q0 -38 -19 -48q-10 -7 -55 -7q-9 0 -27 18h-1q-3 0 -16 -13q-7 5 -11 5l4 3l10 6l4 2l-3 2q-36 3 -50 5q5 5 9 18l-8 7q-7 -7 -7 -35q-6 9 -10 13l-2 -3q-2 -3 -4 -6.5t-5.5 -6t-6.5 -2.5q-5 0 -11 4l-1 1q-3 -17 -5 -22l-10 9q-4 0 -4 -12h-6q-13 0 -13 -5 q0 -2 4 -6q-1 1 -2 1q-4 0 -12 -8v-16q0 -2 2 -2q1 0 2 1q3 1 5 1q-1 -1 -22 -10q2 -2 2 -4v-1q0 -2 7 -2q2 0 7 1.5t6 1.5q-9 -8 -9 -14q0 -10 8 -32q9 -20 9 -30q0 -9 -8 -17q9 -7 9 -18q0 -4 -1.5 -14t-1.5 -12q5 -7 22 -29q14 -18 30 -18q5 -2 5 1l-1 1q2 2 5 2 q6 0 6 -2l-1 -3l1 -4l8 9h7q7 0 29 -1.5t27 -1.5q4 0 13 3.5t12 3.5q6 0 12 -2q14 -19 14 -44l-4 -5q2 -6 2 -12l-2 -14q-1 -11 0 -15q-26 -10 -29 -10q-6 0 -13 9q-1 -2 -8 -13h-2q-9 0 -23 9l-12 -9l-8 9q-8 -9 -24 -9q-9 1 -27 1h-2q-15 -15 -31 -33q0 -5 -5 -20 q1 -4 6 -23q-9 9 -27 9q0 -1 18 -10q0 -3 -13 -28l5 -2q4 2 7 4l1 -5q0 -7 -4 -10q4 -4 13 -4l-5 -25q-3 4 -14 13q0 -1 -1 -1t-2 -1q0 -3 0.5 -6t1.5 -5t2 -3t3.5 -2.5t3 -2t4.5 -2.5l3 -1l-9 -10q12 -16 7 -61q2 -18 12 -49q-3 -13 -3 -27q0 -5 5.5 -19t5.5 -18 q0 -15 -24 -24q-17 -7 -36 -7q-3 0 -20 7.5t-22 7.5q4 0 9 5q-14 16 -13 38v21q1 0 6.5 -2t7.5 -1q3 -23 12 -23q16 0 22 6q1 0 1 9q0 2 -5 2t-11 -3.5t-7 -3.5q0 9 9 23q-2 2 -8.5 5.5t-9.5 5.5l-11 -9q-6 4 -11 6q9 26 9 45q0 59 -18 76q7 4 14 14q-1 4 -7 8q5 9 7 27 q1 14 0 33q-1 17 -1 29q0 26 9 31q-3 3 -12 2q0 75 1 136q2 122 2 136q0 66 -1 85q0 5 -6 26t-6 27q0 42 56 42q12 0 27 -3.5t26.5 -6.5t12.5 -3q6 0 54 2q50 2 55 2q6 0 30 6.5t32 6.5q49 0 49 -51zM265 743l6 11l-6 3l-6 -12zM258 752l3 7l-16 8l-2 -7zM250 739 q0 12 -5 17q-3 -4 -11 -5q6 -3 16 -12zM233 730q0 12 -5 17q-7 0 -7 -12q4 0 12 -5zM110 565l6 12l-7 2l-5 -11zM247 414l6 12l-6 2l-6 -11zM239 400l13 6l-2 6l-11 -5v-7zM85 533l3 6l-12 6l-2 -6zM110 523l-11 11q-26 -3 -32 -17l-8 9q-1 -1 -1 -3q0 -1 19 -19q6 13 19 13 q9 0 7 -11q0 11 7 17zM159 418l5 4l-7 7l-4 -4zM62 444l13 6l-3 6l-10 -5v-7zM131 367l5 29q-11 6 -20 23q0 -4 -11 -7q6 0 18 -13q-9 -7 -9 -18l1 -6q2 -2 16 -8zM111 361l4 4l-6 7l-5 -5zM108 346q-9 12 -23 24q-5 -9 -15 -24q4 -2 7 -2q8 0 15 7q-5 0 -5 5l2 6 q10 -17 8 -22q1 0 5 4t6 2zM57 373l13 6l-2 6l-11 -5v-7zM66 321l5 12l-6 2l-6 -11zM96 279q-22 22 -22 28q-2 2 -4 2q-3 0 -9 -6v-21q3 0 17 -1.5t18 -1.5zM97 236l18 5l-3 7l-15 -5v-7zM83 263q-4 0 -9.5 5.5t-5.5 8.5q-2 -13 -5 -17q-7 4 -10 4q-1 0 -14 -7q5 -1 15 -9 q8 -5 16 -5h4l-2 1q-3 2 -5 3t-4 2.5t-2 2.5q2 2 5 2q2 0 6 -1.5t6 -1.5q0 4 5 12zM91 198h7l-6 18l-6 -3zM71 121h25v7h-25v-7z" />
<glyph unicode="G" horiz-adv-x="383" d="M233 45l-7 7l-4 -5l6 -6zM355 675l-3 -11q-3 -11 -1 -16q-13 -3 -20 -3q-3 0 -6 1.5t-5 3.5l-2 1q-4 0 -7 -4.5t-7 -4.5t-20 5.5t-21 5.5q8 8 8 16q0 13 -15 15q-8 23 -11 25q-2 2 -30 10q-5 5 -5 17q0 6 -11 8q-2 -1 -4 -7q3 -10 4 -15q-4 4 -14 4q-5 0 -30 -15 q-8 -2 -19 -23t-19 -22q4 -5 4 -15q0 -6 -5 -21.5t-5 -17.5q-15 5 -24 22q-5 0 -17 -12q3 4 3 8t-3 12l-13 -13l-13 13q-3 -5 -11 -12v47q11 0 17 7q-2 2 -8 4q9 14 7 32q0 1 6 6t6 9l9 -9q5 8 5 16q0 4 -2 10q3 1 34 32l-1 -5q0 -5 4 -9q24 36 46 36q12 0 20 -9q7 10 9 13 q15 -5 26 -9q4 4 4 13l10 -8l5 4l9 -9q31 -6 65 -24q10 -16 10 -18q5 -2 19 -8q-2 -6 -2 -8q24 -46 24 -68zM121 584q-1 -1 -2.5 -5t-3 -7.5t-2.5 -3.5q-2 8 -5 11q2 1 13 5zM76 595l6 -7l-4 -4l-7 6zM121 382q0 -41 -15 -71q-10 10 -10 12q0 3 3 4l-7 6q-15 -4 -21 -17 q-13 10 -19 26q-1 -2 -23 -13q0 4 -2.5 18.5t-2.5 18.5q0 15 3 45t3 44q4 1 14 8q-4 4 -4 11q0 11 13 18q4 -15 27 -35q10 4 10 17q0 4 -11 19t-11 19q0 10 15 24q8 -6 33 -14q-5 -40 -5 -107q0 -1 5 -14.5t5 -18.5zM346 416l9 3q0 -3 -2 -6.5t-4 -4.5l-2 -2q0 -1 1 -2 q5 2 5 6q0 -28 -6 -66q-2 -2 -4 -5v-2q0 -3 6 -7q-4 -12 -4 -27q0 -6 2 -12q-5 -6 -8 -6q0 8 -4 17q-2 -1 -8.5 -4.5t-11.5 -6.5q2 0 6 -10q3 -5 10 -5q6 0 9 2l1 1v-20q-1 0 -15 12q-12 -11 -12 -17q-10 0 -22 4l-12 -11q1 -1 6 -1q2 0 11 1.5t12 1.5q5 0 5 -1l-2 -4 q0 -3 1 -4q8 8 14 13q0 -9 13 -21h1q3 0 3 -3q0 -7 -6 -13q7 -7 12 -7v-33q0 -47 -14 -83q-17 -23 -32 -50q-8 -1 -26 -16q-6 -5 -12 -9.5t-9 -7t-4 -2.5q-26 -5 -47 -10q-3 18 -25 31h-5q-9 0 -17 8q-3 -9 -5 -16q-11 -2 -23 -15q0 20 -16 27q-1 -2 -6.5 -5.5t-5.5 -7.5 q-1 0 -5.5 2.5t-8 4t-5.5 -0.5l6 9q-8 24 -17 24q-6 0 -12 -3l-1 -1q-14 19 -36 60q25 15 29 15q2 0 12 -4.5t14 -4.5q20 0 26 13q5 -4 14 -18q4 -6 6.5 -11t3.5 -6.5t2.5 -3t6.5 -2.5q2 -2 2 -6q0 -5 -3 -10l-9 9q-3 -3 -3 -5v-5q16 -5 38 -17l15 18v-3q0 -4 -4 -8 q11 -4 33 -20l7 7q-5 2 -13 8v20q9 0 13 9q2 -4 2 -9q0 -9 -7 -15q2 -1 6 -1t13 3q7 1 14 0q8 8 8 18q0 8 7 25q3 6 8 23q0 -8 5 -13q6 0 6 8h26l-2 -3q-1 -3 -1 -5t4 -5l4 24q-5 3 -12 3q-10 0 -17 -4l-9 9q-4 -3 -4 -7v7q0 3 -2 7h7q12 0 25 -3q1 1 2.5 5t2.5 7.5t2 3.5 q-1 1 -3 1q-3 0 -14 -3.5t-14 -3.5q4 2 22 10l-7 7q-4 -4 -10 -4q0 11 6 17q4 -4 7 -4q1 0 5 2v5q0 3 -3 6q-4 -4 -12 -4h-3v21l9 -1q5 0 8 3l-2 6q0 1 -6 1q-15 0 -13 16q1 8 1 13q0 1 -5 6t-5 10q0 1 1 2q7 4 7 17q0 6 -6 27.5t-6 27.5q0 3 8 11q-11 11 -16 11 q-10 0 -8 -8q-2 10 -24 14q-23 5 -23 34q0 34 15 62q65 0 135 -10q0 -7 7 -11v-6q1 -6 -7 -27zM77 287q-6 -7 -6 -11q-5 5 -24 5q0 5 8 15q-7 6 -11 6q-7 0 -7 -1l2 -5q0 12 -6 18h5q6 0 10 -3q5 2 5 7q0 -3 17 -12q2 -8 7 -19zM103 166v-7l-26 10l2 7zM83 160v-16h-8v16h8z M306 688q-6 6 -6 14q0 -4 -11 -4q10 -10 17 -10zM223 738h12v7h-12v-7zM206 751h16v8h-16v-8zM187 771v16q-11 0 -15 6q-9 -10 -15 -10v-21q11 2 30 9zM139 757l6 12l-7 2l-5 -12zM107 770q-21 -10 -21 -22q0 -4 1.5 -6.5t2.5 -3.5l2 -1q0 3 15 33zM130 728q-4 2 -6 2 q-3 0 -10.5 -2.5t-9.5 -2.5q-1 -7 1 -34q17 15 17 22q0 1 -2 4l-1 3q0 2 1 3h1q4 0 9 5zM56 667h16v8h-16v-8zM311 409q-4 9 -16 21q-6 -4 -10 -12l1 1q1 1 3.5 1.5t6.5 0.5q5 0 9.5 -6t5.5 -6zM284 427v16q-2 0 -10 -2.5t-11 -2.5q0 -7 10 -16q3 0 11 5zM299 360l16 15 q-10 10 -25 10q0 -2 2 -5t4 -4.5t4 -3.5l2 -1q-4 -4 -3 -10v-1zM313 366q0 -2 -15 -17q3 -3 7 -11q3 6 8 28zM280 341l11 16l-7 4l-10 -16zM274 259h8v16h-8v-16zM113 58l5 4l-7 7l-4 -4z" />
<glyph unicode="H" horiz-adv-x="402" d="M377 312q0 -14 -15 -58q1 -2 1 -6q0 -2 -1 -7l4 -5q7 -35 7 -131q0 -9 1 -19v-23q0 -74 -35 -74q-3 0 -10.5 2.5t-9.5 2.5q-1 0 -2 -1l-2 -1q1 -2 1 -5q0 -2 -4 -2t-14 4.5t-13 4.5q-3 1 -10 2h-7q0 22 -11 30l11 11q1 24 16 53h9q-6 22 -21 22q16 0 16 17q0 5 -8.5 18.5 t-9.5 14.5q14 0 27 8q-11 9 -12 6l-2 10v-1q0 4 5 12v47q-11 7 -13 37q-1 8 -1 22t-1 22q-3 13 -25 25q-20 13 -36 13q-8 0 -32.5 -5t-30.5 -5q-6 -6 -19 -24q4 -9 4 -16v-2q-6 -2 -8 -8q2 -46 2 -48q0 -12 -5 -49q-4 -29 -4 -49q0 -11 2 -37q-4 -1 -16 -8l14 -14l-1 -2 l-2 -4t-3.5 -3.5t-5.5 -1.5q-5 0 -9 4q-6 -6 -6 -10l6 -7l3 8h26q-10 -13 -10 -24q0 -4 5 -18.5t5 -17.5q0 -33 -24 -33h-38q-7 0 -35 15v108q0 2 1.5 4.5t3 6.5t2.5 7v5q0 2 -1 10.5t-1 10.5l1 4q2 3 4 8t2 8q0 10 -12 16l23 -3q0 -1 2 1l6 6q-7 7 -14 7q-5 0 -11 -3l-1 -1 q4 16 5 19q-4 3 -4 12q0 11 4 20v111q0 6 -9 9q6 12 6 24q0 27 -4 66q-4 40 -4 68q0 58 8 255q9 9 23 13q20 5 25 8l10 -9q1 0 3 1t4.5 2t4.5 1q6 0 15 -7t10 -12q2 -12 4 -36q0 -22 -1 -37q-1 -18 -1 -37q0 -4 1 -18.5t1 -18.5q0 -6 -3 -27t-3 -27q0 -1 7.5 -12t7.5 -15 t-9 -21t-9 -21q0 -16 16 -34.5t31 -18.5q4 0 9 4t9 4q2 0 10 -4t12 -4q55 0 55 58q0 12 -1 22v23q0 20 4 51q5 38 5 53q0 8 -3.5 34t-3.5 34q0 27 11 47q5 5 17 14q1 0 17.5 3t21.5 3t12.5 -4.5t8.5 -4.5l1 -112q3 -7 10 -20q8 -40 8 -59q0 -2 -7 -12.5t-7 -20.5 q0 -4 1.5 -18t1.5 -18q0 -13 -7 -19v-56q0 -4 3.5 -20t3.5 -22q0 -5 2.5 -25.5t2.5 -26.5q0 -2 -3.5 -11t-3.5 -13q0 -1 6.5 -11t6.5 -14zM278 106l6 -7l-5 -4l-6 6zM348 564h8v16h-8v-16zM345 585h-17q0 -13 12 -13q3 3 5 13zM354 537q0 9 -6 17q-10 -10 -10 -26q9 9 16 9z M331 556l3 -2q4 3 4 6q0 4 -13 8q-5 -7 -5 -13q5 -8 11 -13q2 2 0 7q-1 3 -1 6q0 1 1 1zM346 468h12v8h-12v-8zM315 486h16v8h-16v-8zM324 418h17q-6 8 -22 19l9 -9q-6 -5 -4 -10zM315 406h12v8h-12v-8zM320 214h11v8h-11v-8zM70 342h21q0 1 -4 8q-2 5 0 7q-3 -3 -17 -15z M331 118q0 4 -29 9v-21q6 -6 10 -14q0 10 6 31q8 0 13 -5zM79 184l5 4l-7 7l-4 -5zM59 199h8v12h-8v-12zM78 169q-14 2 -15 16q-11 -24 -11 -25l1 -1q10 6 25 10zM86 128h7v16h-7v-16zM60 82l18 -5v6l-15 6z" />
<glyph unicode="I" horiz-adv-x="213" d="M52 736l6 -13h-7l-5 11zM168 372q-2 -2 -5.5 -7.5t-8 -11.5t-8.5 -12q15 -23 15 -34q-5 -11 -14 -33q-13 -32 -13 -57q0 -27 13 -57l14 -33q0 -8 -14 -28q-15 -22 -16 -28h-5q-8 -1 -18 4q-3 -1 -3 -5q0 -3 4 -7q-6 2 -10 3q-9 0 -21 -12q2 -10 14 -22q-11 0 -23 -5 q0 -9 16 -19q10 5 19 5q18 0 42 -21l-60 -15h-20q-14 20 -14 45q0 7 4 31.5t4 32.5q0 13 -5 25q-4 1 -4 6q0 3 5.5 16t5.5 16q4 35 4 125q0 3 0.5 8.5t1 16t0.5 19.5q2 27 0 44q11 3 11 14q0 19 -11 39q3 6 3 15q0 6 -3 25t-3 25q0 16 9 26q-5 7 -18 17q2 3 5.5 11.5 t4.5 11.5q-4 15 -4 18v1q13 7 13 28l-2 2t-1 2q-8 -8 -11 -8q3 13 3 22q0 10 -6 20.5t-6 12.5q0 4 7 16t7 19q0 3 -2 19q6 16 6 15q0 10 -6 29t-12 22q11 29 16 33q9 10 33 10q13 0 20 -13q3 3 3 8q17 0 30 -8l13 8q0 -3 -12 -15q8 -10 8 -22q0 -6 -5 -19t-5 -17q0 -7 6 -18 l-36 -9q8 -5 31 -3q0 -17 13 -43l-6 2q-1 -2 -16 -19v-52q3 -2 9 -4q0 -3 -2.5 -16.5t-2.5 -17.5q0 -9 12 -11q-11 -42 -11 -86l2 -6q1 -6 1 -7q3 -10 3 -19q0 -8 -3 -12q3 -14 15 -36zM129 784l17 5l-2 6l-15 -5v-6zM132 664l6 12l-6 2l-6 -11zM144 647h8v12h-8v-12z M151 150l-5 -5l-6 7l4 5z" />
<glyph unicode="J" horiz-adv-x="410" d="M373 739l-22 -484q0 -6 -8 -25q5 -9 6 -27q-5 -19 -10 -84q-1 -41 -26 -69q1 -4 0 -9q-10 -13 -27 -26q-22 -16 -35 -16h-23q-8 -6 -4 -8q4 -4 4 -10q-4 3 -18 0q-15 -4 -19 -4q-3 0 -9.5 6.5t-10.5 6.5t-12.5 -2t-12.5 -2q-35 0 -74 14q-50 20 -50 51q0 16 25 47 q26 32 45 32q11 0 40 -32q28 -31 48 -31q3 0 4 4.5t5 4.5q3 0 4 -2.5t5 -2.5q3 0 4 4.5t5 4.5q15 0 15 8q0 2 -2 4q11 0 14 -3v362q0 9 4 44l6 60q-2 37 0 117q0 8 -1 34t-1 32q0 42 20 71q90 -7 95 -10q16 -7 16 -60zM266 97l13 5l-2 7l-11 -6v-6zM248 67h17q-7 21 -22 21 q0 -1 2.5 -10t2.5 -11zM230 60h16v8h-16v-8zM157 8l6 12l-6 2l-6 -12z" />
<glyph unicode="K" horiz-adv-x="424" d="M411 782q-12 -29 -112 -231q2 -8 -1 -14q-29 -47 -29 -86q0 -4 7.5 -17.5t7.5 -15.5q-1 4 -1 -1q-1 -6 -1 -27q0 -15 14 -15q-3 -7 -2 -16q0 -5 0.5 -9t1.5 -6v-2q0 -7 13 -7q0 -3 -9 -11q7 -41 14 -41q13 0 13 -5q0 -2 -9 -11.5t-9 -14.5q0 -12 13 -6l-9 -11 q0 -5 18 -12l-13 -14q6 -8 29 -61q2 -7 8 -58q2 -15 14 -38q13 -26 15 -39q-12 0 -4 -8q-43 -2 -59 7q-12 -10 -12 -7l-1 2q0 2 -2 3.5t-6 1.5q-3 0 -9.5 -4.5t-10.5 -4.5q-10 0 -5 20q-19 19 -19 47q0 18 9 41q-8 8 -11 8q-2 0 -5 3.5t-6 8.5t-5 7q5 10 18 23q-8 1 -21 9 q0 5 -2.5 10t-5 8l-7.5 9t-7 8q-8 16 -19 33l-11 -9l-14 14q-1 -2 -5 -4.5t-7 -4.5l-3 -3q3 -3 6 -4q-10 -4 -30 -40v-44l9 -40q-2 -2 -5.5 -6.5t-5.5 -7.5q-3 -29 4 -80l-2 -1q-2 -2 -6.5 -4.5t-8.5 -4.5q-13 -9 -21 -9h-28h-35q-10 21 -10 27q0 24 14 144q1 7 22 23l-4 37 q-3 -4 -3 -14q-11 60 -11 73q0 55 13 56q13 3 13 31q0 15 -20 27q-3 15 -1 46l-1 1q-1 1 -2.5 3.5t-1.5 6.5q0 7 5 60q2 18 12 22q-13 7 -13 35q0 6 0.5 12t0.5 10.5v8.5v6.5v4.5v2v1q-5 42 -5 95q0 61 8 79q11 23 47 23q69 0 69 -42q0 -20 -6 -45l-4 -18t-4 -15t-3 -12 t-2 -9.5t-1.5 -6.5t-0.5 -4l-1 -1q0 -7 11 -27q12 -19 16 -19t11 -4.5t10 -4.5q13 0 29 18q15 14 19 25q1 5 3 17q23 62 53 128q33 11 52 11t66 -19zM66 543l13 5l-2 7l-11 -6v-6zM106 232h16v8h-16v-8zM75 206l5 4l-7 7l-4 -4zM105 197q-20 10 -25 10q-12 -22 -15 -25h17 q0 8 8 16q8 -8 15 -1zM119 47l5 4l-7 7l-4 -5z" />
<glyph unicode="L" horiz-adv-x="377" d="M358 45q0 -18 -10.5 -33t-22.5 -15q-9 4 -14 4q-7 0 -12 -9q-5 4 -21 10t-19 8q-1 0 -5 -2.5t-6 -4.5q-1 -1 -1 -14q-5 0 -18 9q-14 8 -19 8q-3 0 -14 -4.5t-15 -4.5q-5 0 -28 6q-21 7 -27 7q-4 0 -2.5 -4.5t-1.5 -4.5q-4 0 -18 4.5t-18 4.5q-2 0 -8.5 -6.5t-11.5 -6.5 q-4 0 -18 4.5t-16 4.5q0 7 2 69t2 66q4 -1 8 3q-5 3 -8 3v112q0 7 4 42q5 45 5 59q-2 12 -2 71q0 49 4 122q4 84 4 108q0 29 -1 52q0 20 4 57q2 20 -4 33q40 1 45 -3q9 9 22 9q3 0 23 -4.5t27 -4.5q14 -30 14 -33l-49 -648q1 0 2.5 -6t6.5 -6q4 0 5 2t4 2q11 0 25 -26l1 1 q2 1 4.5 3t5.5 4q7 5 13 5q2 0 32 -5q25 -4 34 -4q1 0 4.5 0.5t9.5 1t11 0.5q20 3 26 3h16q8 -1 16 -1q10 -27 10 -48zM199 44h21v7h-21v-7zM75 130h6l-6 13l-6 -3zM86 97l3 6l-17 5v-6z" />
<glyph unicode="M" horiz-adv-x="588" d="M546 458q-5 -35 -5 -75q0 4 -5 9q-1 -2 -6 -11q5 -2 13 -8q0 -3 -14 -15h-25q3 4 3 9q0 1 -6.5 10.5t-7.5 16.5q0 5 1 8v8q0 5 -2 11q4 1 12 9q0 -1 -4 3l-14 14q9 4 27 14q0 2 -3 5q-3 -1 -7 -2.5t-9 -3t-8 -2.5q18 4 18 29q0 19 -9 30q4 0 11 -7q8 8 8 13q0 2 -3 7 l-3 6q9 8 9 10q-2 2 -5 2q-2 0 -6 -1t-6 -1q-4 4 -9 16q2 0 8.5 -2t8.5 -2q3 0 2 7q2 2 5 2q13 0 23 -6q0 -1 -12 -14q3 -5 12 -3q-4 -9 -4 -29q0 -35 12 -57zM469 328q-4 -6 -10 -6v11q0 9 -6 13q7 -4 16 -18zM547 636v-2q0 -4 -8.5 -18t-8.5 -20q0 -8 8 -19q-3 0 -5.5 0.5 t-4 0.5h-1.5q-11 0 -24 -8h1q1 0 4 3q-1 1 -13 10q-9 6 -15 6q-4 0 -9 -5l-9 9q0 -1 -1.5 -6t-2.5 -9q4 -6 5 -11q-6 0 -10 4q-1 -1 -8 -14.5t-16 -18.5q1 -10 9 -30q-4 -6 -22 -14q1 -2 1 -8l-1 -2q0 -2 -0.5 -6t-0.5 -9q-1 -9 1 -16h-4q0 -8 9.5 -25.5t16.5 -24.5 q-4 -2 -26 -14v-4q-2 -3 3 -6q3 1 6 8h17l-1 -5q0 -4 4 -7q10 4 22 12v-16q-11 0 -16 -5q-8 -7 -13 -12q1 -1 5.5 -4.5t7.5 -6.5q0 -10 -7 -17q-11 14 -25 18q0 1 -2 -2l-5 -5q9 -9 21 -13h-5q-4 0 -21 -3q-1 -7 -28 -21l-9 5q-1 -1 -1 -4q0 -1 1 -6t1 -7q0 -4 -1.5 -7.5 t-3 -6t-5.5 -5.5t-6 -4t-7.5 -3.5t-6.5 -3.5q2 -7 18 -11q-8 -14 -11 -20q-12 -1 -24 -9q1 -2 5 -6l-7 5q-3 -3 -4 -6q0 -9 4 -18q-1 1 -3 1q1 0 -1 -2l-7 -7q9 -4 22 -28q-19 -6 -20 -37q0 -30 -14 -33q-2 6 -2 13q0 12 6 20v6q0 4 -7 4q-6 0 -9 -3l-1 -1l-2 4q1 2 5 6 q-7 2 -17 9l2 2q1 2 4 5l6 6q7 7 7 15q0 7 -1 10q-6 0 -6 -13q0 4 -10 8l-7 3q2 4 2 7v9q-1 3 -1 8q-4 0 -8 -4.5t-5 -4.5q0 3 8 11q0 6 -8 8l-4 -2q0 6 -0.5 12.5t-0.5 4.5q0 26 22 30l-3 18q-8 -17 -22 -17q-5 5 -14 5q0 15 1 28q0 1 -4 2.5t-7 4.5t-3 9q-4 0 -17 1.5 t-16 1.5q-14 0 -30 -22t-16 -37l-4 12q-3 0 -11 8q-2 -1 -4 -6v-11q-1 -3 -1 -7q0 10 -9 15q-3 -1 -5 -9l-2 -12h-3q-13 0 -30 -5q-6 5 -22 28q-5 25 -5 204q0 61 -6 94q0 1 5 11t5 15q0 25 -9 75q-8 54 -8 75q0 6 2 22.5t2 20.5q11 4 33 19q0 -3 0.5 -4.5t5.5 -2.5 t14.5 -1.5t28.5 -0.5h22q3 -12 8 -30t12.5 -45.5t13.5 -48.5q24 -62 46 -127q6 -16 28 -53q5 -8 9.5 -16t7 -11.5t2.5 -4.5q12 -14 33 -14q29 0 53 73l1 2q0 3 -5 10q6 6 25 54q1 3 5.5 11t9 17t8.5 18q10 19 12 41q2 3 12.5 5.5t11.5 4.5q-7 2 -26 11q9 14 5 32q8 2 11 5 q4 -5 20 -13v2l-9 26v29q1 -1 5 -1q9 0 17 4q-2 5 -5 6q-3 6 -3 9v2q7 2 40 24q7 -10 9 -13l9 8q1 -1 30 -16q7 -1 7 -12q0 -13 -18 -31q4 -3 10 -13v-3q0 -4 3 -17t3 -16q0 -25 -12 -43v-12q8 -6 22 -12zM559 84l6 -6q0 -70 -26 -70h-33q-31 0 -42.5 14.5t-11.5 48.5 q0 16 1 26l12 10q-1 6 -13 6q2 12 2 15q0 14 -7 15q0 15 17 32q-3 4 -8 4v15l17 18q0 9 -17 15v47q15 0 19 -4q3 2 3 5q-5 5 -17 4q0 11 -4 26q-5 -3 -12 -9q-7 7 -13 11l4 -1q5 -1 7 -1l1 1q1 1 3.5 3t5.5 4t8.5 3t11.5 1q0 -7 -9 -15q4 -8 20 -19q12 11 12 18q0 5 -5 10 q2 1 12 9t18 13q-5 4 -17 14h7q5 0 8 -1q0 -4 7 -11q2 9 7 18q-2 -3 -3 -10q2 -3 6 -3q6 0 10 2l1 1q0 -11 -7 -19q2 -11 12 -29q0 -7 -6.5 -14t-12.5 -7q-4 0 -6.5 -4.5t-5.5 -4.5q-9 0 -9 -3v-2l8 -8q11 0 11 13q20 -9 20 -38q0 -17 -5 -29q5 -11 10 -37q3 -23 7 -38 q-4 -4 -4 -19v-20zM154 29q0 -15 -5 -30q-7 0 -30 -4.5t-30 -4.5q-18 0 -38 14q-6 56 -6 63q0 15 5 58q2 13 3 27.5t1.5 22.5t1.5 15t3.5 9.5t7.5 2.5q-3 3 -8 3q0 1 18 21q7 -5 11 -5q-3 -5 -17 -32q1 -2 14 -11q0 2 3 7t3 6t-1 3l-5 5q15 -1 23 -12q2 5 12.5 16t11.5 12 q-12 12 -12 15t6 5t6 4l-1 3q-1 4 -1 6l2 -5q1 -5 3.5 -12.5t5.5 -15.5q9 -24 9 -30q0 -9 -18 -26q13 -7 13 -14q0 -5 -8 -13q7 -2 17 -9q-7 -4 -12 -16l-10 -18q22 -25 22 -60zM456 701l25 -5v8l-25 4v-7zM454 646h8v16h-8v-16zM522 496l5 4l-7 7l-4 -5zM412 588l6 12l-6 2 l-6 -11zM430 562l5 12l-6 2l-6 -11zM404 522l13 5l-3 6l-10 -5v-6zM411 414q0 11 -6 17q-8 -18 -8 -24q0 7 14 7zM100 681h8v12h-8v-12zM388 393h8v11h-8v-11zM413 360h11v7h-11v-7zM520 239q-4 -4 -16 -9v-21q4 0 11 -5q7 13 7 26q0 3 -2 9zM494 218h7l-6 13l-6 -3z M359 308q-5 0 -12 -4q0 -1 4.5 -11t2.5 -15q5 18 5 30zM154 471q-3 7 -6 21q-8 -19 -10 -26q5 5 16 5zM465 137h25v8h-25v-8zM495 115q-19 8 -26 10q0 -2 15 -17q3 3 11 7zM327 268l2 6l-11 6l-2 -6zM321 229h20v7h-20v-7zM194 377l-11 11q-5 -8 -15 -21q16 0 26 10z M260 222l21 1q-5 12 -17 25q2 -9 8 -15q-8 -6 -12 -11zM145 353q-1 3 -16 26v-21q11 0 16 -5zM113 367h8v20h-8v-20z" />
<glyph unicode="N" horiz-adv-x="448" d="M409 781q0 -5 -2.5 -23t-2.5 -24l-10 -1q-3 0 -11.5 2t-10.5 2q-14 0 -17 -5v-17q0 -4 -1.5 -8t-3.5 -7l-1 -3q1 -3 3 -1q-22 7 -28 18q1 1 5 7l-2 3q-14 -9 -15 -22q-13 25 -13 46q0 32 14 43q11 8 45 8q28 0 51 -18zM395 724q0 -22 -11 -22t-11 -2q2 -4 3 -5 q-4 5 -15 3l5 22q6 -2 8 -2q10 0 21 6zM409 400q-9 6 -18 6q-3 0 -13 -2q9 -4 13 -8t3 -6v-216q0 -21 7 -66q8 -51 8 -69q0 -28 -10.5 -36t-42.5 -8q-17 0 -37 10t-26 22q-3 6 -15 67q-9 17 -22 62q-20 131 -88 131q-4 0 -15 -12q-8 -12 -12 -17q2 -6 2 -10q0 -7 -3.5 -14 t-6 -10t-11 -10.5t-9.5 -8.5q1 -1 4 -1q2 0 12.5 3.5t14.5 3.5v-186q0 -6 -10 -25q-14 -2 -30 -2q-43 0 -48 1q-27 8 -27 34l6 774l5 -4l4 3q2 -1 7 -1q6 0 24 3t22 3q-7 0 36 -6q30 -30 30 -58v-9q-1 -5 -1 -10q0 -14 5 -32q0 -1 6 -10.5t6 -14.5q0 -4 -1 -7t-4 -5.5 t-4.5 -3.5l-6 -4t-6.5 -4q2 -2 6 -2q1 0 13 2q8 -7 25 -51q15 -40 20 -40q6 0 10 3l1 1q0 -4 -9 -11q7 -7 21 -24q0 1 3 7q2 2 7 2t5 -1v-2q1 -1 4 -1q8 0 5 8q3 0 16 -13q2 3 8.5 13t11.5 17q8 50 8 60q0 4 -4 21t-4 23v2q5 3 13 12q-2 6 -2 8q0 9 10 16l-1 -2 q0 -24 30 -24q2 0 7 1t7 1t8 -2q4 10 8 22q21 -19 21 -29q0 -4 -3 -16.5t-3 -15.5q-11 3 -13 3t-8 -2q1 0 2.5 -5.5t6.5 -5.5q2 0 5 1l6 2l2 1q-1 -1 -1 -6q0 -2 1 -10.5t1 -11.5q0 -16 -10 -23v-157q5 -8 18 -18zM245 190q-7 -4 -12 -4q0 2 -1 5v6q0 4 2 10q11 -13 11 -17z M383 572q-6 2 -12 2q-5 0 -15 -2l9 -5q-5 -5 -5 -7q0 -1 3 -4q1 3 4 3q2 -2 3 -4q-4 -1 -12 -6v-1q0 -4 1 -7v-6q0 -2 -5 -10q-9 9 -9 11q0 -3 -2.5 -7.5t-4.5 -8.5l-3 -3q30 3 36 21q4 12 12 34zM328 526h8v16h-8v-16zM137 515l3 6l-12 6l-2 -7zM378 155v15l-14 15 q-4 0 -9.5 4t-6.5 4q0 -2 -5 -4q-6 0 -11 1q-7 0 -8 -1q-1 3 -1 29l-1 3h-1q-3 0 -5 2l7 6q14 -13 13 -35q11 24 11 27q5 0 5 -4q0 -1 -1.5 -6t-1.5 -6q7 3 15 11q-2 -1 -4 -1q-6 0 -5 18q-1 0 -6.5 -3.5t-7.5 -3.5t-3 1q6 10 20 24q3 -5 11 -12q2 4 8 21q-12 -5 -15 -5 l-6 3q9 4 9 10l-1 10v-1q-4 -4 -10 -4q-11 0 -11 11q0 2 1.5 12t1.5 13q8 -8 12 -8v-12q0 2 3.5 10.5t3.5 12.5l-18 5v19l7 8q4 -6 15 -12q-7 9 -10 19l5 59v5q-2 -1 -5 -3q-2 -2 -3 -2q-1 1 -4 3q3 4 9 20t8 20q-6 6 -10 15q-5 -5 -18 -5q-14 0 -19 5q1 -3 1 -8 q0 -8 -4.5 -16.5t-9.5 -13.5t-15 -14.5t-13 -12.5q11 -3 26 -26l-12 -6q2 -2 2 -3q0 -5 -10 -15q-4 -4 -7 -7.5t-5 -5.5l-2 -2v-15q3 0 8 -3q-5 -3 -8.5 -9t-6 -11.5t-3.5 -6.5q22 -19 22 -31q0 -5 -17 -22q12 -6 12 -31q0 -15 -8 -23q12 0 16 -16t22 -16q4 0 13 9 q1 -1 1 -9q0 -4 6 -4h21q0 13 6 13q6 -9 10 -13q3 3 11 5zM383 118l5 4l-7 7l-4 -5zM277 121h21v8h-21v-8zM345 456l3 -6l-18 -6v7zM352 442l5 -18h-6l-5 15zM333 430v-8h-12v8h12zM322 312v-16h-7v16h7zM324 279v-7h-11v7h11zM291 275l17 -6l-3 -6l-14 5v7zM314 195l3 -6 l-13 -5v6z" />
<glyph unicode="O" horiz-adv-x="424" d="M387 392q0 -38 -7 -101q-6 -67 -6 -101q0 -6 1 -25t1 -25q0 -42 -17 -61q-30 -32 -34 -38q0 1 7 14t7 20v6q-10 -9 -17 -22q-1 0 -10 9q-1 -1 -3.5 -2.5t-6 -4t-6.5 -4.5q18 -9 18 -20q-2 0 -7.5 -1t-8 -1.5t-7 -2t-7 -3.5t-5 -4.5t-4.5 -6.5q0 2 -3 12.5t-3 14.5 q0 8 10 17q12 8 17 12l-20 30q-2 -2 -4 -7q5 -15 5 -20q-15 2 -31 7q6 0 19 13.5t19 13.5q4 0 9 -3l4 15q-6 2 -9 2q-9 0 -13 -7v13q0 20 8 31v488q-4 4 -13 4q0 10 8 20q-8 13 -21 28q-8 5 -24 17q-17 12 -23 12q-36 0 -62 -36q-23 -32 -23 -70q0 -101 12 -124 q-13 -6 -13 -28q0 -6 2 -23t2 -21q0 -24 1 -43v-43q0 -26 -2 -60q0 -3 -4.5 -17t-4.5 -20q0 -20 3 -61t3 -60q0 -8 -8 -19q2 -6 2 -9q0 -19 -12 -27q1 -2 11 -16q3 5 5 19q2 11 11 19l6 3q3 3 5 4l6 -5v-17h-3q-9 0 -14 -11q0 -1 7 -12q2 8 9 18q1 -2 9 -21q4 -15 10 -15 q4 0 15.5 -2.5t13.5 -2.5q6 20 10 32h5q23 -2 28 5q13 -11 20 -20v-5q1 -1 1 -4q0 -8 -8 -8q2 0 -1 1q-1 1 -7 3l-3 -2q9 -19 18 -27q-24 -15 -48 -15q-70 0 -86 27l-9 -9q-24 10 -24 25q0 5 3.5 13.5t3.5 10.5q0 6 -3 7q1 -1 2 -1q3 0 3 6q0 12 -14 17q2 4 5 12 q10 -3 14 -4q3 3 3 4q0 22 -4 23q-5 1 -15 5l-1 -5q0 -8 6 -18l-11 9q-15 -21 -32 -27q-4 5 -4 15t5 15q-4 6 -9 18q7 7 7 18q0 23 -14 26q0 7 1 10q7 3 15 12l-5 6q4 3 12.5 11t12.5 12q-2 3 -7 3q-7 0 -15 -5v1q-1 5 4 10l-6 6q-5 6 -9 11.5t-4 9.5q0 18 16 34 q6 -4 19 -18l3 2q-1 1 -1 7q0 7 -26 25v2q0 1 1 4t1 4q0 8 -8 6h1q1 4 8 16q-5 7 -18 24q1 0 6.5 -2t7.5 -2q3 0 3 2q0 1 -5 6q1 1 4 1q12 0 16 19q-2 -2 -5.5 -6.5t-5.5 -7.5h-16v9q-1 10 9 13v1q0 3 4 7q-3 1 -12 8q-1 7 0 19q-5 20 -15 50q6 9 23 23q-6 13 -21 14h9 q4 11 4 27q0 7 -2.5 29.5t-2.5 28.5q0 22 9 32l-3 5l9 18v9q-1 19 8 55q11 5 27 18v4q-2 32 44 48q37 14 72 13l12 -13q8 8 8 13q29 -5 77 -15q8 -5 21.5 -15.5t15.5 -12.5q22 -19 29 -35q20 -51 20 -128q0 -6 2 -25.5t2 -24.5q0 -6 -1 -27t-1 -27q0 -30 1 -55q1 -24 1 -55z M227 82l7 -7l-5 -4l-7 7zM200 76q0 -18 -11 -31v4q0 6 -4 10q-4 -6 -11 -13l1 2q1 2 3 7t4 9q4 10 18 12zM68 60l11 -12l-4 -4l-11 11zM360 706q-11 6 -16 20q-11 -24 -11 -25v-1q13 -7 18 -19q1 10 9 25zM354 645h7v17h-7v-17zM215 779l5 5l-7 7l-4 -5zM328 614h22l-5 21 q-1 -1 -7 -8.5zM355 541q-5 11 -16 22q-4 -4 -14 -18q9 9 17 9q5 0 5 -5q0 -1 -1.5 -6.5t-1.5 -7.5q0 4 11 6zM360 514l-17 16q5 -12 5 -24q2 8 12 8zM346 485l6 12l-6 2l-6 -11zM347 466l13 6l-2 6l-11 -6v-6zM306 484l5 5l-7 7l-4 -5zM315 471l6 12l-7 3l-6 -12zM101 178 l-11 12q-5 -5 -6 -13q1 1 17 1zM82 150h7l-6 13l-6 -2zM101 137l-9 12h-6h-15q-2 -2 -2 -4q0 -8 3 -11q-1 3 2 4.5t9 1.5q2 0 9 -1.5t9 -1.5zM61 152h12v8h-12v-8zM165 21l14 6l-3 6l-11 -6v-6zM147 23l13 10q-3 7 -17 21q6 -10 6 -23q0 -4 -2 -8z" />
<glyph unicode="P" horiz-adv-x="438" d="M405 548q-4 -2 -8 -5v-7q1 -57 -26 -91q-64 -82 -120 -82q-8 0 -36.5 4.5t-37.5 4.5q-11 0 -23 -24q-11 -24 -11 -37q0 -3 3 -13t3 -13q0 -9 -2 -79q-1 -35 -1 -78q0 -68 9 -125q-50 -10 -87 -10q-33 0 -33 48q0 14 5 47q5 35 5 46v42q0 84 1 152q2 136 2 152v125 q0 7 -2 10.5t-6 2.5v131q0 20 15 44q17 24 36 24q4 0 14 -8q15 0 43 -3q40 -2 45 -2q3 0 13 2t14 2t17.5 -6.5t17.5 -6.5q3 0 6 2.5t6 2.5q24 0 65 -32q42 -33 49 -55q11 -38 11 -143q0 -10 13 -22zM293 628q0 7 -7.5 30.5t-7.5 28.5q-11 7 -23 19q-2 -14 -7 -14v3 q0 13 -17 18q-5 1 -14 2t-13 2q7 7 7 18q0 7 -1 11q-9 -2 -9 -4q0 2 3 -3q2 -3 5 -8q-11 -6 -45 -18q7 -7 7 -12l-1 -4q-12 0 -18 -2q-3 -6 -13 -21q-11 -14 -11 -19t6 -15t6 -11q0 -2 -1 -3q-13 1 -15 -13q10 -3 10 -15l2 -19q-1 -3 -6 -13q1 -17 5 -53q8 -35 26 -42 q39 -14 55 -14q2 4 35 30q29 23 30 47q2 19 7 47q5 33 5 47z" />
<glyph unicode="Q" horiz-adv-x="457" d="M183 39q-3 1 -9 2.5t-8 2.5q0 -3 -5 -11q4 -3 10 -7l6 -3q0 11 6 16zM443 53q0 -14 -8 -32q-11 -20 -24 -20q-6 0 -39 11q-29 11 -39 17q-11 11 -15 11q-7 0 -36 -22q-30 -21 -36 -21q-4 0 -4 2q2 2 2 4q0 1 -5 3q-7 0 -31.5 -6.5t-30.5 -6.5q-7 0 -23 13t-19 13t-5 -2.5 t-5 -2.5q-17 0 -27 31l-3 -9q-42 34 -51 102q-1 10 -1 120q0 17 7 32q-4 5 -4 16q0 9 3 18q-4 4 -13 3v111l7 9q3 81 3 106q0 39 -3 67q2 10 2 17q0 77 46.5 122t124.5 45q126 0 162 -130q10 -36 9 -61l-26 -436q-1 -16 10 -47q5 -14 29 -23q34 -13 37 -16q0 -2 2 -10.5 t3 -16t1 -11.5zM106 547l4 4l-6 7l-4 -5zM331 291l5 4l-6 7l-5 -5zM322 216q-14 4 -39 18v12q5 3 13 10q-6 0 -12 9q0 3 -3 41q-1 25 0 41l-1 1q-2 0 -4 1.5t-2 5.5q0 5 3 9l3 4q-1 16 2 58q-17 0 -17 10q4 2 6 2q4 0 11 -7q-4 23 -4 55q0 14 2 38q0 3 3.5 17t3.5 18 q0 5 -5 24t-5 25q0 2 1 5q5 -2 13 -3l-27 57q-19 37 -46 37q-46 0 -68 -18q-11 -48 -19 -66v-56q0 -6 3.5 -23t3.5 -22q0 -17 -5 -65t-5 -64q0 -75 -1 -78l9 3q-12 -13 -12 -22q0 -8 15 -17l1 -5q-14 -5 -15 -14l1 -22q0 -13 -7 -21q-3 13 -12 22l-11 -10q2 -20 18 -36 q-1 -1 -5 -1q-3 0 -11 3.5t-10 3.5q0 -2 1.5 -8t1.5 -8q0 -3 -1 -5q-9 9 -9 11q0 -7 -11 -18q2 -2 6.5 -8t8.5 -11q2 1 8 5l3 -3l-7 -7q-6 2 -9 5l-5 -21q7 -3 17 -16l-8 -10q3 1 9.5 5.5t12.5 8t8 3.5h1q12 -9 38 -37q-5 -8 -13 -19q4 0 12 -5l-1 5q0 4 4 8q4 -9 34 -21v-1 q-1 -1 10 -13q-1 1 -1 3q-1 3 -1 4q2 2 6 2q-3 0 5 -11q5 -5 14 -5q-4 -5 -3 -9v-1q2 2 4 2q1 0 5 -1t6 -1q12 12 14 21l-6 -1q-2 0 -7 3q22 16 33 16q4 -1 4 -3v-3q13 -7 19 -7l4 21q-6 0 -15 9q0 -5 -4 -9q-3 3 -3 5t1 6q4 3 13 14q-17 9 -17 16q5 3 13 10q-10 1 -10 5 q0 3 5 10q3 -4 12 -9q4 7 12 13q4 -4 4 -17l7 25q-14 0 -14 9q-4 -8 -14 -17l-7 7q2 27 12 76h11q7 -9 15 -22q0 13 6 19zM288 157l5 4l-7 6l-4 -4zM333 108l2 7l-17 5v-6zM305 100l5 4l-7 7l-4 -4zM100 317q-2 0 -9.5 -5t-9.5 -5q2 0 2 -3q0 -4 -1 -7q1 -1 1 -7q0 -4 -3 -7 h-5q-6 1 -9 -3q18 0 24 -14v5q-1 3 -1 6t5.5 19t5.5 21zM111 251l3 7l-20 10l-2 -7zM271 67l-4 -6l-16 10l5 6zM77 204l2 6l-11 5l-2 -6zM105 167l-2 -7l-15 6v6zM137 111h-7l-5 10l6 2zM341 177q0 -3 -7 -3h-1h-2q3 -9 6 -14q0 2 4 17zM336 128l-5 13l-6 -3l5 -10h6z M322 77q-8 8 -15 8l-15 -3q23 -23 25 -23l-1 5q0 7 6 13z" />
<glyph unicode="R" horiz-adv-x="440" d="M415 54q0 -23 -17 -37.5t-37 -14.5q-5 0 -18 8q-4 1 -10 0q-7 -3 -13 -3q-12 0 -23 17q-7 14 -9 21q6 2 6 11q0 10 -14 60q1 1 2 3t3.5 5t4.5 6l-7 6l-2 -4q-2 -3 -4 -5.5t-4 -2.5q8 24 8 44q0 2 -13 37q-10 30 -16 54q-10 53 -16 68q-16 42 -45 42q-3 0 -17 -4t-19 -4 q-1 -1 2 -11q-8 -8 -11 -22q5 -22 5 -30q0 -6 -4 -15t-4 -15q0 -53 10 -122q1 -6 0 -18q0 -3 -0.5 -7t-1 -6.5t-0.5 -5v-3.5q0 -26 18 -40q0 -4 -8 -15q-4 -21 1 -29q-2 -10 -18.5 -21.5t-30.5 -11.5q-29 0 -51 15q-5 3 -11 30q-1 1 -4 6t-5 8q1 2 3.5 8t3.5 9q-1 23 -6 141 q-1 3 -6 6q8 18 8 34q0 14 -2 132q-2 120 -2 136q0 54 -3 103q0 8 -1.5 39.5t-2.5 55.5q-7 10 -7 15q0 65 43 65q4 0 11 -2t11 -2q2 0 9.5 6.5t11.5 6.5q7 0 35 -7q32 -6 36 -6q3 0 14.5 6.5t16.5 6.5q4 0 7 -3t4 -6l2 -3q15 0 39 -3q10 -5 39 -13q13 -17 36 -35 q9 -22 38 -70q-4 4 -7 0q-5 -34 -4 -41q1 -3 6 -9q2 -66 -5 -118q-3 -28 -43 -99q-3 -1 -11 -9q1 -14 36 -124q-1 -10 4 -36q5 -22 8 -41zM299 518q-16 16 -16 40q0 11 5 38q-7 12 -6 16q10 6 6 19q-3 6 -8 18t-8 18q-14 26 -27 26q-4 0 -5 -2.5t-4 -2.5q-2 0 -7 6.5 t-17 6.5q-23 0 -59 -14q-17 -8 -26 -41q-5 -23 -5 -78q0 -33 14 -77q2 -2 4.5 -6t6.5 -9.5t7 -9.5q31 -11 54 -11q20 0 46 20q1 1 45 43zM310 137h7v11h-7v-11zM295 123l5 11l-6 2l-6 -11z" />
<glyph unicode="S" horiz-adv-x="416" d="M380 704v-86q-16 -14 -24 -17q-6 -2 -24 -2q-3 0 -21.5 2t-23.5 2q-4 0 -5.5 1.5t-3.5 5t-2 4.5q1 27 -15 58q-19 37 -50 37q-34 0 -54 -32q-16 -26 -13 -54q0 -2 -3 -15.5t-3 -17.5q0 -31 12 -49q12 -21 22 -31q2 -6 -7 -15q5 -3 17 -3l-7.5 -7.5t-12.5 -12t-10 -5.5 t-10 2q-2 1 -4 -1q0 -7 3 -10l54 26q0 -9 2 -13q4 4 4 9q27 -20 70 -58q55 -68 81 -108q4 -7 0 -17q3 -4 14 -17q-2 -20 2 -44l4 -33q0 -2 -4 -12.5t-4 -13.5q0 -7 6 -8q-13 -34 -18 -89q-10 -6 -19 -19q-12 -16 -20 -24q1 -1 6 -9q-11 0 -16 3q0 -1 -3 -10q-1 -3 -2.5 -5 t-4 -2.5t-4.5 -1t-8 -0.5h-10h-20l-3 -3q-4 -3 -8.5 -6t-8.5 -3q-2 0 -6.5 -0.5t-13 -1t-17.5 -0.5q-8 0 -16.5 -0.5t-13 -1t-6.5 -0.5q-26 0 -57 14q-15 7 -41 31q-45 42 -45 107q0 32 10 43.5t41 11.5q17 0 23 -2q12 -4 30 -17q4 -19 20 -57q19 -30 30 -30q3 0 13 -4.5 t14 -4.5q3 0 10.5 4.5t11.5 4.5t7 -3.5t5 -6.5l2 -3q7 4 7 10q0 5 -8 5q2 2 6 -2q19 30 22 35q13 22 13 39q0 15 -10 25q8 8 11 14q-2 11 -4 47q-6 14 -17 30q-28 29 -87 93l7 25q0 -9 4 -13q4 0 7 1q4 4 7 17t4 15l-4 3q-8 2 -21 9q0 1 2 3t5 4l6 4t5 4q0 -1 -11 19 q-3 -3 -5 -4q-4 -4 -4 -7q0 -4 11 -4q-18 -8 -28 -2l-12 -12q4 -3 13 -3q-9 -10 -4 -15q-9 -1 -25 0q-85 40 -85 206q0 27 3 42q5 10 12 31q2 2 7.5 6t8.5 7q-4 1 -13 9l2 3q2 2 5.5 4.5t7.5 2.5q12 0 12 3q-2 23 14 39q15 15 44 26q31 12 56 12q20 0 34 -2q-3 -7 7 -7 q4 0 5 4.5t4 4.5q4 0 47 -26q44 -27 50 -34q7 -13 13 -26q13 -23 24 -25zM90 715l-12 11q0 -10 -10 -20q2 0 11 4.5t11 4.5z" />
<glyph unicode="T" horiz-adv-x="391" d="M370 736q0 -56 -34 -56q-7 0 -23 4t-22 4q-17 0 -27 -9q-2 -1 -26 -28q-1 -2 1 -9.5t2 -8.5q-9 -2 -23 12q-8 -12 3 -18q1 -4 1 -15q-11 -5 -11 -7l7 -7q8 8 14 8q0 -3 -21 -24q-1 -2 3 -6q12 0 12 11q0 -2 6 -9t6 -8q1 -6 -2 -28t-3 -28q1 -2 4.5 -7.5t6.5 -9.5 q1 -7 1 -43v-139q0 -4 -4 -17.5t-4 -16.5q0 -4 4.5 -16.5t4.5 -14.5q0 -5 -4 -13q4 -7 4 -30q2 -34 2 -35q0 -2 -3 -15.5t-3 -18.5q0 -3 4.5 -13.5t4.5 -11.5q3 -25 3 -44q0 -71 -37 -71q-1 0 -5 -0.5t-11 -1t-14 -0.5t-14 -0.5t-11 -1t-5 -0.5q-17 0 -28 21q-9 17 -9 37 l31 559q0 49 -12 54q-31 15 -34 15q-2 0 -30 -5q-23 -4 -30 -4q-32 0 -32 65q0 19 8 41q10 28 28 28q4 0 13.5 -2.5t12.5 -2.5q4 0 16 -3.5t14 -3.5q49 0 56 1q1 -4 9 -15q14 7 25 11q11 -4 33 -4q20 0 60 5q7 1 13 1.5t10 1.5t7 1.5t4 0.5h1q29 0 40 -18q7 -13 7 -42z M231 745v21q-9 -10 -33 -10q4 -1 15 -4.5t18 -6.5zM219 735q-1 0 -17 -15q2 0 4.5 -3t5.5 -7l2 -4q0 2 2.5 14t2.5 15zM177 708h25v8h-25v-8zM184 752q-22 -16 -23 -16l-10 8q11 -20 15 -30q2 6 18 38zM183 689h8v16h-8v-16zM196 611h8v16h-8v-16zM181 238l22 10l-3 6 l-19 -9v-7z" />
<glyph unicode="U" horiz-adv-x="456" d="M258 43l-6 3l-6 -12l7 -2zM406 462v-108q-17 -8 -17 -37q0 -7 5 -29q6 -20 6 -24q0 -1 -4 -11t-4 -12q2 -10 2 -20q0 -12 -5 -47q-4 -27 -4 -45q0 -2 1 -7.5t1 -6.5v-2q-8 -24 -27 -62q-14 -22 -40 -39q-31 -20 -52 -20q-4 0 -6.5 2.5t-4.5 2.5q-4 0 -17.5 -9t-17.5 -9 h-40q-4 0 -13 11t-11 11q-5 0 -5 -1v-1q0 -2 -4 -2q-15 0 -40 27q-35 36 -36 37q-1 12 -15 47q-8 27 -8 54q0 7 -13 7v393q0 5 3 8l4 2q-1 6 -1 22q0 83 4 194q10 19 49 19q36 0 53 -14q1 -14 15 -40q0 -6 -17 -15v-33q0 -9 2 -27h-2q-5 0 -5 -8q0 -10 3 -41.5t3 -34.5 q3 -4 7 -14q-8 -14 -8 -37q0 -14 7 -35t7 -33q0 -1 -1 -19t-3 -61.5t-4 -92.5q-4 -105 -5 -132q-6 -9 -6 -17q0 -5 3 -6.5t3 -2.5q-1 -3 -1 -11q0 -25 17 -36q0 -2 -13 -14q2 -7 7 -16q12 5 36 18q0 -3 -4 -10q-2 -5 0 -11q-12 2 -13 2q-5 0 -8 -1q4 -4 21.5 -12t24.5 -17 q13 13 12 22q6 -2 9 -2q6 0 16 5l-8 2v16l12 5q-2 -4 -3 -12l2 -5q10 8 28 18q-5 8 -8 9l-12 -9q-5 8 -5 10q38 30 38 87q0 7 -7 78q-5 55 -12 157v5q0 9 1.5 36t1.5 34l-2 1q-1 1 -2.5 3.5t-1.5 6.5q0 1 4.5 3.5t4.5 6.5q0 6 -5 26t-5 26q0 50 19 81q-6 6 -13 8v106 q0 5 8 19q7 14 12 16q35 8 55 8t33 -19q0 -1 0.5 -18t2 -57t2.5 -85q0 -24 8 -118l1 -2q0 -2 -3.5 -11t-3.5 -11v-2zM319 541h12v8h-12v-8zM132 123l2 6l-11 6l-3 -6z" />
<glyph unicode="V" horiz-adv-x="411" d="M391 782q0 -7 -2 -7q-5 -1 -6 -3q-1 -8 -1 -26t-1 -26q-4 -34 -21 -49q0 -6 13 -6q0 -1 -2.5 -9t-7 -24t-9.5 -34q2 -2 3 -9q-6 -34 -11 -70q-6 -103 -33 -229q2 -12 2 -27l-16 -12l26 -26q-6 -6 -22 -6v-25q-1 -13 -1 -26q0 -1 -5 -9.5t-6 -13.5q-2 -14 0 -40 q3 -35 3 -45q0 -34 -10 -55q-14 -11 -29 -11q-3 0 -7 4.5t-8 4.5t-20 -4.5t-20 -4.5t-17 11q-18 16 -20 17q7 12 3 31q-2 1 -6 9q1 37 -27 127q-7 26 -26 119q-11 53 -55 329q-4 24 -19 77q-15 52 -15 59q0 22 31 28q4 1 39 1q24 0 42 -15q8 -29 25 -115q-3 -4 -3 -14t6 -30 l8 -23l9 -51q11 -29 43 -29q17 0 25.5 15t14.5 54q11 45 19 96q-1 19 -1 58q2 45 12 52q14 10 66 10q13 0 25 -8t12 -20zM316 201l6 -2l-5 -12l-6 3zM344 625l12 5l-2 6l-10 -5v-6zM212 67l13 6l-3 6l-10 -5v-7zM206 6l11 11l-5 5l-11 -11z" />
<glyph unicode="W" horiz-adv-x="593" d="M569 764q0 -19 -4 -48q-4 -28 -4 -49q-3 -17 -20 -65q4 -9 4 -12v-2q-5 -6 -20 -18v-33q8 -6 16 -14q-1 -3 -1 -9q0 -4 1.5 -15t1.5 -13q0 -14 -7 -92q-3 -52 -12 -148q-2 -12 -21 -22q13 -13 13 -37q0 -12 -4 -28q-4 -23 -6 -27q-3 -19 -4 -62q-2 -40 -10 -61 q-24 -15 -37 -15q-3 0 -14 2t-15 2t-9 -4.5t-8 -4.5q-14 0 -33 19v55q3 3 8.5 8t7.5 7v23q0 6 13 32q-1 6 10 29q-13 6 -21 21q-6 0 -6 -9q-10 13 -16 13q-4 0 -19 -4.5t-19 -4.5q-3 0 -10.5 6.5t-11.5 6.5q-8 0 -24 -15q-18 -16 -19 -22q-3 -10 -3 -39q0 -1 -13 -14 q0 -7 13 -7q-7 -25 -18 -100q-18 0 -19 1q-7 -5 -33 -6q-27 -3 -34 -2q-16 3 -22 40q-8 48 -18 61q2 10 2 19q0 29 -17 86q-16 54 -16 69q0 22 10 38q7 5 16 13q1 10 -6 10q-3 0 -11 -2t-9 -2l-88 441q7 28 43 28t47 -14q15 -66 15 -89l-2 -3q-1 -3 -6 -9.5t-9 -13.5 q3 -20 11 -20q2 0 7.5 2t6.5 2l1 -1q1 -1 1.5 -2.5t1.5 -4t1 -5.5q0 -11 -17 -28q7 -7 17 -7q0 -3 -13 -15q2 -7 7 -15q2 2 8 11q0 -20 11 -39q12 -21 31 -21q14 0 25 17q3 9 12 27q27 28 95 51q0 1 -6.5 7.5t-6.5 11.5q0 14 26 29q-2 7 -9 7q-5 0 -11 -4l-1 -1l-2 4 q4 6 6 8q1 7 -3.5 10.5t-12.5 3.5q-5 2 -5 -1q1 0 1 -1q-2 -2 -5 -2q-6 0 -13.5 6t-8.5 12q-10 -15 -17 -27q-6 8 -6 19q0 2 4.5 14t4.5 14q0 5 2 47q5 0 7 5q-3 7 -5 10q12 0 28 14q4 -9 44 -9q4 0 7 4.5t6 4.5q9 0 28 -18q0 -26 -5.5 -39t-16.5 -12q0 -10 12 -10q6 0 10 4 q-1 -3 -26 -28q7 -7 19 -7q3 4 12 13q-6 -13 -18 -23q1 -1 5.5 -4l6 -4t5 -3.5t5 -4.5t3.5 -5t2.5 -6t0.5 -6v-2q-1 -4 -2.5 -15t-2.5 -16q5 -1 15 -8q1 -17 21 -46q21 -32 36 -32q4 0 6 2t3 4l1 2v-23q7 -7 11 -7q2 2 2 4q0 5 -7 18l11 -9q6 0 6 13q1 -1 4.5 -5.5t6.5 -7.5 l11 11q-1 1 -2.5 3t-3 4.5t-2.5 4.5q0 1 6 5.5t6 9.5q0 8 -9 17t-9 11q0 4 3 15t3 15h6q8 0 15 3q-2 7 -7 15q-8 -8 -15 -8v32q0 9 7 19q-1 6 -1 20q0 4 2 42q1 8 1 19t0.5 16.5t2 12t5.5 11t11 9.5l4 -1q5 0 19.5 2t18.5 2q10 0 16 -17q6 -14 6 -25zM504 607l13 6l-3 6 l-10 -6v-6zM521 581l6 4l-10 16l-7 -4zM521 541l-22 5l11 -12q4 4 11 7zM249 743h16v7h-16v-7zM505 494q-2 -3 -15 -20q4 0 12 -6q5 12 5 20q0 2 -2 6zM309 618q0 2 1 9t1 9q0 1 -2 7q-9 -3 -16 -4q0 -14 16 -21zM447 471l5 5l-11 11l-5 -5zM478 362l4 4l-6 6l-5 -4z M499 273h-7q-3 -1 -6 -1q-5 0 -8 3q0 -11 6 -18q0 3 15 16zM445 256l15 10l-4 6l-15 -10zM468 239l6 12l-6 2l-6 -11zM464 165l6 11l-7 3l-5 -12zM165 460q-1 4 -6 12q-8 -9 -13 -9t-12 4q0 15 -6 23q-1 -14 -11 -19q8 -9 19 -25q14 14 29 14zM464 107l13 5l-2 6l-11 -5v-6z M442 116l6 12l-7 2l-5 -11zM473 72l5 4l-7 7l-4 -5zM433 103l6 12l-6 2l-6 -11zM434 76l4 4l-6 7l-5 -4zM156 342q0 4 -6 12l-2 -4q-2 -5 -4 -8.5t-3 -3.5h6q6 0 9 4zM409 62q-2 0 -5 5.5t-4 5.5t-2.5 -4t-2.5 -8l-1 -4q1 0 3.5 1t5.5 2zM126 270l6 12l-7 2l-5 -11zM155 201 h7v20h-7v-20zM151 182l15 15l-4 4l-15 -15zM209 127q-5 5 -5 15h-21q15 -15 26 -15zM153 140h16q-10 18 -5 29q-11 -13 -11 -29z" />
<glyph unicode="X" horiz-adv-x="466" d="M438 770q-27 -37 -50 -91q-7 -19 -35 -92q-20 -54 -38 -115q-21 -70 -21 -78l20 -67q11 -35 17 -57q1 -1 10 -21q6 -13 18 -17q0 -11 -8 -19q1 -1 4.5 -5t6.5 -7q9 -30 41 -116q26 -69 26 -72q0 -9 -12.5 -16.5t-20.5 -7.5q-4 0 -9 4.5t-8 4.5q-4 0 -3.5 -4.5t-3.5 -4.5 t-19 2t-19 2t-16 9t-15 9q0 1 4 7.5t4 11.5q0 2 -12 46q-11 44 -15 66q-9 2 -10 9l-2 6t-2 5l-1 2q-8 8 -25 8q-16 0 -32 -12q-21 -16 -28 -39q0 -2 -2 -22q-10 -24 -27 -83l-20 -15q-11 -8 -17 -8q-36 0 -58 5q0 1 -2.5 9t-2.5 12q0 14 23 55q-2 2 -3 9q3 5 10.5 16.5 t11.5 18.5q-4 13 9 26q-2 14 -2 29q16 56 41 132q27 81 27 86q0 21 -27 91q-10 14 -28 48q-1 21 -12 65q-40 90 -76 185q10 10 23 17l38 6q12 0 39 -11q30 -14 33 -26q11 -60 10 -70v-30q16 -20 55 -68q16 8 17 20q14 -2 36 34l8 8q-3 2 -3 6v44q9 7 25 53q12 35 43 35 q50 0 65 -4h6q5 -6 14 -24zM255 306l6 12l-7 2l-5 -11zM290 201l13 5l-2 6l-11 -5v-6zM164 192l17 5l-2 7l-15 -6v-6zM149 140l11 11l-4 4l-11 -10z" />
<glyph unicode="Y" horiz-adv-x="412" d="M394 756q0 -4 -25 -88q-24 -82 -34 -127l-2 -1l-4 -4q-8 -54 -38 -193q-11 -21 -19 -44q-2 -19 -3 -57q-1 -9 -2 -25l-5 -45q0 -27 6 -79q6 -53 6 -79q0 -6 -8 -15t-15 -9q-1 0 -5 0.5t-11.5 1t-14.5 0.5t-14 0.5t-11 1t-5 0.5q-18 0 -22 54q0 13 -2 38t-2 38q2 5 7 44 q0 39 -4 91q-4 8 -17 18q6 22 -1 44q-5 2 -13 8q0 4 -1 15t-1.5 16t-1.5 14t-3 13.5t-4.5 10.5t-6 9.5t-8.5 4.5q0 2 -2.5 22.5t-2.5 29.5q-4 -4 -9 -4q-3 37 -44 173q-40 129 -40 134q0 7 6.5 14.5t13.5 7.5q10 0 17 -9q3 3 3 13q22 0 64 -11q20 -11 20 -40q0 -7 -3 -13 q1 -1 5 -6.5t7 -10.5q-1 -7 0 -16l10 -10q4 -27 -3 -52q12 -8 25 -20q14 -14 19 -14h33q-1 4 -1 21q8 8 15 17q1 16 5 48q5 29 19 36q0 1 -8 12q2 6 4 35q2 13 20 24q20 14 34 12l4 1q4 2 9 3.5t9 1.5q30 0 42.5 -12t12.5 -43zM301 653h6l-5 18l-6 -3zM221 346h8v12h-8v-12z M223 104l6 11l-7 3l-5 -12zM221 79h8v16h-8v-16zM232 51l5 12l-6 2l-6 -11zM227 46q-2 0 -11 -1.5t-13 -1.5q-13 0 -13 15q0 -1 1.5 -10t1.5 -14h20q2 2 14 12zM183 34l6 11l-6 2l-6 -11z" />
<glyph unicode="Z" horiz-adv-x="410" d="M389 62l-2 -6q-2 -5 -7.5 -19.5t-10.5 -29.5q-1 0 -9.5 -2.5t-13.5 -2.5h-15q-7 0 -18 21q-1 -1 -4 -8.5t-4 -8.5q-7 4 -26 4q-3 0 -17 -6.5t-17 -6.5q-4 0 -8 4.5t-7 4.5q-4 0 -15.5 -4.5t-14.5 -4.5l-16 5q-4 0 -7.5 -2t-5.5 -4l-2 -3l-10 9q-9 -9 -13 -9q-6 0 -8 4 l-1 1q-9 -1 -73 -1q-5 2 -13 8q-12 9 -12 21l2 7q-2 -1 -3.5 1.5t-1.5 7.5q0 4 12 42q6 18 19 62q21 76 39 129q10 28 88 254q15 47 15 73q23 43 22 58q-74 13 -94 13q-5 0 -26 -3t-26 -3q-41 0 -51 19q-7 10 -7 47q0 48 26 62q14 7 71 7q45 0 47 1q41 -10 82 -10 q3 0 8.5 0.5t16 1t20.5 0.5q35 2 45 1q8 -2 19 -14q14 -14 14 -26q0 -24 -17 -75q-11 -31 -23 -66q-2 -7 -18 -34q2 -5 0 -19q-1 0 -2 -1.5t-3.5 -3.5t-4.5 -3q4 -37 -17 -48q-2 -26 -7 -56q-17 -47 -66 -176q-1 -6 -5.5 -25t-7.5 -31q-1 -3 -3.5 -9.5t-7 -17.5t-8.5 -21 q-12 -31 -12 -37q0 -8 23 -33q13 13 20 13q3 0 17 -6.5t17 -6.5t20 6.5t21 6.5q6 0 26 -21q26 17 36 17q7 0 21 -20t14 -27zM299 675h12v8h-12v-8zM319 70q-8 -10 -22 -8q-23 2 -16 3q12 -12 17 -12q16 0 21 17zM272 44q-10 -1 -25 -6q6 -1 19 -6q4 4 6 12zM198 32h7v12h-7 v-12zM165 45h6l-6 13l-6 -3zM124 77l3 6l-15 10l-4 -5z" />
<glyph unicode="\" horiz-adv-x="465" d="M397 102l-10 11l7 3l8 -9zM169 409q2 9 11 36q-20 15 -26 28q1 12 2 35q2 35 -6 59q-7 22 -31 49q-23 26 -24 27q-2 9 5 30q8 23 6 33l5 1q6 4 18 2q2 4 1 6q-2 4 -6 5q0 -3 10 1q8 1 16 18q-3 8 -20 16q13 5 20 12q-2 9 -21 13q-6 -6 -17 -11q-18 -5 -46 7l51 33l20 7 q19 -15 27 -38q3 -8 7.5 -32.5t6.5 -30.5q5 -15 13 -23q5 0 6 -4q0 -2 -0.5 -16t0.5 -18q8 -39 36 -119q5 -11 12 -42q11 -30 16 -42q-11 -7 -7 -17q8 -18 24 -33q-1 -5 1 -15q2 -6 11.5 -22.5t11.5 -22.5q5 -17 -1 -28q7 -4 23 -10q0 -4 -2 -26q2 -3 4.5 -7t3.5 -6l2 -2v-1 q-11 -11 -3 -31q2 -2 4 -3q4 10 8 12q1 -4 4 -22q3 -10 12.5 -18t9.5 -9q1 -3 -1.5 -17.5t0.5 -20.5q1 -6 8 -18q0 -3 -0.5 -6t-0.5 -5v-3.5v-1.5q4 -11 15 -26t19 -16q-2 -31 -5 -37q-5 -11 -29 -20q-11 -5 -22 6q-2 -4 -1 -9q-17 -6 -30 -2l-10 -11q-2 4 7 17 q-12 6 -15 19q-1 4 -1 19t-2 18q-1 7 -11 15q15 11 31 21q-8 1 -30 -8q-6 15 -27 36l7 1q1 6 9 23l-17 49q-7 2 -10 1q-1 4 -3 17t-3 16q-3 10 -16 7q-1 40 -17 85q-7 7 -7 11q-8 11 -9 17q-2 9 -1 13q-7 10 -26 29zM340 32l-15 -10l5 -5l12 9zM298 144l-2 -12l7 -1l2 12z M281 156l-7 -2l3 -11l8 3zM112 624l4 6l8 -4l-2 -6z" />
<glyph unicode="^" horiz-adv-x="629" d="M354 819q21 -6 27 -11t13 -25t16 -37q14 -14 28 -33q2 -15 12 -43q42 -64 76 -125q-5 -3 -11.5 -5.5t-12 -4t-12.5 -2.5t-11 -1.5t-9 -1l-5 -0.5q-16 0 -43 8.5t-29 16.5q-10 31 -10 45v2v20q-2 2 -55 46q-12 -6 -18 -14q-14 0 -35 -23l-8 -5q3 -2 3 -4v-30 q-9 -5 -25 -35q-12 -24 -43 -24q-50 0 -65 3h-6q-6 5 -14 16q23 37 52 87q31 53 64 110q28 50 28 56q12 17 55 17q18 0 38 -3z" />
<glyph unicode="_" horiz-adv-x="536" d="M494 -56l-6 -67l-78 -4q-1 -1 -29 2q-33 2 -39 1q-11 -3 -48 -4q-36 -2 -82 -2q-66 0 -72 -1q-4 -1 -17 -1.5t-19 -0.5q-4 -1 -37 1q-15 0 -22 -4q-1 32 0 36q-6 8 -7 17q0 2 2.5 18.5t2.5 22.5q19 12 21 12l230 -3q120 3 176 0q3 -2 24 -23z" />
<glyph unicode="`" horiz-adv-x="493" d="M146 818q7 24 23 48q5 7 0.5 17t-3.5 11q39 10 57 21q20 -3 107 -63q23 -17 31 -32q-34 -34 -56 -25q7 -19 2 -34q-1 1 -4 13t-5 14q-8 -2 -9 -15l-13 13q-8 8 -12 6l4 -6q5 -5 0 -12q-7 -9 -25 -9q-8 7 -50 30q-41 23 -47 23z" />
<glyph unicode="a" horiz-adv-x="491" d="M136 159l2 -7l-17 -5v7zM58 111l2 -6l-12 -5v6zM71 94q-2 0 -4.5 -9.5t-6.5 -9.5l-12 1q16 18 23 18zM90 35q-6 -15 -28 -25q-5 6 -28 28q2 3 9 9t8 8l-7 7q-2 0 -8 -2t-9 -2l-6 2q21 9 25 11q3 -5 44 -36zM475 52q-2 -4 -4 -44l-1 -5q-16 -10 -32 -10q-4 0 -7 4.5 t-6 4.5t-5 -2.5t-5 -2.5q-4 0 -3 7q-2 2 -4 2q-4 0 -4 -6q0 -1 -5 -3q-25 0 -35 19q-3 6 -16 77q-10 60 -35 60q-3 0 -6 -4.5t-7 -4.5q-2 0 -7.5 6.5t-9.5 6.5q-5 0 -5 -1l1 -1q0 -2 -5 -2q-4 0 -4 1l2 3l1 3l-3 2q-29 10 -39 25q-10 -13 -7 -29q-5 -1 -12 -1q-9 0 -16 5 q-3 -7 -10 -13q-2 8 -2 11q0 2 2 9t2 9q0 5 -7 11q-5 0 -19.5 1.5t-18.5 1.5q0 2 12 16l1 5q0 2 -3 5q-8 -8 -10 -8q0 6 8 14q-5 5 -10 5q-2 0 -6 -2q0 3 7 10q-2 1 -7 4.5t-8 6.5q-4 -4 -3 -17q-8 5 -11 5q0 2 12 14q-4 7 -14 14q-12 8 -16 12q3 4 5 10q3 0 11 -5l11 -7 l3 6q3 3 4 5q0 5 -33 24h-1q2 3 7 10q-3 6 -3 15q0 25 17 33q-2 1 -6.5 5t-8.5 6q-4 -4 -3 -13q-6 1 -12 7q14 6 30 17l-6 6q-3 -1 -5 -6q-5 8 -9 23q1 -1 6 -5.5t8 -7.5l2 9q0 4 6 4q4 0 5.5 -1t2.5 -2v-1q1 2 8 11l-7 6q-2 -1 -9 -5.5t-13 -7.5q-7 7 -10 13q11 0 15 -4 l6 7l1 5q0 2 -3 5q-4 -4 -10 -4q-2 10 -9 33q8 8 34 26v33q-4 4 -17 4q2 8 13 41q4 5 4 8q0 7 -17 12q9 23 22 27q-13 13 -13 21q0 18 14 68t16 72q13 3 56 17q31 10 56 10q24 0 48 -102l121 -516q2 -13 7 -37t8 -37q14 -57 28 -62zM104 499l5 -12h-6l-6 10zM317 167v15h-8 v-15h8zM265 171l-6 13l-6 -3l5 -10h7zM92 347v-12h-8v12h8zM156 262l-4 4l-11 -10l4 -5zM99 244l6 -2l-6 -12l-6 3zM46 189v-7h-16v7h16zM56 158l6 -4l-11 -15l-5 4zM236 515l11 11l-4 4l-11 -10zM119 593l11 11l-4 4l-11 -10zM125 457q-9 9 -9 15q-7 0 -7 -16q1 1 16 1z M302 296q0 36 -20 101q-25 76 -53 76q-35 0 -49 -81q-16 -95 -33 -112q16 -13 25 -21l-8 -9l19 -11l10 9q6 0 30 -4.5t32 -4.5q16 0 31 20q16 19 16 37zM129 341q-2 1 -11 6q-5 -8 -13 -19q1 0 24 13zM168 223q-9 9 -9 20h-17q7 -8 26 -20zM137 197q-6 -1 -11 4q-3 -3 -3 -6 l1 -7q1 2 -1.5 3t-8.5 1t-10 -4q-7 -7 -9 -7q7 -7 8 -7l12 5q3 -11 3 -15q0 -7 -6 -10q10 -21 12 -27l-10 9q-10 -10 -41 -12q22 19 22 26l-4 1q-5 0 -12 -7q-1 6 -6 11q8 6 13 8q-16 7 -26 9q3 3 9 3l9 -1q6 10 6 19v29q0 -2 5.5 -12t5.5 -14q0 -3 -1 -5h11l7 8 q-10 19 -13 22q34 -16 38 -24z" />
<glyph unicode="b" horiz-adv-x="416" d="M384 594q0 -7 -4 -12q-6 -6 -8 -10q4 -7 4 -17q0 -7 -4.5 -30t-4.5 -28q5 -3 17 -15q-2 0 -9 2t-9 2q-22 -53 -22 -70q0 -20 17 -52q17 -30 19 -42q-4 -4 0 -119q-1 -7 -5 -27.5t-6 -34.5q-14 -68 -45 -103q-23 -27 -48 -35q-16 -6 -60 -6q-11 0 -47 4q-45 5 -46 5 q-4 0 -7 -4.5t-7 -4.5h-44q-4 0 -30 14q0 8 3 35t3 33q0 99 3 147q0 10 -3 31q-4 24 -6 35q-1 3 2.5 16.5t3.5 14.5q-1 13 -1.5 49t-0.5 53q6 154 0 217q0 7 -5 32q-5 27 -5 29q0 4 2 6.5t4 4.5l2 1q1 3 1 13q0 4 -1.5 19t-1.5 19q0 25 18 43l161 -13q5 0 11 6q7 10 11 12 q6 -8 27 -26q15 -2 40 -12q44 -26 66 -79q1 -12 9 -38q-1 -16 -4 -47l2 -3q3 -3 5.5 -7t2.5 -8zM287 589q0 26 -2 32q-6 19 -18 48q-8 13 -28.5 25.5t-33.5 12.5q-25 0 -38 -7q-13 -6 -26.5 -21t-13.5 -23q0 -4 3 -35q3 -30 3 -45v-51q3 -34 19 -48t50 -14q7 0 24 7 q18 7 26 7q15 8 22 39l9 42q4 9 4 31zM308 192v34q0 4 -2.5 8.5t-5.5 7.5l-2 2q-3 25 -17 93q-3 11 -39 23q-30 10 -46 10q-11 0 -32 -8q-23 -11 -27 -20q-3 -15 -12 -36q3 -8 3 -54q0 -26 -4 -33l-6 -5q0 -5 9 -11.5t9 -7.5q-4 -1 -12 -6q1 -4 -0.5 -13.5t-3.5 -19 t-2 -10.5q0 -10 6 -6q6 -23 -1 -40q5 0 10 4l9 -9q7 1 23 8q31 -31 33 -31q4 0 6 4.5t5 4.5t5.5 -1t4.5 -2.5t3 -2.5l2 -1q-7 7 1 7q3 0 10.5 -2t11.5 -2q5 0 15 10q28 49 35 73q3 12 1 31q3 7 10 1zM291 53q-11 0 -20 19q0 -19 9 -26q4 4 11 7zM167 68l6 11l-6 3l-6 -12z M105 68l6 11l-7 3l-5 -12zM120 22l3 6l-21 10l-2 -6z" />
<glyph unicode="c" horiz-adv-x="398" d="M373 131q0 -4 -1 -8.5t-2 -7.5l-1 -3v-6q-9 -10 -39 -54q-23 -33 -40 -41q-39 -18 -102 -18q-4 0 -43 17q-38 18 -46 23q-12 8 -25 35q-6 5 -23 26q-11 27 -13 68v83q0 6 1 13v17q-2 11 -5 17q-1 4 6 14q0 10 1 31q1 15 -1 34q-1 18 -12 29q8 2 12 -2l3 2q3 2 7 5t6 4 q-2 0 -6 -4q-2 -3 3 -11l3 2q2 3 5.5 6t5.5 4q0 14 -9 14q-10 0 -17 -3q5 5 -4 13q0 1 3 3.5t7.5 5.5t6.5 5q-4 4 -17 3q-2 21 2 40l-1 3q-2 3 -4 5q-1 8 -1 24q2 15 13 25v24q-10 10 -13 8q8 13 8 19q0 3 -6.5 11.5t-6.5 14.5q0 31 14 82q7 25 31 51q41 43 77 44q7 -1 23 4 q32 2 64 2q13 0 36 -18q25 -19 43 -23q3 -4 14.5 -19.5t19.5 -26.5q15 -21 15 -57q0 -18 -15.5 -29.5t-34.5 -11.5q-17 0 -53 18q2 6 2 9q0 20 -32 41q-26 18 -38 18q-9 0 -13 -4l-8 8q-7 -7 -18 -24q-4 1 -13.5 -6.5t-13.5 -15.5q-9 -19 -9 -49q0 -7 7 -57q5 -39 8 -76 q-2 -14 -1 -76q0 -19 -1 -39q-2 -28 0 -45q2 -29 5 -41q-9 -26 -9 -63q0 -46 13 -99q31 -17 47 -17q17 0 27 5q26 15 26 39q0 5 -1 7q6 0 18.5 13.5t17.5 14.5q17 3 65 3q14 0 31 -32q1 -2 1 -20zM272 706h8v16h-8v-16zM85 440h20v8h-20v-8zM101 406q-3 0 -10 -7q-8 8 -15 8 q0 -2 5 -11t5 -10q1 2 7.5 10t7.5 10zM71 378q-5 5 -19 5q4 0 4 -10q5 5 15 5zM65 328l2 6l-11 6l-2 -7zM71 251l6 12l-6 2l-6 -11z" />
<glyph unicode="d" horiz-adv-x="425" d="M392 433q-2 3 -11 3q-18 0 -21 -17l1 -25q0 2 2 -1q0 -1 2 -5q3 -7 -1 -25q4 -12 12 -12v-238l-9 -2q-6 0 -5 -7q0 -3 0.5 -6t1 -4.5t0.5 -2.5q-18 -26 -61 -70q-25 -19 -34 -19q-13 0 -65 -4q-15 -1 -31 -2.5t-23 -2t-8 -0.5q-4 0 -12 4.5t-11 4.5q-6 0 -6 -3q3 -7 3 -6 q-10 13 -16 13t-6 -2t-6 -2t-4 5q2 6 0 8l-8 -9h-38q0 4 -2.5 18t-2.5 17q0 7 7 39q7 36 9 53q-3 19 -2 49l8 24q0 7 -7 14q-2 8 -2 10q0 1 3 3t6.5 4t4.5 3v16q-16 16 -16 23q0 5 5 13q-6 20 -6 23q8 11 8 16q-1 9 -13 31v16q9 1 14 5q9 4 12 14q-8 3 -26 -4q8 8 35 19 q-15 16 -44 35q7 19 36 30q7 9 18 28q0 1 1.5 5t1.5 8l-4 4q0 17 -16 43q-7 -9 -10 -9q-3 24 -22 27q-2 23 0 63q2 60 2 63q0 7 -6 23t-6 21q0 19 19 45l34 6q16 0 82 -22q2 2 5.5 9l4.5 9q0 -17 -3 -20v-2q1 -2 3 -3.5t6 -1.5q17 0 42 18l9 -9q4 4 4 11q0 -6 6 -13t12 -7 q4 0 6 2.5t5 2.5t10 -7t10 -7q11 0 18 9q3 -7 15 -18q3 -2 9 -6.5t9 -7.5q0 -7 -9 -14q2 -2 3.5 -6t3.5 -6q12 6 18 18q0 -11 16 -46q-6 -5 -6 -12q23 -8 23 -15q0 -19 -17 -53q7 -19 9 -31q-10 -25 -8 -31q-6 -16 -4 -26q5 -11 9 -18q-7 -13 -7 -48q21 -11 31 -20zM308 736 q-10 0 -10 10l-12 -11q21 0 22 1zM195 752h8v12h-8v-12zM184 745h12v8h-12v-8zM91 575h21q-5 12 -5 29q-3 -3 -16 -29zM63 622q-20 -11 -20 -22h15q5 5 5 22zM109 541l13 6l-2 6l-11 -5v-7zM60 585h12v8h-12v-8zM294 134l-2 -1q-1 -1 -4 -2t-7 -1t-5.5 1t-0.5 3l3 6 q8 10 6 15q5 57 3 71q-15 185 -15 263q0 4 3 22t3 20l-1 61v-3q2 34 13 45q-6 0 -17 14q0 4 -2 22q-19 37 -36 37q-4 0 -12 -2.5t-10 -2.5q-13 0 -22 18q-5 -2 -20 -8.5t-26 -11.5q-3 -4 -13 -14q-10 -61 -10 -117q0 -26 10 -47q0 -7 -0.5 -17t-1 -25t-0.5 -27 q-1 -27 -1 -59q0 -26 1 -47q2 -42 2 -46q0 -15 -4 -31.5t-8 -25.5l-3 -10q0 4 3 -2q5 -9 3 -29q0 -1 6 -5.5t6 -6.5l-7 -8q-5 0 -8 -5q2 -9 0 -18t-5 -9q13 -8 2 -28q9 -5 18 -12q-3 -3 -3 -16q5 5 22 17q4 -4 3 -6l-3 -2q-4 -2 -6.5 -4.5t-2.5 -4.5q3 0 8 -3q-1 -1 -40 -26 q11 -11 20 -11q4 0 4 2q-2 4 -2 5q2 2 4 2h12q15 0 23 -9q-2 6 -2 7q0 8 12 8l24 -5q3 8 8 8q11 -14 29 -18q-4 8 -13 23q1 1 8.5 9.5t11.5 7.5q8 -8 15 -8q-1 14 4 21q4 -4 10 -3q-5 3 -5 6q0 2 8 7q2 0 5 2t4 2q1 3 1 12zM331 160l5 4l-7 7l-4 -4zM263 67l7 4l-11 16 l-6 -4zM202 41l5 17h-6l-5 -14zM216 22l4 6l-16 11l-3 -6zM79 86l11 11h-15q4 0 4 -11zM254 117l7 -2l-6 -12l-6 3zM189 94h16q0 -16 -3 -21q-13 7 -13 21z" />
<glyph unicode="e" d="M213 16l-10 12q-7 0 -7 -13zM193 13q-4 0 -4 7q0 3 2 7q-5 0 -13 -5q9 -9 15 -9zM426 49q-3 -2 -12 -11q-5 -28 -9 -35q-7 -19 -28 -19q-4 0 -18.5 6.5t-18.5 6.5q-5 0 -14 -9l-9 9q-14 -2 -22 -2q-10 0 -38 5q-25 6 -37 6q-7 0 -5 -11q0 2 -9 11q-14 -13 -37 -13 q-1 0 -3.5 0.5t-7.5 1t-10 0.5q-10 1 -22 -1l1 2q0 6 -9 6q-4 0 -6.5 -4.5t-4.5 -4.5q-1 0 -16 4.5t-23 4.5l-19 583q-2 51 -7 98q-6 60 -6 61q0 16 18 49q6 3 24 3q27 1 103 3.5t114 3.5q5 0 24 3t25 3q37 0 50 -19q10 -14 10 -55q0 -28 -10.5 -39.5t-37.5 -11.5 q-10 0 -90 2q-60 3 -90 3q-12 0 -25 -25q-13 -23 -13 -35q0 -6 7 -9q3 -24 3 -84q0 -7 -5 -14q4 -12 4 -47q8 -8 11 -8q2 0 7 2.5t8 2.5q4 0 14 -7t13 -7q6 0 60 2q40 3 60 3q27 0 27 -47q0 -39 -4 -46q-7 -18 -37 -18q-8 0 -35.5 2t-35.5 2q-9 0 -36 -7q-28 -6 -33 -11 q-4 -4 -12 -39q-7 -32 -7 -40q4 -7 4 -22q0 -19 -10 -56v-2q0 -1 -1.5 -7.5t-1.5 -8.5q0 -8 7 -26q7 -19 9 -27l-8 -5v-16l7 -3q1 1 1 4q0 2 -1 7t-1 6h16q4 -4 13 -40q4 2 5 9.5t2 8.5q2 0 3 -7q1 -10 3 -10l9 8v-5q0 -8 4 -12q5 1 15 6l-8 3v17q4 0 22 18v-21q0 -4 2 -10 q3 3 8 16q30 9 36 24q9 -18 18 -18q3 0 7.5 2t8.5 5t5 3q24 8 63 8q15 0 24 -28t18 -31zM130 27l4 4l-6 7l-5 -4z" />
<glyph unicode="f" horiz-adv-x="381" d="M363 758q0 -38 -19 -48q-10 -7 -55 -7q-9 0 -27 18h-1q-3 0 -16 -13q-7 5 -11 5l4 3l10 6l4 2l-3 2q-36 3 -50 5q5 5 9 18l-8 7q-7 -7 -7 -35q-6 9 -10 13l-2 -3q-2 -3 -4 -6.5t-5.5 -6t-6.5 -2.5q-5 0 -11 4l-1 1q-3 -17 -5 -22l-10 9q-4 0 -4 -12h-6q-13 0 -13 -5 q0 -2 4 -6q-1 1 -2 1q-4 0 -12 -8v-16q0 -2 2 -2q1 0 2 1q3 1 5 1q-1 -1 -22 -10q2 -2 2 -4v-1q0 -2 7 -2q2 0 7 1.5t6 1.5q-9 -8 -9 -14q0 -10 8 -32q9 -20 9 -30q0 -9 -8 -17q9 -7 9 -18q0 -4 -1.5 -14t-1.5 -12q5 -7 22 -29q14 -18 30 -18q5 -2 5 1l-1 1q2 2 5 2 q6 0 6 -2l-1 -3l1 -4l8 9h7q7 0 29 -1.5t27 -1.5q4 0 13 3.5t12 3.5q6 0 12 -2q14 -19 14 -44l-4 -5q2 -6 2 -12l-2 -14q-1 -11 0 -15q-26 -10 -29 -10q-6 0 -13 9q-1 -2 -8 -13h-2q-9 0 -23 9l-12 -9l-8 9q-8 -9 -24 -9q-9 1 -27 1h-2q-15 -15 -31 -33q0 -5 -5 -20 q1 -4 6 -23q-9 9 -27 9q0 -1 18 -10q0 -3 -13 -28l5 -2q4 2 7 4l1 -5q0 -7 -4 -10q4 -4 13 -4l-5 -25q-3 4 -14 13q0 -1 -1 -1t-2 -1q0 -3 0.5 -6t1.5 -5t2 -3t3.5 -2.5t3 -2t4.5 -2.5l3 -1l-9 -10q12 -16 7 -61q2 -18 12 -49q-3 -13 -3 -27q0 -5 5.5 -19t5.5 -18 q0 -15 -24 -24q-17 -7 -36 -7q-3 0 -20 7.5t-22 7.5q4 0 9 5q-14 16 -13 38v21q1 0 6.5 -2t7.5 -1q3 -23 12 -23q16 0 22 6q1 0 1 9q0 2 -5 2t-11 -3.5t-7 -3.5q0 9 9 23q-2 2 -8.5 5.5t-9.5 5.5l-11 -9q-6 4 -11 6q9 26 9 45q0 59 -18 76q7 4 14 14q-1 4 -7 8q5 9 7 27 q1 14 0 33q-1 17 -1 29q0 26 9 31q-3 3 -12 2q0 75 1 136q2 122 2 136q0 66 -1 85q0 5 -6 26t-6 27q0 42 56 42q12 0 27 -3.5t26.5 -6.5t12.5 -3q6 0 54 2q50 2 55 2q6 0 30 6.5t32 6.5q49 0 49 -51zM265 743l6 11l-6 3l-6 -12zM258 752l3 7l-16 8l-2 -7zM250 739 q0 12 -5 17q-3 -4 -11 -5q6 -3 16 -12zM233 730q0 12 -5 17q-7 0 -7 -12q4 0 12 -5zM110 565l6 12l-7 2l-5 -11zM247 414l6 12l-6 2l-6 -11zM239 400l13 6l-2 6l-11 -5v-7zM85 533l3 6l-12 6l-2 -6zM110 523l-11 11q-26 -3 -32 -17l-8 9q-1 -1 -1 -3q0 -1 19 -19q6 13 19 13 q9 0 7 -11q0 11 7 17zM159 418l5 4l-7 7l-4 -4zM62 444l13 6l-3 6l-10 -5v-7zM131 367l5 29q-11 6 -20 23q0 -4 -11 -7q6 0 18 -13q-9 -7 -9 -18l1 -6q2 -2 16 -8zM111 361l4 4l-6 7l-5 -5zM108 346q-9 12 -23 24q-5 -9 -15 -24q4 -2 7 -2q8 0 15 7q-5 0 -5 5l2 6 q10 -17 8 -22q1 0 5 4t6 2zM57 373l13 6l-2 6l-11 -5v-7zM66 321l5 12l-6 2l-6 -11zM96 279q-22 22 -22 28q-2 2 -4 2q-3 0 -9 -6v-21q3 0 17 -1.5t18 -1.5zM97 236l18 5l-3 7l-15 -5v-7zM83 263q-4 0 -9.5 5.5t-5.5 8.5q-2 -13 -5 -17q-7 4 -10 4q-1 0 -14 -7q5 -1 15 -9 q8 -5 16 -5h4l-2 1q-3 2 -5 3t-4 2.5t-2 2.5q2 2 5 2q2 0 6 -1.5t6 -1.5q0 4 5 12zM91 198h7l-6 18l-6 -3zM71 121h25v7h-25v-7z" />
<glyph unicode="g" horiz-adv-x="383" d="M233 45l-7 7l-4 -5l6 -6zM355 675l-3 -11q-3 -11 -1 -16q-13 -3 -20 -3q-3 0 -6 1.5t-5 3.5l-2 1q-4 0 -7 -4.5t-7 -4.5t-20 5.5t-21 5.5q8 8 8 16q0 13 -15 15q-8 23 -11 25q-2 2 -30 10q-5 5 -5 17q0 6 -11 8q-2 -1 -4 -7q3 -10 4 -15q-4 4 -14 4q-5 0 -30 -15 q-8 -2 -19 -23t-19 -22q4 -5 4 -15q0 -6 -5 -21.5t-5 -17.5q-15 5 -24 22q-5 0 -17 -12q3 4 3 8t-3 12l-13 -13l-13 13q-3 -5 -11 -12v47q11 0 17 7q-2 2 -8 4q9 14 7 32q0 1 6 6t6 9l9 -9q5 8 5 16q0 4 -2 10q3 1 34 32l-1 -5q0 -5 4 -9q24 36 46 36q12 0 20 -9q7 10 9 13 q15 -5 26 -9q4 4 4 13l10 -8l5 4l9 -9q31 -6 65 -24q10 -16 10 -18q5 -2 19 -8q-2 -6 -2 -8q24 -46 24 -68zM121 584q-1 -1 -2.5 -5t-3 -7.5t-2.5 -3.5q-2 8 -5 11q2 1 13 5zM76 595l6 -7l-4 -4l-7 6zM121 382q0 -41 -15 -71q-10 10 -10 12q0 3 3 4l-7 6q-15 -4 -21 -17 q-13 10 -19 26q-1 -2 -23 -13q0 4 -2.5 18.5t-2.5 18.5q0 15 3 45t3 44q4 1 14 8q-4 4 -4 11q0 11 13 18q4 -15 27 -35q10 4 10 17q0 4 -11 19t-11 19q0 10 15 24q8 -6 33 -14q-5 -40 -5 -107q0 -1 5 -14.5t5 -18.5zM346 416l9 3q0 -3 -2 -6.5t-4 -4.5l-2 -2q0 -1 1 -2 q5 2 5 6q0 -28 -6 -66q-2 -2 -4 -5v-2q0 -3 6 -7q-4 -12 -4 -27q0 -6 2 -12q-5 -6 -8 -6q0 8 -4 17q-2 -1 -8.5 -4.5t-11.5 -6.5q2 0 6 -10q3 -5 10 -5q6 0 9 2l1 1v-20q-1 0 -15 12q-12 -11 -12 -17q-10 0 -22 4l-12 -11q1 -1 6 -1q2 0 11 1.5t12 1.5q5 0 5 -1l-2 -4 q0 -3 1 -4q8 8 14 13q0 -9 13 -21h1q3 0 3 -3q0 -7 -6 -13q7 -7 12 -7v-33q0 -47 -14 -83q-17 -23 -32 -50q-8 -1 -26 -16q-6 -5 -12 -9.5t-9 -7t-4 -2.5q-26 -5 -47 -10q-3 18 -25 31h-5q-9 0 -17 8q-3 -9 -5 -16q-11 -2 -23 -15q0 20 -16 27q-1 -2 -6.5 -5.5t-5.5 -7.5 q-1 0 -5.5 2.5t-8 4t-5.5 -0.5l6 9q-8 24 -17 24q-6 0 -12 -3l-1 -1q-14 19 -36 60q25 15 29 15q2 0 12 -4.5t14 -4.5q20 0 26 13q5 -4 14 -18q4 -6 6.5 -11t3.5 -6.5t2.5 -3t6.5 -2.5q2 -2 2 -6q0 -5 -3 -10l-9 9q-3 -3 -3 -5v-5q16 -5 38 -17l15 18v-3q0 -4 -4 -8 q11 -4 33 -20l7 7q-5 2 -13 8v20q9 0 13 9q2 -4 2 -9q0 -9 -7 -15q2 -1 6 -1t13 3q7 1 14 0q8 8 8 18q0 8 7 25q3 6 8 23q0 -8 5 -13q6 0 6 8h26l-2 -3q-1 -3 -1 -5t4 -5l4 24q-5 3 -12 3q-10 0 -17 -4l-9 9q-4 -3 -4 -7v7q0 3 -2 7h7q12 0 25 -3q1 1 2.5 5t2.5 7.5t2 3.5 q-1 1 -3 1q-3 0 -14 -3.5t-14 -3.5q4 2 22 10l-7 7q-4 -4 -10 -4q0 11 6 17q4 -4 7 -4q1 0 5 2v5q0 3 -3 6q-4 -4 -12 -4h-3v21l9 -1q5 0 8 3l-2 6q0 1 -6 1q-15 0 -13 16q1 8 1 13q0 1 -5 6t-5 10q0 1 1 2q7 4 7 17q0 6 -6 27.5t-6 27.5q0 3 8 11q-11 11 -16 11 q-10 0 -8 -8q-2 10 -24 14q-23 5 -23 34q0 34 15 62q65 0 135 -10q0 -7 7 -11v-6q1 -6 -7 -27zM77 287q-6 -7 -6 -11q-5 5 -24 5q0 5 8 15q-7 6 -11 6q-7 0 -7 -1l2 -5q0 12 -6 18h5q6 0 10 -3q5 2 5 7q0 -3 17 -12q2 -8 7 -19zM103 166v-7l-26 10l2 7zM83 160v-16h-8v16h8z M306 688q-6 6 -6 14q0 -4 -11 -4q10 -10 17 -10zM223 738h12v7h-12v-7zM206 751h16v8h-16v-8zM187 771v16q-11 0 -15 6q-9 -10 -15 -10v-21q11 2 30 9zM139 757l6 12l-7 2l-5 -12zM107 770q-21 -10 -21 -22q0 -4 1.5 -6.5t2.5 -3.5l2 -1q0 3 15 33zM130 728q-4 2 -6 2 q-3 0 -10.5 -2.5t-9.5 -2.5q-1 -7 1 -34q17 15 17 22q0 1 -2 4l-1 3q0 2 1 3h1q4 0 9 5zM56 667h16v8h-16v-8zM311 409q-4 9 -16 21q-6 -4 -10 -12l1 1q1 1 3.5 1.5t6.5 0.5q5 0 9.5 -6t5.5 -6zM284 427v16q-2 0 -10 -2.5t-11 -2.5q0 -7 10 -16q3 0 11 5zM299 360l16 15 q-10 10 -25 10q0 -2 2 -5t4 -4.5t4 -3.5l2 -1q-4 -4 -3 -10v-1zM313 366q0 -2 -15 -17q3 -3 7 -11q3 6 8 28zM280 341l11 16l-7 4l-10 -16zM274 259h8v16h-8v-16zM113 58l5 4l-7 7l-4 -4z" />
<glyph unicode="h" horiz-adv-x="402" d="M377 312q0 -14 -15 -58q1 -2 1 -6q0 -2 -1 -7l4 -5q7 -35 7 -131q0 -9 1 -19v-23q0 -74 -35 -74q-3 0 -10.5 2.5t-9.5 2.5q-1 0 -2 -1l-2 -1q1 -2 1 -5q0 -2 -4 -2t-14 4.5t-13 4.5q-3 1 -10 2h-7q0 22 -11 30l11 11q1 24 16 53h9q-6 22 -21 22q16 0 16 17q0 5 -8.5 18.5 t-9.5 14.5q14 0 27 8q-11 9 -12 6l-2 10v-1q0 4 5 12v47q-11 7 -13 37q-1 8 -1 22t-1 22q-3 13 -25 25q-20 13 -36 13q-8 0 -32.5 -5t-30.5 -5q-6 -6 -19 -24q4 -9 4 -16v-2q-6 -2 -8 -8q2 -46 2 -48q0 -12 -5 -49q-4 -29 -4 -49q0 -11 2 -37q-4 -1 -16 -8l14 -14l-1 -2 l-2 -4t-3.5 -3.5t-5.5 -1.5q-5 0 -9 4q-6 -6 -6 -10l6 -7l3 8h26q-10 -13 -10 -24q0 -4 5 -18.5t5 -17.5q0 -33 -24 -33h-38q-7 0 -35 15v108q0 2 1.5 4.5t3 6.5t2.5 7v5q0 2 -1 10.5t-1 10.5l1 4q2 3 4 8t2 8q0 10 -12 16l23 -3q0 -1 2 1l6 6q-7 7 -14 7q-5 0 -11 -3l-1 -1 q4 16 5 19q-4 3 -4 12q0 11 4 20v111q0 6 -9 9q6 12 6 24q0 27 -4 66q-4 40 -4 68q0 58 8 255q9 9 23 13q20 5 25 8l10 -9q1 0 3 1t4.5 2t4.5 1q6 0 15 -7t10 -12q2 -12 4 -36q0 -22 -1 -37q-1 -18 -1 -37q0 -4 1 -18.5t1 -18.5q0 -6 -3 -27t-3 -27q0 -1 7.5 -12t7.5 -15 t-9 -21t-9 -21q0 -16 16 -34.5t31 -18.5q4 0 9 4t9 4q2 0 10 -4t12 -4q55 0 55 58q0 12 -1 22v23q0 20 4 51q5 38 5 53q0 8 -3.5 34t-3.5 34q0 27 11 47q5 5 17 14q1 0 17.5 3t21.5 3t12.5 -4.5t8.5 -4.5l1 -112q3 -7 10 -20q8 -40 8 -59q0 -2 -7 -12.5t-7 -20.5 q0 -4 1.5 -18t1.5 -18q0 -13 -7 -19v-56q0 -4 3.5 -20t3.5 -22q0 -5 2.5 -25.5t2.5 -26.5q0 -2 -3.5 -11t-3.5 -13q0 -1 6.5 -11t6.5 -14zM278 106l6 -7l-5 -4l-6 6zM348 564h8v16h-8v-16zM345 585h-17q0 -13 12 -13q3 3 5 13zM354 537q0 9 -6 17q-10 -10 -10 -26q9 9 16 9z M331 556l3 -2q4 3 4 6q0 4 -13 8q-5 -7 -5 -13q5 -8 11 -13q2 2 0 7q-1 3 -1 6q0 1 1 1zM346 468h12v8h-12v-8zM315 486h16v8h-16v-8zM324 418h17q-6 8 -22 19l9 -9q-6 -5 -4 -10zM315 406h12v8h-12v-8zM320 214h11v8h-11v-8zM70 342h21q0 1 -4 8q-2 5 0 7q-3 -3 -17 -15z M331 118q0 4 -29 9v-21q6 -6 10 -14q0 10 6 31q8 0 13 -5zM79 184l5 4l-7 7l-4 -5zM59 199h8v12h-8v-12zM78 169q-14 2 -15 16q-11 -24 -11 -25l1 -1q10 6 25 10zM86 128h7v16h-7v-16zM60 82l18 -5v6l-15 6z" />
<glyph unicode="i" horiz-adv-x="213" d="M52 736l6 -13h-7l-5 11zM168 372q-2 -2 -5.5 -7.5t-8 -11.5t-8.5 -12q15 -23 15 -34q-5 -11 -14 -33q-13 -32 -13 -57q0 -27 13 -57l14 -33q0 -8 -14 -28q-15 -22 -16 -28h-5q-8 -1 -18 4q-3 -1 -3 -5q0 -3 4 -7q-6 2 -10 3q-9 0 -21 -12q2 -10 14 -22q-11 0 -23 -5 q0 -9 16 -19q10 5 19 5q18 0 42 -21l-60 -15h-20q-14 20 -14 45q0 7 4 31.5t4 32.5q0 13 -5 25q-4 1 -4 6q0 3 5.5 16t5.5 16q4 35 4 125q0 3 0.5 8.5t1 16t0.5 19.5q2 27 0 44q11 3 11 14q0 19 -11 39q3 6 3 15q0 6 -3 25t-3 25q0 16 9 26q-5 7 -18 17q2 3 5.5 11.5 t4.5 11.5q-4 15 -4 18v1q13 7 13 28l-2 2t-1 2q-8 -8 -11 -8q3 13 3 22q0 10 -6 20.5t-6 12.5q0 4 7 16t7 19q0 3 -2 19q6 16 6 15q0 10 -6 29t-12 22q11 29 16 33q9 10 33 10q13 0 20 -13q3 3 3 8q17 0 30 -8l13 8q0 -3 -12 -15q8 -10 8 -22q0 -6 -5 -19t-5 -17q0 -7 6 -18 l-36 -9q8 -5 31 -3q0 -17 13 -43l-6 2q-1 -2 -16 -19v-52q3 -2 9 -4q0 -3 -2.5 -16.5t-2.5 -17.5q0 -9 12 -11q-11 -42 -11 -86l2 -6q1 -6 1 -7q3 -10 3 -19q0 -8 -3 -12q3 -14 15 -36zM129 784l17 5l-2 6l-15 -5v-6zM132 664l6 12l-6 2l-6 -11zM144 647h8v12h-8v-12z M151 150l-5 -5l-6 7l4 5z" />
<glyph unicode="j" horiz-adv-x="410" d="M373 739l-22 -484q0 -6 -8 -25q5 -9 6 -27q-5 -19 -10 -84q-1 -41 -26 -69q1 -4 0 -9q-10 -13 -27 -26q-22 -16 -35 -16h-23q-8 -6 -4 -8q4 -4 4 -10q-4 3 -18 0q-15 -4 -19 -4q-3 0 -9.5 6.5t-10.5 6.5t-12.5 -2t-12.5 -2q-35 0 -74 14q-50 20 -50 51q0 16 25 47 q26 32 45 32q11 0 40 -32q28 -31 48 -31q3 0 4 4.5t5 4.5q3 0 4 -2.5t5 -2.5q3 0 4 4.5t5 4.5q15 0 15 8q0 2 -2 4q11 0 14 -3v362q0 9 4 44l6 60q-2 37 0 117q0 8 -1 34t-1 32q0 42 20 71q90 -7 95 -10q16 -7 16 -60zM266 97l13 5l-2 7l-11 -6v-6zM248 67h17q-7 21 -22 21 q0 -1 2.5 -10t2.5 -11zM230 60h16v8h-16v-8zM157 8l6 12l-6 2l-6 -12z" />
<glyph unicode="k" horiz-adv-x="424" d="M411 782q-12 -29 -112 -231q2 -8 -1 -14q-29 -47 -29 -86q0 -4 7.5 -17.5t7.5 -15.5q-1 4 -1 -1q-1 -6 -1 -27q0 -15 14 -15q-3 -7 -2 -16q0 -5 0.5 -9t1.5 -6v-2q0 -7 13 -7q0 -3 -9 -11q7 -41 14 -41q13 0 13 -5q0 -2 -9 -11.5t-9 -14.5q0 -12 13 -6l-9 -11 q0 -5 18 -12l-13 -14q6 -8 29 -61q2 -7 8 -58q2 -15 14 -38q13 -26 15 -39q-12 0 -4 -8q-43 -2 -59 7q-12 -10 -12 -7l-1 2q0 2 -2 3.5t-6 1.5q-3 0 -9.5 -4.5t-10.5 -4.5q-10 0 -5 20q-19 19 -19 47q0 18 9 41q-8 8 -11 8q-2 0 -5 3.5t-6 8.5t-5 7q5 10 18 23q-8 1 -21 9 q0 5 -2.5 10t-5 8l-7.5 9t-7 8q-8 16 -19 33l-11 -9l-14 14q-1 -2 -5 -4.5t-7 -4.5l-3 -3q3 -3 6 -4q-10 -4 -30 -40v-44l9 -40q-2 -2 -5.5 -6.5t-5.5 -7.5q-3 -29 4 -80l-2 -1q-2 -2 -6.5 -4.5t-8.5 -4.5q-13 -9 -21 -9h-28h-35q-10 21 -10 27q0 24 14 144q1 7 22 23l-4 37 q-3 -4 -3 -14q-11 60 -11 73q0 55 13 56q13 3 13 31q0 15 -20 27q-3 15 -1 46l-1 1q-1 1 -2.5 3.5t-1.5 6.5q0 7 5 60q2 18 12 22q-13 7 -13 35q0 6 0.5 12t0.5 10.5v8.5v6.5v4.5v2v1q-5 42 -5 95q0 61 8 79q11 23 47 23q69 0 69 -42q0 -20 -6 -45l-4 -18t-4 -15t-3 -12 t-2 -9.5t-1.5 -6.5t-0.5 -4l-1 -1q0 -7 11 -27q12 -19 16 -19t11 -4.5t10 -4.5q13 0 29 18q15 14 19 25q1 5 3 17q23 62 53 128q33 11 52 11t66 -19zM66 543l13 5l-2 7l-11 -6v-6zM106 232h16v8h-16v-8zM75 206l5 4l-7 7l-4 -4zM105 197q-20 10 -25 10q-12 -22 -15 -25h17 q0 8 8 16q8 -8 15 -1zM119 47l5 4l-7 7l-4 -5z" />
<glyph unicode="l" horiz-adv-x="377" d="M358 45q0 -18 -10.5 -33t-22.5 -15q-9 4 -14 4q-7 0 -12 -9q-5 4 -21 10t-19 8q-1 0 -5 -2.5t-6 -4.5q-1 -1 -1 -14q-5 0 -18 9q-14 8 -19 8q-3 0 -14 -4.5t-15 -4.5q-5 0 -28 6q-21 7 -27 7q-4 0 -2.5 -4.5t-1.5 -4.5q-4 0 -18 4.5t-18 4.5q-2 0 -8.5 -6.5t-11.5 -6.5 q-4 0 -18 4.5t-16 4.5q0 7 2 69t2 66q4 -1 8 3q-5 3 -8 3v112q0 7 4 42q5 45 5 59q-2 12 -2 71q0 49 4 122q4 84 4 108q0 29 -1 52q0 20 4 57q2 20 -4 33q40 1 45 -3q9 9 22 9q3 0 23 -4.5t27 -4.5q14 -30 14 -33l-49 -648q1 0 2.5 -6t6.5 -6q4 0 5 2t4 2q11 0 25 -26l1 1 q2 1 4.5 3t5.5 4q7 5 13 5q2 0 32 -5q25 -4 34 -4q1 0 4.5 0.5t9.5 1t11 0.5q20 3 26 3h16q8 -1 16 -1q10 -27 10 -48zM199 44h21v7h-21v-7zM75 130h6l-6 13l-6 -3zM86 97l3 6l-17 5v-6z" />
<glyph unicode="m" horiz-adv-x="588" d="M546 458q-5 -35 -5 -75q0 4 -5 9q-1 -2 -6 -11q5 -2 13 -8q0 -3 -14 -15h-25q3 4 3 9q0 1 -6.5 10.5t-7.5 16.5q0 5 1 8v8q0 5 -2 11q4 1 12 9q0 -1 -4 3l-14 14q9 4 27 14q0 2 -3 5q-3 -1 -7 -2.5t-9 -3t-8 -2.5q18 4 18 29q0 19 -9 30q4 0 11 -7q8 8 8 13q0 2 -3 7 l-3 6q9 8 9 10q-2 2 -5 2q-2 0 -6 -1t-6 -1q-4 4 -9 16q2 0 8.5 -2t8.5 -2q3 0 2 7q2 2 5 2q13 0 23 -6q0 -1 -12 -14q3 -5 12 -3q-4 -9 -4 -29q0 -35 12 -57zM469 328q-4 -6 -10 -6v11q0 9 -6 13q7 -4 16 -18zM547 636v-2q0 -4 -8.5 -18t-8.5 -20q0 -8 8 -19q-3 0 -5.5 0.5 t-4 0.5h-1.5q-11 0 -24 -8h1q1 0 4 3q-1 1 -13 10q-9 6 -15 6q-4 0 -9 -5l-9 9q0 -1 -1.5 -6t-2.5 -9q4 -6 5 -11q-6 0 -10 4q-1 -1 -8 -14.5t-16 -18.5q1 -10 9 -30q-4 -6 -22 -14q1 -2 1 -8l-1 -2q0 -2 -0.5 -6t-0.5 -9q-1 -9 1 -16h-4q0 -8 9.5 -25.5t16.5 -24.5 q-4 -2 -26 -14v-4q-2 -3 3 -6q3 1 6 8h17l-1 -5q0 -4 4 -7q10 4 22 12v-16q-11 0 -16 -5q-8 -7 -13 -12q1 -1 5.5 -4.5t7.5 -6.5q0 -10 -7 -17q-11 14 -25 18q0 1 -2 -2l-5 -5q9 -9 21 -13h-5q-4 0 -21 -3q-1 -7 -28 -21l-9 5q-1 -1 -1 -4q0 -1 1 -6t1 -7q0 -4 -1.5 -7.5 t-3 -6t-5.5 -5.5t-6 -4t-7.5 -3.5t-6.5 -3.5q2 -7 18 -11q-8 -14 -11 -20q-12 -1 -24 -9q1 -2 5 -6l-7 5q-3 -3 -4 -6q0 -9 4 -18q-1 1 -3 1q1 0 -1 -2l-7 -7q9 -4 22 -28q-19 -6 -20 -37q0 -30 -14 -33q-2 6 -2 13q0 12 6 20v6q0 4 -7 4q-6 0 -9 -3l-1 -1l-2 4q1 2 5 6 q-7 2 -17 9l2 2q1 2 4 5l6 6q7 7 7 15q0 7 -1 10q-6 0 -6 -13q0 4 -10 8l-7 3q2 4 2 7v9q-1 3 -1 8q-4 0 -8 -4.5t-5 -4.5q0 3 8 11q0 6 -8 8l-4 -2q0 6 -0.5 12.5t-0.5 4.5q0 26 22 30l-3 18q-8 -17 -22 -17q-5 5 -14 5q0 15 1 28q0 1 -4 2.5t-7 4.5t-3 9q-4 0 -17 1.5 t-16 1.5q-14 0 -30 -22t-16 -37l-4 12q-3 0 -11 8q-2 -1 -4 -6v-11q-1 -3 -1 -7q0 10 -9 15q-3 -1 -5 -9l-2 -12h-3q-13 0 -30 -5q-6 5 -22 28q-5 25 -5 204q0 61 -6 94q0 1 5 11t5 15q0 25 -9 75q-8 54 -8 75q0 6 2 22.5t2 20.5q11 4 33 19q0 -3 0.5 -4.5t5.5 -2.5 t14.5 -1.5t28.5 -0.5h22q3 -12 8 -30t12.5 -45.5t13.5 -48.5q24 -62 46 -127q6 -16 28 -53q5 -8 9.5 -16t7 -11.5t2.5 -4.5q12 -14 33 -14q29 0 53 73l1 2q0 3 -5 10q6 6 25 54q1 3 5.5 11t9 17t8.5 18q10 19 12 41q2 3 12.5 5.5t11.5 4.5q-7 2 -26 11q9 14 5 32q8 2 11 5 q4 -5 20 -13v2l-9 26v29q1 -1 5 -1q9 0 17 4q-2 5 -5 6q-3 6 -3 9v2q7 2 40 24q7 -10 9 -13l9 8q1 -1 30 -16q7 -1 7 -12q0 -13 -18 -31q4 -3 10 -13v-3q0 -4 3 -17t3 -16q0 -25 -12 -43v-12q8 -6 22 -12zM559 84l6 -6q0 -70 -26 -70h-33q-31 0 -42.5 14.5t-11.5 48.5 q0 16 1 26l12 10q-1 6 -13 6q2 12 2 15q0 14 -7 15q0 15 17 32q-3 4 -8 4v15l17 18q0 9 -17 15v47q15 0 19 -4q3 2 3 5q-5 5 -17 4q0 11 -4 26q-5 -3 -12 -9q-7 7 -13 11l4 -1q5 -1 7 -1l1 1q1 1 3.5 3t5.5 4t8.5 3t11.5 1q0 -7 -9 -15q4 -8 20 -19q12 11 12 18q0 5 -5 10 q2 1 12 9t18 13q-5 4 -17 14h7q5 0 8 -1q0 -4 7 -11q2 9 7 18q-2 -3 -3 -10q2 -3 6 -3q6 0 10 2l1 1q0 -11 -7 -19q2 -11 12 -29q0 -7 -6.5 -14t-12.5 -7q-4 0 -6.5 -4.5t-5.5 -4.5q-9 0 -9 -3v-2l8 -8q11 0 11 13q20 -9 20 -38q0 -17 -5 -29q5 -11 10 -37q3 -23 7 -38 q-4 -4 -4 -19v-20zM154 29q0 -15 -5 -30q-7 0 -30 -4.5t-30 -4.5q-18 0 -38 14q-6 56 -6 63q0 15 5 58q2 13 3 27.5t1.5 22.5t1.5 15t3.5 9.5t7.5 2.5q-3 3 -8 3q0 1 18 21q7 -5 11 -5q-3 -5 -17 -32q1 -2 14 -11q0 2 3 7t3 6t-1 3l-5 5q15 -1 23 -12q2 5 12.5 16t11.5 12 q-12 12 -12 15t6 5t6 4l-1 3q-1 4 -1 6l2 -5q1 -5 3.5 -12.5t5.5 -15.5q9 -24 9 -30q0 -9 -18 -26q13 -7 13 -14q0 -5 -8 -13q7 -2 17 -9q-7 -4 -12 -16l-10 -18q22 -25 22 -60zM456 701l25 -5v8l-25 4v-7zM454 646h8v16h-8v-16zM522 496l5 4l-7 7l-4 -5zM412 588l6 12l-6 2 l-6 -11zM430 562l5 12l-6 2l-6 -11zM404 522l13 5l-3 6l-10 -5v-6zM411 414q0 11 -6 17q-8 -18 -8 -24q0 7 14 7zM100 681h8v12h-8v-12zM388 393h8v11h-8v-11zM413 360h11v7h-11v-7zM520 239q-4 -4 -16 -9v-21q4 0 11 -5q7 13 7 26q0 3 -2 9zM494 218h7l-6 13l-6 -3z M359 308q-5 0 -12 -4q0 -1 4.5 -11t2.5 -15q5 18 5 30zM154 471q-3 7 -6 21q-8 -19 -10 -26q5 5 16 5zM465 137h25v8h-25v-8zM495 115q-19 8 -26 10q0 -2 15 -17q3 3 11 7zM327 268l2 6l-11 6l-2 -6zM321 229h20v7h-20v-7zM194 377l-11 11q-5 -8 -15 -21q16 0 26 10z M260 222l21 1q-5 12 -17 25q2 -9 8 -15q-8 -6 -12 -11zM145 353q-1 3 -16 26v-21q11 0 16 -5zM113 367h8v20h-8v-20z" />
<glyph unicode="n" horiz-adv-x="448" d="M409 781q0 -5 -2.5 -23t-2.5 -24l-10 -1q-3 0 -11.5 2t-10.5 2q-14 0 -17 -5v-17q0 -4 -1.5 -8t-3.5 -7l-1 -3q1 -3 3 -1q-22 7 -28 18q1 1 5 7l-2 3q-14 -9 -15 -22q-13 25 -13 46q0 32 14 43q11 8 45 8q28 0 51 -18zM395 724q0 -22 -11 -22t-11 -2q2 -4 3 -5 q-4 5 -15 3l5 22q6 -2 8 -2q10 0 21 6zM409 400q-9 6 -18 6q-3 0 -13 -2q9 -4 13 -8t3 -6v-216q0 -21 7 -66q8 -51 8 -69q0 -28 -10.5 -36t-42.5 -8q-17 0 -37 10t-26 22q-3 6 -15 67q-9 17 -22 62q-20 131 -88 131q-4 0 -15 -12q-8 -12 -12 -17q2 -6 2 -10q0 -7 -3.5 -14 t-6 -10t-11 -10.5t-9.5 -8.5q1 -1 4 -1q2 0 12.5 3.5t14.5 3.5v-186q0 -6 -10 -25q-14 -2 -30 -2q-43 0 -48 1q-27 8 -27 34l6 774l5 -4l4 3q2 -1 7 -1q6 0 24 3t22 3q-7 0 36 -6q30 -30 30 -58v-9q-1 -5 -1 -10q0 -14 5 -32q0 -1 6 -10.5t6 -14.5q0 -4 -1 -7t-4 -5.5 t-4.5 -3.5l-6 -4t-6.5 -4q2 -2 6 -2q1 0 13 2q8 -7 25 -51q15 -40 20 -40q6 0 10 3l1 1q0 -4 -9 -11q7 -7 21 -24q0 1 3 7q2 2 7 2t5 -1v-2q1 -1 4 -1q8 0 5 8q3 0 16 -13q2 3 8.5 13t11.5 17q8 50 8 60q0 4 -4 21t-4 23v2q5 3 13 12q-2 6 -2 8q0 9 10 16l-1 -2 q0 -24 30 -24q2 0 7 1t7 1t8 -2q4 10 8 22q21 -19 21 -29q0 -4 -3 -16.5t-3 -15.5q-11 3 -13 3t-8 -2q1 0 2.5 -5.5t6.5 -5.5q2 0 5 1l6 2l2 1q-1 -1 -1 -6q0 -2 1 -10.5t1 -11.5q0 -16 -10 -23v-157q5 -8 18 -18zM245 190q-7 -4 -12 -4q0 2 -1 5v6q0 4 2 10q11 -13 11 -17z M383 572q-6 2 -12 2q-5 0 -15 -2l9 -5q-5 -5 -5 -7q0 -1 3 -4q1 3 4 3q2 -2 3 -4q-4 -1 -12 -6v-1q0 -4 1 -7v-6q0 -2 -5 -10q-9 9 -9 11q0 -3 -2.5 -7.5t-4.5 -8.5l-3 -3q30 3 36 21q4 12 12 34zM328 526h8v16h-8v-16zM137 515l3 6l-12 6l-2 -7zM378 155v15l-14 15 q-4 0 -9.5 4t-6.5 4q0 -2 -5 -4q-6 0 -11 1q-7 0 -8 -1q-1 3 -1 29l-1 3h-1q-3 0 -5 2l7 6q14 -13 13 -35q11 24 11 27q5 0 5 -4q0 -1 -1.5 -6t-1.5 -6q7 3 15 11q-2 -1 -4 -1q-6 0 -5 18q-1 0 -6.5 -3.5t-7.5 -3.5t-3 1q6 10 20 24q3 -5 11 -12q2 4 8 21q-12 -5 -15 -5 l-6 3q9 4 9 10l-1 10v-1q-4 -4 -10 -4q-11 0 -11 11q0 2 1.5 12t1.5 13q8 -8 12 -8v-12q0 2 3.5 10.5t3.5 12.5l-18 5v19l7 8q4 -6 15 -12q-7 9 -10 19l5 59v5q-2 -1 -5 -3q-2 -2 -3 -2q-1 1 -4 3q3 4 9 20t8 20q-6 6 -10 15q-5 -5 -18 -5q-14 0 -19 5q1 -3 1 -8 q0 -8 -4.5 -16.5t-9.5 -13.5t-15 -14.5t-13 -12.5q11 -3 26 -26l-12 -6q2 -2 2 -3q0 -5 -10 -15q-4 -4 -7 -7.5t-5 -5.5l-2 -2v-15q3 0 8 -3q-5 -3 -8.5 -9t-6 -11.5t-3.5 -6.5q22 -19 22 -31q0 -5 -17 -22q12 -6 12 -31q0 -15 -8 -23q12 0 16 -16t22 -16q4 0 13 9 q1 -1 1 -9q0 -4 6 -4h21q0 13 6 13q6 -9 10 -13q3 3 11 5zM383 118l5 4l-7 7l-4 -5zM277 121h21v8h-21v-8zM345 456l3 -6l-18 -6v7zM352 442l5 -18h-6l-5 15zM333 430v-8h-12v8h12zM322 312v-16h-7v16h7zM324 279v-7h-11v7h11zM291 275l17 -6l-3 -6l-14 5v7zM314 195l3 -6 l-13 -5v6z" />
<glyph unicode="o" horiz-adv-x="424" d="M387 392q0 -38 -7 -101q-6 -67 -6 -101q0 -6 1 -25t1 -25q0 -42 -17 -61q-30 -32 -34 -38q0 1 7 14t7 20v6q-10 -9 -17 -22q-1 0 -10 9q-1 -1 -3.5 -2.5t-6 -4t-6.5 -4.5q18 -9 18 -20q-2 0 -7.5 -1t-8 -1.5t-7 -2t-7 -3.5t-5 -4.5t-4.5 -6.5q0 2 -3 12.5t-3 14.5 q0 8 10 17q12 8 17 12l-20 30q-2 -2 -4 -7q5 -15 5 -20q-15 2 -31 7q6 0 19 13.5t19 13.5q4 0 9 -3l4 15q-6 2 -9 2q-9 0 -13 -7v13q0 20 8 31v488q-4 4 -13 4q0 10 8 20q-8 13 -21 28q-8 5 -24 17q-17 12 -23 12q-36 0 -62 -36q-23 -32 -23 -70q0 -101 12 -124 q-13 -6 -13 -28q0 -6 2 -23t2 -21q0 -24 1 -43v-43q0 -26 -2 -60q0 -3 -4.5 -17t-4.5 -20q0 -20 3 -61t3 -60q0 -8 -8 -19q2 -6 2 -9q0 -19 -12 -27q1 -2 11 -16q3 5 5 19q2 11 11 19l6 3q3 3 5 4l6 -5v-17h-3q-9 0 -14 -11q0 -1 7 -12q2 8 9 18q1 -2 9 -21q4 -15 10 -15 q4 0 15.5 -2.5t13.5 -2.5q6 20 10 32h5q23 -2 28 5q13 -11 20 -20v-5q1 -1 1 -4q0 -8 -8 -8q2 0 -1 1q-1 1 -7 3l-3 -2q9 -19 18 -27q-24 -15 -48 -15q-70 0 -86 27l-9 -9q-24 10 -24 25q0 5 3.5 13.5t3.5 10.5q0 6 -3 7q1 -1 2 -1q3 0 3 6q0 12 -14 17q2 4 5 12 q10 -3 14 -4q3 3 3 4q0 22 -4 23q-5 1 -15 5l-1 -5q0 -8 6 -18l-11 9q-15 -21 -32 -27q-4 5 -4 15t5 15q-4 6 -9 18q7 7 7 18q0 23 -14 26q0 7 1 10q7 3 15 12l-5 6q4 3 12.5 11t12.5 12q-2 3 -7 3q-7 0 -15 -5v1q-1 5 4 10l-6 6q-5 6 -9 11.5t-4 9.5q0 18 16 34 q6 -4 19 -18l3 2q-1 1 -1 7q0 7 -26 25v2q0 1 1 4t1 4q0 8 -8 6h1q1 4 8 16q-5 7 -18 24q1 0 6.5 -2t7.5 -2q3 0 3 2q0 1 -5 6q1 1 4 1q12 0 16 19q-2 -2 -5.5 -6.5t-5.5 -7.5h-16v9q-1 10 9 13v1q0 3 4 7q-3 1 -12 8q-1 7 0 19q-5 20 -15 50q6 9 23 23q-6 13 -21 14h9 q4 11 4 27q0 7 -2.5 29.5t-2.5 28.5q0 22 9 32l-3 5l9 18v9q-1 19 8 55q11 5 27 18v4q-2 32 44 48q37 14 72 13l12 -13q8 8 8 13q29 -5 77 -15q8 -5 21.5 -15.5t15.5 -12.5q22 -19 29 -35q20 -51 20 -128q0 -6 2 -25.5t2 -24.5q0 -6 -1 -27t-1 -27q0 -30 1 -55q1 -24 1 -55z M227 82l7 -7l-5 -4l-7 7zM200 76q0 -18 -11 -31v4q0 6 -4 10q-4 -6 -11 -13l1 2q1 2 3 7t4 9q4 10 18 12zM68 60l11 -12l-4 -4l-11 11zM360 706q-11 6 -16 20q-11 -24 -11 -25v-1q13 -7 18 -19q1 10 9 25zM354 645h7v17h-7v-17zM215 779l5 5l-7 7l-4 -5zM328 614h22l-5 21 q-1 -1 -7 -8.5zM355 541q-5 11 -16 22q-4 -4 -14 -18q9 9 17 9q5 0 5 -5q0 -1 -1.5 -6.5t-1.5 -7.5q0 4 11 6zM360 514l-17 16q5 -12 5 -24q2 8 12 8zM346 485l6 12l-6 2l-6 -11zM347 466l13 6l-2 6l-11 -6v-6zM306 484l5 5l-7 7l-4 -5zM315 471l6 12l-7 3l-6 -12zM101 178 l-11 12q-5 -5 -6 -13q1 1 17 1zM82 150h7l-6 13l-6 -2zM101 137l-9 12h-6h-15q-2 -2 -2 -4q0 -8 3 -11q-1 3 2 4.5t9 1.5q2 0 9 -1.5t9 -1.5zM61 152h12v8h-12v-8zM165 21l14 6l-3 6l-11 -6v-6zM147 23l13 10q-3 7 -17 21q6 -10 6 -23q0 -4 -2 -8z" />
<glyph unicode="p" horiz-adv-x="438" d="M405 548q-4 -2 -8 -5v-7q1 -57 -26 -91q-64 -82 -120 -82q-8 0 -36.5 4.5t-37.5 4.5q-11 0 -23 -24q-11 -24 -11 -37q0 -3 3 -13t3 -13q0 -9 -2 -79q-1 -35 -1 -78q0 -68 9 -125q-50 -10 -87 -10q-33 0 -33 48q0 14 5 47q5 35 5 46v42q0 84 1 152q2 136 2 152v125 q0 7 -2 10.5t-6 2.5v131q0 20 15 44q17 24 36 24q4 0 14 -8q15 0 43 -3q40 -2 45 -2q3 0 13 2t14 2t17.5 -6.5t17.5 -6.5q3 0 6 2.5t6 2.5q24 0 65 -32q42 -33 49 -55q11 -38 11 -143q0 -10 13 -22zM293 628q0 7 -7.5 30.5t-7.5 28.5q-11 7 -23 19q-2 -14 -7 -14v3 q0 13 -17 18q-5 1 -14 2t-13 2q7 7 7 18q0 7 -1 11q-9 -2 -9 -4q0 2 3 -3q2 -3 5 -8q-11 -6 -45 -18q7 -7 7 -12l-1 -4q-12 0 -18 -2q-3 -6 -13 -21q-11 -14 -11 -19t6 -15t6 -11q0 -2 -1 -3q-13 1 -15 -13q10 -3 10 -15l2 -19q-1 -3 -6 -13q1 -17 5 -53q8 -35 26 -42 q39 -14 55 -14q2 4 35 30q29 23 30 47q2 19 7 47q5 33 5 47z" />
<glyph unicode="q" horiz-adv-x="457" d="M183 39q-3 1 -9 2.5t-8 2.5q0 -3 -5 -11q4 -3 10 -7l6 -3q0 11 6 16zM443 53q0 -14 -8 -32q-11 -20 -24 -20q-6 0 -39 11q-29 11 -39 17q-11 11 -15 11q-7 0 -36 -22q-30 -21 -36 -21q-4 0 -4 2q2 2 2 4q0 1 -5 3q-7 0 -31.5 -6.5t-30.5 -6.5q-7 0 -23 13t-19 13t-5 -2.5 t-5 -2.5q-17 0 -27 31l-3 -9q-42 34 -51 102q-1 10 -1 120q0 17 7 32q-4 5 -4 16q0 9 3 18q-4 4 -13 3v111l7 9q3 81 3 106q0 39 -3 67q2 10 2 17q0 77 46.5 122t124.5 45q126 0 162 -130q10 -36 9 -61l-26 -436q-1 -16 10 -47q5 -14 29 -23q34 -13 37 -16q0 -2 2 -10.5 t3 -16t1 -11.5zM106 547l4 4l-6 7l-4 -5zM331 291l5 4l-6 7l-5 -5zM322 216q-14 4 -39 18v12q5 3 13 10q-6 0 -12 9q0 3 -3 41q-1 25 0 41l-1 1q-2 0 -4 1.5t-2 5.5q0 5 3 9l3 4q-1 16 2 58q-17 0 -17 10q4 2 6 2q4 0 11 -7q-4 23 -4 55q0 14 2 38q0 3 3.5 17t3.5 18 q0 5 -5 24t-5 25q0 2 1 5q5 -2 13 -3l-27 57q-19 37 -46 37q-46 0 -68 -18q-11 -48 -19 -66v-56q0 -6 3.5 -23t3.5 -22q0 -17 -5 -65t-5 -64q0 -75 -1 -78l9 3q-12 -13 -12 -22q0 -8 15 -17l1 -5q-14 -5 -15 -14l1 -22q0 -13 -7 -21q-3 13 -12 22l-11 -10q2 -20 18 -36 q-1 -1 -5 -1q-3 0 -11 3.5t-10 3.5q0 -2 1.5 -8t1.5 -8q0 -3 -1 -5q-9 9 -9 11q0 -7 -11 -18q2 -2 6.5 -8t8.5 -11q2 1 8 5l3 -3l-7 -7q-6 2 -9 5l-5 -21q7 -3 17 -16l-8 -10q3 1 9.5 5.5t12.5 8t8 3.5h1q12 -9 38 -37q-5 -8 -13 -19q4 0 12 -5l-1 5q0 4 4 8q4 -9 34 -21v-1 q-1 -1 10 -13q-1 1 -1 3q-1 3 -1 4q2 2 6 2q-3 0 5 -11q5 -5 14 -5q-4 -5 -3 -9v-1q2 2 4 2q1 0 5 -1t6 -1q12 12 14 21l-6 -1q-2 0 -7 3q22 16 33 16q4 -1 4 -3v-3q13 -7 19 -7l4 21q-6 0 -15 9q0 -5 -4 -9q-3 3 -3 5t1 6q4 3 13 14q-17 9 -17 16q5 3 13 10q-10 1 -10 5 q0 3 5 10q3 -4 12 -9q4 7 12 13q4 -4 4 -17l7 25q-14 0 -14 9q-4 -8 -14 -17l-7 7q2 27 12 76h11q7 -9 15 -22q0 13 6 19zM288 157l5 4l-7 6l-4 -4zM333 108l2 7l-17 5v-6zM305 100l5 4l-7 7l-4 -4zM100 317q-2 0 -9.5 -5t-9.5 -5q2 0 2 -3q0 -4 -1 -7q1 -1 1 -7q0 -4 -3 -7 h-5q-6 1 -9 -3q18 0 24 -14v5q-1 3 -1 6t5.5 19t5.5 21zM111 251l3 7l-20 10l-2 -7zM271 67l-4 -6l-16 10l5 6zM77 204l2 6l-11 5l-2 -6zM105 167l-2 -7l-15 6v6zM137 111h-7l-5 10l6 2zM341 177q0 -3 -7 -3h-1h-2q3 -9 6 -14q0 2 4 17zM336 128l-5 13l-6 -3l5 -10h6z M322 77q-8 8 -15 8l-15 -3q23 -23 25 -23l-1 5q0 7 6 13z" />
<glyph unicode="r" horiz-adv-x="440" d="M415 54q0 -23 -17 -37.5t-37 -14.5q-5 0 -18 8q-4 1 -10 0q-7 -3 -13 -3q-12 0 -23 17q-7 14 -9 21q6 2 6 11q0 10 -14 60q1 1 2 3t3.5 5t4.5 6l-7 6l-2 -4q-2 -3 -4 -5.5t-4 -2.5q8 24 8 44q0 2 -13 37q-10 30 -16 54q-10 53 -16 68q-16 42 -45 42q-3 0 -17 -4t-19 -4 q-1 -1 2 -11q-8 -8 -11 -22q5 -22 5 -30q0 -6 -4 -15t-4 -15q0 -53 10 -122q1 -6 0 -18q0 -3 -0.5 -7t-1 -6.5t-0.5 -5v-3.5q0 -26 18 -40q0 -4 -8 -15q-4 -21 1 -29q-2 -10 -18.5 -21.5t-30.5 -11.5q-29 0 -51 15q-5 3 -11 30q-1 1 -4 6t-5 8q1 2 3.5 8t3.5 9q-1 23 -6 141 q-1 3 -6 6q8 18 8 34q0 14 -2 132q-2 120 -2 136q0 54 -3 103q0 8 -1.5 39.5t-2.5 55.5q-7 10 -7 15q0 65 43 65q4 0 11 -2t11 -2q2 0 9.5 6.5t11.5 6.5q7 0 35 -7q32 -6 36 -6q3 0 14.5 6.5t16.5 6.5q4 0 7 -3t4 -6l2 -3q15 0 39 -3q10 -5 39 -13q13 -17 36 -35 q9 -22 38 -70q-4 4 -7 0q-5 -34 -4 -41q1 -3 6 -9q2 -66 -5 -118q-3 -28 -43 -99q-3 -1 -11 -9q1 -14 36 -124q-1 -10 4 -36q5 -22 8 -41zM299 518q-16 16 -16 40q0 11 5 38q-7 12 -6 16q10 6 6 19q-3 6 -8 18t-8 18q-14 26 -27 26q-4 0 -5 -2.5t-4 -2.5q-2 0 -7 6.5 t-17 6.5q-23 0 -59 -14q-17 -8 -26 -41q-5 -23 -5 -78q0 -33 14 -77q2 -2 4.5 -6t6.5 -9.5t7 -9.5q31 -11 54 -11q20 0 46 20q1 1 45 43zM310 137h7v11h-7v-11zM295 123l5 11l-6 2l-6 -11z" />
<glyph unicode="s" horiz-adv-x="416" d="M380 704v-86q-16 -14 -24 -17q-6 -2 -24 -2q-3 0 -21.5 2t-23.5 2q-4 0 -5.5 1.5t-3.5 5t-2 4.5q1 27 -15 58q-19 37 -50 37q-34 0 -54 -32q-16 -26 -13 -54q0 -2 -3 -15.5t-3 -17.5q0 -31 12 -49q12 -21 22 -31q2 -6 -7 -15q5 -3 17 -3l-7.5 -7.5t-12.5 -12t-10 -5.5 t-10 2q-2 1 -4 -1q0 -7 3 -10l54 26q0 -9 2 -13q4 4 4 9q27 -20 70 -58q55 -68 81 -108q4 -7 0 -17q3 -4 14 -17q-2 -20 2 -44l4 -33q0 -2 -4 -12.5t-4 -13.5q0 -7 6 -8q-13 -34 -18 -89q-10 -6 -19 -19q-12 -16 -20 -24q1 -1 6 -9q-11 0 -16 3q0 -1 -3 -10q-1 -3 -2.5 -5 t-4 -2.5t-4.5 -1t-8 -0.5h-10h-20l-3 -3q-4 -3 -8.5 -6t-8.5 -3q-2 0 -6.5 -0.5t-13 -1t-17.5 -0.5q-8 0 -16.5 -0.5t-13 -1t-6.5 -0.5q-26 0 -57 14q-15 7 -41 31q-45 42 -45 107q0 32 10 43.5t41 11.5q17 0 23 -2q12 -4 30 -17q4 -19 20 -57q19 -30 30 -30q3 0 13 -4.5 t14 -4.5q3 0 10.5 4.5t11.5 4.5t7 -3.5t5 -6.5l2 -3q7 4 7 10q0 5 -8 5q2 2 6 -2q19 30 22 35q13 22 13 39q0 15 -10 25q8 8 11 14q-2 11 -4 47q-6 14 -17 30q-28 29 -87 93l7 25q0 -9 4 -13q4 0 7 1q4 4 7 17t4 15l-4 3q-8 2 -21 9q0 1 2 3t5 4l6 4t5 4q0 -1 -11 19 q-3 -3 -5 -4q-4 -4 -4 -7q0 -4 11 -4q-18 -8 -28 -2l-12 -12q4 -3 13 -3q-9 -10 -4 -15q-9 -1 -25 0q-85 40 -85 206q0 27 3 42q5 10 12 31q2 2 7.5 6t8.5 7q-4 1 -13 9l2 3q2 2 5.5 4.5t7.5 2.5q12 0 12 3q-2 23 14 39q15 15 44 26q31 12 56 12q20 0 34 -2q-3 -7 7 -7 q4 0 5 4.5t4 4.5q4 0 47 -26q44 -27 50 -34q7 -13 13 -26q13 -23 24 -25zM90 715l-12 11q0 -10 -10 -20q2 0 11 4.5t11 4.5z" />
<glyph unicode="t" horiz-adv-x="391" d="M370 736q0 -56 -34 -56q-7 0 -23 4t-22 4q-17 0 -27 -9q-2 -1 -26 -28q-1 -2 1 -9.5t2 -8.5q-9 -2 -23 12q-8 -12 3 -18q1 -4 1 -15q-11 -5 -11 -7l7 -7q8 8 14 8q0 -3 -21 -24q-1 -2 3 -6q12 0 12 11q0 -2 6 -9t6 -8q1 -6 -2 -28t-3 -28q1 -2 4.5 -7.5t6.5 -9.5 q1 -7 1 -43v-139q0 -4 -4 -17.5t-4 -16.5q0 -4 4.5 -16.5t4.5 -14.5q0 -5 -4 -13q4 -7 4 -30q2 -34 2 -35q0 -2 -3 -15.5t-3 -18.5q0 -3 4.5 -13.5t4.5 -11.5q3 -25 3 -44q0 -71 -37 -71q-1 0 -5 -0.5t-11 -1t-14 -0.5t-14 -0.5t-11 -1t-5 -0.5q-17 0 -28 21q-9 17 -9 37 l31 559q0 49 -12 54q-31 15 -34 15q-2 0 -30 -5q-23 -4 -30 -4q-32 0 -32 65q0 19 8 41q10 28 28 28q4 0 13.5 -2.5t12.5 -2.5q4 0 16 -3.5t14 -3.5q49 0 56 1q1 -4 9 -15q14 7 25 11q11 -4 33 -4q20 0 60 5q7 1 13 1.5t10 1.5t7 1.5t4 0.5h1q29 0 40 -18q7 -13 7 -42z M231 745v21q-9 -10 -33 -10q4 -1 15 -4.5t18 -6.5zM219 735q-1 0 -17 -15q2 0 4.5 -3t5.5 -7l2 -4q0 2 2.5 14t2.5 15zM177 708h25v8h-25v-8zM184 752q-22 -16 -23 -16l-10 8q11 -20 15 -30q2 6 18 38zM183 689h8v16h-8v-16zM196 611h8v16h-8v-16zM181 238l22 10l-3 6 l-19 -9v-7z" />
<glyph unicode="u" horiz-adv-x="456" d="M258 43l-6 3l-6 -12l7 -2zM406 462v-108q-17 -8 -17 -37q0 -7 5 -29q6 -20 6 -24q0 -1 -4 -11t-4 -12q2 -10 2 -20q0 -12 -5 -47q-4 -27 -4 -45q0 -2 1 -7.5t1 -6.5v-2q-8 -24 -27 -62q-14 -22 -40 -39q-31 -20 -52 -20q-4 0 -6.5 2.5t-4.5 2.5q-4 0 -17.5 -9t-17.5 -9 h-40q-4 0 -13 11t-11 11q-5 0 -5 -1v-1q0 -2 -4 -2q-15 0 -40 27q-35 36 -36 37q-1 12 -15 47q-8 27 -8 54q0 7 -13 7v393q0 5 3 8l4 2q-1 6 -1 22q0 83 4 194q10 19 49 19q36 0 53 -14q1 -14 15 -40q0 -6 -17 -15v-33q0 -9 2 -27h-2q-5 0 -5 -8q0 -10 3 -41.5t3 -34.5 q3 -4 7 -14q-8 -14 -8 -37q0 -14 7 -35t7 -33q0 -1 -1 -19t-3 -61.5t-4 -92.5q-4 -105 -5 -132q-6 -9 -6 -17q0 -5 3 -6.5t3 -2.5q-1 -3 -1 -11q0 -25 17 -36q0 -2 -13 -14q2 -7 7 -16q12 5 36 18q0 -3 -4 -10q-2 -5 0 -11q-12 2 -13 2q-5 0 -8 -1q4 -4 21.5 -12t24.5 -17 q13 13 12 22q6 -2 9 -2q6 0 16 5l-8 2v16l12 5q-2 -4 -3 -12l2 -5q10 8 28 18q-5 8 -8 9l-12 -9q-5 8 -5 10q38 30 38 87q0 7 -7 78q-5 55 -12 157v5q0 9 1.5 36t1.5 34l-2 1q-1 1 -2.5 3.5t-1.5 6.5q0 1 4.5 3.5t4.5 6.5q0 6 -5 26t-5 26q0 50 19 81q-6 6 -13 8v106 q0 5 8 19q7 14 12 16q35 8 55 8t33 -19q0 -1 0.5 -18t2 -57t2.5 -85q0 -24 8 -118l1 -2q0 -2 -3.5 -11t-3.5 -11v-2zM319 541h12v8h-12v-8zM132 123l2 6l-11 6l-3 -6z" />
<glyph unicode="v" horiz-adv-x="411" d="M391 782q0 -7 -2 -7q-5 -1 -6 -3q-1 -8 -1 -26t-1 -26q-4 -34 -21 -49q0 -6 13 -6q0 -1 -2.5 -9t-7 -24t-9.5 -34q2 -2 3 -9q-6 -34 -11 -70q-6 -103 -33 -229q2 -12 2 -27l-16 -12l26 -26q-6 -6 -22 -6v-25q-1 -13 -1 -26q0 -1 -5 -9.5t-6 -13.5q-2 -14 0 -40 q3 -35 3 -45q0 -34 -10 -55q-14 -11 -29 -11q-3 0 -7 4.5t-8 4.5t-20 -4.5t-20 -4.5t-17 11q-18 16 -20 17q7 12 3 31q-2 1 -6 9q1 37 -27 127q-7 26 -26 119q-11 53 -55 329q-4 24 -19 77q-15 52 -15 59q0 22 31 28q4 1 39 1q24 0 42 -15q8 -29 25 -115q-3 -4 -3 -14t6 -30 l8 -23l9 -51q11 -29 43 -29q17 0 25.5 15t14.5 54q11 45 19 96q-1 19 -1 58q2 45 12 52q14 10 66 10q13 0 25 -8t12 -20zM316 201l6 -2l-5 -12l-6 3zM344 625l12 5l-2 6l-10 -5v-6zM212 67l13 6l-3 6l-10 -5v-7zM206 6l11 11l-5 5l-11 -11z" />
<glyph unicode="w" horiz-adv-x="593" d="M569 764q0 -19 -4 -48q-4 -28 -4 -49q-3 -17 -20 -65q4 -9 4 -12v-2q-5 -6 -20 -18v-33q8 -6 16 -14q-1 -3 -1 -9q0 -4 1.5 -15t1.5 -13q0 -14 -7 -92q-3 -52 -12 -148q-2 -12 -21 -22q13 -13 13 -37q0 -12 -4 -28q-4 -23 -6 -27q-3 -19 -4 -62q-2 -40 -10 -61 q-24 -15 -37 -15q-3 0 -14 2t-15 2t-9 -4.5t-8 -4.5q-14 0 -33 19v55q3 3 8.5 8t7.5 7v23q0 6 13 32q-1 6 10 29q-13 6 -21 21q-6 0 -6 -9q-10 13 -16 13q-4 0 -19 -4.5t-19 -4.5q-3 0 -10.5 6.5t-11.5 6.5q-8 0 -24 -15q-18 -16 -19 -22q-3 -10 -3 -39q0 -1 -13 -14 q0 -7 13 -7q-7 -25 -18 -100q-18 0 -19 1q-7 -5 -33 -6q-27 -3 -34 -2q-16 3 -22 40q-8 48 -18 61q2 10 2 19q0 29 -17 86q-16 54 -16 69q0 22 10 38q7 5 16 13q1 10 -6 10q-3 0 -11 -2t-9 -2l-88 441q7 28 43 28t47 -14q15 -66 15 -89l-2 -3q-1 -3 -6 -9.5t-9 -13.5 q3 -20 11 -20q2 0 7.5 2t6.5 2l1 -1q1 -1 1.5 -2.5t1.5 -4t1 -5.5q0 -11 -17 -28q7 -7 17 -7q0 -3 -13 -15q2 -7 7 -15q2 2 8 11q0 -20 11 -39q12 -21 31 -21q14 0 25 17q3 9 12 27q27 28 95 51q0 1 -6.5 7.5t-6.5 11.5q0 14 26 29q-2 7 -9 7q-5 0 -11 -4l-1 -1l-2 4 q4 6 6 8q1 7 -3.5 10.5t-12.5 3.5q-5 2 -5 -1q1 0 1 -1q-2 -2 -5 -2q-6 0 -13.5 6t-8.5 12q-10 -15 -17 -27q-6 8 -6 19q0 2 4.5 14t4.5 14q0 5 2 47q5 0 7 5q-3 7 -5 10q12 0 28 14q4 -9 44 -9q4 0 7 4.5t6 4.5q9 0 28 -18q0 -26 -5.5 -39t-16.5 -12q0 -10 12 -10q6 0 10 4 q-1 -3 -26 -28q7 -7 19 -7q3 4 12 13q-6 -13 -18 -23q1 -1 5.5 -4l6 -4t5 -3.5t5 -4.5t3.5 -5t2.5 -6t0.5 -6v-2q-1 -4 -2.5 -15t-2.5 -16q5 -1 15 -8q1 -17 21 -46q21 -32 36 -32q4 0 6 2t3 4l1 2v-23q7 -7 11 -7q2 2 2 4q0 5 -7 18l11 -9q6 0 6 13q1 -1 4.5 -5.5t6.5 -7.5 l11 11q-1 1 -2.5 3t-3 4.5t-2.5 4.5q0 1 6 5.5t6 9.5q0 8 -9 17t-9 11q0 4 3 15t3 15h6q8 0 15 3q-2 7 -7 15q-8 -8 -15 -8v32q0 9 7 19q-1 6 -1 20q0 4 2 42q1 8 1 19t0.5 16.5t2 12t5.5 11t11 9.5l4 -1q5 0 19.5 2t18.5 2q10 0 16 -17q6 -14 6 -25zM504 607l13 6l-3 6 l-10 -6v-6zM521 581l6 4l-10 16l-7 -4zM521 541l-22 5l11 -12q4 4 11 7zM249 743h16v7h-16v-7zM505 494q-2 -3 -15 -20q4 0 12 -6q5 12 5 20q0 2 -2 6zM309 618q0 2 1 9t1 9q0 1 -2 7q-9 -3 -16 -4q0 -14 16 -21zM447 471l5 5l-11 11l-5 -5zM478 362l4 4l-6 6l-5 -4z M499 273h-7q-3 -1 -6 -1q-5 0 -8 3q0 -11 6 -18q0 3 15 16zM445 256l15 10l-4 6l-15 -10zM468 239l6 12l-6 2l-6 -11zM464 165l6 11l-7 3l-5 -12zM165 460q-1 4 -6 12q-8 -9 -13 -9t-12 4q0 15 -6 23q-1 -14 -11 -19q8 -9 19 -25q14 14 29 14zM464 107l13 5l-2 6l-11 -5v-6z M442 116l6 12l-7 2l-5 -11zM473 72l5 4l-7 7l-4 -5zM433 103l6 12l-6 2l-6 -11zM434 76l4 4l-6 7l-5 -4zM156 342q0 4 -6 12l-2 -4q-2 -5 -4 -8.5t-3 -3.5h6q6 0 9 4zM409 62q-2 0 -5 5.5t-4 5.5t-2.5 -4t-2.5 -8l-1 -4q1 0 3.5 1t5.5 2zM126 270l6 12l-7 2l-5 -11zM155 201 h7v20h-7v-20zM151 182l15 15l-4 4l-15 -15zM209 127q-5 5 -5 15h-21q15 -15 26 -15zM153 140h16q-10 18 -5 29q-11 -13 -11 -29z" />
<glyph unicode="x" horiz-adv-x="466" d="M438 770q-27 -37 -50 -91q-7 -19 -35 -92q-20 -54 -38 -115q-21 -70 -21 -78l20 -67q11 -35 17 -57q1 -1 10 -21q6 -13 18 -17q0 -11 -8 -19q1 -1 4.5 -5t6.5 -7q9 -30 41 -116q26 -69 26 -72q0 -9 -12.5 -16.5t-20.5 -7.5q-4 0 -9 4.5t-8 4.5q-4 0 -3.5 -4.5t-3.5 -4.5 t-19 2t-19 2t-16 9t-15 9q0 1 4 7.5t4 11.5q0 2 -12 46q-11 44 -15 66q-9 2 -10 9l-2 6t-2 5l-1 2q-8 8 -25 8q-16 0 -32 -12q-21 -16 -28 -39q0 -2 -2 -22q-10 -24 -27 -83l-20 -15q-11 -8 -17 -8q-36 0 -58 5q0 1 -2.5 9t-2.5 12q0 14 23 55q-2 2 -3 9q3 5 10.5 16.5 t11.5 18.5q-4 13 9 26q-2 14 -2 29q16 56 41 132q27 81 27 86q0 21 -27 91q-10 14 -28 48q-1 21 -12 65q-40 90 -76 185q10 10 23 17l38 6q12 0 39 -11q30 -14 33 -26q11 -60 10 -70v-30q16 -20 55 -68q16 8 17 20q14 -2 36 34l8 8q-3 2 -3 6v44q9 7 25 53q12 35 43 35 q50 0 65 -4h6q5 -6 14 -24zM255 306l6 12l-7 2l-5 -11zM290 201l13 5l-2 6l-11 -5v-6zM164 192l17 5l-2 7l-15 -6v-6zM149 140l11 11l-4 4l-11 -10z" />
<glyph unicode="y" horiz-adv-x="412" d="M394 756q0 -4 -25 -88q-24 -82 -34 -127l-2 -1l-4 -4q-8 -54 -38 -193q-11 -21 -19 -44q-2 -19 -3 -57q-1 -9 -2 -25l-5 -45q0 -27 6 -79q6 -53 6 -79q0 -6 -8 -15t-15 -9q-1 0 -5 0.5t-11.5 1t-14.5 0.5t-14 0.5t-11 1t-5 0.5q-18 0 -22 54q0 13 -2 38t-2 38q2 5 7 44 q0 39 -4 91q-4 8 -17 18q6 22 -1 44q-5 2 -13 8q0 4 -1 15t-1.5 16t-1.5 14t-3 13.5t-4.5 10.5t-6 9.5t-8.5 4.5q0 2 -2.5 22.5t-2.5 29.5q-4 -4 -9 -4q-3 37 -44 173q-40 129 -40 134q0 7 6.5 14.5t13.5 7.5q10 0 17 -9q3 3 3 13q22 0 64 -11q20 -11 20 -40q0 -7 -3 -13 q1 -1 5 -6.5t7 -10.5q-1 -7 0 -16l10 -10q4 -27 -3 -52q12 -8 25 -20q14 -14 19 -14h33q-1 4 -1 21q8 8 15 17q1 16 5 48q5 29 19 36q0 1 -8 12q2 6 4 35q2 13 20 24q20 14 34 12l4 1q4 2 9 3.5t9 1.5q30 0 42.5 -12t12.5 -43zM301 653h6l-5 18l-6 -3zM221 346h8v12h-8v-12z M223 104l6 11l-7 3l-5 -12zM221 79h8v16h-8v-16zM232 51l5 12l-6 2l-6 -11zM227 46q-2 0 -11 -1.5t-13 -1.5q-13 0 -13 15q0 -1 1.5 -10t1.5 -14h20q2 2 14 12zM183 34l6 11l-6 2l-6 -11z" />
<glyph unicode="z" horiz-adv-x="410" d="M389 62l-2 -6q-2 -5 -7.5 -19.5t-10.5 -29.5q-1 0 -9.5 -2.5t-13.5 -2.5h-15q-7 0 -18 21q-1 -1 -4 -8.5t-4 -8.5q-7 4 -26 4q-3 0 -17 -6.5t-17 -6.5q-4 0 -8 4.5t-7 4.5q-4 0 -15.5 -4.5t-14.5 -4.5l-16 5q-4 0 -7.5 -2t-5.5 -4l-2 -3l-10 9q-9 -9 -13 -9q-6 0 -8 4 l-1 1q-9 -1 -73 -1q-5 2 -13 8q-12 9 -12 21l2 7q-2 -1 -3.5 1.5t-1.5 7.5q0 4 12 42q6 18 19 62q21 76 39 129q10 28 88 254q15 47 15 73q23 43 22 58q-74 13 -94 13q-5 0 -26 -3t-26 -3q-41 0 -51 19q-7 10 -7 47q0 48 26 62q14 7 71 7q45 0 47 1q41 -10 82 -10 q3 0 8.5 0.5t16 1t20.5 0.5q35 2 45 1q8 -2 19 -14q14 -14 14 -26q0 -24 -17 -75q-11 -31 -23 -66q-2 -7 -18 -34q2 -5 0 -19q-1 0 -2 -1.5t-3.5 -3.5t-4.5 -3q4 -37 -17 -48q-2 -26 -7 -56q-17 -47 -66 -176q-1 -6 -5.5 -25t-7.5 -31q-1 -3 -3.5 -9.5t-7 -17.5t-8.5 -21 q-12 -31 -12 -37q0 -8 23 -33q13 13 20 13q3 0 17 -6.5t17 -6.5t20 6.5t21 6.5q6 0 26 -21q26 17 36 17q7 0 21 -20t14 -27zM299 675h12v8h-12v-8zM319 70q-8 -10 -22 -8q-23 2 -16 3q12 -12 17 -12q16 0 21 17zM272 44q-10 -1 -25 -6q6 -1 19 -6q4 4 6 12zM198 32h7v12h-7 v-12zM165 45h6l-6 13l-6 -3zM124 77l3 6l-15 10l-4 -5z" />
<glyph unicode="~" horiz-adv-x="833" />
<glyph unicode="&#xa1;" horiz-adv-x="311" d="M128 85l-6 -13l-6 2l5 11h7zM237 389q-12 -23 -15 -35q3 -4 3 -13t-3 -19l-2 -6q-1 -5 -1 -7q0 -14 12 -59q-12 -2 -12 -11q0 -4 2.5 -17.5t2.5 -16.5q-6 -2 -9 -4v-32q15 -17 16 -19l6 2q-13 -26 -13 -43q-23 2 -31 -3l36 -9q-6 -11 -6 -18q0 -4 5 -17t5 -19 q0 -12 -8 -22q12 -12 12 -15l-13 8q-13 -8 -30 -8q0 5 -3 8q-7 -13 -20 -13q-24 0 -33 10q-5 4 -16 33q6 3 12 22t6 29q0 -1 -6 15q2 16 2 19q0 7 -7 19t-7 16t2 4l3 -1l3 -1q4 0 4 11q0 9 -3 22q3 0 11 -8q0 1 1 2l2 2q0 21 -13 28v1q0 3 4 18q-1 3 -4.5 11.5t-5.5 11.5 q13 10 18 17q-9 10 -9 26q0 6 2.5 12t2.5 11q0 9 -3 15q11 20 11 39q0 11 -11 14q1 17 0 39q-2 38 -2 40q0 1 2 4.5t3 8t0 15.5q0 4 -5 16t-5 16t3 5q6 11 6 26q0 6 -4 31t-4 33q0 25 14 45l19 -1l6 -1q7 -2 22.5 -5.5t31.5 -7.5q-23 -21 -41 -21q-11 0 -19 4 q-16 -10 -16 -18q12 -5 22 -5q-13 -13 -13 -23q12 -12 20 -12q10 2 11 4q-4 -4 -4 -7q0 -2 2 -6q10 5 18 5l6 -1q1 -6 16 -28q14 -19 14 -28q0 -8 -36 -65q2 -5 8.5 -8.5t12 -5.5t5.5 -4q0 -7 -6 -13l-9 -10q6 -8 13 -18.5zM216 19l-17 5v-6l15 -5zM208 132l-6 12l-6 -3 l6 -11zM222 161h-8v-12h8v12zM230 505l-5 4l-6 -6l4 -5zM235 772q0 -17 -14 -28q-4 -1 -16 3q0 4 9 15l8 12l-7 7q-5 -1 -10 0t-11.5 2.5t-7.5 1.5q-13 0 -20 7l2 2q2 1 5 3l6 4q8 6 13 6q17 0 30 -10t13 -25z" />
<glyph unicode="&#xa3;" horiz-adv-x="487" d="M449 82l-5 -67l-63 -4q-1 -1 -24 1q-24 3 -32 2q-8 -3 -39 -4q-30 -2 -67 -2q-54 0 -59 -1q-4 -1 -14 -1.5t-15 -0.5q-4 -1 -31 1q-11 0 -18 -4q-2 32 0 36q-3 4 -5 17q0 2 2 18.5t2 22.5q2 1 5 4v13q2 168 -2 174q-1 2 4 12h-5q-4 -1 -31 1q-11 0 -18 -4q-2 32 0 36 q-3 4 -5 17q0 2 2 18.5t2 22.5q15 12 17 12l51 -1l1 1q2 0 2 1q0 -1 -1 -1t-2 -1h16q0 14 -9 14q-10 0 -17 -3q5 4 -4 13q0 1 3 3.5t7.5 5.5t6.5 5q-4 4 -17 3q-2 21 2 40l-1 3q-2 3 -4 5q-1 8 -1 24q2 15 13 25v24q-10 10 -13 8q8 13 8 19q0 3 -6.5 11.5t-6.5 14.5 q0 31 14 82q7 25 31 51q41 43 77 44q7 -1 23 4q32 2 64 2q13 0 36 -18q25 -19 43 -23q3 -4 14.5 -19.5t19.5 -26.5q15 -21 15 -57q0 -18 -15.5 -29.5t-34.5 -11.5q-17 0 -53 18q2 6 2 9q0 20 -32 41q-26 18 -38 18q-9 0 -13 -4l-8 8q-7 -8 -18 -24q-4 1 -13.5 -6.5 t-13.5 -15.5q-9 -20 -9 -49q0 -7 7 -57q5 -39 8 -76q-2 -14 -1 -76l55 -1q98 3 144 0q3 -2 19 -23l-5 -67l-63 -4q-1 -1 -24 1q-24 3 -32 2q-8 -3 -39 -4q-26 -2 -56 -2q0 -3 2 -184q0 -2 -2 -6t-2 -6l106 -1q98 3 144 0q3 -2 19 -23zM135 435h20v8h-20v-8zM322 701h8v16h-8 v-16zM126 402v-1h5q-2 1 -5 1zM150 400l1 1q-1 0 -2 -1h1zM106 404l-2 -1q1 1 2 1z" />
<glyph unicode="&#xa5;" horiz-adv-x="490" d="M426 369l-5 -67l-63 -4q-1 -1 -24 1q-24 3 -32 2v-2q-2 -19 -3 -57q0 -3 -0.5 -10t-1.5 -10q43 0 47 1t14 1.5t15 0.5q4 1 31 -1q10 0 18 3q0 -33 -1 -36q3 -4 5 -17q0 -2 -2 -18.5t-2 -22.5q-17 -11 -18 -11l-110 3q0 -5 1.5 -15.5t2.5 -16.5q6 -53 6 -79q0 -6 -8 -15 t-15 -9q-1 0 -5 0.5t-11.5 1t-14.5 0.5t-14 0.5t-11 1t-5 0.5q-18 0 -22 54l-4 76q0 1 1 2q-82 -1 -122 3q-3 2 -19 23l6 67l63 3q1 1 24 -2q24 -3 32 -2q3 1 20 3q-1 6 -1.5 18.5t-0.5 19.5q-4 8 -17 18q2 12 2 18q-41 0 -45 -1t-14 -1.5t-15 -0.5q-4 -1 -31 1 q-11 0 -18 -4q-1 31 0 36q-3 4 -5 17q0 2 2 18.5t2 22.5q15 12 17 12l82 -2q-4 14 -17 19q0 2 -2.5 22.5t-2.5 29.5q-4 -4 -9 -4q-3 37 -44 173q-40 129 -40 134q0 7 6.5 14.5t13.5 7.5q10 0 17 -9q3 3 3 13q22 0 64 -11q20 -11 20 -40q0 -7 -3 -13q1 -1 5 -6.5t7 -10.5 q-1 -7 0 -16l10 -10q4 -27 -3 -52q12 -8 25 -20q14 -14 19 -14h33q-1 4 -1 21q8 8 15 17q1 16 5 48q5 29 19 36q0 1 -8 12q2 6 4 35q2 13 20 24q20 14 34 12l4 1q4 2 9 3.5t9 1.5q30 0 42.5 -12t12.5 -43q0 -4 -25 -88q-24 -82 -34 -127l-2 -1l-4 -4q-9 -57 -28 -143 q36 1 76 -1q3 -2 19 -23zM257 46q-2 0 -11 -1.5t-13 -1.5q-10 0 -13 9q1 -1 1 -4q2 -10 2 -14h20q2 2 14 12zM251 79h8v16h-8v-16zM331 653h6l-5 18l-6 -3zM262 51l5 12l-6 2l-6 -11zM253 104l6 11l-7 3l-5 -12zM213 34l6 11l-6 2l-6 -11z" />
<glyph unicode="&#xa8;" horiz-adv-x="421" d="M393 936q0 -14 -17 -29q-17 -14 -28 -14q-15 0 -38 26q-21 25 -21 44q0 40 52 40t52 -67zM121 941q0 -7 -9 -24q-10 -18 -13 -28q-1 0 -11.5 7.5t-16.5 7.5q-4 0 -7 -2.5t-8 -2.5q-16 0 -26 22q-8 21 -8 37q0 8 20 23q20 16 29 16q21 0 38 -26q12 -21 12 -30z" />
<glyph unicode="&#xad;" horiz-adv-x="497" d="M426 361l-5 -67l-63 -4q-1 -1 -24 1q-24 3 -32 2q-8 -3 -39 -4q-30 -2 -67 -2q-54 0 -59 -1q-4 -1 -14 -1.5t-15 -0.5q-4 -1 -31 1q-11 0 -18 -4q-1 31 0 36q-3 4 -5 17q0 2 2 18.5t2 22.5q15 12 17 12l188 -3q97 3 144 0q3 -2 19 -23z" />
<glyph unicode="&#xb1;" horiz-adv-x="486" d="M221 566l67 -5l4 -63q1 -1 -2 -24q-2 -27 -1 -32q0 -4 1 -8q61 1 117 -1q3 -2 19 -23l-5 -67l-63 -4q-1 -1 -24 1q-24 3 -32 2q-1 -1 -3 -1q-3 -1 -4 -1v-4q0 -54 1 -59q1 -4 1.5 -14t0.5 -15q1 -4 -1 -31q0 -11 4 -18q-31 -1 -36 0q-4 -3 -17 -5q-2 0 -18.5 2t-22.5 2 q-12 15 -12 17l2 121h-1q-54 0 -59 -1q-4 -1 -14 -1.5t-15 -0.5q-4 -1 -31 1q-11 0 -18 -4q-1 32 0 36q-3 4 -5 17q0 2 2 18.5t2 22.5q15 12 17 12l122 -2q-2 79 1 113q2 3 23 19zM428 124l-5 -67l-63 -4q-1 -1 -24 1q-24 3 -32 2q-8 -3 -39 -4q-30 -2 -67 -2q-54 0 -59 -1 q-4 -1 -14 -1.5t-15 -0.5q-4 -1 -31 1q-11 0 -18 -4q-1 32 0 36q-3 4 -5 17q0 2 2 18.5t2 22.5q15 12 17 12l188 -3q97 3 144 0q3 -2 19 -23z" />
<glyph unicode="&#xb4;" horiz-adv-x="487" d="M357 816q-18 -7 -29 -30q-18 -7 -27 -3q-5 3 -6 7t1 7l1 3q-7 -2 -8 -10q-5 -16 -6 -17q-7 10 -15 8q-2 -2 1.5 -14.5t3.5 -13.5q-11 11 -14 31q-15 -18 -62 -3q2 21 13 42q16 31 34 44q19 -1 60 8q1 0 1 -5.5t2 -12t7 -9.5q25 -14 43 -32zM173 692l-11 -20l-10 5l11 20z " />
<glyph unicode="&#xbf;" horiz-adv-x="497" d="M248 319q-52 26 -53 26q-3 -3 -3 -10q2 -3 4 -1q6 2 9 2q4 0 10.5 -5.5t13 -12l7.5 -7.5q-12 0 -17 -3q9 -9 7 -15q-10 -10 -22 -31q-12 -18 -12 -49q0 -4 3 -17.5t3 -15.5q-3 -28 13 -54q20 -32 54 -32q31 0 50 37q16 31 15 58q0 1 2 4.5t3.5 5t5.5 1.5t23 2t22 2 q18 0 24 -2q8 -3 24 -17v-86q-11 -2 -24 -25q-6 -13 -13 -26q-8 -9 -50 -35q-41 -25 -47 -25q-3 0 -4 4.5t-5 4.5q-5 0 -7 -1.5t-1 -5.5q-14 -2 -33 -2q-24 0 -55.5 12t-46.5 27q-14 15 -12 38q0 3 -12 3q-4 0 -7.5 2.5t-5.5 5.5l-2 2q9 8 13 9q-2 2 -17 13q-5 19 -11 31 q-3 15 -3 42q0 166 85 206q16 1 25 0q-5 -5 4 -15q-9 0 -13 -3l12 -12q10 6 28 -2q-8 0 -8 -3q0 -4 12 -15q2 -1 6 -4.5t6 -5.5zM144 88q-2 0 -11.5 4.5t-10.5 4.5q10 -10 10 -20zM207 702q4 3 7 27q4 24 3 33q14 12 19 12t6.5 -5.5t2.5 -5.5q3 3 1 11q0 3 -0.5 6.5t-1 5.5 t-0.5 3q10 -5 14 -1q2 3 -5 8q-7 7 -9 11q12 -5 22 -18q4 19 44 26q6 -13 6 -36q0 -57 -7 -71q-13 -6 -41 -29l-5 7q-5 8 -12 8q-20 0 -44 8z" />
<glyph unicode="&#xc0;" horiz-adv-x="491" d="M138 152l-2 7l-15 -5v-7zM60 105l-2 6l-10 -5v-6zM71 94q-7 0 -23 -18l12 -1q4 0 6.5 9.5t4.5 9.5zM90 35q-41 31 -44 36q-4 -2 -25 -11q1 0 3 -1t3 -1q3 0 9 2t8 2l7 -7q-1 -2 -8 -8t-9 -9q23 -22 28 -28q22 10 28 25zM475 52q-14 5 -28 62q-3 13 -8 37t-7 37l-121 516 q-24 102 -48 102q-25 0 -56 -10q-43 -14 -56 -17q-2 -22 -16 -72t-14 -68q0 -8 13 -21q-13 -4 -22 -27q17 -5 17 -12q0 -3 -4 -8q-11 -33 -13 -41q13 0 17 -4v-33q-26 -18 -34 -26q7 -23 9 -33q6 0 10 4q3 -3 3 -5l-1 -5l-6 -7q-4 4 -15 4q3 -6 10 -13q6 3 13 7.5t9 5.5 l7 -6q-7 -9 -8 -11v1q-1 1 -2.5 2t-5.5 1q-6 0 -6 -4l-2 -9q-3 3 -8 7.5t-6 5.5q4 -15 9 -23q2 5 5 6l6 -6q-16 -11 -30 -17q6 -6 12 -7q-1 9 3 13q4 -2 8.5 -6t6.5 -5q-17 -8 -17 -33q0 -9 3 -15l-7 -10h1q33 -19 33 -24q-1 -2 -3.5 -5.5t-3.5 -5.5q-4 2 -11 7q-8 5 -11 5 q-2 -6 -5 -10q4 -4 16 -12q10 -7 14 -14q-12 -12 -12 -14q3 0 11 -5q-1 13 3 17q3 -3 8 -6.5t7 -4.5q-7 -7 -7 -10q4 2 6 2q5 0 10 -5q-8 -8 -8 -14q2 0 10 8q3 -3 3 -5l-1 -5q-12 -14 -12 -16q4 0 18.5 -1.5t19.5 -1.5q7 -6 7 -11q0 -2 -2 -9t-2 -9q0 -3 2 -11q7 6 10 13 q7 -5 16 -5q7 0 12 1q-3 16 7 29q10 -15 39 -25l3 -2l-1 -3l-2 -3q0 -1 4 -1q5 0 5 2l-1 1q0 1 5 1q4 0 9.5 -6.5t7.5 -6.5q4 0 7 4.5t6 4.5q25 0 35 -60q13 -71 16 -77q10 -19 35 -19q5 2 5 3q0 6 4 6q2 0 4 -2q-1 -7 3 -7q3 0 5 2.5t5 2.5t6 -4.5t7 -4.5q16 0 32 10l1 5 q2 40 4 44zM109 487l-5 12l-7 -2l6 -10h6zM317 167v15h-8v-15h8zM265 171l-6 13l-6 -3l5 -10h7zM92 335v12h-8v-12h8zM156 262l-4 4l-11 -10l4 -5zM105 242l-6 2l-6 -11l6 -3zM46 182v7h-16v-7h16zM62 154l-6 4l-10 -15l5 -4zM247 526l-11 -11l-4 5l11 10zM130 604l-11 -11 l-4 5l11 10zM125 457q-15 0 -16 -1q0 16 7 16q0 -6 9 -15zM302 296q0 -18 -16 -37q-15 -20 -31 -20q-8 0 -32 4.5t-30 4.5l-10 -9l-19 11l8 9q-9 8 -25 21q17 17 33 112q14 81 49 81q28 0 53 -76q20 -65 20 -101zM129 341q-23 -13 -24 -13q8 11 13 19q9 -5 11 -6zM168 223 q-19 12 -26 20h17q0 -11 9 -20zM137 197q-6 -1 -11 4q-3 -3 -3 -6l1 -7q1 2 -1.5 3t-8.5 1t-10 -4q-7 -7 -9 -7q7 -7 8 -7l12 5q3 -11 3 -15q0 -7 -6 -10q10 -21 12 -27l-10 9q-10 -10 -41 -12q22 19 22 26l-4 1q-5 0 -12 -7q-1 6 -6 11q8 6 13 8q-16 7 -26 9q3 3 9 3l9 -1 q6 10 6 19v29q0 -2 5.5 -12t5.5 -14q0 -3 -1 -5h11l7 8q-10 19 -13 22q34 -16 38 -24zM99 970q7 24 23 48q5 7 0.5 17t-3.5 11q39 10 57 21q20 -3 107 -63q23 -17 31 -32q-34 -34 -56 -25q7 -19 2 -34q-1 1 -4 13t-5 14q-7 -2 -9 -15l-13 13q-7 8 -12 6l5 -6q4 -5 -1 -12 q-7 -9 -25 -9q-8 7 -50 30q-41 23 -47 23z" />
<glyph unicode="&#xc1;" horiz-adv-x="491" d="M136 159l2 -7l-17 -5v7zM58 111l2 -6l-12 -5v6zM71 94q-2 0 -4.5 -9.5t-6.5 -9.5l-12 1q16 18 23 18zM90 35q-6 -15 -28 -25q-5 6 -28 28q2 3 9 9t8 8l-7 7q-2 0 -8 -2t-9 -2l-6 2q21 9 25 11q3 -5 44 -36zM475 52q-2 -4 -4 -44l-1 -5q-16 -10 -32 -10q-4 0 -7 4.5 t-6 4.5t-5 -2.5t-5 -2.5q-4 0 -3 7q-2 2 -4 2q-4 0 -4 -6q0 -1 -5 -3q-25 0 -35 19q-3 6 -16 77q-10 60 -35 60q-3 0 -6 -4.5t-7 -4.5q-2 0 -7.5 6.5t-9.5 6.5q-5 0 -5 -1l1 -1q0 -2 -5 -2q-4 0 -4 1l2 3l1 3l-3 2q-29 10 -39 25q-10 -13 -7 -29q-5 -1 -12 -1q-9 0 -16 5 q-3 -7 -10 -13q-2 8 -2 11q0 2 2 9t2 9q0 5 -7 11q-5 0 -19.5 1.5t-18.5 1.5q0 2 12 16l1 5q0 2 -3 5q-8 -8 -10 -8q0 6 8 14q-5 5 -10 5q-2 0 -6 -2q0 3 7 10q-2 1 -7 4.5t-8 6.5q-4 -4 -3 -17q-8 5 -11 5q0 2 12 14q-4 7 -14 14q-12 8 -16 12q3 4 5 10q3 0 11 -5l11 -7 l3 6q3 3 4 5q0 5 -33 24h-1q2 3 7 10q-3 6 -3 15q0 25 17 33q-2 1 -6.5 5t-8.5 6q-4 -4 -3 -13q-6 1 -12 7q14 6 30 17l-6 6q-3 -1 -5 -6q-5 8 -9 23q1 -1 6 -5.5t8 -7.5l2 9q0 4 6 4q4 0 5.5 -1t2.5 -2v-1q1 2 8 11l-7 6q-2 -1 -9 -5.5t-13 -7.5q-7 7 -10 13q11 0 15 -4 l6 7l1 5q0 2 -3 5q-4 -4 -10 -4q-2 10 -9 33q8 8 34 26v33q-4 4 -17 4q2 8 13 41q4 5 4 8q0 7 -17 12q9 23 22 27q-13 13 -13 21q0 18 14 68t16 72q13 3 56 17q31 10 56 10q24 0 48 -102l121 -516q2 -13 7 -37t8 -37q14 -57 28 -62zM104 499l5 -12h-6l-6 10zM317 167v15h-8 v-15h8zM265 171l-6 13l-6 -3l5 -10h7zM92 347v-12h-8v12h8zM156 262l-4 4l-11 -10l4 -5zM99 244l6 -2l-6 -12l-6 3zM46 189v-7h-16v7h16zM56 158l6 -4l-11 -15l-5 4zM236 515l11 11l-4 4l-11 -10zM119 593l11 11l-4 4l-11 -10zM125 457q-9 9 -9 15q-7 0 -7 -16q1 1 16 1z M302 296q0 36 -20 101q-25 76 -53 76q-35 0 -49 -81q-16 -95 -33 -112q16 -13 25 -21l-8 -9l19 -11l10 9q6 0 30 -4.5t32 -4.5q16 0 31 20q16 19 16 37zM129 341q-2 1 -11 6q-5 -8 -13 -19q1 0 24 13zM168 223q-9 9 -9 20h-17q7 -8 26 -20zM137 197q-6 -1 -11 4q-3 -3 -3 -6 l1 -7q1 2 -1.5 3t-8.5 1t-10 -4q-7 -7 -9 -7q7 -7 8 -7l12 5q3 -11 3 -15q0 -7 -6 -10q10 -21 12 -27l-10 9q-10 -10 -41 -12q22 19 22 26l-4 1q-5 0 -12 -7q-1 6 -6 11q8 6 13 8q-16 7 -26 9q3 3 9 3l9 -1q6 10 6 19v29q0 -2 5.5 -12t5.5 -14q0 -3 -1 -5h11l7 8 q-10 19 -13 22q34 -16 38 -24zM366 992q-18 -7 -29 -30q-18 -7 -27 -3q-5 3 -6 7t0 7l2 3q-7 -2 -8 -10q-5 -16 -6 -17q-7 10 -15 8q-2 -2 1.5 -14.5t3.5 -13.5q-11 11 -14 31q-15 -18 -62 -3q2 21 13 42q16 31 34 44q19 -1 60 8q1 0 1 -5.5t2 -12t7 -9.5q25 -14 43 -32z M182 868l-11 -20l-10 5l11 20z" />
<glyph unicode="&#xc2;" horiz-adv-x="491" d="M136 159l2 -7l-17 -5v7zM58 111l2 -6l-12 -5v6zM71 94q-2 0 -4.5 -9.5t-6.5 -9.5l-12 1q16 18 23 18zM90 35q-6 -15 -28 -25q-5 6 -28 28q2 3 9 9t8 8l-7 7q-2 0 -8 -2t-9 -2l-6 2q21 9 25 11q3 -5 44 -36zM475 52q-2 -4 -4 -44l-1 -5q-16 -10 -32 -10q-4 0 -7 4.5 t-6 4.5t-5 -2.5t-5 -2.5q-4 0 -3 7q-2 2 -4 2q-4 0 -4 -6q0 -1 -5 -3q-25 0 -35 19q-3 6 -16 77q-10 60 -35 60q-3 0 -6 -4.5t-7 -4.5q-2 0 -7.5 6.5t-9.5 6.5q-5 0 -5 -1l1 -1q0 -2 -5 -2q-4 0 -4 1l2 3l1 3l-3 2q-29 10 -39 25q-10 -13 -7 -29q-5 -1 -12 -1q-9 0 -16 5 q-3 -7 -10 -13q-2 8 -2 11q0 2 2 9t2 9q0 5 -7 11q-5 0 -19.5 1.5t-18.5 1.5q0 2 12 16l1 5q0 2 -3 5q-8 -8 -10 -8q0 6 8 14q-5 5 -10 5q-2 0 -6 -2q0 3 7 10q-2 1 -7 4.5t-8 6.5q-4 -4 -3 -17q-8 5 -11 5q0 2 12 14q-4 7 -14 14q-12 8 -16 12q3 4 5 10q3 0 11 -5l11 -7 l3 6q3 3 4 5q0 5 -33 24h-1q2 3 7 10q-3 6 -3 15q0 25 17 33q-2 1 -6.5 5t-8.5 6q-4 -4 -3 -13q-6 1 -12 7q14 6 30 17l-6 6q-3 -1 -5 -6q-5 8 -9 23q1 -1 6 -5.5t8 -7.5l2 9q0 4 6 4q4 0 5.5 -1t2.5 -2v-1q1 2 8 11l-7 6q-2 -1 -9 -5.5t-13 -7.5q-7 7 -10 13q11 0 15 -4 l6 7l1 5q0 2 -3 5q-4 -4 -10 -4q-2 10 -9 33q8 8 34 26v33q-4 4 -17 4q2 8 13 41q4 5 4 8q0 7 -17 12q9 23 22 27q-13 13 -13 21q0 18 14 68t16 72q13 3 56 17q31 10 56 10q24 0 48 -102l121 -516q2 -13 7 -37t8 -37q14 -57 28 -62zM104 499l5 -12h-6l-6 10zM317 167v15h-8 v-15h8zM265 171l-6 13l-6 -3l5 -10h7zM92 347v-12h-8v12h8zM156 262l-4 4l-11 -10l4 -5zM99 244l6 -2l-6 -12l-6 3zM46 189v-7h-16v7h16zM56 158l6 -4l-11 -15l-5 4zM236 515l11 11l-4 4l-11 -10zM119 593l11 11l-4 4l-11 -10zM125 457q-9 9 -9 15q-7 0 -7 -16q1 1 16 1z M302 296q0 36 -20 101q-25 76 -53 76q-35 0 -49 -81q-16 -95 -33 -112q16 -13 25 -21l-8 -9l19 -11l10 9q6 0 30 -4.5t32 -4.5q16 0 31 20q16 19 16 37zM129 341q-2 1 -11 6q-5 -8 -13 -19q1 0 24 13zM168 223q-9 9 -9 20h-17q7 -8 26 -20zM137 197q-6 -1 -11 4q-3 -3 -3 -6 l1 -7q1 2 -1.5 3t-8.5 1t-10 -4q-7 -7 -9 -7q7 -7 8 -7l12 5q3 -11 3 -15q0 -7 -6 -10q10 -21 12 -27l-10 9q-10 -10 -41 -12q22 19 22 26l-4 1q-5 0 -12 -7q-1 6 -6 11q8 6 13 8q-16 7 -26 9q3 3 9 3l9 -1q6 10 6 19v29q0 -2 5.5 -12t5.5 -14q0 -3 -1 -5h11l7 8 q-10 19 -13 22q34 -16 38 -24zM266 1136q21 -6 27 -11t13 -25t16 -37q14 -14 28 -33q2 -15 12 -43q42 -64 76 -125q-5 -3 -11.5 -5.5t-12 -4t-12.5 -2.5t-11 -1.5t-9 -1l-5 -0.5q-16 0 -43 8.5t-29 16.5q-10 31 -10 45v2v20q-2 2 -55 46q-12 -6 -18 -14q-14 0 -35 -23l-8 -5 q3 -1 3 -4v-30q-9 -5 -25 -35q-12 -24 -43 -24q-50 0 -65 3h-6q-6 5 -14 16q23 37 52 87q31 53 64 110q28 50 28 56q12 17 55 17q18 0 38 -3z" />
<glyph unicode="&#xc3;" horiz-adv-x="491" d="M136 159l2 -7l-17 -5v7zM58 111l2 -6l-12 -5v6zM71 94q-2 0 -4.5 -9.5t-6.5 -9.5l-12 1q16 18 23 18zM90 35q-6 -15 -28 -25q-5 6 -28 28q2 3 9 9t8 8l-7 7q-2 0 -8 -2t-9 -2l-6 2q21 9 25 11q3 -5 44 -36zM475 52q-2 -4 -4 -44l-1 -5q-16 -10 -32 -10q-4 0 -7 4.5 t-6 4.5t-5 -2.5t-5 -2.5q-4 0 -3 7q-2 2 -4 2q-4 0 -4 -6q0 -1 -5 -3q-25 0 -35 19q-3 6 -16 77q-10 60 -35 60q-3 0 -6 -4.5t-7 -4.5q-2 0 -7.5 6.5t-9.5 6.5q-5 0 -5 -1l1 -1q0 -2 -5 -2q-4 0 -4 1l2 3l1 3l-3 2q-29 10 -39 25q-10 -13 -7 -29q-5 -1 -12 -1q-9 0 -16 5 q-3 -7 -10 -13q-2 8 -2 11q0 2 2 9t2 9q0 5 -7 11q-5 0 -19.5 1.5t-18.5 1.5q0 2 12 16l1 5q0 2 -3 5q-8 -8 -10 -8q0 6 8 14q-5 5 -10 5q-2 0 -6 -2q0 3 7 10q-2 1 -7 4.5t-8 6.5q-4 -4 -3 -17q-8 5 -11 5q0 2 12 14q-4 7 -14 14q-12 8 -16 12q3 4 5 10q3 0 11 -5l11 -7 l3 6q3 3 4 5q0 5 -33 24h-1q2 3 7 10q-3 6 -3 15q0 25 17 33q-2 1 -6.5 5t-8.5 6q-4 -4 -3 -13q-6 1 -12 7q14 6 30 17l-6 6q-3 -1 -5 -6q-5 8 -9 23q1 -1 6 -5.5t8 -7.5l2 9q0 4 6 4q4 0 5.5 -1t2.5 -2v-1q1 2 8 11l-7 6q-2 -1 -9 -5.5t-13 -7.5q-7 7 -10 13q11 0 15 -4 l6 7l1 5q0 2 -3 5q-4 -4 -10 -4q-2 10 -9 33q8 8 34 26v33q-4 4 -17 4q2 8 13 41q4 5 4 8q0 7 -17 12q9 23 22 27q-13 13 -13 21q0 18 14 68t16 72q13 3 56 17q31 10 56 10q24 0 48 -102l121 -516q2 -13 7 -37t8 -37q14 -57 28 -62zM104 499l5 -12h-6l-6 10zM317 167v15h-8 v-15h8zM265 171l-6 13l-6 -3l5 -10h7zM92 347v-12h-8v12h8zM156 262l-4 4l-11 -10l4 -5zM99 244l6 -2l-6 -12l-6 3zM46 189v-7h-16v7h16zM56 158l6 -4l-11 -15l-5 4zM236 515l11 11l-4 4l-11 -10zM119 593l11 11l-4 4l-11 -10zM125 457q-9 9 -9 15q-7 0 -7 -16q1 1 16 1z M302 296q0 36 -20 101q-25 76 -53 76q-35 0 -49 -81q-16 -95 -33 -112q16 -13 25 -21l-8 -9l19 -11l10 9q6 0 30 -4.5t32 -4.5q16 0 31 20q16 19 16 37zM129 341q-2 1 -11 6q-5 -8 -13 -19q1 0 24 13zM168 223q-9 9 -9 20h-17q7 -8 26 -20zM137 197q-6 -1 -11 4q-3 -3 -3 -6 l1 -7q1 2 -1.5 3t-8.5 1t-10 -4q-7 -7 -9 -7q7 -7 8 -7l12 5q3 -11 3 -15q0 -7 -6 -10q10 -21 12 -27l-10 9q-10 -10 -41 -12q22 19 22 26l-4 1q-5 0 -12 -7q-1 6 -6 11q8 6 13 8q-16 7 -26 9q3 3 9 3l9 -1q6 10 6 19v29q0 -2 5.5 -12t5.5 -14q0 -3 -1 -5h11l7 8 q-10 19 -13 22q34 -16 38 -24z" />
<glyph unicode="&#xc4;" horiz-adv-x="503" d="M411 934q0 -9 -12 -20t-21 -11q-12 0 -28 19q-15 19 -15 32q0 29 38 29t38 -49zM121 942q0 -5 -8 -21q-8 -15 -11 -24q-1 0 -10 6.5t-14 6.5q-3 0 -6 -2t-7 -2q-13 0 -22 19q-7 15 -7 32q0 6 17 20q19 14 25 14q19 0 33 -23q10 -17 10 -26zM480 12q0 -5 -5 -14.5 t-5 -10.5q-4 4 -32 18q-3 -4 -3 -13q-2 0 -7.5 1.5t-8 2.5t-7 2.5t-6.5 3.5t-3.5 5t-1.5 7q-3 -2 -10 -5q-1 0 -2 -1q-2 -3 4 -10q-6 6 -14 9q-1 19 -20 44q-18 25 -28 25q-4 0 -2.5 -4t-2.5 -4t-19 4t-19 4q-2 0 -13 -4t-16 -4q-2 0 -8.5 4t-11.5 4h-1q-1 0 -4 -0.5 t-7.5 -1t-11.5 -1t-14.5 -1t-17.5 -1.5t-21 -2q-1 0 -2.5 -5t-6.5 -5q-4 0 -11 -2.5t-10 -2.5q-4 0 -16 3t-13 3q0 6 -4 13q-8 -2 -18 8q-3 -1 -1 -20q-7 -4 -18 -20q0 6 12 24q-19 10 -40 3q7 10 7 11q0 4 -4 13l6 42q4 28 22 47q-4 3 -8 3q35 160 90 426q10 32 22 98 q-1 19 5 63q2 8 16.5 16t24.5 8q3 0 5 -4.5t6 -4.5t7 4.5t6 4.5q5 0 24 -8q26 -10 29 -11l-2 -8q-1 -8 -1 -10q10 -16 11 -18q-3 -8 -3 -20q0 -22 12 -56q5 -13 8 -14q3 -11 11 -34t11 -35q12 -39 8 -64q5 -5 11 -18q-3 -13 -2 -31q0 -1 29 -67q-2 -10 -2 -23q9 -39 33 -120 q3 -32 13 -76q17 -40 35 -112q-1 -6 -6 -22q3 -3 13 -3q0 -3 4.5 -16t4.5 -17zM123 35q-10 -13 -20 -32q-16 -9 -41 -20q-6 1 -6 11q0 6 13 19q15 15 18 17q-7 7 -7 11q9 -9 19 -9q4 0 13 1.5t11 1.5zM346 208q0 7 -11 27q-12 22 -13 27q-9 39 -35 139q-9 24 -19 29 q-4 4 -20 4q-13 0 -17 -2q-8 -4 -35 -35q-8 -43 -21 -117q-7 -15 -15 -40q2 -10 2 -17q-3 -7 -12 -14l7.5 -15t10.5 -22t11 -24q0 5 4 6q4 3 7 0q5 -8 3 -20q0 9 -10 9q-8 0 -18 -22q-3 1 -11 8v14l-11 -9l-7 8q0 12 10 22q-11 8 -30 8q4 0 6 -3q2 -5 -5 -8q-8 10 -14 32 q-6 -39 -11 -84q11 -11 27 -17q-4 -4 -4 -10q4 0 8 4q17 13 34 13q3 0 4 -2.5t5 -2.5q16 0 60 29q-2 1 -5 8t-5 8q-5 0 -10 -5q-3 3 -3 10q9 3 20 2l18 -3q4 0 8 3.5t7 7.5l2 3q9 -9 9 -18q8 5 43 14q2 14 12 14q1 6 7 14.5t10 8.5v5q0 1 3.5 4.5t3.5 8.5zM149 282 q0 3 -10 13q-10 -10 -10 -17q4 4 20 4zM197 127l11 -6l-2 -6l-12 6zM187 129v-21h-8v21h8z" />
<glyph unicode="&#xc6;" horiz-adv-x="777" d="M136 159l2 -7l-17 -5v7zM58 111l2 -6l-12 -5v6zM71 94q-2 0 -4.5 -9.5t-6.5 -9.5l-12 1q16 18 23 18zM90 35q-6 -15 -28 -25q-5 6 -28 28q2 3 9 9t8 8l-7 7q-2 0 -8 -2t-9 -2l-6 2q21 9 25 11q3 -5 44 -36zM475 52q-2 -4 -4 -44l-1 -5q-16 -10 -32 -10q-4 0 -7 4.5 t-6 4.5t-5 -2.5t-5 -2.5q-4 0 -3 7q-2 2 -4 2q-4 0 -4 -6q0 -1 -5 -3q-25 0 -35 19q-3 6 -16 77q-10 60 -35 60q-3 0 -6 -4.5t-7 -4.5q-2 0 -7.5 6.5t-9.5 6.5q-5 0 -5 -1l1 -1q0 -2 -5 -2q-4 0 -4 1l2 3l1 3l-3 2q-29 10 -39 25q-10 -13 -7 -29q-5 -1 -12 -1q-9 0 -16 5 q-3 -7 -10 -13q-2 8 -2 11q0 2 2 9t2 9q0 5 -7 11q-5 0 -19.5 1.5t-18.5 1.5q0 2 12 16l1 5q0 2 -3 5q-8 -8 -10 -8q0 6 8 14q-5 5 -10 5q-2 0 -6 -2q0 3 7 10q-2 1 -7 4.5t-8 6.5q-4 -4 -3 -17q-8 5 -11 5q0 2 12 14q-4 7 -14 14q-12 8 -16 12q3 4 5 10q3 0 11 -5l11 -7 l3 6q3 3 4 5q0 5 -33 24h-1q2 3 7 10q-3 6 -3 15q0 25 17 33q-2 1 -6.5 5t-8.5 6q-4 -4 -3 -13q-6 1 -12 7q14 6 30 17l-6 6q-3 -1 -5 -6q-5 8 -9 23q1 -1 6 -5.5t8 -7.5l2 9q0 4 6 4q4 0 5.5 -1t2.5 -2v-1q1 2 8 11l-7 6q-2 -1 -9 -5.5t-13 -7.5q-7 7 -10 13q11 0 15 -4 l6 7l1 5q0 2 -3 5q-4 -4 -10 -4q-2 10 -9 33q8 8 34 26v33q-4 4 -17 4q2 8 13 41q4 5 4 8q0 7 -17 12q9 23 22 27q-13 13 -13 21q0 18 14 68t16 72q13 3 56 17q31 10 56 10q24 0 48 -102l121 -516q2 -13 7 -37t8 -37q14 -57 28 -62zM104 499l5 -12h-6l-6 10zM317 167v15h-8 v-15h8zM265 171l-6 13l-6 -3l5 -10h7zM92 347v-12h-8v12h8zM156 262l-4 4l-11 -10l4 -5zM99 244l6 -2l-6 -12l-6 3zM46 189v-7h-16v7h16zM56 158l6 -4l-11 -15l-5 4zM236 515l11 11l-4 4l-11 -10zM119 593l11 11l-4 4l-11 -10zM125 457q-9 9 -9 15q-7 0 -7 -16q1 1 16 1z M302 296q0 36 -20 101q-25 76 -53 76q-35 0 -49 -81q-16 -95 -33 -112q16 -13 25 -21l-8 -9l19 -11l10 9q6 0 30 -4.5t32 -4.5q16 0 31 20q16 19 16 37zM129 341q-2 1 -11 6q-5 -8 -13 -19q1 0 24 13zM168 223q-9 9 -9 20h-17q7 -8 26 -20zM137 197q-6 -1 -11 4q-3 -3 -3 -6 l1 -7q1 2 -1.5 3t-8.5 1t-10 -4q-7 -7 -9 -7q7 -7 8 -7l12 5q3 -11 3 -15q0 -7 -6 -10q10 -21 12 -27l-10 9q-10 -10 -41 -12q22 19 22 26l-4 1q-5 0 -12 -7q-1 6 -6 11q8 6 13 8q-16 7 -26 9q3 3 9 3l9 -1q6 10 6 19v29q0 -2 5.5 -12t5.5 -14q0 -3 -1 -5h11l7 8 q-10 19 -13 22q34 -16 38 -24zM532 16l-10 12q-7 0 -7 -13zM512 13q-4 0 -4 7q0 3 2 7q-5 0 -13 -5q9 -9 15 -9zM745 49q-3 -2 -12 -11q-5 -28 -9 -35q-7 -19 -28 -19q-4 0 -18.5 6.5t-18.5 6.5q-5 0 -14 -9l-9 9q-14 -2 -22 -2q-10 0 -38 5q-26 6 -37 6q-7 0 -5 -11 q0 2 -9 11q-14 -13 -37 -13q-1 0 -3.5 0.5t-7.5 1t-10 0.5q-10 1 -22 -1l1 2q0 6 -9 6q-4 0 -6.5 -4.5t-4.5 -4.5t-17 4.5t-22 4.5l-19 583q-2 51 -7 98q-6 60 -6 61q0 16 18 49q6 3 24 3q27 1 103 3.5t114 3.5q5 0 24 3t25 3q37 0 50 -19q10 -14 10 -55q0 -28 -10.5 -39.5 t-37.5 -11.5q-10 0 -90 2q-60 3 -90 3q-12 0 -25 -25q-13 -23 -13 -35q0 -6 7 -9q3 -24 3 -84q0 -7 -5 -14q4 -12 4 -47q8 -8 11 -8t8 2.5t7 2.5q4 0 14 -7t13 -7q6 0 60 2q41 3 60 3q27 0 27 -47q0 -39 -4 -46q-8 -18 -37 -18q-8 0 -35.5 2t-35.5 2q-9 0 -36 -7 q-28 -6 -33 -11q-5 -4 -12 -39q-7 -32 -7 -40q4 -7 4 -22q0 -19 -10 -56v-2q0 -1 -1.5 -7.5t-1.5 -8.5q0 -8 7 -26q8 -19 9 -27l-8 -5v-16l7 -3q1 1 1 4q0 2 -1 7t-1 6h16q4 -4 13 -40q4 2 5 9.5t2 8.5q2 0 3 -7q1 -10 3 -10l9 8v-5q0 -8 4 -12q4 1 15 6l-8 3v17q4 0 22 18 v-21q0 -4 2 -10q3 3 8 16q30 9 36 24q9 -18 18 -18q3 0 7.5 2t8.5 5t5 3q24 8 63 8q15 0 24 -28t18 -31zM453 31l-4 -4l-7 7l5 4z" />
<glyph unicode="&#xc7;" horiz-adv-x="398" d="M280 33q-5 -5 -9 -53q-5 -49 -4 -57q-11 -15 -22 -15q-7 0 -9 6l-2 7q-4 -2 -2 -13q3 -15 3 -18q-13 7 -17 1q-1 -4 5 -10q11 -11 12 -13q-13 4 -27 21q-4 -22 -53 -31q-8 18 -8 44q0 103 8 124q17 7 51 34l6 -9q7 -9 14 -9q28 0 54 -9zM373 131q0 -4 -1 -8.5t-2 -7.5 l-1 -3v-6q-9 -10 -39 -54q-23 -33 -40 -41q-39 -18 -102 -18q-4 0 -43 17q-38 18 -46 23q-12 8 -25 35q-6 5 -23 26q-11 27 -13 68v83q0 6 1 13v17q-2 11 -5 17q-1 4 6 14q0 10 1 31q1 15 -1 34q-1 18 -12 29q8 2 12 -2l3 2q3 2 7 5t6 4q-2 0 -6 -4q-2 -3 3 -11l3 2 q2 3 5.5 6t5.5 4q0 14 -9 14q-10 0 -17 -3q5 5 -4 13q0 1 3 3.5t7.5 5.5t6.5 5q-4 4 -17 3q-2 21 2 40l-1 3q-2 3 -4 5q-1 8 -1 24q2 15 13 25v24q-10 10 -13 8q8 13 8 19q0 3 -6.5 11.5t-6.5 14.5q0 31 14 82q7 25 31 51q41 43 77 44q7 -1 23 4q32 2 64 2q13 0 36 -18 q25 -19 43 -23q3 -4 14.5 -19.5t19.5 -26.5q15 -21 15 -57q0 -18 -15.5 -29.5t-34.5 -11.5q-17 0 -53 18q2 6 2 9q0 20 -32 41q-26 18 -38 18q-9 0 -13 -4l-8 8q-7 -7 -18 -24q-4 1 -13.5 -6.5t-13.5 -15.5q-9 -19 -9 -49q0 -7 7 -57q5 -39 8 -76q-2 -14 -1 -76 q0 -19 -1 -39q-2 -28 0 -45q2 -29 5 -41q-9 -26 -9 -63q0 -46 13 -99q31 -17 47 -17q17 0 27 5q26 15 26 39q0 5 -1 7q6 0 18.5 13.5t17.5 14.5q17 3 65 3q14 0 31 -32q1 -2 1 -20zM272 706h8v16h-8v-16zM85 440h20v8h-20v-8zM101 406q-3 0 -10 -7q-8 8 -15 8q0 -2 5 -11 t5 -10q1 2 7.5 10t7.5 10zM71 378q-5 5 -19 5q4 0 4 -10q5 5 15 5zM65 328l2 6l-11 6l-2 -7zM71 251l6 12l-6 2l-6 -11z" />
<glyph unicode="&#xc8;" d="M213 16l-10 12q-7 0 -7 -13zM193 13q-4 0 -4 7q0 3 2 7q-5 0 -13 -5q9 -9 15 -9zM426 49q-9 3 -18 31t-24 28q-39 0 -63 -8q-1 0 -5 -3t-8.5 -5t-7.5 -2q-9 0 -18 18q-6 -15 -36 -24q-5 -13 -8 -16q-2 6 -2 10v21q-18 -18 -22 -18v-17l8 -3q-10 -5 -15 -6q-4 4 -4 12v5 l-9 -8q-2 0 -3 10q-1 7 -3 7q-1 -1 -2 -8.5t-5 -9.5q-9 36 -13 40h-16q0 -1 1 -6t1 -7q0 -3 -1 -4l-7 3v16l8 5q-2 8 -9 27q-7 18 -7 26q0 2 1.5 8.5t1.5 7.5v2q10 37 10 56l-4 22q0 8 7 40q8 35 12 39q5 5 33 11q27 7 36 7q8 0 35.5 -2t35.5 -2q30 0 37 18q4 7 4 46 q0 47 -27 47q-20 0 -60 -3q-54 -2 -60 -2q-3 0 -13 7t-14 7q-3 0 -8 -2.5t-7 -2.5q-3 0 -11 8q0 35 -4 47q5 7 5 14q0 60 -3 84q-7 3 -7 9q0 12 13 35q13 25 25 25q30 0 90 -3q80 -2 90 -2q27 0 37.5 11.5t10.5 39.5q0 41 -10 55q-13 19 -50 19q-6 0 -25 -3t-24 -3 q-38 -1 -114 -3.5t-103 -3.5q-18 0 -24 -3q-18 -33 -18 -49q0 -1 6 -61q5 -47 7 -98l19 -583q8 0 23 -4.5t16 -4.5q2 0 4.5 4.5t6.5 4.5q9 0 9 -6l-1 -2q12 2 22 1q5 0 10 -0.5t7.5 -1t3.5 -0.5q23 0 37 13q9 -9 9 -11q-2 11 5 11q12 0 37 -6q28 -5 38 -5q8 0 22 2l9 -9 q9 9 14 9q4 0 18.5 -6.5t18.5 -6.5q21 0 28 19q4 7 9 35q9 9 12 11zM134 31l-4 -4l-7 7l5 4zM109 933q7 24 23 48q5 7 0.5 17t-3.5 11q39 11 57 21q20 -3 107 -63q23 -17 31 -32q-34 -34 -56 -25q7 -19 2 -34q-1 1 -4 13t-5 14q-7 -1 -9 -15l-13 13q-7 7 -12 6l5 -5 q4 -6 -1 -13q-7 -9 -25 -9q-8 7 -50 30q-41 23 -47 23z" />
<glyph unicode="&#xc9;" d="M213 16l-10 12q-7 0 -7 -13zM193 13q-4 0 -4 7q0 3 2 7q-5 0 -13 -5q9 -9 15 -9zM426 49q-3 -2 -12 -11q-5 -28 -9 -35q-7 -19 -28 -19q-4 0 -18.5 6.5t-18.5 6.5q-5 0 -14 -9l-9 9q-14 -2 -22 -2q-10 0 -38 5q-25 6 -37 6q-7 0 -5 -11q0 2 -9 11q-14 -13 -37 -13 q-1 0 -3.5 0.5t-7.5 1t-10 0.5q-10 1 -22 -1l1 2q0 6 -9 6q-4 0 -6.5 -4.5t-4.5 -4.5q-1 0 -16 4.5t-23 4.5l-19 583q-2 51 -7 98q-6 60 -6 61q0 16 18 49q6 3 24 3q27 1 103 3.5t114 3.5q5 0 24 3t25 3q37 0 50 -19q10 -14 10 -55q0 -28 -10.5 -39.5t-37.5 -11.5 q-10 0 -90 2q-60 3 -90 3q-12 0 -25 -25q-13 -23 -13 -35q0 -6 7 -9q3 -24 3 -84q0 -7 -5 -14q4 -12 4 -47q8 -8 11 -8q2 0 7 2.5t8 2.5q4 0 14 -7t13 -7q6 0 60 2q40 3 60 3q27 0 27 -47q0 -39 -4 -46q-7 -18 -37 -18q-8 0 -35.5 2t-35.5 2q-9 0 -36 -7q-28 -6 -33 -11 q-4 -4 -12 -39q-7 -32 -7 -40q4 -7 4 -22q0 -19 -10 -56v-2q0 -1 -1.5 -7.5t-1.5 -8.5q0 -8 7 -26q7 -19 9 -27l-8 -5v-16l7 -3q1 1 1 4q0 2 -1 7t-1 6h16q4 -4 13 -40q4 2 5 9.5t2 8.5q2 0 3 -7q1 -10 3 -10l9 8v-5q0 -8 4 -12q5 1 15 6l-8 3v17q4 0 22 18v-21q0 -4 2 -10 q3 3 8 16q30 9 36 24q9 -18 18 -18q3 0 7.5 2t8.5 5t5 3q24 8 63 8q15 0 24 -28t18 -31zM130 27l4 4l-6 7l-5 -4zM347 995q-18 -7 -29 -30q-18 -7 -27 -3q-5 3 -6 7t1 7l1 3q-7 -2 -8 -10q-5 -16 -6 -17q-7 10 -15 8q-2 -2 1.5 -14.5t3.5 -13.5q-11 11 -14 31 q-15 -18 -62 -3q2 21 13 42q16 31 34 44q19 -1 60 8q1 0 1 -5.5t2 -12t7 -9.5q25 -14 43 -32zM163 871l-11 -20l-10 5l11 20z" />
<glyph unicode="&#xca;" d="M213 16l-10 12q-7 0 -7 -13zM193 13q-4 0 -4 7q0 3 2 7q-5 0 -13 -5q9 -9 15 -9zM426 49q-3 -2 -12 -11q-5 -28 -9 -35q-7 -19 -28 -19q-4 0 -18.5 6.5t-18.5 6.5q-5 0 -14 -9l-9 9q-14 -2 -22 -2q-10 0 -38 5q-25 6 -37 6q-7 0 -5 -11q0 2 -9 11q-14 -13 -37 -13 q-1 0 -3.5 0.5t-7.5 1t-10 0.5q-10 1 -22 -1l1 2q0 6 -9 6q-4 0 -6.5 -4.5t-4.5 -4.5q-1 0 -16 4.5t-23 4.5l-19 583q-2 51 -7 98q-6 60 -6 61q0 16 18 49q6 3 24 3q27 1 103 3.5t114 3.5q5 0 24 3t25 3q37 0 50 -19q10 -14 10 -55q0 -28 -10.5 -39.5t-37.5 -11.5 q-10 0 -90 2q-60 3 -90 3q-12 0 -25 -25q-13 -23 -13 -35q0 -6 7 -9q3 -24 3 -84q0 -7 -5 -14q4 -12 4 -47q8 -8 11 -8q2 0 7 2.5t8 2.5q4 0 14 -7t13 -7q6 0 60 2q40 3 60 3q27 0 27 -47q0 -39 -4 -46q-7 -18 -37 -18q-8 0 -35.5 2t-35.5 2q-9 0 -36 -7q-28 -6 -33 -11 q-4 -4 -12 -39q-7 -32 -7 -40q4 -7 4 -22q0 -19 -10 -56v-2q0 -1 -1.5 -7.5t-1.5 -8.5q0 -8 7 -26q7 -19 9 -27l-8 -5v-16l7 -3q1 1 1 4q0 2 -1 7t-1 6h16q4 -4 13 -40q4 2 5 9.5t2 8.5q2 0 3 -7q1 -10 3 -10l9 8v-5q0 -8 4 -12q5 1 15 6l-8 3v17q4 0 22 18v-21q0 -4 2 -10 q3 3 8 16q30 9 36 24q9 -18 18 -18q3 0 7.5 2t8.5 5t5 3q24 8 63 8q15 0 24 -28t18 -31zM130 27l4 4l-6 7l-5 -4zM262 1171q21 -6 27 -11t13 -25t16 -37q14 -14 28 -33q2 -15 12 -43q42 -64 76 -125q-5 -3 -11.5 -5.5t-12 -4t-12.5 -2.5t-11 -1.5t-9 -1l-5 -0.5 q-16 0 -43 8.5t-29 16.5q-10 31 -10 45v2v20q-2 2 -55 46q-12 -6 -18 -14q-14 0 -35 -23l-8 -5q3 -2 3 -4v-30q-9 -5 -25 -35q-12 -24 -43 -24q-50 0 -65 3h-6q-6 5 -14 16q23 37 52 87q31 53 64 110q28 50 28 56q12 17 55 17q18 0 38 -3z" />
<glyph unicode="&#xcb;" d="M398 951q0 -9 -12 -20t-21 -11q-12 0 -28 19q-15 19 -15 32q0 29 38 29t38 -49zM117 956q0 -5 -8 -21q-8 -15 -11 -24q-1 0 -10 6.5t-14 6.5q-3 0 -6 -2t-7 -2q-13 0 -22 19q-7 15 -7 32q0 6 17 20q19 14 25 14q19 0 33 -23q10 -17 10 -26zM213 16l-10 12q-7 0 -7 -13z M193 13q-4 0 -4 7q0 3 2 7q-5 0 -13 -5q9 -9 15 -9zM426 49q-3 -2 -12 -11q-5 -28 -9 -35q-7 -19 -28 -19q-4 0 -18.5 6.5t-18.5 6.5q-5 0 -14 -9l-9 9q-14 -2 -22 -2q-10 0 -38 5q-25 6 -37 6q-7 0 -5 -11q0 2 -9 11q-14 -13 -37 -13q-1 0 -3.5 0.5t-7.5 1t-10 0.5 q-10 1 -22 -1l1 2q0 6 -9 6q-4 0 -6.5 -4.5t-4.5 -4.5q-1 0 -16 4.5t-23 4.5l-19 583q-2 51 -7 98q-6 60 -6 61q0 16 18 49q6 3 24 3q27 1 103 3.5t114 3.5q5 0 24 3t25 3q37 0 50 -19q10 -14 10 -55q0 -28 -10.5 -39.5t-37.5 -11.5q-10 0 -90 2q-60 3 -90 3q-12 0 -25 -25 q-13 -23 -13 -35q0 -6 7 -9q3 -24 3 -84q0 -7 -5 -14q4 -12 4 -47q8 -8 11 -8q2 0 7 2.5t8 2.5q4 0 14 -7t13 -7q6 0 60 2q40 3 60 3q27 0 27 -47q0 -39 -4 -46q-7 -18 -37 -18q-8 0 -35.5 2t-35.5 2q-9 0 -36 -7q-28 -6 -33 -11q-4 -4 -12 -39q-7 -32 -7 -40q4 -7 4 -22 q0 -19 -10 -56v-2q0 -1 -1.5 -7.5t-1.5 -8.5q0 -8 7 -26q7 -19 9 -27l-8 -5v-16l7 -3q1 1 1 4q0 2 -1 7t-1 6h16q4 -4 13 -40q4 2 5 9.5t2 8.5q2 0 3 -7q1 -10 3 -10l9 8v-5q0 -8 4 -12q5 1 15 6l-8 3v17q4 0 22 18v-21q0 -4 2 -10q3 3 8 16q30 9 36 24q9 -18 18 -18 q3 0 7.5 2t8.5 5t5 3q24 8 63 8q15 0 24 -28t18 -31zM130 27l4 4l-6 7l-5 -4z" />
<glyph unicode="&#xcc;" horiz-adv-x="213" d="M58 723l-6 13l-6 -2l5 -11h7zM168 372q-12 22 -15 36q3 4 3 12t-3 19q0 1 -1 7l-2 6q0 44 11 86q-12 2 -12 11q0 4 2.5 17.5t2.5 16.5q-6 2 -9 4v52q15 17 16 19l6 -2q-13 26 -13 43q-23 -2 -31 3l36 9q-6 11 -6 18q0 4 5 17t5 19q0 12 -8 22q12 12 12 15l-13 -8 q-13 8 -30 8q0 -5 -3 -8q-7 13 -20 13q-24 0 -33 -10q-5 -4 -16 -33q6 -3 12 -22t6 -29q0 1 -6 -15q2 -16 2 -19q0 -7 -7 -19t-7 -16q0 -2 6 -12.5t6 -20.5q0 -9 -3 -22q3 0 11 8q0 -1 1 -2l2 -2q0 -21 -13 -28v-1q0 -3 4 -18q-1 -3 -4.5 -11.5t-5.5 -11.5q13 -10 18 -17 q-9 -10 -9 -26q0 -6 3 -25t3 -25q0 -9 -3 -15q11 -20 11 -39q0 -11 -11 -14q2 -17 0 -44q0 -9 -0.5 -19.5t-1 -16t-0.5 -8.5q0 -90 -4 -125q0 -3 -5.5 -16t-5.5 -16q0 -5 4 -6q5 -12 5 -25q0 -8 -4 -32.5t-4 -31.5q0 -25 14 -45h20l60 15q-24 21 -42 21q-9 0 -19 -5 q-16 10 -16 19q12 5 23 5q-12 12 -14 22q12 12 21 12q10 -1 10 -3q-4 4 -4 7q0 4 3 5q10 -5 18 -4h5q1 6 16 28q14 20 14 28l-14 33q-13 30 -13 57q0 25 13 57l14 33q0 11 -15 34q4 6 8.5 12t8 11.5t5.5 7.5zM146 789l-17 -5v6l15 5zM138 676l-6 -12l-6 3l6 11zM152 647h-8 v12h8v-12zM151 150l-5 -5l-6 7l4 5zM-25 977q7 24 23 48q5 7 0.5 17t-3.5 11q39 11 57 21q20 -3 107 -63q23 -17 31 -32q-34 -34 -56 -25q7 -19 2 -34q-1 1 -4 13t-5 14q-7 -1 -9 -15l-13 13q-7 7 -12 6l5 -5q4 -6 -1 -13q-7 -9 -25 -9q-8 7 -50 30q-41 23 -47 23z" />
<glyph unicode="&#xcd;" horiz-adv-x="213" d="M52 736l6 -13h-7l-5 11zM168 372q-2 -2 -5.5 -7.5t-8 -11.5t-8.5 -12q15 -23 15 -34q-5 -11 -14 -33q-13 -32 -13 -57q0 -27 13 -57l14 -33q0 -8 -14 -28q-15 -22 -16 -28h-5q-8 -1 -18 4q-3 -1 -3 -5q0 -3 4 -7q-6 2 -10 3q-9 0 -21 -12q2 -10 14 -22q-11 0 -23 -5 q0 -9 16 -19q10 5 19 5q18 0 42 -21l-60 -15h-20q-14 20 -14 45q0 7 4 31.5t4 32.5q0 13 -5 25q-4 1 -4 6q0 3 5.5 16t5.5 16q4 35 4 125q0 3 0.5 8.5t1 16t0.5 19.5q2 27 0 44q11 3 11 14q0 19 -11 39q3 6 3 15q0 6 -3 25t-3 25q0 16 9 26q-5 7 -18 17q2 3 5.5 11.5 t4.5 11.5q-4 15 -4 18v1q13 7 13 28l-2 2t-1 2q-8 -8 -11 -8q3 13 3 22q0 10 -6 20.5t-6 12.5q0 4 7 16t7 19q0 3 -2 19q6 16 6 15q0 10 -6 29t-12 22q11 29 16 33q9 10 33 10q13 0 20 -13q3 3 3 8q17 0 30 -8l13 8q0 -3 -12 -15q8 -10 8 -22q0 -6 -5 -19t-5 -17q0 -7 6 -18 l-36 -9q8 -5 31 -3q0 -17 13 -43l-6 2q-1 -2 -16 -19v-52q3 -2 9 -4q0 -3 -2.5 -16.5t-2.5 -17.5q0 -9 12 -11q-11 -42 -11 -86l2 -6q1 -6 1 -7q3 -10 3 -19q0 -8 -3 -12q3 -14 15 -36zM129 784l17 5l-2 6l-15 -5v-6zM132 664l6 12l-6 2l-6 -11zM144 647h8v12h-8v-12z M151 150l-5 -5l-6 7l4 5zM234 1025q-18 -7 -29 -30q-18 -7 -27 -3q-5 3 -6 7t0 7l2 3q-7 -2 -8 -10q-5 -16 -6 -17q-7 10 -15 8q-2 -2 1.5 -14.5t3.5 -13.5q-11 11 -14 31q-15 -18 -62 -3q2 21 13 42q16 31 34 44q19 -1 60 8q1 0 1 -5.5t2 -12t7 -9.5q25 -14 43 -32zM50 901 l-11 -20l-10 5l11 20z" />
<glyph unicode="&#xce;" horiz-adv-x="213" d="M52 736l6 -13h-7l-5 11zM168 372q-2 -2 -5.5 -7.5t-8 -11.5t-8.5 -12q15 -23 15 -34q-5 -11 -14 -33q-13 -32 -13 -57q0 -27 13 -57l14 -33q0 -8 -14 -28q-15 -22 -16 -28h-5q-8 -1 -18 4q-3 -1 -3 -5q0 -3 4 -7q-6 2 -10 3q-9 0 -21 -12q2 -10 14 -22q-11 0 -23 -5 q0 -9 16 -19q10 5 19 5q18 0 42 -21l-60 -15h-20q-14 20 -14 45q0 7 4 31.5t4 32.5q0 13 -5 25q-4 1 -4 6q0 3 5.5 16t5.5 16q4 35 4 125q0 3 0.5 8.5t1 16t0.5 19.5q2 27 0 44q11 3 11 14q0 19 -11 39q3 6 3 15q0 6 -3 25t-3 25q0 16 9 26q-5 7 -18 17q2 3 5.5 11.5 t4.5 11.5q-4 15 -4 18v1q13 7 13 28l-2 2t-1 2q-8 -8 -11 -8q3 13 3 22q0 10 -6 20.5t-6 12.5q0 4 7 16t7 19q0 3 -2 19q6 16 6 15q0 10 -6 29t-12 22q11 29 16 33q9 10 33 10q13 0 20 -13q3 3 3 8q17 0 30 -8l13 8q0 -3 -12 -15q8 -10 8 -22q0 -6 -5 -19t-5 -17q0 -7 6 -18 l-36 -9q8 -5 31 -3q0 -17 13 -43l-6 2q-1 -2 -16 -19v-52q3 -2 9 -4q0 -3 -2.5 -16.5t-2.5 -17.5q0 -9 12 -11q-11 -42 -11 -86l2 -6q1 -6 1 -7q3 -10 3 -19q0 -8 -3 -12q3 -14 15 -36zM129 784l17 5l-2 6l-15 -5v-6zM132 664l6 12l-6 2l-6 -11zM144 647h8v12h-8v-12z M151 150l-5 -5l-6 7l4 5zM144 1184q21 -6 27 -11t13 -25t16 -37q14 -14 28 -33q2 -15 12 -43q42 -64 76 -125q-5 -3 -11.5 -5.5t-12 -4t-12.5 -2.5t-11 -1.5t-9 -1l-5 -0.5q-16 0 -43 8.5t-29 16.5q-10 31 -10 45v2v20q-2 2 -55 46q-12 -6 -18 -14q-14 0 -35 -23l-8 -5 q3 -1 3 -4v-30q-9 -5 -25 -35q-12 -24 -43 -24q-50 0 -65 3h-6q-6 5 -14 16q4 7 53 87q12 21 63 110q28 50 28 56q12 17 55 17q18 0 38 -3z" />
<glyph unicode="&#xcf;" horiz-adv-x="213" d="M240 939q0 -9 -12 -20t-21 -11q-12 0 -28 19q-15 20 -15 32q0 29 38 29t38 -49zM50 944q0 -5 -8 -21q-8 -15 -11 -24q-1 0 -10 6.5t-14 6.5q-3 0 -6 -2t-7 -2q-13 0 -22 19q-7 15 -7 32q0 7 18 20q17 14 24 14q19 0 33 -23q10 -17 10 -26zM52 736l6 -13h-7l-5 11z M168 372q-2 -2 -5.5 -7.5t-8 -11.5t-8.5 -12q15 -23 15 -34q-5 -11 -14 -33q-13 -32 -13 -57q0 -27 13 -57l14 -33q0 -8 -14 -28q-15 -22 -16 -28h-5q-8 -1 -18 4q-3 -1 -3 -5q0 -3 4 -7q-6 2 -10 3q-9 0 -21 -12q2 -10 14 -22q-11 0 -23 -5q0 -9 16 -19q10 5 19 5 q18 0 42 -21l-60 -15h-20q-14 20 -14 45q0 7 4 31.5t4 32.5q0 13 -5 25q-4 1 -4 6q0 3 5.5 16t5.5 16q4 35 4 125q0 3 0.5 8.5t1 16t0.5 19.5q2 27 0 44q11 3 11 14q0 19 -11 39q3 6 3 15q0 6 -3 25t-3 25q0 16 9 26q-5 7 -18 17q2 3 5.5 11.5t4.5 11.5q-4 15 -4 18v1 q13 7 13 28l-2 2t-1 2q-8 -8 -11 -8q3 13 3 22q0 10 -6 20.5t-6 12.5q0 4 7 16t7 19q0 3 -2 19q6 16 6 15q0 10 -6 29t-12 22q11 29 16 33q9 10 33 10q13 0 20 -13q3 3 3 8q17 0 30 -8l13 8q0 -3 -12 -15q8 -10 8 -22q0 -6 -5 -19t-5 -17q0 -7 6 -18l-36 -9q8 -5 31 -3 q0 -17 13 -43l-6 2q-1 -2 -16 -19v-52q3 -2 9 -4q0 -3 -2.5 -16.5t-2.5 -17.5q0 -9 12 -11q-11 -42 -11 -86l2 -6q1 -6 1 -7q3 -10 3 -19q0 -8 -3 -12q3 -14 15 -36zM129 784l17 5l-2 6l-15 -5v-6zM132 664l6 12l-6 2l-6 -11zM144 647h8v12h-8v-12zM151 150l-5 -5l-6 7l4 5z " />
<glyph unicode="&#xd0;" horiz-adv-x="505" d="M451 436q-18 0 -21 -16l1 -26l2 -3q1 -2 2 -3q3 -7 -1 -25q4 -12 12 -12v-238l-9 -2q-6 0 -5 -7q0 -3 0.5 -6t1 -4.5t0.5 -2.5q-18 -26 -61 -70q-25 -19 -34 -19q-13 0 -65 -4q-15 -1 -31 -2.5t-23 -2t-8 -0.5q-4 0 -12 4.5t-11 4.5q-6 0 -6 -3l1 -4q-9 11 -14 11 q-6 0 -6 -2t-6 -2t-4 5q2 6 0 8l-8 -9h-38q0 4 -2.5 18t-2.5 17q0 7 7 39q7 36 9 53q-3 19 -2 49q7 25 8 25q-2 6 -7 13q-2 8 -2 10q0 1 3 3t6.5 4t4.5 3v16q-16 16 -16 23q0 5 5 13q-6 20 -6 23q8 11 8 16q-2 9 -9 22q-29 0 -31 -1t-8.5 -1.5t-9.5 -0.5q-2 -1 -20 1 q-7 0 -11 -4q-1 33 0 37q-1 5 -3 17q0 2 1 19t1 23l11 12l60 -2q9 15 33 24q7 9 18 28q0 1 1.5 5t1.5 8l-4 4q0 17 -16 43q-8 -9 -10 -9q-3 24 -22 27q-2 23 0 63q2 60 2 63q0 7 -6 23t-6 21q0 19 19 45l34 6q16 0 82 -22q2 2 5.5 9l4.5 9q0 -17 -3 -20v-2q1 -2 3 -3.5 t6 -1.5q17 0 42 18l9 -9q2 2 4 9q2 -5 6 -11q6 -7 12 -7q4 0 6 2.5t5 2.5t10 -7t10 -7q11 0 18 9q3 -7 15 -18l18 -14q0 -7 -9 -14l3 -6t4 -6q12 6 18 18q0 -11 16 -46q-6 -5 -6 -12q23 -8 23 -15q0 -19 -17 -53q7 -19 9 -31q-10 -25 -8 -31q-6 -16 -4 -26q5 -11 9 -18 q-7 -13 -7 -48q19 -11 28 -18q-1 1 -8 1zM263 429l-4 -69l-39 -4q-1 -1 -15 1l-5 1v-11q2 -42 2 -46q0 -24 -8 -46l-7 -20q2 -2 4 -5q4 -6 2 -27q0 -1 6 -5.5t6 -6.5l-7 -8q-5 0 -8 -5q2 -9 0 -18t-5 -9q13 -8 2 -28q9 -5 18 -12q-3 -3 -3 -16q5 5 22 17q4 -4 3 -6l-3 -2 q-4 -2 -6.5 -4.5t-2.5 -4.5q3 0 8 -3q-1 -1 -40 -26q11 -11 20 -11q4 0 4 2l-1 2q-1 1 -1 3q2 2 4 2h12q14 0 22 -8q-1 2 -1 6q0 6 11 8h1q0 -1 2.5 -1.5l5 -1t7.5 -1t9 -1.5q3 8 8 8q11 -14 29 -18l-13 23q1 1 8.5 9.5t11.5 7.5q8 -8 15 -8q-1 14 4 21q4 -4 10 -3 q-5 3 -5 6q0 2 8 7q2 0 5 2t4 2q1 3 1 12l-2 -1q-1 -1 -4 -2t-7 -1t-5.5 1t-0.5 3l3 6q8 10 6 15q5 57 3 71q-15 185 -15 263q0 4 3 22t3 20l-1 65q1 26 13 38q-6 0 -17 14q0 4 -2 22q-19 37 -36 37q-4 0 -12 -2.5t-10 -2.5q-13 0 -22 18q-5 -2 -20 -8.5t-26 -11.5 q-3 -4 -13 -14q-10 -61 -10 -117q0 -26 10 -47q0 -7 -0.5 -17t-1 -25t-0.5 -27q23 1 51 -1q3 -4 6.5 -12t5.5 -11zM161 575h21q-5 12 -5 29q-3 -3 -16 -29zM133 622q-20 -11 -20 -22h15q5 5 5 22zM259 94h16q0 -16 -3 -21q-13 7 -13 21zM254 745h12v7h7v12h-8v-11h-11v-8z M333 67l7 4l-11 16l-6 -4zM286 22l4 6l-16 11l-3 -6zM272 41l5 17h-6l-5 -14zM130 585h12v8h-12v-8zM378 736q-10 0 -10 10l-12 -11q21 0 22 1zM324 117l7 -2l-6 -12l-6 3zM179 541l13 6l-2 6l-11 -5v-7zM149 86l11 11h-15q4 -1 4 -11zM401 160l5 4l-7 7l-4 -4zM462 433 q0 1 -1 1t-2 1l1 -1q2 0 2 -1zM266 753v-1h-1v1h1zM186 -7l-1 1z" />
<glyph unicode="&#xd2;" horiz-adv-x="424" d="M387 392q0 31 -1 55q-1 25 -1 55q0 6 1 27t1 27q0 5 -2 24.5t-2 25.5q0 77 -20 128q-7 16 -29 35q-2 2 -15.5 12.5t-21.5 15.5q-48 10 -77 15q0 -5 -8 -13l-12 13q-35 1 -72 -13q-46 -16 -44 -48v-4q-16 -13 -27 -18q-9 -36 -8 -55v-9l-9 -18l3 -5q-9 -10 -9 -32 q0 -6 2.5 -28.5t2.5 -29.5q0 -16 -4 -27h-9q15 -1 21 -14q-17 -14 -23 -23q10 -30 15 -50q-1 -12 0 -19q9 -7 12 -8q-4 -4 -4 -7v-1q-10 -3 -9 -13v-9h16q2 3 5.5 7.5t5.5 6.5q-4 -19 -16 -19q-3 0 -4 -1q5 -5 5 -6q0 -2 -3 -2q-2 0 -7.5 2t-6.5 2q13 -17 18 -24 q-7 -12 -8 -16h-1q8 2 8 -6q0 -1 -1 -4t-1 -4v-2q26 -18 26 -25q0 -6 1 -7l-3 -2q-13 14 -19 18q-16 -16 -16 -34q0 -4 4 -9.5t9 -11.5l6 -6q-5 -5 -4 -10v-1q8 5 15 5q5 0 7 -3q-4 -4 -12.5 -12t-12.5 -11l5 -6q-8 -9 -15 -12q-1 -3 -1 -10q14 -3 14 -26q0 -11 -7 -18 q5 -12 9 -18q-5 -5 -5 -15t4 -15q17 6 32 27l11 -9q-6 10 -6 18l1 5q10 -4 15 -5q4 -1 4 -23q0 -1 -3 -4q-3 1 -14 4q-3 -8 -5 -12q14 -5 14 -17q0 -6 -3 -6q-1 0 -2 1q3 -1 3 -7q0 -2 -3.5 -10.5t-3.5 -13.5q0 -14 24 -25l9 9q16 -27 86 -27q24 0 48 15q-9 8 -18 27l3 2 q1 0 2 -1l7 -3h-1q8 0 8 8q0 3 -1 4v5q-7 9 -20 20q-5 -7 -28 -5h-5q-4 -12 -10 -32q-2 0 -13.5 2.5t-15.5 2.5q-6 0 -10 15q-8 19 -9 21q-7 -10 -9 -18q-7 11 -7 12q5 11 14 11h3v17l-6 5q-2 -1 -5.5 -3.5t-5.5 -3.5q-9 -8 -11 -19q-2 -14 -5 -19q-10 14 -11 16q12 8 12 27 q0 3 -2 9q8 11 8 19q0 19 -3 60t-3 61q0 6 4.5 20t4.5 17q2 34 2 60v43q-1 19 -1 43q0 4 -2 21t-2 23q0 22 13 28q-12 23 -12 124q0 38 23 70q25 36 62 36q6 0 23 -12q16 -12 24 -17q13 -15 21 -28q-8 -10 -8 -20q9 0 13 -4v-488q-8 -11 -8 -31v-13q4 7 13 7q3 0 9 -2 l-4 -15q-5 3 -9 3q-6 0 -19 -13.5t-19 -13.5q16 -5 31 -7q0 5 -5 20q2 4 4 7q19 -30 20 -30q-5 -4 -17 -12q-10 -9 -10 -17q0 -4 3 -14.5t3 -12.5q2 4 4.5 6.5t5 4.5t7 3.5t7 2t8 1.5t7.5 1q0 11 -18 20q3 2 6.5 4.5t6 4t3.5 2.5q9 -9 10 -9q7 13 17 22v-6q0 -7 -7 -20 t-7 -14q4 6 34 38q17 19 17 61q0 6 -1 25t-1 25q0 34 6 101q7 63 7 101zM234 75l-7 7l-5 -4l7 -7zM200 76q-14 -2 -18 -12q-1 -3 -2.5 -6t-2 -5t-1.5 -3.5t-2 -2.5v-1q7 7 11 13q4 -4 4 -10v-4q11 13 11 31zM79 48l-11 12l-4 -5l11 -11zM360 706q-8 -15 -9 -25q-5 12 -18 19 v1q0 1 11 25q5 -14 16 -20zM361 645h-7v17h7v-17zM220 784l-5 -5l-6 7l4 5zM350 614h-22l10 12.5t7 8.5zM355 541q-11 -2 -11 -6q0 2 1.5 7.5t1.5 6.5q0 5 -5 5q-8 0 -17 -9q10 14 14 18q11 -11 16 -22zM360 514q-10 0 -12 -8q0 12 -5 24zM352 497l-6 -12l-6 3l6 11z M360 472l-13 -6v6l11 6zM311 489l-5 -5l-6 7l4 5zM321 483l-6 -12l-7 3l6 12zM101 178q-16 0 -17 -1q1 8 6 13zM89 150h-7l-5 11l6 2zM101 137q-2 0 -9 1.5t-9 1.5q-6 0 -9 -1.5t-2 -4.5q-3 3 -3 11q0 2 2 4h15h6zM73 152h-12v8h12v-8zM179 27l-14 -6v6l11 6zM160 33 l-13 -10q2 4 2 8q0 13 -6 23q14 -14 17 -21zM88 970q7 24 23 48q5 7 0.5 17t-3.5 11q39 10 57 21q20 -3 107 -63q23 -17 31 -32q-34 -34 -56 -25q7 -19 2 -34q-1 1 -4 13t-5 14q-8 -2 -9 -15l-13 13q-8 8 -12 6l4 -6q5 -5 0 -12q-7 -9 -25 -9q-8 7 -50 30q-41 23 -47 23z " />
<glyph unicode="&#xd3;" horiz-adv-x="424" d="M387 392q0 -38 -7 -101q-6 -67 -6 -101q0 -6 1 -25t1 -25q0 -42 -17 -61q-30 -32 -34 -38q0 1 7 14t7 20v6q-10 -9 -17 -22q-1 0 -10 9q-1 -1 -3.5 -2.5t-6 -4t-6.5 -4.5q18 -9 18 -20q-2 0 -7.5 -1t-8 -1.5t-7 -2t-7 -3.5t-5 -4.5t-4.5 -6.5q0 2 -3 12.5t-3 14.5 q0 8 10 17q12 8 17 12l-20 30q-2 -2 -4 -7q5 -15 5 -20q-15 2 -31 7q6 0 19 13.5t19 13.5q4 0 9 -3l4 15q-6 2 -9 2q-9 0 -13 -7v13q0 20 8 31v488q-4 4 -13 4q0 10 8 20q-8 13 -21 28q-8 5 -24 17q-17 12 -23 12q-36 0 -62 -36q-23 -32 -23 -70q0 -101 12 -124 q-13 -6 -13 -28q0 -6 2 -23t2 -21q0 -24 1 -43v-43q0 -26 -2 -60q0 -3 -4.5 -17t-4.5 -20q0 -20 3 -61t3 -60q0 -8 -8 -19q2 -6 2 -9q0 -19 -12 -27q1 -2 11 -16q3 5 5 19q2 11 11 19l6 3q3 3 5 4l6 -5v-17h-3q-9 0 -14 -11q0 -1 7 -12q2 8 9 18q1 -2 9 -21q4 -15 10 -15 q4 0 15.5 -2.5t13.5 -2.5q6 20 10 32h5q23 -2 28 5q13 -11 20 -20v-5q1 -1 1 -4q0 -8 -8 -8q2 0 -1 1q-1 1 -7 3l-3 -2q9 -19 18 -27q-24 -15 -48 -15q-70 0 -86 27l-9 -9q-24 10 -24 25q0 5 3.5 13.5t3.5 10.5q0 6 -3 7q1 -1 2 -1q3 0 3 6q0 12 -14 17q2 4 5 12 q10 -3 14 -4q3 3 3 4q0 22 -4 23q-5 1 -15 5l-1 -5q0 -8 6 -18l-11 9q-15 -21 -32 -27q-4 5 -4 15t5 15q-4 6 -9 18q7 7 7 18q0 23 -14 26q0 7 1 10q7 3 15 12l-5 6q4 3 12.5 11t12.5 12q-2 3 -7 3q-7 0 -15 -5v1q-1 5 4 10l-6 6q-5 6 -9 11.5t-4 9.5q0 18 16 34 q6 -4 19 -18l3 2q-1 1 -1 7q0 7 -26 25v2q0 1 1 4t1 4q0 8 -8 6h1q1 4 8 16q-5 7 -18 24q1 0 6.5 -2t7.5 -2q3 0 3 2q0 1 -5 6q1 1 4 1q12 0 16 19q-2 -2 -5.5 -6.5t-5.5 -7.5h-16v9q-1 10 9 13v1q0 3 4 7q-3 1 -12 8q-1 7 0 19q-5 20 -15 50q6 9 23 23q-6 13 -21 14h9 q4 11 4 27q0 7 -2.5 29.5t-2.5 28.5q0 22 9 32l-3 5l9 18v9q-1 19 8 55q11 5 27 18v4q-2 32 44 48q37 14 72 13l12 -13q8 8 8 13q29 -5 77 -15q8 -5 21.5 -15.5t15.5 -12.5q22 -19 29 -35q20 -51 20 -128q0 -6 2 -25.5t2 -24.5q0 -6 -1 -27t-1 -27q0 -30 1 -55q1 -24 1 -55z M227 82l7 -7l-5 -4l-7 7zM200 76q0 -18 -11 -31v4q0 6 -4 10q-4 -6 -11 -13l1 2q1 2 3 7t4 9q4 10 18 12zM68 60l11 -12l-4 -4l-11 11zM360 706q-11 6 -16 20q-11 -24 -11 -25v-1q13 -7 18 -19q1 10 9 25zM354 645h7v17h-7v-17zM215 779l5 5l-7 7l-4 -5zM328 614h22l-5 21 q-1 -1 -7 -8.5zM355 541q-5 11 -16 22q-4 -4 -14 -18q9 9 17 9q5 0 5 -5q0 -1 -1.5 -6.5t-1.5 -7.5q0 4 11 6zM360 514l-17 16q5 -12 5 -24q2 8 12 8zM346 485l6 12l-6 2l-6 -11zM347 466l13 6l-2 6l-11 -6v-6zM306 484l5 5l-7 7l-4 -5zM315 471l6 12l-7 3l-6 -12zM101 178 l-11 12q-5 -5 -6 -13q1 1 17 1zM82 150h7l-6 13l-6 -2zM101 137l-9 12h-6h-15q-2 -2 -2 -4q0 -8 3 -11q-1 3 2 4.5t9 1.5q2 0 9 -1.5t9 -1.5zM61 152h12v8h-12v-8zM165 21l14 6l-3 6l-11 -6v-6zM147 23l13 10q-3 7 -17 21q6 -10 6 -23q0 -4 -2 -8zM338 1017q-18 -7 -29 -30 q-18 -7 -27 -3q-5 3 -6 7t0 7l2 3q-7 -2 -8 -10q-5 -16 -6 -17q-7 10 -15 8q-2 -2 1.5 -14.5t3.5 -13.5q-11 11 -14 31q-15 -18 -62 -3q2 21 13 42q16 31 34 44q19 -1 60 8q1 0 1 -5.5t2 -12t7 -9.5q25 -14 43 -32zM154 893l-11 -20l-10 5l11 20z" />
<glyph unicode="&#xd4;" horiz-adv-x="424" d="M387 392q0 -38 -7 -101q-6 -67 -6 -101q0 -6 1 -25t1 -25q0 -42 -17 -61q-30 -32 -34 -38q0 1 7 14t7 20v6q-10 -9 -17 -22q-1 0 -10 9q-1 -1 -3.5 -2.5t-6 -4t-6.5 -4.5q18 -9 18 -20q-2 0 -7.5 -1t-8 -1.5t-7 -2t-7 -3.5t-5 -4.5t-4.5 -6.5q0 2 -3 12.5t-3 14.5 q0 8 10 17q12 8 17 12l-20 30q-2 -2 -4 -7q5 -15 5 -20q-15 2 -31 7q6 0 19 13.5t19 13.5q4 0 9 -3l4 15q-6 2 -9 2q-9 0 -13 -7v13q0 20 8 31v488q-4 4 -13 4q0 10 8 20q-8 13 -21 28q-8 5 -24 17q-17 12 -23 12q-36 0 -62 -36q-23 -32 -23 -70q0 -101 12 -124 q-13 -6 -13 -28q0 -6 2 -23t2 -21q0 -24 1 -43v-43q0 -26 -2 -60q0 -3 -4.5 -17t-4.5 -20q0 -20 3 -61t3 -60q0 -8 -8 -19q2 -6 2 -9q0 -19 -12 -27q1 -2 11 -16q3 5 5 19q2 11 11 19l6 3q3 3 5 4l6 -5v-17h-3q-9 0 -14 -11q0 -1 7 -12q2 8 9 18q1 -2 9 -21q4 -15 10 -15 q4 0 15.5 -2.5t13.5 -2.5q6 20 10 32h5q23 -2 28 5q13 -11 20 -20v-5q1 -1 1 -4q0 -8 -8 -8q2 0 -1 1q-1 1 -7 3l-3 -2q9 -19 18 -27q-24 -15 -48 -15q-70 0 -86 27l-9 -9q-24 10 -24 25q0 5 3.5 13.5t3.5 10.5q0 6 -3 7q1 -1 2 -1q3 0 3 6q0 12 -14 17q2 4 5 12 q10 -3 14 -4q3 3 3 4q0 22 -4 23q-5 1 -15 5l-1 -5q0 -8 6 -18l-11 9q-15 -21 -32 -27q-4 5 -4 15t5 15q-4 6 -9 18q7 7 7 18q0 23 -14 26q0 7 1 10q7 3 15 12l-5 6q4 3 12.5 11t12.5 12q-2 3 -7 3q-7 0 -15 -5v1q-1 5 4 10l-6 6q-5 6 -9 11.5t-4 9.5q0 18 16 34 q6 -4 19 -18l3 2q-1 1 -1 7q0 7 -26 25v2q0 1 1 4t1 4q0 8 -8 6h1q1 4 8 16q-5 7 -18 24q1 0 6.5 -2t7.5 -2q3 0 3 2q0 1 -5 6q1 1 4 1q12 0 16 19q-2 -2 -5.5 -6.5t-5.5 -7.5h-16v9q-1 10 9 13v1q0 3 4 7q-3 1 -12 8q-1 7 0 19q-5 20 -15 50q6 9 23 23q-6 13 -21 14h9 q4 11 4 27q0 7 -2.5 29.5t-2.5 28.5q0 22 9 32l-3 5l9 18v9q-1 19 8 55q11 5 27 18v4q-2 32 44 48q37 14 72 13l12 -13q8 8 8 13q29 -5 77 -15q8 -5 21.5 -15.5t15.5 -12.5q22 -19 29 -35q20 -51 20 -128q0 -6 2 -25.5t2 -24.5q0 -6 -1 -27t-1 -27q0 -30 1 -55q1 -24 1 -55z M227 82l7 -7l-5 -4l-7 7zM200 76q0 -18 -11 -31v4q0 6 -4 10q-4 -6 -11 -13l1 2q1 2 3 7t4 9q4 10 18 12zM68 60l11 -12l-4 -4l-11 11zM360 706q-11 6 -16 20q-11 -24 -11 -25v-1q13 -7 18 -19q1 10 9 25zM354 645h7v17h-7v-17zM215 779l5 5l-7 7l-4 -5zM328 614h22l-5 21 q-1 -1 -7 -8.5zM355 541q-5 11 -16 22q-4 -4 -14 -18q9 9 17 9q5 0 5 -5q0 -1 -1.5 -6.5t-1.5 -7.5q0 4 11 6zM360 514l-17 16q5 -12 5 -24q2 8 12 8zM346 485l6 12l-6 2l-6 -11zM347 466l13 6l-2 6l-11 -6v-6zM306 484l5 5l-7 7l-4 -5zM315 471l6 12l-7 3l-6 -12zM101 178 l-11 12q-5 -5 -6 -13q1 1 17 1zM82 150h7l-6 13l-6 -2zM101 137l-9 12h-6h-15q-2 -2 -2 -4q0 -8 3 -11q-1 3 2 4.5t9 1.5q2 0 9 -1.5t9 -1.5zM61 152h12v8h-12v-8zM165 21l14 6l-3 6l-11 -6v-6zM147 23l13 10q-3 7 -17 21q6 -10 6 -23q0 -4 -2 -8zM242 1172q21 -6 27 -11 t13 -25t16 -37q14 -14 28 -33q2 -15 12 -43q42 -64 76 -125q-5 -3 -11.5 -5.5t-12 -4t-12.5 -2.5t-11 -1.5t-9 -1l-5 -0.5q-16 0 -43 8.5t-29 16.5q-10 31 -10 45v2v20q-2 2 -55 46q-12 -6 -18 -14q-14 0 -35 -23l-8 -5q3 -1 3 -4v-30q-9 -5 -25 -35q-12 -24 -43 -24 q-50 0 -65 3h-6q-6 5 -14 16q23 37 52 87q31 53 64 110q28 50 28 56q12 17 55 17q18 0 38 -3z" />
<glyph unicode="&#xd6;" horiz-adv-x="430" d="M356 919q0 -15 -13 -25t-30 -10q-5 0 -13 6l-6 4t-5 4l-2 1q7 7 19 7q6 0 15 4q9 3 15 0l7 7q0 1 -8.5 12t-8.5 15q12 4 16 3q14 -11 14 -28zM122 914q0 -19 -14.5 -31t-28.5 -12q-35 0 -35 39q0 17 15 26q13 8 26 8q11 0 24 -11t13 -19zM379 627q0 -7 -4 -31 q-4 -23 -4 -36q0 -109 1 -198q1 -88 1 -199q0 -7 -6.5 -29.5t-6.5 -27.5q-3 -27 -26 -56q-20 -26 -43 -39q-15 -8 -38 -15q-27 -8 -34 -8t-30 4q-21 4 -28 4q-4 0 -7.5 2t-7 5.5l-4.5 4.5q-64 18 -87 63q-22 45 -22 66v237q0 5 6 65q7 56 7 65v128q0 3 3 13t7 23.5t6 21.5 q5 28 33 59q30 33 56 40q49 15 68 15h19q8 0 40 -15q33 -14 46 -27q55 -49 55 -135zM284 703l17 5l-2 6l-15 -5v-6zM309 613l15 19l-6 4l-14 -19zM312 537h8v28h-8v-28zM310 575q-2 -5 -15 -9l-7 7v52q0 11 -2 17q-14 35 -29 47q-22 15 -32 15q-4 0 -19 -6.5t-17 -6.5 q-4 0 -7 2.5t-6 2.5q-8 0 -23 -29t-15 -34q0 -29 9 -48q-4 -2 -7 -5q2 -51 1 -82l-4 -7q0 -6 4 -26q5 -23 3 -30l-6 -9v-23q7 -8 7 -16q0 -5 -2.5 -20.5t-2.5 -18.5l2 -13q1 -13 0 -17q-3 -31 -8 -62q-6 -44 -6 -48q0 -29 23 -106q12 -4 12 -14q1 0 8 1.5t11 1.5 q25 0 44 -12l-2 5q0 2 4 2.5t7.5 1.5t2.5 3l10 -8q-3 8 -1 21q9 -8 9 -11q0 12 4 16q5 -5 8 -5q9 0 18 14q-1 5 -1 18q1 2 8 11q4 4 4 13q0 4 -6 22.5t-6 23.5q-6 119 -6 166q0 77 10 136q1 15 10 17q-8 20 -6 29q8 7 17 21zM321 247h7v21h-7v-21zM301 102l-12 11 q0 -10 -10 -10q4 -3 11 -4q8 0 11 3z" />
<glyph unicode="&#xd8;" horiz-adv-x="424" d="M387 392q0 -38 -7 -101q-6 -67 -6 -101q0 -6 1 -25t1 -25q0 -42 -17 -61q-30 -32 -34 -38q0 1 7 14t7 20v6q-10 -9 -17 -22q-1 0 -10 9q-1 -1 -3.5 -2.5t-6 -4t-6.5 -4.5q18 -9 18 -20q-2 0 -7.5 -1t-8 -1.5t-7 -2t-7 -3.5t-5 -4.5t-4.5 -6.5q0 2 -3 12.5t-3 14.5 q0 8 10 17q12 8 17 12l-20 30q-2 -2 -4 -7q5 -15 5 -20q-15 2 -31 7q6 0 19 13.5t19 13.5q4 0 9 -3l4 15q-6 2 -9 2q-9 0 -13 -7v13q0 20 8 31v488q-4 4 -13 4q0 10 8 20q-8 13 -21 28q-8 5 -24 17q-17 12 -23 12q-36 0 -62 -36q-23 -32 -23 -70q0 -101 12 -124 q-13 -6 -13 -28q0 -6 2 -23t2 -21q0 -24 1 -43v-43q0 -26 -2 -60q0 -3 -4.5 -17t-4.5 -20q0 -20 3 -61t3 -60q0 -8 -8 -19q2 -6 2 -9q0 -19 -12 -27q1 -2 11 -16q3 5 5 19q2 11 11 19l6 3q3 3 5 4l6 -5v-17h-3q-9 0 -14 -11q0 -1 7 -12q2 8 9 18q1 -2 9 -21q4 -15 10 -15 q4 0 15.5 -2.5t13.5 -2.5q6 20 10 32h5q23 -2 28 5q13 -11 20 -20v-5q1 -1 1 -4q0 -8 -8 -8q2 0 -1 1q-1 1 -7 3l-3 -2q9 -19 18 -27q-24 -15 -48 -15q-70 0 -86 27l-9 -9q-24 10 -24 25q0 5 3.5 13.5t3.5 10.5q0 6 -3 7q1 -1 2 -1q3 0 3 6q0 12 -14 17q2 4 5 12 q10 -3 14 -4q3 3 3 4q0 22 -4 23q-5 1 -15 5l-1 -5q0 -8 6 -18l-11 9q-15 -21 -32 -27q-4 5 -4 15t5 15q-4 6 -9 18q7 7 7 18q0 23 -14 26q0 7 1 10q7 3 15 12l-5 6q4 3 12.5 11t12.5 12q-2 3 -7 3q-7 0 -15 -5v1q-1 5 4 10l-6 6q-5 6 -9 11.5t-4 9.5q0 18 16 34 q6 -4 19 -18l3 2q-1 1 -1 7q0 7 -26 25v2q0 1 1 4t1 4q0 8 -8 6h1q1 4 8 16q-5 7 -18 24q1 0 6.5 -2t7.5 -2q3 0 3 2q0 1 -5 6q1 1 4 1q12 0 16 19q-2 -2 -5.5 -6.5t-5.5 -7.5h-16v9q-1 10 9 13v1q0 3 4 7q-3 1 -12 8q-1 7 0 19q-5 20 -15 50q6 9 23 23q-6 13 -21 14h9 q4 11 4 27q0 7 -2.5 29.5t-2.5 28.5q0 22 9 32l-3 5l9 18v9q-1 19 8 55q11 5 27 18v4q-2 32 44 48q37 14 72 13l12 -13q8 8 8 13q29 -5 77 -15q8 -5 21.5 -15.5t15.5 -12.5q22 -19 29 -35q20 -51 20 -128q0 -6 2 -25.5t2 -24.5q0 -6 -1 -27t-1 -27q0 -30 1 -55q1 -24 1 -55z M227 82l7 -7l-5 -4l-7 7zM200 76q0 -18 -11 -31v4q0 6 -4 10q-4 -6 -11 -13l1 2q1 2 3 7t4 9q4 10 18 12zM79 48l-11 12l-4 -5l11 -11zM360 706q-11 6 -16 20q-11 -24 -11 -25v-1q13 -7 18 -19q1 10 9 25zM354 645h7v17h-7v-17zM215 779l5 5l-7 7l-4 -5zM328 614h22l-5 21 q-1 -1 -7 -8.5zM355 541q-5 11 -16 22q-4 -4 -14 -18q9 9 17 9q5 0 5 -5q0 -1 -1.5 -6.5t-1.5 -7.5q0 4 11 6zM360 514l-17 16q5 -12 5 -24q2 8 12 8zM346 485l6 12l-6 2l-6 -11zM347 466l13 6l-2 6l-11 -6v-6zM306 484l5 5l-7 7l-4 -5zM315 471l6 12l-7 3l-6 -12zM101 178 l-11 12q-5 -5 -6 -13q1 1 17 1zM82 150h7l-6 13l-6 -2zM101 137l-9 12h-6h-15q-2 -2 -2 -4q0 -8 3 -11q-1 3 2 4.5t9 1.5q2 0 9 -1.5t9 -1.5zM61 152h12v8h-12v-8zM165 21l14 6l-3 6l-11 -6v-6zM147 23l13 10q-3 7 -17 21q6 -10 6 -23q0 -4 -2 -8zM241 735l-2 15l-7 -1 l2 -12zM262 368q-19 -16 -29 -24q9 -26 6 -37q-7 -10 -21 -29q-21 -29 -27 -52t-1 -59q1 -10 2.5 -18.5t1.5 -12.5l1 -4q-2 -8 -21 -23q-17 -14 -22 -24l-5 2q-10 2 -16 8q-3 -1 -4 -4t2 -8q1 1 0 2t-3.5 2t-5.5 1q-9 3 -23 -6q-2 -10 8 -25q-12 3 -24 1q-2 -9 11 -22 q10 1 20 0q16 -4 35 -31h-61l-20 5q-8 24 -2 47q2 9 12 32t11 28q4 13 1 26q-3 3 -2 7q1 3 9 14t9 14q15 42 35 120q1 5 13 42q6 19 10 43q12 0 15 11q4 17 -2 40q6 8 7 14q2 6 3.5 25t2.5 25q4 16 16 23q-8 13 -14 21l16 20v18v1q16 5 20 24q-1 1 -1 2q-1 2 -1 3 q-11 -6 -13 -5q5 10 9 20q2 10 -1 22t-3 13q1 3 10.5 13.5t11.5 17.5q2 8 3 19l9 13q3 10 2 29q-2 21 -7 25q16 23 24 28q10 7 35 1q11 -3 16 -17q3 2 5 7q17 -4 27 -15l14 4q0 -3 -15 -11q6 -11 2 -24q-1 -4 -9 -16t-9 -16q-2 -9 1 -19h-37q7 -6 29 -10q-3 -17 3 -45l-6 3 q-8 -6 -20 -14l-13 -51q3 -4 8 -6q0 -4 -6 -16t-7 -15q-3 -10 9 -14q-22 -39 -32 -81v-13q0 -9 -2 -19q-1 -6 -6 -11q0 -13 6 -39zM325 777l18 1l-1 6l-15 -1zM307 670l-8 -10l-6 5l9 9zM314 639l-8 2l3 11l8 -2zM191 157l-6 -3l-4 8l5 4z" />
<glyph unicode="&#xd9;" horiz-adv-x="456" d="M258 43l-6 3l-6 -12l7 -2zM406 354v108l-12 18v2q0 2 3.5 11t3.5 11l-1 2q-8 94 -8 118q-1 45 -2.5 85t-2 57t-0.5 18q-13 19 -33 19t-55 -8q-5 -2 -12 -16q-8 -14 -8 -19v-106q7 -2 13 -8q-19 -31 -19 -81q0 -6 5 -26t5 -26q0 -4 -4.5 -6.5t-4.5 -3.5q0 -4 1.5 -6.5 t2.5 -3.5l2 -1q0 -7 -1.5 -34t-1.5 -36v-5q7 -102 12 -157q7 -71 7 -78q0 -57 -38 -87q0 -2 5 -10l12 9q3 -1 8 -9q-18 -10 -28 -18l-2 5q1 8 3 12l-12 -5v-16l8 -2q-10 -5 -16 -5q-3 0 -9 2q1 -9 -12 -22q-7 9 -24.5 17t-21.5 12q3 1 8 1q1 0 13 -2q-2 6 0 11q4 7 4 10 q-24 -13 -36 -18q-5 9 -7 16q13 12 13 14q-17 11 -17 36q0 8 1 11q0 1 -3 2.5t-3 6.5l6 17q1 27 5 132q2 49 4 92.5t3 61.5t1 19q0 12 -7 33t-7 35q0 23 8 37q-4 10 -7 14q0 3 -3 34.5t-3 41.5q0 8 5 8h2q-2 18 -2 27v33q17 9 17 15q-14 26 -15 40q-17 14 -53 14 q-39 0 -49 -19q-4 -111 -4 -194q0 -16 1 -22l-4 -2q-3 -3 -3 -8v-393q13 0 13 -7q0 -27 8 -54q14 -35 15 -47q1 -1 36 -37q25 -27 40 -27q4 0 4 2v1q0 1 5 1q2 0 11 -11t13 -11h40q4 0 17.5 9t17.5 9q2 0 4.5 -2.5t6.5 -2.5q21 0 52 20q26 17 40 39q19 38 27 62v2 q0 1 -1 6.5t-1 7.5q0 18 4 45q5 35 5 47q0 10 -2 20q0 2 4 12t4 11q0 4 -6 24q-5 22 -5 29q0 29 17 37zM331 541h-12v8h12v-8zM134 129l-2 -6l-12 6l3 6zM103 973q7 24 23 48q5 7 0.5 17t-3.5 11q39 11 57 21q20 -3 107 -63q23 -17 31 -32q-34 -34 -56 -25q7 -19 2 -34 q-1 1 -4 13t-5 14q-7 -1 -9 -15l-13 13q-7 7 -12 6l5 -5q4 -6 -1 -13q-7 -9 -25 -9q-8 7 -50 30q-41 23 -47 23z" />
<glyph unicode="&#xda;" horiz-adv-x="456" d="M258 43l-6 3l-6 -12l7 -2zM406 462v-108q-17 -8 -17 -37q0 -7 5 -29q6 -20 6 -24q0 -1 -4 -11t-4 -12q2 -10 2 -20q0 -12 -5 -47q-4 -27 -4 -45q0 -2 1 -7.5t1 -6.5v-2q-8 -24 -27 -62q-14 -22 -40 -39q-31 -20 -52 -20q-4 0 -6.5 2.5t-4.5 2.5q-4 0 -17.5 -9t-17.5 -9 h-40q-4 0 -13 11t-11 11q-5 0 -5 -1v-1q0 -2 -4 -2q-15 0 -40 27q-35 36 -36 37q-1 12 -15 47q-8 27 -8 54q0 7 -13 7v393q0 5 3 8l4 2q-1 6 -1 22q0 83 4 194q10 19 49 19q36 0 53 -14q1 -14 15 -40q0 -6 -17 -15v-33q0 -9 2 -27h-2q-5 0 -5 -8q0 -10 3 -41.5t3 -34.5 q3 -4 7 -14q-8 -14 -8 -37q0 -14 7 -35t7 -33q0 -1 -1 -19t-3 -61.5t-4 -92.5q-4 -105 -5 -132q-6 -9 -6 -17q0 -5 3 -6.5t3 -2.5q-1 -3 -1 -11q0 -25 17 -36q0 -2 -13 -14q2 -7 7 -16q12 5 36 18q0 -3 -4 -10q-2 -5 0 -11q-12 2 -13 2q-5 0 -8 -1q4 -4 21.5 -12t24.5 -17 q13 13 12 22q6 -2 9 -2q6 0 16 5l-8 2v16l12 5q-2 -4 -3 -12l2 -5q10 8 28 18q-5 8 -8 9l-12 -9q-5 8 -5 10q38 30 38 87q0 7 -7 78q-5 55 -12 157v5q0 9 1.5 36t1.5 34l-2 1q-1 1 -2.5 3.5t-1.5 6.5q0 1 4.5 3.5t4.5 6.5q0 6 -5 26t-5 26q0 50 19 81q-6 6 -13 8v106 q0 5 8 19q7 14 12 16q35 8 55 8t33 -19q0 -1 0.5 -18t2 -57t2.5 -85q0 -24 8 -118l1 -2q0 -2 -3.5 -11t-3.5 -11v-2zM319 541h12v8h-12v-8zM132 123l2 6l-11 6l-3 -6zM356 1030q-18 -7 -29 -30q-18 -7 -27 -3q-5 3 -6 7t0 7l2 3q-7 -2 -8 -10q-5 -16 -6 -17q-7 10 -15 8 q-2 -2 1.5 -14.5t3.5 -13.5q-11 11 -14 31q-15 -18 -62 -3q2 21 13 42q16 31 34 44q19 -1 60 8q1 0 1 -5.5t2 -12t7 -9.5q25 -14 43 -32zM172 906l-11 -20l-10 5l11 20z" />
<glyph unicode="&#xdb;" horiz-adv-x="456" d="M258 43l-6 3l-6 -12l7 -2zM406 462v-108q-17 -8 -17 -37q0 -7 5 -29q6 -20 6 -24q0 -1 -4 -11t-4 -12q2 -10 2 -20q0 -12 -5 -47q-4 -27 -4 -45q0 -2 1 -7.5t1 -6.5v-2q-8 -24 -27 -62q-14 -22 -40 -39q-31 -20 -52 -20q-4 0 -6.5 2.5t-4.5 2.5q-4 0 -17.5 -9t-17.5 -9 h-40q-4 0 -13 11t-11 11q-5 0 -5 -1v-1q0 -2 -4 -2q-15 0 -40 27q-35 36 -36 37q-1 12 -15 47q-8 27 -8 54q0 7 -13 7v393q0 5 3 8l4 2q-1 6 -1 22q0 83 4 194q10 19 49 19q36 0 53 -14q1 -14 15 -40q0 -6 -17 -15v-33q0 -9 2 -27h-2q-5 0 -5 -8q0 -10 3 -41.5t3 -34.5 q3 -4 7 -14q-8 -14 -8 -37q0 -14 7 -35t7 -33q0 -1 -1 -19t-3 -61.5t-4 -92.5q-4 -105 -5 -132q-6 -9 -6 -17q0 -5 3 -6.5t3 -2.5q-1 -3 -1 -11q0 -25 17 -36q0 -2 -13 -14q2 -7 7 -16q12 5 36 18q0 -3 -4 -10q-2 -5 0 -11q-12 2 -13 2q-5 0 -8 -1q4 -4 21.5 -12t24.5 -17 q13 13 12 22q6 -2 9 -2q6 0 16 5l-8 2v16l12 5q-2 -4 -3 -12l2 -5q10 8 28 18q-5 8 -8 9l-12 -9q-5 8 -5 10q38 30 38 87q0 7 -7 78q-5 55 -12 157v5q0 9 1.5 36t1.5 34l-2 1q-1 1 -2.5 3.5t-1.5 6.5q0 1 4.5 3.5t4.5 6.5q0 6 -5 26t-5 26q0 50 19 81q-6 6 -13 8v106 q0 5 8 19q7 14 12 16q35 8 55 8t33 -19q0 -1 0.5 -18t2 -57t2.5 -85q0 -24 8 -118l1 -2q0 -2 -3.5 -11t-3.5 -11v-2zM319 541h12v8h-12v-8zM132 123l2 6l-11 6l-3 -6zM258 1181q21 -6 27 -11t13 -25t16 -37q14 -14 28 -33q2 -15 12 -43q42 -64 76 -125q-5 -3 -11.5 -5.5 t-12 -4t-12.5 -2.5t-11 -1.5t-9 -1l-5 -0.5q-16 0 -43 8.5t-29 16.5q-10 31 -10 45v2v20q-2 2 -55 46q-12 -6 -18 -14q-14 0 -35 -23l-8 -5q3 -2 3 -4v-30q-9 -5 -25 -35q-12 -24 -43 -24q-50 0 -65 3h-6q-6 5 -14 16q23 37 52 87q31 53 64 110q28 50 28 56q12 17 55 17 q19 0 38 -3z" />
<glyph unicode="&#xdc;" horiz-adv-x="469" d="M281 44l-18 6v-7l16 -6zM398 979v-39q0 -4 -16 -13q-16 -8 -20 -8h-29q-21 0 -21 38q0 7 15 38h17q8 -8 14 -24h17q10 10 5 24zM144 959q0 -16 -13.5 -28t-29.5 -12q-4 0 -10 4.5t-9 4.5q-14 0 -18 6q0 2 -3 11.5t-3 13.5q0 6 23 18q22 13 30 13q9 0 21 -11t12 -20z M419 746v-313q-1 -5 -8 -19q0 -75 1 -131q1 -61 1 -131q0 -19 -13 -49q-15 -34 -26 -47q-8 -13 -27 -26q-24 -18 -30 -24l-10 9q-24 -24 -103 -24q-92 0 -142 107q-10 20 -13 87l1 2q-8 4 -8 12q0 20 19 48q-19 11 -21 66v78q11 14 11 30q0 4 -7 18.5t-7 19.5q0 6 5 25t5 24 q0 6 -7.5 26t-7.5 24q0 7 8 15q-4 15 -4 33q0 9 5.5 31t5.5 24q0 3 -9 21q4 2 13 10q-14 16 -14 29q0 7 8 15q-2 6 -2 13q0 12 5 35q8 14 36 15q7 1 21 1t21 1q22 -13 24 -27v-86q0 -4 1.5 -20t1.5 -21q0 -31 -11 -51v-407q0 -1 11 -28q-2 -6 -2 -9q0 -6 5 -26t5 -26 q3 -8 10 -8q8 0 17 9q6 -10 28 -28l3 5l-5 7l18 -3q1 -3 7 -9q1 7 20 4q4 4 4 11q0 5 -4 6q2 1 5 2t8 2.5t8 2.5q-2 -5 -3 -15l1 -4q8 8 8 32q2 2 22 24q-4 17 -4 42q0 6 2 44q3 29 3 43q0 40 -14 76v441q21 21 73 21h18q7 -1 18 -1q4 -7 8.5 -30t6.5 -28zM377 943h8v13h-8 v-13zM107 951l5 4l-7 8l-5 -5zM90 947v19q-12 -2 -22 -12q16 -2 22 -7zM301 95h13v8h-13v-8z" />
<glyph unicode="&#xdd;" horiz-adv-x="412" d="M394 756q0 -4 -25 -88q-24 -82 -34 -127l-2 -1l-4 -4q-8 -54 -38 -193q-11 -21 -19 -44q-2 -19 -3 -57q-1 -9 -2 -25l-5 -45q0 -27 6 -79q6 -53 6 -79q0 -6 -8 -15t-15 -9q-1 0 -5 0.5t-11.5 1t-14.5 0.5t-14 0.5t-11 1t-5 0.5q-18 0 -22 54q0 13 -2 38t-2 38q2 5 7 44 q0 39 -4 91q-4 8 -17 18q6 22 -1 44q-5 2 -13 8q0 4 -1 15t-1.5 16t-1.5 14t-3 13.5t-4.5 10.5t-6 9.5t-8.5 4.5q0 2 -2.5 22.5t-2.5 29.5q-4 -4 -9 -4q-3 37 -44 173q-40 129 -40 134q0 7 6.5 14.5t13.5 7.5q10 0 17 -9q3 3 3 13q22 0 64 -11q20 -11 20 -40q0 -7 -3 -13 q1 -1 5 -6.5t7 -10.5q-1 -7 0 -16l10 -10q4 -27 -3 -52q12 -8 25 -20q14 -14 19 -14h33q-1 4 -1 21q8 8 15 17q1 16 5 48q5 29 19 36q0 1 -8 12q2 6 4 35q2 13 20 24q20 14 34 12l4 1q4 2 9 3.5t9 1.5q30 0 42.5 -12t12.5 -43zM301 653h6l-5 18l-6 -3zM221 346h8v12h-8v-12z M223 104l6 11l-7 3l-5 -12zM221 79h8v16h-8v-16zM232 51l5 12l-6 2l-6 -11zM227 46q-2 0 -11 -1.5t-13 -1.5q-13 0 -13 15q0 -1 1.5 -10t1.5 -14h20q2 2 14 12zM183 34l6 11l-6 2l-6 -11zM312 1024q-18 -7 -29 -30q-18 -7 -27 -3q-5 3 -6 7t0 7l2 3q-7 -2 -8 -10 q-5 -16 -6 -17q-7 10 -15 8q-2 -2 1.5 -14.5t3.5 -13.5q-11 11 -14 31q-15 -18 -62 -3q2 21 13 42q16 31 34 44q19 -1 60 8q1 0 1 -5.5t2 -12t7 -9.5q25 -14 43 -32zM128 900l-11 -20l-10 5l11 20z" />
<glyph unicode="&#xe0;" horiz-adv-x="491" d="M138 152l-2 7l-15 -5v-7zM60 105l-2 6l-10 -5v-6zM71 94q-7 0 -23 -18l12 -1q4 0 6.5 9.5t4.5 9.5zM90 35q-41 31 -44 36q-4 -2 -25 -11q1 0 3 -1t3 -1q3 0 9 2t8 2l7 -7q-1 -2 -8 -8t-9 -9q23 -22 28 -28q22 10 28 25zM475 52q-14 5 -28 62q-3 13 -8 37t-7 37l-121 516 q-24 102 -48 102q-25 0 -56 -10q-43 -14 -56 -17q-2 -22 -16 -72t-14 -68q0 -8 13 -21q-13 -4 -22 -27q17 -5 17 -12q0 -3 -4 -8q-11 -33 -13 -41q13 0 17 -4v-33q-26 -18 -34 -26q7 -23 9 -33q6 0 10 4q3 -3 3 -5l-1 -5l-6 -7q-4 4 -15 4q3 -6 10 -13q6 3 13 7.5t9 5.5 l7 -6q-7 -9 -8 -11v1q-1 1 -2.5 2t-5.5 1q-6 0 -6 -4l-2 -9q-3 3 -8 7.5t-6 5.5q4 -15 9 -23q2 5 5 6l6 -6q-16 -11 -30 -17q6 -6 12 -7q-1 9 3 13q4 -2 8.5 -6t6.5 -5q-17 -8 -17 -33q0 -9 3 -15l-7 -10h1q33 -19 33 -24q-1 -2 -3.5 -5.5t-3.5 -5.5q-4 2 -11 7q-8 5 -11 5 q-2 -6 -5 -10q4 -4 16 -12q10 -7 14 -14q-12 -12 -12 -14q3 0 11 -5q-1 13 3 17q3 -3 8 -6.5t7 -4.5q-7 -7 -7 -10q4 2 6 2q5 0 10 -5q-8 -8 -8 -14q2 0 10 8q3 -3 3 -5l-1 -5q-12 -14 -12 -16q4 0 18.5 -1.5t19.5 -1.5q7 -6 7 -11q0 -2 -2 -9t-2 -9q0 -3 2 -11q7 6 10 13 q7 -5 16 -5q7 0 12 1q-3 16 7 29q10 -15 39 -25l3 -2l-1 -3l-2 -3q0 -1 4 -1q5 0 5 2l-1 1q0 1 5 1q4 0 9.5 -6.5t7.5 -6.5q4 0 7 4.5t6 4.5q25 0 35 -60q13 -71 16 -77q10 -19 35 -19q5 2 5 3q0 6 4 6q2 0 4 -2q-1 -7 3 -7q3 0 5 2.5t5 2.5t6 -4.5t7 -4.5q16 0 32 10l1 5 q2 40 4 44zM109 487l-5 12l-7 -2l6 -10h6zM317 167v15h-8v-15h8zM265 171l-6 13l-6 -3l5 -10h7zM92 335v12h-8v-12h8zM156 262l-4 4l-11 -10l4 -5zM105 242l-6 2l-6 -11l6 -3zM46 182v7h-16v-7h16zM62 154l-6 4l-10 -15l5 -4zM247 526l-11 -11l-4 5l11 10zM130 604l-11 -11 l-4 5l11 10zM125 457q-15 0 -16 -1q0 16 7 16q0 -6 9 -15zM302 296q0 -18 -16 -37q-15 -20 -31 -20q-8 0 -32 4.5t-30 4.5l-10 -9l-19 11l8 9q-9 8 -25 21q17 17 33 112q14 81 49 81q28 0 53 -76q20 -65 20 -101zM129 341q-23 -13 -24 -13q8 11 13 19q9 -5 11 -6zM168 223 q-19 12 -26 20h17q0 -11 9 -20zM137 197q-6 -1 -11 4q-3 -3 -3 -6l1 -7q1 2 -1.5 3t-8.5 1t-10 -4q-7 -7 -9 -7q7 -7 8 -7l12 5q3 -11 3 -15q0 -7 -6 -10q10 -21 12 -27l-10 9q-10 -10 -41 -12q22 19 22 26l-4 1q-5 0 -12 -7q-1 6 -6 11q8 6 13 8q-16 7 -26 9q3 3 9 3l9 -1 q6 10 6 19v29q0 -2 5.5 -12t5.5 -14q0 -3 -1 -5h11l7 8q-10 19 -13 22q34 -16 38 -24zM99 970q7 24 23 48q5 7 0.5 17t-3.5 11q39 10 57 21q20 -3 107 -63q23 -17 31 -32q-34 -34 -56 -25q7 -19 2 -34q-1 1 -4 13t-5 14q-7 -2 -9 -15l-13 13q-7 8 -12 6l5 -6q4 -5 -1 -12 q-7 -9 -25 -9q-8 7 -50 30q-41 23 -47 23z" />
<glyph unicode="&#xe1;" horiz-adv-x="491" d="M136 159l2 -7l-17 -5v7zM58 111l2 -6l-12 -5v6zM71 94q-2 0 -4.5 -9.5t-6.5 -9.5l-12 1q16 18 23 18zM90 35q-6 -15 -28 -25q-5 6 -28 28q2 3 9 9t8 8l-7 7q-2 0 -8 -2t-9 -2l-6 2q21 9 25 11q3 -5 44 -36zM475 52q-2 -4 -4 -44l-1 -5q-16 -10 -32 -10q-4 0 -7 4.5 t-6 4.5t-5 -2.5t-5 -2.5q-4 0 -3 7q-2 2 -4 2q-4 0 -4 -6q0 -1 -5 -3q-25 0 -35 19q-3 6 -16 77q-10 60 -35 60q-3 0 -6 -4.5t-7 -4.5q-2 0 -7.5 6.5t-9.5 6.5q-5 0 -5 -1l1 -1q0 -2 -5 -2q-4 0 -4 1l2 3l1 3l-3 2q-29 10 -39 25q-10 -13 -7 -29q-5 -1 -12 -1q-9 0 -16 5 q-3 -7 -10 -13q-2 8 -2 11q0 2 2 9t2 9q0 5 -7 11q-5 0 -19.5 1.5t-18.5 1.5q0 2 12 16l1 5q0 2 -3 5q-8 -8 -10 -8q0 6 8 14q-5 5 -10 5q-2 0 -6 -2q0 3 7 10q-2 1 -7 4.5t-8 6.5q-4 -4 -3 -17q-8 5 -11 5q0 2 12 14q-4 7 -14 14q-12 8 -16 12q3 4 5 10q3 0 11 -5l11 -7 l3 6q3 3 4 5q0 5 -33 24h-1q2 3 7 10q-3 6 -3 15q0 25 17 33q-2 1 -6.5 5t-8.5 6q-4 -4 -3 -13q-6 1 -12 7q14 6 30 17l-6 6q-3 -1 -5 -6q-5 8 -9 23q1 -1 6 -5.5t8 -7.5l2 9q0 4 6 4q4 0 5.5 -1t2.5 -2v-1q1 2 8 11l-7 6q-2 -1 -9 -5.5t-13 -7.5q-7 7 -10 13q11 0 15 -4 l6 7l1 5q0 2 -3 5q-4 -4 -10 -4q-2 10 -9 33q8 8 34 26v33q-4 4 -17 4q2 8 13 41q4 5 4 8q0 7 -17 12q9 23 22 27q-13 13 -13 21q0 18 14 68t16 72q13 3 56 17q31 10 56 10q24 0 48 -102l121 -516q2 -13 7 -37t8 -37q14 -57 28 -62zM104 499l5 -12h-6l-6 10zM317 167v15h-8 v-15h8zM265 171l-6 13l-6 -3l5 -10h7zM92 347v-12h-8v12h8zM156 262l-4 4l-11 -10l4 -5zM99 244l6 -2l-6 -12l-6 3zM46 189v-7h-16v7h16zM56 158l6 -4l-11 -15l-5 4zM236 515l11 11l-4 4l-11 -10zM119 593l11 11l-4 4l-11 -10zM125 457q-9 9 -9 15q-7 0 -7 -16q1 1 16 1z M302 296q0 36 -20 101q-25 76 -53 76q-35 0 -49 -81q-16 -95 -33 -112q16 -13 25 -21l-8 -9l19 -11l10 9q6 0 30 -4.5t32 -4.5q16 0 31 20q16 19 16 37zM129 341q-2 1 -11 6q-5 -8 -13 -19q1 0 24 13zM168 223q-9 9 -9 20h-17q7 -8 26 -20zM137 197q-6 -1 -11 4q-3 -3 -3 -6 l1 -7q1 2 -1.5 3t-8.5 1t-10 -4q-7 -7 -9 -7q7 -7 8 -7l12 5q3 -11 3 -15q0 -7 -6 -10q10 -21 12 -27l-10 9q-10 -10 -41 -12q22 19 22 26l-4 1q-5 0 -12 -7q-1 6 -6 11q8 6 13 8q-16 7 -26 9q3 3 9 3l9 -1q6 10 6 19v29q0 -2 5.5 -12t5.5 -14q0 -3 -1 -5h11l7 8 q-10 19 -13 22q34 -16 38 -24zM366 992q-18 -7 -29 -30q-18 -7 -27 -3q-5 3 -6 7t0 7l2 3q-7 -2 -8 -10q-5 -16 -6 -17q-7 10 -15 8q-2 -2 1.5 -14.5t3.5 -13.5q-11 11 -14 31q-15 -18 -62 -3q2 21 13 42q16 31 34 44q19 -1 60 8q1 0 1 -5.5t2 -12t7 -9.5q25 -14 43 -32z M182 868l-11 -20l-10 5l11 20z" />
<glyph unicode="&#xe2;" horiz-adv-x="491" d="M136 159l2 -7l-17 -5v7zM58 111l2 -6l-12 -5v6zM71 94q-2 0 -4.5 -9.5t-6.5 -9.5l-12 1q16 18 23 18zM90 35q-6 -15 -28 -25q-5 6 -28 28q2 3 9 9t8 8l-7 7q-2 0 -8 -2t-9 -2l-6 2q21 9 25 11q3 -5 44 -36zM475 52q-2 -4 -4 -44l-1 -5q-16 -10 -32 -10q-4 0 -7 4.5 t-6 4.5t-5 -2.5t-5 -2.5q-4 0 -3 7q-2 2 -4 2q-4 0 -4 -6q0 -1 -5 -3q-25 0 -35 19q-3 6 -16 77q-10 60 -35 60q-3 0 -6 -4.5t-7 -4.5q-2 0 -7.5 6.5t-9.5 6.5q-5 0 -5 -1l1 -1q0 -2 -5 -2q-4 0 -4 1l2 3l1 3l-3 2q-29 10 -39 25q-10 -13 -7 -29q-5 -1 -12 -1q-9 0 -16 5 q-3 -7 -10 -13q-2 8 -2 11q0 2 2 9t2 9q0 5 -7 11q-5 0 -19.5 1.5t-18.5 1.5q0 2 12 16l1 5q0 2 -3 5q-8 -8 -10 -8q0 6 8 14q-5 5 -10 5q-2 0 -6 -2q0 3 7 10q-2 1 -7 4.5t-8 6.5q-4 -4 -3 -17q-8 5 -11 5q0 2 12 14q-4 7 -14 14q-12 8 -16 12q3 4 5 10q3 0 11 -5l11 -7 l3 6q3 3 4 5q0 5 -33 24h-1q2 3 7 10q-3 6 -3 15q0 25 17 33q-2 1 -6.5 5t-8.5 6q-4 -4 -3 -13q-6 1 -12 7q14 6 30 17l-6 6q-3 -1 -5 -6q-5 8 -9 23q1 -1 6 -5.5t8 -7.5l2 9q0 4 6 4q4 0 5.5 -1t2.5 -2v-1q1 2 8 11l-7 6q-2 -1 -9 -5.5t-13 -7.5q-7 7 -10 13q11 0 15 -4 l6 7l1 5q0 2 -3 5q-4 -4 -10 -4q-2 10 -9 33q8 8 34 26v33q-4 4 -17 4q2 8 13 41q4 5 4 8q0 7 -17 12q9 23 22 27q-13 13 -13 21q0 18 14 68t16 72q13 3 56 17q31 10 56 10q24 0 48 -102l121 -516q2 -13 7 -37t8 -37q14 -57 28 -62zM104 499l5 -12h-6l-6 10zM317 167v15h-8 v-15h8zM265 171l-6 13l-6 -3l5 -10h7zM92 347v-12h-8v12h8zM156 262l-4 4l-11 -10l4 -5zM99 244l6 -2l-6 -12l-6 3zM46 189v-7h-16v7h16zM56 158l6 -4l-11 -15l-5 4zM236 515l11 11l-4 4l-11 -10zM119 593l11 11l-4 4l-11 -10zM125 457q-9 9 -9 15q-7 0 -7 -16q1 1 16 1z M302 296q0 36 -20 101q-25 76 -53 76q-35 0 -49 -81q-16 -95 -33 -112q16 -13 25 -21l-8 -9l19 -11l10 9q6 0 30 -4.5t32 -4.5q16 0 31 20q16 19 16 37zM129 341q-2 1 -11 6q-5 -8 -13 -19q1 0 24 13zM168 223q-9 9 -9 20h-17q7 -8 26 -20zM137 197q-6 -1 -11 4q-3 -3 -3 -6 l1 -7q1 2 -1.5 3t-8.5 1t-10 -4q-7 -7 -9 -7q7 -7 8 -7l12 5q3 -11 3 -15q0 -7 -6 -10q10 -21 12 -27l-10 9q-10 -10 -41 -12q22 19 22 26l-4 1q-5 0 -12 -7q-1 6 -6 11q8 6 13 8q-16 7 -26 9q3 3 9 3l9 -1q6 10 6 19v29q0 -2 5.5 -12t5.5 -14q0 -3 -1 -5h11l7 8 q-10 19 -13 22q34 -16 38 -24zM266 1136q21 -6 27 -11t13 -25t16 -37q14 -14 28 -33q2 -15 12 -43q42 -64 76 -125q-5 -3 -11.5 -5.5t-12 -4t-12.5 -2.5t-11 -1.5t-9 -1l-5 -0.5q-16 0 -43 8.5t-29 16.5q-10 31 -10 45v2v20q-2 2 -55 46q-12 -6 -18 -14q-14 0 -35 -23l-8 -5 q3 -1 3 -4v-30q-9 -5 -25 -35q-12 -24 -43 -24q-50 0 -65 3h-6q-6 5 -14 16q23 37 52 87q31 53 64 110q28 50 28 56q12 17 55 17q18 0 38 -3z" />
<glyph unicode="&#xe3;" horiz-adv-x="491" d="M136 159l2 -7l-17 -5v7zM58 111l2 -6l-12 -5v6zM71 94q-2 0 -4.5 -9.5t-6.5 -9.5l-12 1q16 18 23 18zM90 35q-6 -15 -28 -25q-5 6 -28 28q2 3 9 9t8 8l-7 7q-2 0 -8 -2t-9 -2l-6 2q21 9 25 11q3 -5 44 -36zM475 52q-2 -4 -4 -44l-1 -5q-16 -10 -32 -10q-4 0 -7 4.5 t-6 4.5t-5 -2.5t-5 -2.5q-4 0 -3 7q-2 2 -4 2q-4 0 -4 -6q0 -1 -5 -3q-25 0 -35 19q-3 6 -16 77q-10 60 -35 60q-3 0 -6 -4.5t-7 -4.5q-2 0 -7.5 6.5t-9.5 6.5q-5 0 -5 -1l1 -1q0 -2 -5 -2q-4 0 -4 1l2 3l1 3l-3 2q-29 10 -39 25q-10 -13 -7 -29q-5 -1 -12 -1q-9 0 -16 5 q-3 -7 -10 -13q-2 8 -2 11q0 2 2 9t2 9q0 5 -7 11q-5 0 -19.5 1.5t-18.5 1.5q0 2 12 16l1 5q0 2 -3 5q-8 -8 -10 -8q0 6 8 14q-5 5 -10 5q-2 0 -6 -2q0 3 7 10q-2 1 -7 4.5t-8 6.5q-4 -4 -3 -17q-8 5 -11 5q0 2 12 14q-4 7 -14 14q-12 8 -16 12q3 4 5 10q3 0 11 -5l11 -7 l3 6q3 3 4 5q0 5 -33 24h-1q2 3 7 10q-3 6 -3 15q0 25 17 33q-2 1 -6.5 5t-8.5 6q-4 -4 -3 -13q-6 1 -12 7q14 6 30 17l-6 6q-3 -1 -5 -6q-5 8 -9 23q1 -1 6 -5.5t8 -7.5l2 9q0 4 6 4q4 0 5.5 -1t2.5 -2v-1q1 2 8 11l-7 6q-2 -1 -9 -5.5t-13 -7.5q-7 7 -10 13q11 0 15 -4 l6 7l1 5q0 2 -3 5q-4 -4 -10 -4q-2 10 -9 33q8 8 34 26v33q-4 4 -17 4q2 8 13 41q4 5 4 8q0 7 -17 12q9 23 22 27q-13 13 -13 21q0 18 14 68t16 72q13 3 56 17q31 10 56 10q24 0 48 -102l121 -516q2 -13 7 -37t8 -37q14 -57 28 -62zM104 499l5 -12h-6l-6 10zM317 167v15h-8 v-15h8zM265 171l-6 13l-6 -3l5 -10h7zM92 347v-12h-8v12h8zM156 262l-4 4l-11 -10l4 -5zM99 244l6 -2l-6 -12l-6 3zM46 189v-7h-16v7h16zM56 158l6 -4l-11 -15l-5 4zM236 515l11 11l-4 4l-11 -10zM119 593l11 11l-4 4l-11 -10zM125 457q-9 9 -9 15q-7 0 -7 -16q1 1 16 1z M302 296q0 36 -20 101q-25 76 -53 76q-35 0 -49 -81q-16 -95 -33 -112q16 -13 25 -21l-8 -9l19 -11l10 9q6 0 30 -4.5t32 -4.5q16 0 31 20q16 19 16 37zM129 341q-2 1 -11 6q-5 -8 -13 -19q1 0 24 13zM168 223q-9 9 -9 20h-17q7 -8 26 -20zM137 197q-6 -1 -11 4q-3 -3 -3 -6 l1 -7q1 2 -1.5 3t-8.5 1t-10 -4q-7 -7 -9 -7q7 -7 8 -7l12 5q3 -11 3 -15q0 -7 -6 -10q10 -21 12 -27l-10 9q-10 -10 -41 -12q22 19 22 26l-4 1q-5 0 -12 -7q-1 6 -6 11q8 6 13 8q-16 7 -26 9q3 3 9 3l9 -1q6 10 6 19v29q0 -2 5.5 -12t5.5 -14q0 -3 -1 -5h11l7 8 q-10 19 -13 22q34 -16 38 -24z" />
<glyph unicode="&#xe4;" horiz-adv-x="503" d="M411 934q0 -9 -12 -20t-21 -11q-12 0 -28 19q-15 19 -15 32q0 29 38 29t38 -49zM121 942q0 -5 -8 -21q-8 -15 -11 -24q-1 0 -10 6.5t-14 6.5q-3 0 -6 -2t-7 -2q-13 0 -22 19q-7 15 -7 32q0 6 17 20q19 14 25 14q19 0 33 -23q10 -17 10 -26zM480 12q0 -5 -5 -14.5 t-5 -10.5q-4 4 -32 18q-3 -4 -3 -13q-2 0 -7.5 1.5t-8 2.5t-7 2.5t-6.5 3.5t-3.5 5t-1.5 7q-3 -2 -10 -5q-1 0 -2 -1q-2 -3 4 -10q-6 6 -14 9q-1 19 -20 44q-18 25 -28 25q-4 0 -2.5 -4t-2.5 -4t-19 4t-19 4q-2 0 -13 -4t-16 -4q-2 0 -8.5 4t-11.5 4h-1q-1 0 -4 -0.5 t-7.5 -1t-11.5 -1t-14.5 -1t-17.5 -1.5t-21 -2q-1 0 -2.5 -5t-6.5 -5q-4 0 -11 -2.5t-10 -2.5q-4 0 -16 3t-13 3q0 6 -4 13q-8 -2 -18 8q-3 -1 -1 -20q-7 -4 -18 -20q0 6 12 24q-19 10 -40 3q7 10 7 11q0 4 -4 13l6 42q4 28 22 47q-4 3 -8 3q35 160 90 426q10 32 22 98 q-1 19 5 63q2 8 16.5 16t24.5 8q3 0 5 -4.5t6 -4.5t7 4.5t6 4.5q5 0 24 -8q26 -10 29 -11l-2 -8q-1 -8 -1 -10q10 -16 11 -18q-3 -8 -3 -20q0 -22 12 -56q5 -13 8 -14q3 -11 11 -34t11 -35q12 -39 8 -64q5 -5 11 -18q-3 -13 -2 -31q0 -1 29 -67q-2 -10 -2 -23q9 -39 33 -120 q3 -32 13 -76q17 -40 35 -112q-1 -6 -6 -22q3 -3 13 -3q0 -3 4.5 -16t4.5 -17zM123 35q-10 -13 -20 -32q-16 -9 -41 -20q-6 1 -6 11q0 6 13 19q15 15 18 17q-7 7 -7 11q9 -9 19 -9q4 0 13 1.5t11 1.5zM346 208q0 7 -11 27q-12 22 -13 27q-9 39 -35 139q-9 24 -19 29 q-4 4 -20 4q-13 0 -17 -2q-8 -4 -35 -35q-8 -43 -21 -117q-7 -15 -15 -40q2 -10 2 -17q-3 -7 -12 -14l7.5 -15t10.5 -22t11 -24q0 5 4 6q4 3 7 0q5 -8 3 -20q0 9 -10 9q-8 0 -18 -22q-3 1 -11 8v14l-11 -9l-7 8q0 12 10 22q-11 8 -30 8q4 0 6 -3q2 -5 -5 -8q-8 10 -14 32 q-6 -39 -11 -84q11 -11 27 -17q-4 -4 -4 -10q4 0 8 4q17 13 34 13q3 0 4 -2.5t5 -2.5q16 0 60 29q-2 1 -5 8t-5 8q-5 0 -10 -5q-3 3 -3 10q9 3 20 2l18 -3q4 0 8 3.5t7 7.5l2 3q9 -9 9 -18q8 5 43 14q2 14 12 14q1 6 7 14.5t10 8.5v5q0 1 3.5 4.5t3.5 8.5zM149 282 q0 3 -10 13q-10 -10 -10 -17q4 4 20 4zM197 127l11 -6l-2 -6l-12 6zM187 129v-21h-8v21h8z" />
<glyph unicode="&#xe6;" horiz-adv-x="777" d="M136 159l2 -7l-17 -5v7zM58 111l2 -6l-12 -5v6zM71 94q-2 0 -4.5 -9.5t-6.5 -9.5l-12 1q16 18 23 18zM90 35q-6 -15 -28 -25q-5 6 -28 28q2 3 9 9t8 8l-7 7q-2 0 -8 -2t-9 -2l-6 2q21 9 25 11q3 -5 44 -36zM475 52q-2 -4 -4 -44l-1 -5q-16 -10 -32 -10q-4 0 -7 4.5 t-6 4.5t-5 -2.5t-5 -2.5q-4 0 -3 7q-2 2 -4 2q-4 0 -4 -6q0 -1 -5 -3q-25 0 -35 19q-3 6 -16 77q-10 60 -35 60q-3 0 -6 -4.5t-7 -4.5q-2 0 -7.5 6.5t-9.5 6.5q-5 0 -5 -1l1 -1q0 -2 -5 -2q-4 0 -4 1l2 3l1 3l-3 2q-29 10 -39 25q-10 -13 -7 -29q-5 -1 -12 -1q-9 0 -16 5 q-3 -7 -10 -13q-2 8 -2 11q0 2 2 9t2 9q0 5 -7 11q-5 0 -19.5 1.5t-18.5 1.5q0 2 12 16l1 5q0 2 -3 5q-8 -8 -10 -8q0 6 8 14q-5 5 -10 5q-2 0 -6 -2q0 3 7 10q-2 1 -7 4.5t-8 6.5q-4 -4 -3 -17q-8 5 -11 5q0 2 12 14q-4 7 -14 14q-12 8 -16 12q3 4 5 10q3 0 11 -5l11 -7 l3 6q3 3 4 5q0 5 -33 24h-1q2 3 7 10q-3 6 -3 15q0 25 17 33q-2 1 -6.5 5t-8.5 6q-4 -4 -3 -13q-6 1 -12 7q14 6 30 17l-6 6q-3 -1 -5 -6q-5 8 -9 23q1 -1 6 -5.5t8 -7.5l2 9q0 4 6 4q4 0 5.5 -1t2.5 -2v-1q1 2 8 11l-7 6q-2 -1 -9 -5.5t-13 -7.5q-7 7 -10 13q11 0 15 -4 l6 7l1 5q0 2 -3 5q-4 -4 -10 -4q-2 10 -9 33q8 8 34 26v33q-4 4 -17 4q2 8 13 41q4 5 4 8q0 7 -17 12q9 23 22 27q-13 13 -13 21q0 18 14 68t16 72q13 3 56 17q31 10 56 10q24 0 48 -102l121 -516q2 -13 7 -37t8 -37q14 -57 28 -62zM104 499l5 -12h-6l-6 10zM317 167v15h-8 v-15h8zM265 171l-6 13l-6 -3l5 -10h7zM92 347v-12h-8v12h8zM156 262l-4 4l-11 -10l4 -5zM99 244l6 -2l-6 -12l-6 3zM46 189v-7h-16v7h16zM56 158l6 -4l-11 -15l-5 4zM236 515l11 11l-4 4l-11 -10zM119 593l11 11l-4 4l-11 -10zM125 457q-9 9 -9 15q-7 0 -7 -16q1 1 16 1z M302 296q0 36 -20 101q-25 76 -53 76q-35 0 -49 -81q-16 -95 -33 -112q16 -13 25 -21l-8 -9l19 -11l10 9q6 0 30 -4.5t32 -4.5q16 0 31 20q16 19 16 37zM129 341q-2 1 -11 6q-5 -8 -13 -19q1 0 24 13zM168 223q-9 9 -9 20h-17q7 -8 26 -20zM137 197q-6 -1 -11 4q-3 -3 -3 -6 l1 -7q1 2 -1.5 3t-8.5 1t-10 -4q-7 -7 -9 -7q7 -7 8 -7l12 5q3 -11 3 -15q0 -7 -6 -10q10 -21 12 -27l-10 9q-10 -10 -41 -12q22 19 22 26l-4 1q-5 0 -12 -7q-1 6 -6 11q8 6 13 8q-16 7 -26 9q3 3 9 3l9 -1q6 10 6 19v29q0 -2 5.5 -12t5.5 -14q0 -3 -1 -5h11l7 8 q-10 19 -13 22q34 -16 38 -24zM532 16l-10 12q-7 0 -7 -13zM512 13q-4 0 -4 7q0 3 2 7q-5 0 -13 -5q9 -9 15 -9zM745 49q-3 -2 -12 -11q-5 -28 -9 -35q-7 -19 -28 -19q-4 0 -18.5 6.5t-18.5 6.5q-5 0 -14 -9l-9 9q-14 -2 -22 -2q-10 0 -38 5q-26 6 -37 6q-7 0 -5 -11 q0 2 -9 11q-14 -13 -37 -13q-1 0 -3.5 0.5t-7.5 1t-10 0.5q-10 1 -22 -1l1 2q0 6 -9 6q-4 0 -6.5 -4.5t-4.5 -4.5t-17 4.5t-22 4.5l-19 583q-2 51 -7 98q-6 60 -6 61q0 16 18 49q6 3 24 3q27 1 103 3.5t114 3.5q5 0 24 3t25 3q37 0 50 -19q10 -14 10 -55q0 -28 -10.5 -39.5 t-37.5 -11.5q-10 0 -90 2q-60 3 -90 3q-12 0 -25 -25q-13 -23 -13 -35q0 -6 7 -9q3 -24 3 -84q0 -7 -5 -14q4 -12 4 -47q8 -8 11 -8t8 2.5t7 2.5q4 0 14 -7t13 -7q6 0 60 2q41 3 60 3q27 0 27 -47q0 -39 -4 -46q-8 -18 -37 -18q-8 0 -35.5 2t-35.5 2q-9 0 -36 -7 q-28 -6 -33 -11q-5 -4 -12 -39q-7 -32 -7 -40q4 -7 4 -22q0 -19 -10 -56v-2q0 -1 -1.5 -7.5t-1.5 -8.5q0 -8 7 -26q8 -19 9 -27l-8 -5v-16l7 -3q1 1 1 4q0 2 -1 7t-1 6h16q4 -4 13 -40q4 2 5 9.5t2 8.5q2 0 3 -7q1 -10 3 -10l9 8v-5q0 -8 4 -12q4 1 15 6l-8 3v17q4 0 22 18 v-21q0 -4 2 -10q3 3 8 16q30 9 36 24q9 -18 18 -18q3 0 7.5 2t8.5 5t5 3q24 8 63 8q15 0 24 -28t18 -31zM453 31l-4 -4l-7 7l5 4z" />
<glyph unicode="&#xe7;" horiz-adv-x="398" d="M276 43q-5 -5 -9 -53q-5 -49 -4 -57q-11 -15 -22 -15q-7 0 -9 6l-2 7q-4 -2 -2 -13q3 -15 3 -18q-13 7 -17 1q-1 -4 5 -10q11 -11 12 -13q-13 4 -27 21q-4 -22 -53 -31q-8 18 -8 44q0 103 8 124q17 7 51 34l6 -9q7 -9 14 -9q28 0 54 -9zM373 131q0 -4 -1 -8.5t-2 -7.5 l-1 -3v-6q-9 -10 -39 -54q-23 -33 -40 -41q-39 -18 -102 -18q-4 0 -43 17q-38 18 -46 23q-12 8 -25 35q-6 5 -23 26q-11 27 -13 68v83q0 6 1 13v17q-2 11 -5 17q-1 4 6 14q0 10 1 31q1 15 -1 34q-1 18 -12 29q8 2 12 -2l3 2q3 2 7 5t6 4q-2 0 -6 -4q-2 -3 3 -11l3 2 q2 3 5.5 6t5.5 4q0 14 -9 14q-10 0 -17 -3q5 5 -4 13q0 1 3 3.5t7.5 5.5t6.5 5q-4 4 -17 3q-2 21 2 40l-1 3q-2 3 -4 5q-1 8 -1 24q2 15 13 25v24q-10 10 -13 8q8 13 8 19q0 3 -6.5 11.5t-6.5 14.5q0 31 14 82q7 25 31 51q41 43 77 44q7 -1 23 4q32 2 64 2q13 0 36 -18 q25 -19 43 -23q3 -4 14.5 -19.5t19.5 -26.5q15 -21 15 -57q0 -18 -15.5 -29.5t-34.5 -11.5q-17 0 -53 18q2 6 2 9q0 20 -32 41q-26 18 -38 18q-9 0 -13 -4l-8 8q-7 -7 -18 -24q-4 1 -13.5 -6.5t-13.5 -15.5q-9 -19 -9 -49q0 -7 7 -57q5 -39 8 -76q-2 -14 -1 -76 q0 -19 -1 -39q-2 -28 0 -45q2 -29 5 -41q-9 -26 -9 -63q0 -46 13 -99q31 -17 47 -17q17 0 27 5q26 15 26 39q0 5 -1 7q6 0 18.5 13.5t17.5 14.5q17 3 65 3q14 0 31 -32q1 -2 1 -20zM272 706h8v16h-8v-16zM85 440h20v8h-20v-8zM101 406q-3 0 -10 -7q-8 8 -15 8q0 -2 5 -11 t5 -10q1 2 7.5 10t7.5 10zM71 378q-5 5 -19 5q4 0 4 -10q5 5 15 5zM65 328l2 6l-11 6l-2 -7zM71 251l6 12l-6 2l-6 -11z" />
<glyph unicode="&#xe8;" d="M213 16l-10 12q-7 0 -7 -13zM193 13q-4 0 -4 7q0 3 2 7q-5 0 -13 -5q9 -9 15 -9zM426 49q-9 3 -18 31t-24 28q-39 0 -63 -8q-1 0 -5 -3t-8.5 -5t-7.5 -2q-9 0 -18 18q-6 -15 -36 -24q-5 -13 -8 -16q-2 6 -2 10v21q-18 -18 -22 -18v-17l8 -3q-10 -5 -15 -6q-4 4 -4 12v5 l-9 -8q-2 0 -3 10q-1 7 -3 7q-1 -1 -2 -8.5t-5 -9.5q-9 36 -13 40h-16q0 -1 1 -6t1 -7q0 -3 -1 -4l-7 3v16l8 5q-2 8 -9 27q-7 18 -7 26q0 2 1.5 8.5t1.5 7.5v2q10 37 10 56l-4 22q0 8 7 40q8 35 12 39q5 5 33 11q27 7 36 7q8 0 35.5 -2t35.5 -2q30 0 37 18q4 7 4 46 q0 47 -27 47q-20 0 -60 -3q-54 -2 -60 -2q-3 0 -13 7t-14 7q-3 0 -8 -2.5t-7 -2.5q-3 0 -11 8q0 35 -4 47q5 7 5 14q0 60 -3 84q-7 3 -7 9q0 12 13 35q13 25 25 25q30 0 90 -3q80 -2 90 -2q27 0 37.5 11.5t10.5 39.5q0 41 -10 55q-13 19 -50 19q-6 0 -25 -3t-24 -3 q-38 -1 -114 -3.5t-103 -3.5q-18 0 -24 -3q-18 -33 -18 -49q0 -1 6 -61q5 -47 7 -98l19 -583q8 0 23 -4.5t16 -4.5q2 0 4.5 4.5t6.5 4.5q9 0 9 -6l-1 -2q12 2 22 1q5 0 10 -0.5t7.5 -1t3.5 -0.5q23 0 37 13q9 -9 9 -11q-2 11 5 11q12 0 37 -6q28 -5 38 -5q8 0 22 2l9 -9 q9 9 14 9q4 0 18.5 -6.5t18.5 -6.5q21 0 28 19q4 7 9 35q9 9 12 11zM134 31l-4 -4l-7 7l5 4zM109 933q7 24 23 48q5 7 0.5 17t-3.5 11q39 11 57 21q20 -3 107 -63q23 -17 31 -32q-34 -34 -56 -25q7 -19 2 -34q-1 1 -4 13t-5 14q-7 -1 -9 -15l-13 13q-7 7 -12 6l5 -5 q4 -6 -1 -13q-7 -9 -25 -9q-8 7 -50 30q-41 23 -47 23z" />
<glyph unicode="&#xe9;" d="M213 16l-10 12q-7 0 -7 -13zM193 13q-4 0 -4 7q0 3 2 7q-5 0 -13 -5q9 -9 15 -9zM426 49q-3 -2 -12 -11q-5 -28 -9 -35q-7 -19 -28 -19q-4 0 -18.5 6.5t-18.5 6.5q-5 0 -14 -9l-9 9q-14 -2 -22 -2q-10 0 -38 5q-25 6 -37 6q-7 0 -5 -11q0 2 -9 11q-14 -13 -37 -13 q-1 0 -3.5 0.5t-7.5 1t-10 0.5q-10 1 -22 -1l1 2q0 6 -9 6q-4 0 -6.5 -4.5t-4.5 -4.5q-1 0 -16 4.5t-23 4.5l-19 583q-2 51 -7 98q-6 60 -6 61q0 16 18 49q6 3 24 3q27 1 103 3.5t114 3.5q5 0 24 3t25 3q37 0 50 -19q10 -14 10 -55q0 -28 -10.5 -39.5t-37.5 -11.5 q-10 0 -90 2q-60 3 -90 3q-12 0 -25 -25q-13 -23 -13 -35q0 -6 7 -9q3 -24 3 -84q0 -7 -5 -14q4 -12 4 -47q8 -8 11 -8q2 0 7 2.5t8 2.5q4 0 14 -7t13 -7q6 0 60 2q40 3 60 3q27 0 27 -47q0 -39 -4 -46q-7 -18 -37 -18q-8 0 -35.5 2t-35.5 2q-9 0 -36 -7q-28 -6 -33 -11 q-4 -4 -12 -39q-7 -32 -7 -40q4 -7 4 -22q0 -19 -10 -56v-2q0 -1 -1.5 -7.5t-1.5 -8.5q0 -8 7 -26q7 -19 9 -27l-8 -5v-16l7 -3q1 1 1 4q0 2 -1 7t-1 6h16q4 -4 13 -40q4 2 5 9.5t2 8.5q2 0 3 -7q1 -10 3 -10l9 8v-5q0 -8 4 -12q5 1 15 6l-8 3v17q4 0 22 18v-21q0 -4 2 -10 q3 3 8 16q30 9 36 24q9 -18 18 -18q3 0 7.5 2t8.5 5t5 3q24 8 63 8q15 0 24 -28t18 -31zM130 27l4 4l-6 7l-5 -4zM347 995q-18 -7 -29 -30q-18 -7 -27 -3q-5 3 -6 7t1 7l1 3q-7 -2 -8 -10q-5 -16 -6 -17q-7 10 -15 8q-2 -2 1.5 -14.5t3.5 -13.5q-11 11 -14 31 q-15 -18 -62 -3q2 21 13 42q16 31 34 44q19 -1 60 8q1 0 1 -5.5t2 -12t7 -9.5q25 -14 43 -32zM163 871l-11 -20l-10 5l11 20z" />
<glyph unicode="&#xea;" d="M213 16l-10 12q-7 0 -7 -13zM193 13q-4 0 -4 7q0 3 2 7q-5 0 -13 -5q9 -9 15 -9zM426 49q-3 -2 -12 -11q-5 -28 -9 -35q-7 -19 -28 -19q-4 0 -18.5 6.5t-18.5 6.5q-5 0 -14 -9l-9 9q-14 -2 -22 -2q-10 0 -38 5q-25 6 -37 6q-7 0 -5 -11q0 2 -9 11q-14 -13 -37 -13 q-1 0 -3.5 0.5t-7.5 1t-10 0.5q-10 1 -22 -1l1 2q0 6 -9 6q-4 0 -6.5 -4.5t-4.5 -4.5q-1 0 -16 4.5t-23 4.5l-19 583q-2 51 -7 98q-6 60 -6 61q0 16 18 49q6 3 24 3q27 1 103 3.5t114 3.5q5 0 24 3t25 3q37 0 50 -19q10 -14 10 -55q0 -28 -10.5 -39.5t-37.5 -11.5 q-10 0 -90 2q-60 3 -90 3q-12 0 -25 -25q-13 -23 -13 -35q0 -6 7 -9q3 -24 3 -84q0 -7 -5 -14q4 -12 4 -47q8 -8 11 -8q2 0 7 2.5t8 2.5q4 0 14 -7t13 -7q6 0 60 2q40 3 60 3q27 0 27 -47q0 -39 -4 -46q-7 -18 -37 -18q-8 0 -35.5 2t-35.5 2q-9 0 -36 -7q-28 -6 -33 -11 q-4 -4 -12 -39q-7 -32 -7 -40q4 -7 4 -22q0 -19 -10 -56v-2q0 -1 -1.5 -7.5t-1.5 -8.5q0 -8 7 -26q7 -19 9 -27l-8 -5v-16l7 -3q1 1 1 4q0 2 -1 7t-1 6h16q4 -4 13 -40q4 2 5 9.5t2 8.5q2 0 3 -7q1 -10 3 -10l9 8v-5q0 -8 4 -12q5 1 15 6l-8 3v17q4 0 22 18v-21q0 -4 2 -10 q3 3 8 16q30 9 36 24q9 -18 18 -18q3 0 7.5 2t8.5 5t5 3q24 8 63 8q15 0 24 -28t18 -31zM130 27l4 4l-6 7l-5 -4zM262 1171q21 -6 27 -11t13 -25t16 -37q14 -14 28 -33q2 -15 12 -43q42 -64 76 -125q-5 -3 -11.5 -5.5t-12 -4t-12.5 -2.5t-11 -1.5t-9 -1l-5 -0.5 q-16 0 -43 8.5t-29 16.5q-10 31 -10 45v2v20q-2 2 -55 46q-12 -6 -18 -14q-14 0 -35 -23l-8 -5q3 -2 3 -4v-30q-9 -5 -25 -35q-12 -24 -43 -24q-50 0 -65 3h-6q-6 5 -14 16q23 37 52 87q31 53 64 110q28 50 28 56q12 17 55 17q18 0 38 -3z" />
<glyph unicode="&#xeb;" d="M398 951q0 -9 -12 -20t-21 -11q-12 0 -28 19q-15 19 -15 32q0 29 38 29t38 -49zM117 956q0 -5 -8 -21q-8 -15 -11 -24q-1 0 -10 6.5t-14 6.5q-3 0 -6 -2t-7 -2q-13 0 -22 19q-7 15 -7 32q0 6 17 20q19 14 25 14q19 0 33 -23q10 -17 10 -26zM213 16l-10 12q-7 0 -7 -13z M193 13q-4 0 -4 7q0 3 2 7q-5 0 -13 -5q9 -9 15 -9zM426 49q-3 -2 -12 -11q-5 -28 -9 -35q-7 -19 -28 -19q-4 0 -18.5 6.5t-18.5 6.5q-5 0 -14 -9l-9 9q-14 -2 -22 -2q-10 0 -38 5q-25 6 -37 6q-7 0 -5 -11q0 2 -9 11q-14 -13 -37 -13q-1 0 -3.5 0.5t-7.5 1t-10 0.5 q-10 1 -22 -1l1 2q0 6 -9 6q-4 0 -6.5 -4.5t-4.5 -4.5q-1 0 -16 4.5t-23 4.5l-19 583q-2 51 -7 98q-6 60 -6 61q0 16 18 49q6 3 24 3q27 1 103 3.5t114 3.5q5 0 24 3t25 3q37 0 50 -19q10 -14 10 -55q0 -28 -10.5 -39.5t-37.5 -11.5q-10 0 -90 2q-60 3 -90 3q-12 0 -25 -25 q-13 -23 -13 -35q0 -6 7 -9q3 -24 3 -84q0 -7 -5 -14q4 -12 4 -47q8 -8 11 -8q2 0 7 2.5t8 2.5q4 0 14 -7t13 -7q6 0 60 2q40 3 60 3q27 0 27 -47q0 -39 -4 -46q-7 -18 -37 -18q-8 0 -35.5 2t-35.5 2q-9 0 -36 -7q-28 -6 -33 -11q-4 -4 -12 -39q-7 -32 -7 -40q4 -7 4 -22 q0 -19 -10 -56v-2q0 -1 -1.5 -7.5t-1.5 -8.5q0 -8 7 -26q7 -19 9 -27l-8 -5v-16l7 -3q1 1 1 4q0 2 -1 7t-1 6h16q4 -4 13 -40q4 2 5 9.5t2 8.5q2 0 3 -7q1 -10 3 -10l9 8v-5q0 -8 4 -12q5 1 15 6l-8 3v17q4 0 22 18v-21q0 -4 2 -10q3 3 8 16q30 9 36 24q9 -18 18 -18 q3 0 7.5 2t8.5 5t5 3q24 8 63 8q15 0 24 -28t18 -31zM130 27l4 4l-6 7l-5 -4z" />
<glyph unicode="&#xec;" horiz-adv-x="213" d="M58 723l-6 13l-6 -2l5 -11h7zM168 372q-12 22 -15 36q3 4 3 12t-3 19q0 1 -1 7l-2 6q0 44 11 86q-12 2 -12 11q0 4 2.5 17.5t2.5 16.5q-6 2 -9 4v52q15 17 16 19l6 -2q-13 26 -13 43q-23 -2 -31 3l36 9q-6 11 -6 18q0 4 5 17t5 19q0 12 -8 22q12 12 12 15l-13 -8 q-13 8 -30 8q0 -5 -3 -8q-7 13 -20 13q-24 0 -33 -10q-5 -4 -16 -33q6 -3 12 -22t6 -29q0 1 -6 -15q2 -16 2 -19q0 -7 -7 -19t-7 -16q0 -2 6 -12.5t6 -20.5q0 -9 -3 -22q3 0 11 8q0 -1 1 -2l2 -2q0 -21 -13 -28v-1q0 -3 4 -18q-1 -3 -4.5 -11.5t-5.5 -11.5q13 -10 18 -17 q-9 -10 -9 -26q0 -6 3 -25t3 -25q0 -9 -3 -15q11 -20 11 -39q0 -11 -11 -14q2 -17 0 -44q0 -9 -0.5 -19.5t-1 -16t-0.5 -8.5q0 -90 -4 -125q0 -3 -5.5 -16t-5.5 -16q0 -5 4 -6q5 -12 5 -25q0 -8 -4 -32.5t-4 -31.5q0 -25 14 -45h20l60 15q-24 21 -42 21q-9 0 -19 -5 q-16 10 -16 19q12 5 23 5q-12 12 -14 22q12 12 21 12q10 -1 10 -3q-4 4 -4 7q0 4 3 5q10 -5 18 -4h5q1 6 16 28q14 20 14 28l-14 33q-13 30 -13 57q0 25 13 57l14 33q0 11 -15 34q4 6 8.5 12t8 11.5t5.5 7.5zM146 789l-17 -5v6l15 5zM138 676l-6 -12l-6 3l6 11zM152 647h-8 v12h8v-12zM151 150l-5 -5l-6 7l4 5zM-25 977q7 24 23 48q5 7 0.5 17t-3.5 11q39 11 57 21q20 -3 107 -63q23 -17 31 -32q-34 -34 -56 -25q7 -19 2 -34q-1 1 -4 13t-5 14q-7 -1 -9 -15l-13 13q-7 7 -12 6l5 -5q4 -6 -1 -13q-7 -9 -25 -9q-8 7 -50 30q-41 23 -47 23z" />
<glyph unicode="&#xed;" horiz-adv-x="213" d="M52 736l6 -13h-7l-5 11zM168 372q-2 -2 -5.5 -7.5t-8 -11.5t-8.5 -12q15 -23 15 -34q-5 -11 -14 -33q-13 -32 -13 -57q0 -27 13 -57l14 -33q0 -8 -14 -28q-15 -22 -16 -28h-5q-8 -1 -18 4q-3 -1 -3 -5q0 -3 4 -7q-6 2 -10 3q-9 0 -21 -12q2 -10 14 -22q-11 0 -23 -5 q0 -9 16 -19q10 5 19 5q18 0 42 -21l-60 -15h-20q-14 20 -14 45q0 7 4 31.5t4 32.5q0 13 -5 25q-4 1 -4 6q0 3 5.5 16t5.5 16q4 35 4 125q0 3 0.5 8.5t1 16t0.5 19.5q2 27 0 44q11 3 11 14q0 19 -11 39q3 6 3 15q0 6 -3 25t-3 25q0 16 9 26q-5 7 -18 17q2 3 5.5 11.5 t4.5 11.5q-4 15 -4 18v1q13 7 13 28l-2 2t-1 2q-8 -8 -11 -8q3 13 3 22q0 10 -6 20.5t-6 12.5q0 4 7 16t7 19q0 3 -2 19q6 16 6 15q0 10 -6 29t-12 22q11 29 16 33q9 10 33 10q13 0 20 -13q3 3 3 8q17 0 30 -8l13 8q0 -3 -12 -15q8 -10 8 -22q0 -6 -5 -19t-5 -17q0 -7 6 -18 l-36 -9q8 -5 31 -3q0 -17 13 -43l-6 2q-1 -2 -16 -19v-52q3 -2 9 -4q0 -3 -2.5 -16.5t-2.5 -17.5q0 -9 12 -11q-11 -42 -11 -86l2 -6q1 -6 1 -7q3 -10 3 -19q0 -8 -3 -12q3 -14 15 -36zM129 784l17 5l-2 6l-15 -5v-6zM132 664l6 12l-6 2l-6 -11zM144 647h8v12h-8v-12z M151 150l-5 -5l-6 7l4 5zM234 1025q-18 -7 -29 -30q-18 -7 -27 -3q-5 3 -6 7t0 7l2 3q-7 -2 -8 -10q-5 -16 -6 -17q-7 10 -15 8q-2 -2 1.5 -14.5t3.5 -13.5q-11 11 -14 31q-15 -18 -62 -3q2 21 13 42q16 31 34 44q19 -1 60 8q1 0 1 -5.5t2 -12t7 -9.5q25 -14 43 -32zM50 901 l-11 -20l-10 5l11 20z" />
<glyph unicode="&#xee;" horiz-adv-x="213" d="M52 736l6 -13h-7l-5 11zM168 372q-2 -2 -5.5 -7.5t-8 -11.5t-8.5 -12q15 -23 15 -34q-5 -11 -14 -33q-13 -32 -13 -57q0 -27 13 -57l14 -33q0 -8 -14 -28q-15 -22 -16 -28h-5q-8 -1 -18 4q-3 -1 -3 -5q0 -3 4 -7q-6 2 -10 3q-9 0 -21 -12q2 -10 14 -22q-11 0 -23 -5 q0 -9 16 -19q10 5 19 5q18 0 42 -21l-60 -15h-20q-14 20 -14 45q0 7 4 31.5t4 32.5q0 13 -5 25q-4 1 -4 6q0 3 5.5 16t5.5 16q4 35 4 125q0 3 0.5 8.5t1 16t0.5 19.5q2 27 0 44q11 3 11 14q0 19 -11 39q3 6 3 15q0 6 -3 25t-3 25q0 16 9 26q-5 7 -18 17q2 3 5.5 11.5 t4.5 11.5q-4 15 -4 18v1q13 7 13 28l-2 2t-1 2q-8 -8 -11 -8q3 13 3 22q0 10 -6 20.5t-6 12.5q0 4 7 16t7 19q0 3 -2 19q6 16 6 15q0 10 -6 29t-12 22q11 29 16 33q9 10 33 10q13 0 20 -13q3 3 3 8q17 0 30 -8l13 8q0 -3 -12 -15q8 -10 8 -22q0 -6 -5 -19t-5 -17q0 -7 6 -18 l-36 -9q8 -5 31 -3q0 -17 13 -43l-6 2q-1 -2 -16 -19v-52q3 -2 9 -4q0 -3 -2.5 -16.5t-2.5 -17.5q0 -9 12 -11q-11 -42 -11 -86l2 -6q1 -6 1 -7q3 -10 3 -19q0 -8 -3 -12q3 -14 15 -36zM129 784l17 5l-2 6l-15 -5v-6zM132 664l6 12l-6 2l-6 -11zM144 647h8v12h-8v-12z M151 150l-5 -5l-6 7l4 5zM144 1184q21 -6 27 -11t13 -25t16 -37q14 -14 28 -33q2 -15 12 -43q42 -64 76 -125q-5 -3 -11.5 -5.5t-12 -4t-12.5 -2.5t-11 -1.5t-9 -1l-5 -0.5q-16 0 -43 8.5t-29 16.5q-10 31 -10 45v2v20q-2 2 -55 46q-12 -6 -18 -14q-14 0 -35 -23l-8 -5 q3 -1 3 -4v-30q-9 -5 -25 -35q-12 -24 -43 -24q-50 0 -65 3h-6q-6 5 -14 16q4 7 53 87q12 21 63 110q28 50 28 56q12 17 55 17q18 0 38 -3z" />
<glyph unicode="&#xef;" horiz-adv-x="213" d="M240 939q0 -9 -12 -20t-21 -11q-12 0 -28 19q-15 20 -15 32q0 29 38 29t38 -49zM50 944q0 -5 -8 -21q-8 -15 -11 -24q-1 0 -10 6.5t-14 6.5q-3 0 -6 -2t-7 -2q-13 0 -22 19q-7 15 -7 32q0 7 18 20q17 14 24 14q19 0 33 -23q10 -17 10 -26zM52 736l6 -13h-7l-5 11z M168 372q-2 -2 -5.5 -7.5t-8 -11.5t-8.5 -12q15 -23 15 -34q-5 -11 -14 -33q-13 -32 -13 -57q0 -27 13 -57l14 -33q0 -8 -14 -28q-15 -22 -16 -28h-5q-8 -1 -18 4q-3 -1 -3 -5q0 -3 4 -7q-6 2 -10 3q-9 0 -21 -12q2 -10 14 -22q-11 0 -23 -5q0 -9 16 -19q10 5 19 5 q18 0 42 -21l-60 -15h-20q-14 20 -14 45q0 7 4 31.5t4 32.5q0 13 -5 25q-4 1 -4 6q0 3 5.5 16t5.5 16q4 35 4 125q0 3 0.5 8.5t1 16t0.5 19.5q2 27 0 44q11 3 11 14q0 19 -11 39q3 6 3 15q0 6 -3 25t-3 25q0 16 9 26q-5 7 -18 17q2 3 5.5 11.5t4.5 11.5q-4 15 -4 18v1 q13 7 13 28l-2 2t-1 2q-8 -8 -11 -8q3 13 3 22q0 10 -6 20.5t-6 12.5q0 4 7 16t7 19q0 3 -2 19q6 16 6 15q0 10 -6 29t-12 22q11 29 16 33q9 10 33 10q13 0 20 -13q3 3 3 8q17 0 30 -8l13 8q0 -3 -12 -15q8 -10 8 -22q0 -6 -5 -19t-5 -17q0 -7 6 -18l-36 -9q8 -5 31 -3 q0 -17 13 -43l-6 2q-1 -2 -16 -19v-52q3 -2 9 -4q0 -3 -2.5 -16.5t-2.5 -17.5q0 -9 12 -11q-11 -42 -11 -86l2 -6q1 -6 1 -7q3 -10 3 -19q0 -8 -3 -12q3 -14 15 -36zM129 784l17 5l-2 6l-15 -5v-6zM132 664l6 12l-6 2l-6 -11zM144 647h8v12h-8v-12zM151 150l-5 -5l-6 7l4 5z " />
<glyph unicode="&#xf2;" horiz-adv-x="424" d="M387 392q0 31 -1 55q-1 25 -1 55q0 6 1 27t1 27q0 5 -2 24.5t-2 25.5q0 77 -20 128q-7 16 -29 35q-2 2 -15.5 12.5t-21.5 15.5q-48 10 -77 15q0 -5 -8 -13l-12 13q-35 1 -72 -13q-46 -16 -44 -48v-4q-16 -13 -27 -18q-9 -36 -8 -55v-9l-9 -18l3 -5q-9 -10 -9 -32 q0 -6 2.5 -28.5t2.5 -29.5q0 -16 -4 -27h-9q15 -1 21 -14q-17 -14 -23 -23q10 -30 15 -50q-1 -12 0 -19q9 -7 12 -8q-4 -4 -4 -7v-1q-10 -3 -9 -13v-9h16q2 3 5.5 7.5t5.5 6.5q-4 -19 -16 -19q-3 0 -4 -1q5 -5 5 -6q0 -2 -3 -2q-2 0 -7.5 2t-6.5 2q13 -17 18 -24 q-7 -12 -8 -16h-1q8 2 8 -6q0 -1 -1 -4t-1 -4v-2q26 -18 26 -25q0 -6 1 -7l-3 -2q-13 14 -19 18q-16 -16 -16 -34q0 -4 4 -9.5t9 -11.5l6 -6q-5 -5 -4 -10v-1q8 5 15 5q5 0 7 -3q-4 -4 -12.5 -12t-12.5 -11l5 -6q-8 -9 -15 -12q-1 -3 -1 -10q14 -3 14 -26q0 -11 -7 -18 q5 -12 9 -18q-5 -5 -5 -15t4 -15q17 6 32 27l11 -9q-6 10 -6 18l1 5q10 -4 15 -5q4 -1 4 -23q0 -1 -3 -4q-3 1 -14 4q-3 -8 -5 -12q14 -5 14 -17q0 -6 -3 -6q-1 0 -2 1q3 -1 3 -7q0 -2 -3.5 -10.5t-3.5 -13.5q0 -14 24 -25l9 9q16 -27 86 -27q24 0 48 15q-9 8 -18 27l3 2 q1 0 2 -1l7 -3h-1q8 0 8 8q0 3 -1 4v5q-7 9 -20 20q-5 -7 -28 -5h-5q-4 -12 -10 -32q-2 0 -13.5 2.5t-15.5 2.5q-6 0 -10 15q-8 19 -9 21q-7 -10 -9 -18q-7 11 -7 12q5 11 14 11h3v17l-6 5q-2 -1 -5.5 -3.5t-5.5 -3.5q-9 -8 -11 -19q-2 -14 -5 -19q-10 14 -11 16q12 8 12 27 q0 3 -2 9q8 11 8 19q0 19 -3 60t-3 61q0 6 4.5 20t4.5 17q2 34 2 60v43q-1 19 -1 43q0 4 -2 21t-2 23q0 22 13 28q-12 23 -12 124q0 38 23 70q25 36 62 36q6 0 23 -12q16 -12 24 -17q13 -15 21 -28q-8 -10 -8 -20q9 0 13 -4v-488q-8 -11 -8 -31v-13q4 7 13 7q3 0 9 -2 l-4 -15q-5 3 -9 3q-6 0 -19 -13.5t-19 -13.5q16 -5 31 -7q0 5 -5 20q2 4 4 7q19 -30 20 -30q-5 -4 -17 -12q-10 -9 -10 -17q0 -4 3 -14.5t3 -12.5q2 4 4.5 6.5t5 4.5t7 3.5t7 2t8 1.5t7.5 1q0 11 -18 20q3 2 6.5 4.5t6 4t3.5 2.5q9 -9 10 -9q7 13 17 22v-6q0 -7 -7 -20 t-7 -14q4 6 34 38q17 19 17 61q0 6 -1 25t-1 25q0 34 6 101q7 63 7 101zM234 75l-7 7l-5 -4l7 -7zM200 76q-14 -2 -18 -12q-1 -3 -2.5 -6t-2 -5t-1.5 -3.5t-2 -2.5v-1q7 7 11 13q4 -4 4 -10v-4q11 13 11 31zM79 48l-11 12l-4 -5l11 -11zM360 706q-8 -15 -9 -25q-5 12 -18 19 v1q0 1 11 25q5 -14 16 -20zM361 645h-7v17h7v-17zM220 784l-5 -5l-6 7l4 5zM350 614h-22l10 12.5t7 8.5zM355 541q-11 -2 -11 -6q0 2 1.5 7.5t1.5 6.5q0 5 -5 5q-8 0 -17 -9q10 14 14 18q11 -11 16 -22zM360 514q-10 0 -12 -8q0 12 -5 24zM352 497l-6 -12l-6 3l6 11z M360 472l-13 -6v6l11 6zM311 489l-5 -5l-6 7l4 5zM321 483l-6 -12l-7 3l6 12zM101 178q-16 0 -17 -1q1 8 6 13zM89 150h-7l-5 11l6 2zM101 137q-2 0 -9 1.5t-9 1.5q-6 0 -9 -1.5t-2 -4.5q-3 3 -3 11q0 2 2 4h15h6zM73 152h-12v8h12v-8zM179 27l-14 -6v6l11 6zM160 33 l-13 -10q2 4 2 8q0 13 -6 23q14 -14 17 -21zM88 970q7 24 23 48q5 7 0.5 17t-3.5 11q39 10 57 21q20 -3 107 -63q23 -17 31 -32q-34 -34 -56 -25q7 -19 2 -34q-1 1 -4 13t-5 14q-8 -2 -9 -15l-13 13q-8 8 -12 6l4 -6q5 -5 0 -12q-7 -9 -25 -9q-8 7 -50 30q-41 23 -47 23z " />
</font>
</defs>
</svg>
