<?xml version="1.0" standalone="no"?><!DOCTYPE svg PUBLIC "-//W3C//DTD SVG 1.1//EN" "http://www.w3.org/Graphics/SVG/1.1/DTD/svg11.dtd" ><svg xmlns="http://www.w3.org/2000/svg"><metadata>Generated by Glyphter</metadata><defs><font id="Real-Vision" horiz-adv-x="0"><font-face units-per-em="1024" ascent="1024" descent="0" font-family="Real-Vision" font-weight="normal" /><missing-glyph horiz-adv-x="0" /><glyph unicode="&#x0041;" d="M535.605,49.651C400.734,49.651,175.107,49.651,175.107,49.651C115.585,49.651,67.345,97.919,67.345,157.441C67.345,157.441,67.345,872.656,67.345,872.656C67.345,932.178,115.585,980.418,175.107,980.418C175.107,980.418,458.067,980.418,458.067,980.418C458.067,980.418,458.011,831.768,457.954,753.697C457.954,710.62,484.811,707.084,516.298,707.084C599.42,707.084,741.981,707.084,741.981,707.084C741.981,707.084,741.981,626.066,741.981,526.302C758.538,525.881,774.478,524.955,789.744,523.467C789.744,649.021,789.744,755.689,789.744,755.689C789.744,755.689,514.979,1024,514.979,1024C514.979,1024,144.546,1024,144.546,1024C77.167,1024,22.5,969.361,22.5,901.954C22.5,901.954,22.5,125.196,22.5,125.196C22.5,57.817,77.139,3.15,144.546,3.15C144.546,3.15,427.815,3.15,577.447,3.15C561.872,17.013,547.84,32.56,535.605,49.651C535.605,49.651,535.605,49.651,535.605,49.651M933.259,402.235C841.24,494.226,692.057,494.226,600.066,402.235C508.047,310.216,508.047,161.005,600.066,69.014C692.057,-23.005,841.24,-23.005,933.259,69.014C1025.305,161.033,1025.305,310.216,933.259,402.235C933.259,402.235,933.259,402.235,933.259,402.235M900.172,207.197C900.172,207.197,789.239,207.197,789.239,207.197C789.239,207.197,789.239,102.1,789.239,102.1C789.239,102.1,741.504,102.1,741.504,102.1C741.504,102.1,741.504,208.459,741.504,208.459C741.504,208.459,631.777,208.459,631.777,208.459C631.777,208.459,631.777,263.295,631.777,263.295C631.777,263.295,742.766,263.295,742.766,263.295C742.766,263.295,742.766,367.97,742.766,367.97C742.766,367.97,789.632,367.97,789.632,367.97C789.632,367.97,789.632,261.611,789.632,261.611C789.632,261.611,900.172,261.611,900.172,261.611C900.172,261.611,900.172,207.197,900.172,207.197C900.172,207.197,900.172,207.197,900.172,207.197" class="icon-add bookmarks"/><glyph unicode="&#x0042;" d="M511.989,1024.433C229.22,1024.433,0,795.213,0,512.467C0,229.72,229.22,0.5,511.989,0.5C794.758,0.5,1024,229.72,1024,512.467C1024,795.235,794.758,1024.433,511.989,1024.433C511.989,1024.433,511.989,1024.433,511.989,1024.433M511.989,31.353C246.247,31.353,30.831,246.769,30.831,512.489C30.831,778.186,246.247,993.602,511.989,993.602C777.708,993.602,993.125,778.208,993.125,512.489C993.125,246.769,777.708,31.353,511.989,31.353C511.989,31.353,511.989,31.353,511.989,31.353M552.378,529.049C616.018,546.076,663.098,603.559,663.098,672.534C663.098,754.868,596.346,821.621,513.989,821.621C431.633,821.621,364.881,754.868,364.881,672.534C364.881,603.826,411.605,546.565,474.823,529.294C349.721,523.914,250.693,454.495,250.693,327.326C250.693,327.326,250.693,250.037,250.693,250.037C290.949,157.255,426.565,119.578,519.28,122.512C631.756,126.047,713.357,166.502,769.35,219.162C769.35,219.162,769.35,327.326,769.35,327.326C769.35,452.05,674.101,521.358,552.378,529.049C552.378,529.049,552.378,529.049,552.378,529.049M555.068,228.609C555.068,228.609,504.809,160.39,504.809,160.39C504.809,160.39,461.263,230.565,461.263,230.565C461.263,230.565,461.263,407.504,461.263,407.504C461.263,407.504,495.073,446.492,495.073,446.492C495.073,446.492,468.577,489.371,468.577,489.371C468.577,489.371,508.721,536.162,508.721,536.162C508.721,536.162,545.665,492.372,545.665,492.372C545.665,492.372,522.125,448.426,522.125,448.426C522.125,448.426,555.068,407.481,555.068,407.481C555.068,407.481,555.068,228.609,555.068,228.609C555.068,228.609,555.068,228.609,555.068,228.609" class="icon-account page"/><glyph unicode="&#x0043;" d="M573.345,740.166C573.345,767.058,577.434,792.996,584.974,817.39C584.974,817.39,127.125,817.39,127.125,817.39C57.192,817.39,0.5,760.698,0.5,690.765C0.5,690.765,0.5,379.573,0.5,379.573C0.5,309.64,57.192,252.948,127.125,252.948C127.125,252.948,150.315,252.948,202.487,252.948C243.507,252.948,237.42,98,293.18,98C345.988,98,356.277,252.948,400.295,252.948C552.381,252.948,699.721,252.948,699.721,252.948C769.654,252.948,826.346,309.64,826.346,379.573C826.346,379.573,826.346,479.42,826.346,479.42C685.934,483.758,573.345,598.663,573.345,740.166C573.345,740.166,573.345,740.166,573.345,740.166M968.984,871.288C894.962,945.31,774.969,945.31,700.97,871.288C626.925,797.289,626.925,677.273,700.97,603.274C774.969,529.275,894.962,529.275,968.984,603.274C1043.005,677.273,1043.005,797.289,968.984,871.288C968.984,871.288,968.984,871.288,968.984,871.288M942.387,714.432C942.387,714.432,853.102,714.432,853.102,714.432C853.102,714.432,853.102,629.871,853.102,629.871C853.102,629.871,814.739,629.871,814.739,629.871C814.739,629.871,814.739,715.431,814.739,715.431C814.739,715.431,726.454,715.431,726.454,715.431C726.454,715.431,726.477,759.54,726.477,759.54C726.477,759.54,815.739,759.54,815.739,759.54C815.739,759.54,815.739,843.76,815.739,843.76C815.739,843.76,853.465,843.76,853.465,843.76C853.465,843.76,853.465,758.2,853.465,758.2C853.465,758.2,942.387,758.2,942.387,758.2C942.387,758.2,942.387,714.432,942.387,714.432C942.387,714.432,942.387,714.432,942.387,714.432" class="icon-add comment"/><glyph unicode="&#x0044;" d="M542.875,998.947C300.491,998.947,99.99,817.608,66.622,581.762C66.622,581.762,0,581.762,0,581.762C0,581.762,130.462,347.37,130.462,347.37C130.462,347.37,260.925,581.762,260.925,581.762C260.925,581.762,171.031,581.762,171.031,581.762C184.729,657.435,220.638,727.065,275.54,782.616C346.92,854.859,441.911,894.665,542.861,894.665C643.811,894.665,738.788,854.873,810.182,782.616C881.606,710.445,920.904,614.353,920.904,512.231C920.904,410.109,881.606,314.031,810.182,241.859C738.788,169.603,643.825,129.811,542.861,129.811C542.861,129.811,542.861,25.5,542.861,25.5C808.601,25.5,1024,243.413,1024,512.231C1024.014,781.049,808.615,998.947,542.875,998.947C542.875,998.947,542.875,998.947,542.875,998.947M380.133,594.4C380.133,594.4,420.645,594.4,420.645,594.4C420.645,594.4,420.645,381.218,420.645,381.218C420.645,381.218,469.122,381.218,469.122,381.218C469.122,381.218,469.122,632.936,469.122,632.936C469.122,632.936,382.124,632.936,382.124,632.936C382.124,632.936,380.133,594.4,380.133,594.4C380.133,594.4,380.133,594.4,380.133,594.4M613.889,421.053C585.351,421.053,557.448,454.279,557.448,454.279C557.448,454.279,550.797,419.753,546.815,407.793C564.085,385.878,617.207,379.255,617.207,379.255C617.207,379.255,707.524,381.246,707.524,473.554C707.524,565.862,621.867,555.906,621.867,555.906C621.867,555.906,625.849,593.101,625.849,593.101C625.849,593.101,701.819,593.101,701.819,593.101C701.819,593.101,708.597,633.613,708.597,633.613C708.597,633.613,587.991,632.258,587.991,632.258C587.991,632.258,562.899,509.435,562.899,508.602C582.696,519.319,660.389,533.666,660.389,474.189C660.389,444.973,642.441,421.053,613.889,421.053C613.889,421.053,613.889,421.053,613.889,421.053" class="icon-backward 15s"/><glyph unicode="&#x0045;" d="M545.034,642.638C545.034,642.638,545.034,773.897,545.034,773.897C545.034,773.897,0,511.402,0,511.402C0,511.402,545.034,251,545.034,251C545.034,251,545.034,381.724,545.034,381.724C545.034,381.724,258.638,512.441,258.638,512.441C258.638,512.441,545.034,642.638,545.034,642.638C545.034,642.638,545.034,642.638,545.034,642.638M1024,773.897C1024,773.897,478.966,511.402,478.966,511.402C478.966,511.402,1024,251,1024,251C1024,251,1024,381.724,1024,381.724C1024,381.724,737.604,512.441,737.604,512.441C737.604,512.441,1024,642.638,1024,642.638C1024,642.638,1024,773.897,1024,773.897C1024,773.897,1024,773.897,1024,773.897" class="icon-backward"/><glyph unicode="&#x0046;" d="M160.751,835.132C160.751,835.132,122.119,845.934,108.188,770.185C94.256,694.437,0,309.47,0,309.47C0,309.47,0,106.924,0,106.924C0,106.924,349.331,106.924,349.331,106.924C349.331,106.924,349.331,417.657,349.331,417.657C349.331,417.657,383.319,417.657,383.319,417.657C383.319,417.657,415.792,406.856,415.792,467.158C415.792,527.427,415.792,833.584,415.792,833.584C415.792,833.584,279.774,835.132,279.774,835.132C279.774,835.132,160.751,835.132,160.751,835.132C160.751,835.132,160.751,835.132,160.751,835.132M0.034,73.441C0.034,73.441,0.236,45.074,0.269,45.04C0.269,22.292,18.71,5.5,41.458,5.5C41.458,5.5,307.503,5.5,307.503,5.5C330.251,5.5,348.692,23.941,348.692,46.689C348.692,46.689,348.591,73.34,348.591,73.34C348.591,73.34,0.034,73.441,0.034,73.441C0.034,73.441,0.034,73.441,0.034,73.441M223.981,875.715C223.981,875.715,416.599,875.715,416.599,875.715C416.599,875.715,416.599,1019.236,416.599,1019.236C416.599,1019.236,223.981,1019.236,223.981,1019.236C223.981,1019.236,223.981,875.715,223.981,875.715C223.981,875.715,223.981,875.715,223.981,875.715M915.778,770.219C901.914,845.967,863.249,835.165,863.249,835.165C863.249,835.165,744.226,835.165,744.226,835.165C744.226,835.165,608.175,833.618,608.175,833.618C608.175,833.618,608.175,527.461,608.175,467.192C608.175,406.889,640.648,417.691,640.648,417.691C640.648,417.691,674.669,417.691,674.669,417.691C674.669,417.691,674.669,106.958,674.669,106.958C674.669,106.958,1024,106.958,1024,106.958C1024,106.958,1024,309.47,1024,309.47C1024,309.47,929.71,694.471,915.778,770.219C915.778,770.219,915.778,770.219,915.778,770.219M675.308,46.689C675.308,23.941,693.783,5.5,716.531,5.5C716.531,5.5,982.576,5.5,982.576,5.5C1005.324,5.5,1023.731,22.292,1023.731,45.04C1023.798,45.074,1024,73.441,1024,73.441C1024,73.441,675.477,73.34,675.477,73.34C675.477,73.34,675.308,46.689,675.308,46.689C675.308,46.689,675.308,46.689,675.308,46.689M800.019,1019.236C800.019,1019.236,607.401,1019.236,607.401,1019.236C607.401,1019.236,607.401,875.715,607.401,875.715C607.401,875.715,800.019,875.715,800.019,875.715C800.019,875.715,800.019,1019.236,800.019,1019.236C800.019,1019.236,800.019,1019.236,800.019,1019.236M463.24,473.787C463.24,473.787,557.9,473.787,557.9,473.787C557.9,473.787,557.9,834.358,557.9,834.358C557.9,834.358,463.24,834.358,463.24,834.358C463.24,834.358,463.24,473.787,463.24,473.787C463.24,473.787,463.24,473.787,463.24,473.787" class="icon-binocular"/><glyph unicode="&#x0047;" d="M183,1024C183,1024,183,5.624,183,5.624C183,5.624,509.317,331.941,509.317,331.941C509.317,331.941,841.258,0,841.258,0C841.258,0,841.258,1024,841.258,1024C841.258,1024,183,1024,183,1024C183,1024,183,1024,183,1024" class="icon-bookmarks"/><glyph unicode="&#x0048;" d="M511.989,1024.456C229.22,1024.456,0,795.235,0,512.489C0,229.742,229.22,0.5,511.989,0.5C794.758,0.5,1024,229.742,1024,512.489C1024,795.235,794.78,1024.456,511.989,1024.456C511.989,1024.456,511.989,1024.456,511.989,1024.456M511.989,31.353C246.247,31.353,30.831,246.747,30.831,512.467C30.831,778.186,246.247,993.58,511.989,993.58C777.708,993.58,993.125,778.186,993.125,512.467C993.125,246.769,777.708,31.353,511.989,31.353C511.989,31.353,511.989,31.353,511.989,31.353M395.223,245.502C395.223,245.502,620.242,245.502,620.242,245.502C620.242,245.502,620.242,780.542,620.242,780.542C620.242,780.542,395.223,780.542,395.223,780.542C395.223,780.542,395.223,245.502,395.223,245.502C395.223,245.502,395.223,245.502,395.223,245.502M674.902,346.442C674.902,346.442,781.176,346.442,781.176,346.442C781.176,346.442,781.176,679.492,781.176,679.492C781.176,679.492,674.902,679.492,674.902,679.492C674.902,679.492,674.902,346.442,674.902,346.442C674.902,346.442,674.902,346.442,674.902,346.442M238.49,346.442C238.49,346.442,344.786,346.442,344.786,346.442C344.786,346.442,344.786,679.492,344.786,679.492C344.786,679.492,238.49,679.492,238.49,679.492C238.49,679.492,238.49,346.442,238.49,346.442C238.49,346.442,238.49,346.442,238.49,346.442" class="icon-carousel"/><glyph unicode="&#x0049;" d="M918.992,976.741C918.992,976.741,918.992,250.836,918.992,250.836C918.992,250.836,505.328,85.444,505.328,85.444C505.328,85.444,105.727,250.836,105.727,250.836C105.727,250.836,105.727,976.741,105.727,976.741C105.727,976.741,33.5,976.741,33.5,976.741C33.5,976.741,33.5,207.128,33.5,207.128C33.5,207.128,504.737,0,504.737,0C504.737,0,991.191,205.211,991.191,205.211C991.191,205.211,991.191,976.741,991.191,976.741C991.191,976.741,918.992,976.741,918.992,976.741C918.992,976.741,918.992,976.741,918.992,976.741M833.267,308.944C833.267,308.944,833.267,1024,833.267,1024C833.267,1024,505.328,876.136,505.328,876.136C505.328,876.136,172.431,1022.985,172.431,1022.985C172.431,1022.985,172.431,310.776,172.431,310.776C172.431,310.776,505.328,170.155,505.328,170.155C505.328,170.155,833.267,308.944,833.267,308.944C833.267,308.944,833.267,308.944,833.267,308.944" class="icon-chapters"/><glyph unicode="&#x004a;" d="M876.301,393.84C824.803,212.568,658.1,79.697,460.302,79.697C221.398,79.697,27.737,273.358,27.737,512.242C27.737,751.126,221.398,944.788,460.302,944.788C563.318,944.788,657.92,908.697,732.199,848.567C743.85,850.305,756.16,852.184,768.45,854.122C686.857,927.702,578.825,972.525,460.282,972.525C206.071,972.525,0,766.454,0,512.262C0,258.071,206.091,52,460.282,52C678.364,52,860.894,203.696,908.415,407.289C908.415,407.289,904.478,409.966,904.478,409.966C904.478,409.966,876.301,393.84,876.301,393.84C876.301,393.84,876.301,393.84,876.301,393.84M517.416,748.469C517.416,748.469,408.665,748.469,408.665,748.469C408.665,748.469,408.665,639.718,408.665,639.718C408.665,639.718,517.416,639.718,517.416,639.718C517.416,639.718,517.416,748.469,517.416,748.469C517.416,748.469,517.416,748.469,517.416,748.469M408.665,234.43C408.665,234.43,517.416,234.43,517.416,234.43C517.416,234.43,517.416,561.162,517.416,561.162C517.416,561.162,408.665,561.162,408.665,561.162C408.665,561.162,408.665,234.43,408.665,234.43C408.665,234.43,408.665,234.43,408.665,234.43M1024,727.346C1024,727.346,966.507,784.839,966.507,784.839C966.507,784.839,849.723,668.055,849.723,668.055C849.723,668.055,737.355,780.402,737.355,780.402C737.355,780.402,687.816,730.863,687.816,730.863C687.816,730.863,798.385,620.274,798.385,620.274C798.385,620.274,681.181,503.07,681.181,503.07C681.181,503.07,739.134,445.138,739.134,445.138C739.134,445.138,855.019,561.022,855.019,561.022C855.019,561.022,967.366,448.675,967.366,448.675C967.366,448.675,1017.785,499.093,1017.785,499.093C1017.785,499.093,906.756,610.122,906.756,610.122C906.756,610.122,1024,727.346,1024,727.346C1024,727.346,1024,727.346,1024,727.346" class="icon-close info"/><glyph unicode="&#x004b;" d="M511.989,1024.433C229.22,1024.433,0,795.213,0,512.467C0,229.72,229.22,0.5,511.989,0.5C794.758,0.5,1024,229.742,1024,512.467C1024,795.235,794.78,1024.433,511.989,1024.433C511.989,1024.433,511.989,1024.433,511.989,1024.433M511.989,31.331C246.247,31.331,30.831,246.747,30.831,512.467C30.831,778.186,246.247,993.602,511.989,993.602C777.708,993.602,993.125,778.208,993.125,512.467C993.125,246.769,777.708,31.331,511.989,31.331C511.989,31.331,511.989,31.331,511.989,31.331M669.211,749.156C669.211,749.156,506.165,586.087,506.165,586.087C506.165,586.087,349.276,742.976,349.276,742.976C349.276,742.976,280.101,673.823,280.101,673.823C280.101,673.823,434.523,519.402,434.523,519.402C434.523,519.402,270.832,355.734,270.832,355.734C270.832,355.734,351.744,274.8,351.744,274.8C351.744,274.8,513.567,436.623,513.567,436.623C513.567,436.623,670.456,279.734,670.456,279.734C670.456,279.734,740.876,350.154,740.876,350.154C740.876,350.154,585.832,505.176,585.832,505.176C585.832,505.176,749.5,668.844,749.5,668.844C749.5,668.844,669.211,749.156,669.211,749.156C669.211,749.156,669.211,749.156,669.211,749.156" class="icon-close"/><glyph unicode="&#x004c;" d="M632.997,758.712C632.997,758.712,295.729,758.712,295.729,758.712C254.546,758.712,221.151,725.318,221.151,684.135C221.151,684.135,221.151,500.839,221.151,500.839C221.151,459.656,254.546,426.262,295.729,426.262C295.729,426.262,309.377,426.262,340.117,426.262C364.268,426.262,360.689,334.968,393.532,334.968C424.646,334.968,430.703,426.262,456.624,426.262C546.207,426.262,632.978,426.262,632.978,426.262C674.18,426.262,707.575,459.656,707.575,500.839C707.575,500.839,707.575,684.135,707.575,684.135C707.594,725.318,674.18,758.712,632.997,758.712C632.997,758.712,632.997,758.712,632.997,758.712M884.046,386.181C909.318,442.644,923.498,505.166,923.498,571.03C923.498,821.214,720.673,1024,470.489,1024C220.306,1024,17.5,821.214,17.5,571.03C17.5,320.867,220.306,118.061,470.489,118.061C520.797,118.061,569.119,126.38,614.333,141.504C639.665,59.552,716.031,0,806.303,0C917.283,0,1007.201,89.937,1007.201,200.878C1007.201,284.286,956.401,355.795,884.046,386.181C884.046,386.181,884.046,386.181,884.046,386.181M806.303,401.796C695.361,401.796,605.405,311.859,605.405,200.878C605.405,189.767,606.545,178.91,608.276,168.29C565.048,153.501,518.713,145.359,470.489,145.359C235.371,145.359,44.778,335.931,44.778,571.05C44.778,806.149,235.371,996.722,470.489,996.722C705.588,996.722,896.181,806.149,896.181,571.05C896.181,508.175,882.453,448.545,857.988,394.854C841.467,399.22,824.2,401.796,806.303,401.796C806.303,401.796,806.303,401.796,806.303,401.796" class="icon-comment accounts"/><glyph unicode="&#x004d;" d="M157.006,958.024C157.006,958.024,866.994,958.024,866.994,958.024C953.727,958.024,1024,887.727,1024,801.018C1024,801.018,1024,415.16,1024,415.16C1024,328.427,953.727,258.154,866.994,258.154C866.994,258.154,684.305,258.154,495.733,258.154C441.146,258.154,428.389,66,362.91,66C293.751,66,301.303,258.154,250.445,258.154C185.739,258.154,157.006,258.154,157.006,258.154C70.273,258.154,0,328.427,0,415.16C0,415.16,0,801.018,0,801.018C-0.024,887.727,70.273,958.024,157.006,958.024C157.006,958.024,157.006,958.024,157.006,958.024" class="icon-comments"/><glyph unicode="&#x004e;" d="M512.011,1024.433C229.242,1024.433,0,795.213,0,512.467C0,229.72,229.242,0.5,512.011,0.5C794.78,0.5,1024,229.742,1024,512.467C1024.022,795.235,794.78,1024.433,512.011,1024.433C512.011,1024.433,512.011,1024.433,512.011,1024.433M512.011,31.331C246.292,31.331,30.875,246.725,30.875,512.467C30.875,778.208,246.292,993.58,512.011,993.58C777.753,993.58,993.169,778.186,993.169,512.444C993.169,246.703,777.753,31.331,512.011,31.331C512.011,31.331,512.011,31.331,512.011,31.331M697.641,805.216C697.641,805.216,348.676,805.216,348.676,805.216C321.757,805.216,299.907,783.41,299.907,756.469C299.907,756.469,299.907,681.648,299.907,681.648C299.907,681.648,263.185,681.648,263.185,681.648C242.379,681.648,225.53,666.488,225.53,647.816C225.53,629.144,242.379,614.006,263.185,614.006C263.185,614.006,299.907,614.006,299.907,614.006C299.907,614.006,299.907,558.435,299.907,558.435C299.907,558.435,263.185,558.435,263.185,558.435C242.379,558.435,225.53,543.298,225.53,524.626C225.53,505.954,242.379,490.816,263.185,490.816C263.185,490.816,299.907,490.816,299.907,490.816C299.907,490.816,299.907,426.376,299.907,426.376C299.907,426.376,263.185,426.376,263.185,426.376C242.379,426.376,225.53,411.216,225.53,392.566C225.53,373.872,242.379,358.757,263.185,358.757C263.185,358.757,299.907,358.757,299.907,358.757C299.907,358.757,299.907,276.911,299.907,276.911C299.907,249.993,321.735,228.142,348.676,228.142C348.676,228.142,697.641,228.142,697.641,228.142C724.582,228.142,746.388,249.993,746.388,276.911C746.388,276.911,746.388,756.447,746.388,756.447C746.388,783.388,724.582,805.216,697.641,805.216C697.641,805.216,697.641,805.216,697.641,805.216M399.024,293.672C399.024,293.672,397.179,293.672,397.179,293.672C377.729,293.672,361.969,310.543,361.969,331.327C361.969,331.327,361.969,358.645,361.969,358.645C361.969,358.645,399.046,358.645,399.046,358.645C399.046,358.645,399.046,293.672,399.046,293.672C399.046,293.672,399.024,293.672,399.024,293.672M399.024,426.309C399.024,426.309,361.947,426.309,361.947,426.309C361.947,426.309,361.947,490.749,361.947,490.749C361.947,490.749,399.024,490.749,399.024,490.749C399.024,490.749,399.024,426.309,399.024,426.309C399.024,426.309,399.024,426.309,399.024,426.309M399.024,558.391C399.024,558.391,361.947,558.391,361.947,558.391C361.947,558.391,361.947,613.962,361.947,613.962C361.947,613.962,399.024,613.962,399.024,613.962C399.024,613.962,399.024,558.391,399.024,558.391C399.024,558.391,399.024,558.391,399.024,558.391M399.024,681.625C399.024,681.625,361.947,681.625,361.947,681.625C361.947,681.625,361.947,701.876,361.947,701.876C361.947,722.682,377.707,739.531,397.156,739.531C397.156,739.531,399.001,739.531,399.001,739.531C399.001,739.531,399.001,681.625,399.001,681.625C399.001,681.625,399.024,681.625,399.024,681.625M684.46,331.327C684.46,310.521,668.678,293.672,649.228,293.672C649.228,293.672,452.172,293.672,452.172,293.672C452.172,293.672,452.172,739.553,452.172,739.553C452.172,739.553,649.228,739.553,649.228,739.553C668.678,739.553,684.46,722.682,684.46,701.898C684.46,701.898,684.46,331.327,684.46,331.327C684.46,331.327,684.46,331.327,684.46,331.327" class="icon-contact"/><glyph unicode="&#x004f;" d="M508.126,129.537C268.774,129.537,74.749,323.541,74.749,562.894C74.749,802.246,268.774,996.231,508.126,996.231C747.459,996.231,941.503,802.226,941.503,562.874C941.503,526.075,936.899,490.357,928.249,456.261C928.249,456.261,947.51,422.606,947.51,422.606C961.625,466.852,969.313,513.962,969.313,562.874C969.313,817.542,762.835,1024,508.146,1024C253.458,1024,47,817.542,47,562.874C47,308.185,253.478,101.747,508.146,101.747C557.999,101.747,605.95,109.736,650.917,124.391C650.917,124.391,636.442,148.857,636.442,148.857C595.879,136.304,552.793,129.537,508.126,129.537C508.126,129.537,508.126,129.537,508.126,129.537M566.148,376.417C680.428,376.417,773.386,469.996,773.386,585.017C773.386,700.038,680.428,793.617,566.148,793.617C566.148,793.617,566.148,774.657,566.148,774.657C670.017,774.657,754.526,689.587,754.526,585.017C754.526,480.447,670.017,395.377,566.148,395.377C566.148,395.377,566.148,376.417,566.148,376.417C566.148,376.417,566.148,376.417,566.148,376.417M566.148,501.269C566.148,501.269,566.148,482.309,566.148,482.309C622.407,482.309,668.195,528.377,668.195,585.017C668.195,641.657,622.407,687.725,566.148,687.725C566.148,687.725,566.148,668.745,566.148,668.745C612.016,668.745,649.335,631.186,649.335,584.997C649.335,538.808,612.016,501.269,566.148,501.269C566.148,501.269,566.148,501.269,566.148,501.269M204.206,514.222C204.206,514.222,307.615,503.811,307.615,503.811C307.615,503.811,453.008,357.457,453.008,357.457C453.008,357.457,453.008,812.577,453.008,812.577C453.008,812.577,307.615,666.203,307.615,666.203C307.615,666.203,204.206,655.792,204.206,655.792C204.206,655.792,204.206,514.222,204.206,514.222C204.206,514.222,204.206,514.222,204.206,514.222M901.221,195.106C901.221,195.106,901.221,371.652,901.221,371.652C901.221,371.652,759.231,371.652,759.231,371.652C759.231,371.652,759.231,195.106,759.231,195.106C759.231,195.106,683.071,195.106,683.071,195.106C683.071,195.106,830.226,0,830.226,0C830.226,0,977.381,195.106,977.381,195.106C977.381,195.106,901.221,195.106,901.221,195.106C901.221,195.106,901.221,195.106,901.221,195.106" class="icon-download audio"/><glyph unicode="&#x0050;" d="M957.379,581.754C924.012,817.597,723.513,998.934,481.132,998.934C215.396,998.934,0,781.039,0,512.21C0,243.395,215.396,25.5,481.132,25.5C481.132,25.5,481.132,129.795,481.132,129.795C380.184,129.795,285.209,169.573,213.815,241.842C142.392,314.013,103.095,410.09,103.095,512.21C103.095,614.33,142.392,710.421,213.815,782.592C285.194,854.833,380.17,894.639,481.132,894.639C582.095,894.639,677.07,854.847,748.464,782.592C803.365,727.041,839.288,657.427,852.957,581.74C852.957,581.74,763.079,581.74,763.079,581.74C763.079,581.74,893.539,347.352,893.539,347.352C893.539,347.352,1024,581.74,1024,581.74C1024,581.74,957.379,581.74,957.379,581.74C957.379,581.74,957.379,581.754,957.379,581.754M403.398,381.213C403.398,381.213,403.398,632.927,403.398,632.927C403.398,632.927,316.401,632.927,316.401,632.927C316.401,632.927,314.41,594.392,314.41,594.392C314.41,594.392,354.922,594.392,354.922,594.392C354.922,594.392,354.922,381.213,354.922,381.213C354.922,381.213,403.398,381.213,403.398,381.213C403.398,381.213,403.398,381.213,403.398,381.213M636.078,593.065C636.078,593.065,642.884,633.577,642.884,633.577C642.884,633.577,522.266,632.249,522.266,632.249C522.266,632.249,497.173,509.414,497.173,508.581C516.97,519.299,594.648,533.645,594.648,474.169C594.648,444.953,576.715,421.019,548.163,421.019C519.611,421.019,491.709,454.245,491.709,454.245C491.709,454.245,485.072,419.72,481.09,407.76C498.359,385.844,551.481,379.222,551.481,379.222C551.481,379.222,641.797,381.213,641.797,473.519C641.797,565.826,556.141,555.871,556.141,555.871C556.141,555.871,560.123,593.065,560.123,593.065C560.123,593.065,636.078,593.065,636.078,593.065C636.078,593.065,636.078,593.065,636.078,593.065" class="icon-Forward 15s"/><glyph unicode="&#x0051;" d="M478.966,773.889C478.966,773.889,478.966,642.638,478.966,642.638C478.966,642.638,765.354,512.441,765.354,512.441C765.354,512.441,478.966,381.717,478.966,381.717C478.966,381.717,478.966,251,478.966,251C478.966,251,1024,511.395,1024,511.395C1024,511.395,478.966,773.889,478.966,773.889C478.966,773.889,478.966,773.889,478.966,773.889M0,773.889C0,773.889,0,642.638,0,642.638C0,642.638,286.396,512.433,286.396,512.433C286.396,512.433,0,381.717,0,381.717C0,381.717,0,251,0,251C0,251,545.034,511.395,545.034,511.395C545.034,511.395,0,773.889,0,773.889C0,773.889,0,773.889,0,773.889" class="icon-foward"/><glyph unicode="&#x0052;" d="M511.989,1024.433C229.22,1024.433,0,795.213,0,512.467C0,229.72,229.22,0.5,511.989,0.5C794.758,0.5,1024,229.72,1024,512.444C1024,795.213,794.78,1024.433,511.989,1024.433C511.989,1024.433,511.989,1024.433,511.989,1024.433M511.989,31.331C246.247,31.331,30.831,246.725,30.831,512.467C30.831,778.208,246.269,993.58,511.989,993.58C777.708,993.58,993.125,778.186,993.125,512.444C993.125,246.703,777.708,31.331,511.989,31.331C511.989,31.331,511.989,31.331,511.989,31.331M448.66,284.491C448.66,284.491,570.272,284.491,570.272,284.491C570.272,284.491,570.272,406.081,570.272,406.081C570.272,406.081,448.66,406.081,448.66,406.081C448.66,406.081,448.66,284.491,448.66,284.491C448.66,284.491,448.66,284.491,448.66,284.491M269.565,627.455C269.565,627.455,391.177,627.455,391.177,627.455C391.177,627.455,391.177,749.067,391.177,749.067C391.177,749.067,269.565,749.067,269.565,749.067C269.565,749.067,269.565,627.455,269.565,627.455C269.565,627.455,269.565,627.455,269.565,627.455M448.66,455.984C448.66,455.984,570.272,455.984,570.272,455.984C570.272,455.984,570.272,577.574,570.272,577.574C570.272,577.574,448.66,577.574,448.66,577.574C448.66,577.574,448.66,455.984,448.66,455.984C448.66,455.984,448.66,455.984,448.66,455.984M269.565,284.491C269.565,284.491,391.177,284.491,391.177,284.491C391.177,284.491,391.177,406.081,391.177,406.081C391.177,406.081,269.565,406.081,269.565,406.081C269.565,406.081,269.565,284.491,269.565,284.491C269.565,284.491,269.565,284.491,269.565,284.491M269.565,455.984C269.565,455.984,391.177,455.984,391.177,455.984C391.177,455.984,391.177,577.574,391.177,577.574C391.177,577.574,269.565,577.574,269.565,577.574C269.565,577.574,269.565,455.984,269.565,455.984C269.565,455.984,269.565,455.984,269.565,455.984M627.755,627.455C627.755,627.455,749.367,627.455,749.367,627.455C749.367,627.455,749.367,749.067,749.367,749.067C749.367,749.067,627.755,749.067,627.755,749.067C627.755,749.067,627.755,627.455,627.755,627.455C627.755,627.455,627.755,627.455,627.755,627.455M627.755,455.984C627.755,455.984,749.367,455.984,749.367,455.984C749.367,455.984,749.367,577.574,749.367,577.574C749.367,577.574,627.755,577.574,627.755,577.574C627.755,577.574,627.755,455.984,627.755,455.984C627.755,455.984,627.755,455.984,627.755,455.984M448.66,627.455C448.66,627.455,570.272,627.455,570.272,627.455C570.272,627.455,570.272,749.067,570.272,749.067C570.272,749.067,448.66,749.067,448.66,749.067C448.66,749.067,448.66,627.455,448.66,627.455C448.66,627.455,448.66,627.455,448.66,627.455M627.755,284.491C627.755,284.491,749.367,284.491,749.367,284.491C749.367,284.491,749.367,406.081,749.367,406.081C749.367,406.081,627.755,406.081,627.755,406.081C627.755,406.081,627.755,284.491,627.755,284.491C627.755,284.491,627.755,284.491,627.755,284.491" class="icon-full gris"/><glyph unicode="&#x0053;" d="M511.989,1024.456C229.22,1024.456,0,795.235,0,512.467C0,229.72,229.22,0.5,511.989,0.5C794.758,0.5,1024,229.742,1024,512.467C1024,795.235,794.78,1024.456,511.989,1024.456C511.989,1024.456,511.989,1024.456,511.989,1024.456M511.989,31.375C246.247,31.375,30.831,246.769,30.831,512.511C30.831,778.208,246.247,993.625,511.989,993.625C777.708,993.625,993.125,778.231,993.125,512.511C993.125,246.792,777.708,31.375,511.989,31.375C511.989,31.375,511.989,31.375,511.989,31.375M327.248,519.269C327.248,519.269,287.681,519.269,287.681,519.269C287.681,519.269,287.681,272.532,287.681,272.532C287.681,272.532,538.396,272.532,538.396,272.532C538.396,272.532,538.396,309.632,538.396,309.632C538.396,309.632,325.47,309.632,325.47,309.632C325.47,309.632,327.248,519.269,327.248,519.269C327.248,519.269,327.248,519.269,327.248,519.269M501.341,692.006C501.341,692.006,709.422,692.006,709.422,692.006C709.422,692.006,707.644,485.281,707.644,485.281C707.644,485.281,752.057,485.281,752.057,485.281C752.057,485.281,752.057,732.017,752.057,732.017C752.057,732.017,501.341,732.017,501.341,732.017C501.341,732.017,501.341,692.006,501.341,692.006C501.341,692.006,501.341,692.006,501.341,692.006" class="icon-full screen"/><glyph unicode="&#x0054;" d="M511.989,1024.433C229.22,1024.433,0,795.213,0,512.467C0,229.72,229.22,0.5,511.989,0.5C794.758,0.5,1024,229.742,1024,512.467C1024,795.235,794.78,1024.433,511.989,1024.433C511.989,1024.433,511.989,1024.433,511.989,1024.433M511.989,31.353C246.247,31.353,30.831,246.747,30.831,512.467C30.831,778.186,246.269,993.602,511.989,993.602C777.708,993.602,993.125,778.208,993.125,512.489C993.125,246.769,777.708,31.353,511.989,31.353C511.989,31.353,511.989,31.353,511.989,31.353M534.684,901.999C534.684,901.999,473.178,901.999,473.178,901.999C473.178,901.999,473.178,479.969,473.178,479.969C473.178,479.969,751.434,479.969,751.434,479.969C751.434,479.969,751.434,538.563,751.434,538.563C751.434,538.563,534.684,538.563,534.684,538.563C534.684,538.563,534.684,901.999,534.684,901.999C534.684,901.999,534.684,901.999,534.684,901.999" class="icon-get time now"/><glyph unicode="&#x0055;" d="M512.011,1024.433C229.242,1024.433,0,795.191,0,512.444C0,229.698,229.242,0.5,512.011,0.5C794.78,0.5,1024,229.72,1024,512.444C1024,795.191,794.758,1024.433,512.011,1024.433C512.011,1024.433,512.011,1024.433,512.011,1024.433M782.265,627.232C782.265,627.232,979.232,627.232,979.232,627.232C988.234,590.444,993.125,552.033,993.125,512.467C993.125,468.765,987.19,426.487,976.275,386.253C976.275,386.253,782.243,386.253,782.243,386.253C782.243,386.253,782.243,627.232,782.243,627.232C782.243,627.232,782.265,627.232,782.265,627.232M967.562,667.155C967.562,667.155,782.265,667.155,782.265,667.155C782.265,667.155,782.265,910.512,782.265,910.512C867.912,852.251,933.663,767.072,967.562,667.155C967.562,667.155,967.562,667.155,967.562,667.155M733.007,939.765C733.007,939.765,733.007,667.155,733.007,667.155C733.007,667.155,301.129,667.155,301.129,667.155C301.129,667.155,301.129,944.966,301.129,944.966C364.814,976.064,436.345,993.58,512.011,993.58C591.722,993.558,666.833,974.064,733.007,939.765C733.007,939.765,733.007,939.765,733.007,939.765M301.129,627.232C301.129,627.232,733.007,627.232,733.007,627.232C733.007,627.232,733.007,386.253,733.007,386.253C733.007,386.253,301.129,386.253,301.129,386.253C301.129,386.253,301.129,627.232,301.129,627.232C301.129,627.232,301.129,627.232,301.129,627.232M30.853,512.467C30.853,677.224,113.699,822.554,239.957,909.267C239.957,909.267,239.957,386.276,239.957,386.276C239.957,386.276,239.512,386.276,239.512,386.276C239.512,386.276,239.512,337.039,239.512,337.039C239.512,337.039,239.957,337.039,239.957,337.039C239.957,337.039,239.957,115.666,239.957,115.666C113.699,202.357,30.853,347.709,30.853,512.467C30.853,512.467,30.853,512.467,30.853,512.467M512.011,31.331C436.368,31.331,364.814,48.825,301.129,79.945C301.129,79.945,301.129,337.017,301.129,337.017C301.129,337.017,959.982,337.017,959.982,337.017C889.873,158.078,715.802,31.331,512.011,31.331C512.011,31.331,512.011,31.331,512.011,31.331" class="icon-heatmap"/><glyph unicode="&#x0056;" d="M512.011,1024.433C229.242,1024.433,0,795.213,0,512.467C0,229.72,229.242,0.5,512.011,0.5C794.78,0.5,1024,229.742,1024,512.467C1024.022,795.213,794.78,1024.433,512.011,1024.433C512.011,1024.433,512.011,1024.433,512.011,1024.433M512.011,31.353C246.292,31.353,30.875,246.747,30.875,512.489C30.875,778.186,246.292,993.602,512.011,993.602C777.753,993.602,993.169,778.208,993.169,512.489C993.169,246.747,777.753,31.353,512.011,31.353C512.011,31.353,512.011,31.353,512.011,31.353M495.117,778.586C425.676,778.586,312.51,710.634,312.51,599.825C312.51,599.825,432.055,599.825,432.055,599.825C432.055,599.825,432.055,600.447,432.055,600.447C434.567,624.009,457.929,657.019,493.606,657.019C520.369,657.019,558.069,644.593,558.069,594.912C558.069,568.794,513.523,544.609,488.871,527.137C443.636,495.106,449.682,471.566,449.682,403.525C449.682,403.525,576.207,403.525,576.207,403.525C576.207,461.208,587.677,467.743,615.062,487.482C664.121,522.514,675.146,561.569,675.146,613.162C675.146,738.041,571.317,778.586,495.117,778.586C495.117,778.586,495.117,778.586,495.117,778.586M510.411,347.087C475.223,347.087,446.682,318.545,446.682,283.358C446.682,248.17,475.223,219.651,510.411,219.651C545.598,219.651,574.14,248.17,574.14,283.358C574.14,318.545,545.598,347.087,510.411,347.087C510.411,347.087,510.411,347.087,510.411,347.087" class="icon-help"/><glyph unicode="&#x0057;" d="M511.989,1024.433C229.22,1024.433,0,795.213,0,512.467C0,229.72,229.242,0.5,511.989,0.5C794.78,0.5,1024,229.742,1024,512.467C1024,795.235,794.78,1024.433,511.989,1024.433C511.989,1024.433,511.989,1024.433,511.989,1024.433M511.989,31.331C246.247,31.331,30.831,246.747,30.831,512.467C30.831,778.186,246.247,993.602,511.989,993.602C777.708,993.602,993.147,778.208,993.147,512.467C993.147,246.769,777.708,31.331,511.989,31.331C511.989,31.331,511.989,31.331,511.989,31.331M505.031,464.209C505.031,464.209,388.021,734.818,388.021,734.818C388.021,734.818,272.41,734.818,272.41,734.818C272.41,734.818,505.031,214.249,505.031,214.249C505.031,214.249,738.853,734.818,738.853,734.818C738.853,734.818,621.242,734.818,621.242,734.818C621.242,734.818,505.031,464.209,505.031,464.209C505.031,464.209,505.031,464.209,505.031,464.209" class="icon-home button"/><glyph unicode="&#x0058;" d="M511.989,1024.433C229.22,1024.433,0,795.213,0,512.467C0,229.72,229.242,0.5,511.989,0.5C794.78,0.5,1024,229.72,1024,512.467C1024,795.213,794.78,1024.433,511.989,1024.433C511.989,1024.433,511.989,1024.433,511.989,1024.433M511.989,31.353C246.247,31.353,30.831,246.769,30.831,512.467C30.831,778.186,246.247,993.602,511.989,993.602C777.708,993.602,993.147,778.208,993.147,512.467C993.125,246.769,777.708,31.353,511.989,31.353C511.989,31.353,511.989,31.353,511.989,31.353M444.081,667.733C444.081,667.733,565.048,667.733,565.048,667.733C565.048,667.733,565.048,788.7,565.048,788.7C565.048,788.7,444.081,788.7,444.081,788.7C444.081,788.7,444.081,667.733,444.081,667.733C444.081,667.733,444.081,667.733,444.081,667.733M444.081,216.917C444.081,216.917,565.048,216.917,565.048,216.917C565.048,216.917,565.048,580.375,565.048,580.375C565.048,580.375,444.081,580.375,444.081,580.375C444.081,580.375,444.081,216.917,444.081,216.917C444.081,216.917,444.081,216.917,444.081,216.917" class="icon-info"/><glyph unicode="&#x0059;" d="M166.392,565.712C166.392,565.712,146.522,567.672,113.466,567.672C80.409,567.672,62.5,548.07,62.5,501.025C62.5,453.979,62.5,119.138,62.5,119.138C62.5,119.138,63.48,72.85,108.788,72.85C154.051,72.85,187.019,72.85,234.331,72.85C281.644,72.85,335.951,3.44,410.395,1.391C484.839,-0.614,783.683,1.391,783.683,1.391C783.683,1.391,832.956,20.548,832.956,66.791C832.956,113.079,800.167,109.871,800.167,120.653C800.167,128.627,813.443,127.202,818.477,127.202C833.535,127.202,852.068,128.137,852.068,128.137C852.068,128.137,930.566,129.117,930.566,206.635C930.566,284.064,870.156,268.382,870.156,279.921C870.156,291.504,890.114,290.123,894.97,290.123C899.826,290.123,958.811,316.007,958.811,363.586C958.811,422.928,906.331,435.001,897.421,435.001C888.466,435.001,886.595,453.801,897.242,453.801C907.89,453.801,961.707,466.855,961.707,532.566C961.707,598.278,915.196,611.51,894.703,611.51C876.17,611.51,651.368,633.652,609.09,638.374C600.313,639.399,605.704,650.67,605.704,650.67C605.704,650.67,657.828,748.904,666.025,851.993C674.312,955.083,638.003,987.249,611.585,1006.183C585.211,1025.117,561.287,1024.315,561.287,1024.315C561.287,1024.315,530.77,1029.26,520.078,988.051C509.386,946.841,517.628,885.807,429.373,762.091C396.406,717.585,320.536,729.925,280.129,635.924C239.722,541.922,166.392,565.712,166.392,565.712C166.392,565.712,166.392,565.712,166.392,565.712" class="icon-like"/><glyph unicode="&#x005a;" d="M511.978,1024.456C229.233,1024.456,0,795.267,0,512.478C0,229.689,229.189,0.5,511.978,0.5C794.767,0.5,1024,229.733,1024,512.478C1024,795.223,794.767,1024.456,511.978,1024.456C511.978,1024.456,511.978,1024.456,511.978,1024.456M511.978,46.487C254.669,46.487,46.031,255.125,46.031,512.478C46.031,769.831,254.669,978.469,511.978,978.469C769.287,978.469,977.925,769.831,977.925,512.478C977.925,255.125,769.331,46.487,511.978,46.487C511.978,46.487,511.978,46.487,511.978,46.487M442.755,462.838C442.755,462.838,316.279,591.031,316.279,591.031C316.279,591.031,225.932,499.452,225.932,499.452C225.932,499.452,442.755,279.725,442.755,279.725C442.755,279.725,804.141,645.907,804.141,645.907C804.141,645.907,713.794,737.442,713.794,737.442C713.794,737.442,442.755,462.838,442.755,462.838C442.755,462.838,442.755,462.838,442.755,462.838" class="icon-little edit add comment"/><glyph unicode="&#x0030;" d="M511.978,1024.412C229.221,1024.412,0,795.235,0,512.478C0,229.721,229.221,0.5,511.978,0.5C794.735,0.5,1024,229.765,1024,512.478C1024,795.191,794.735,1024.412,511.978,1024.412C511.978,1024.412,511.978,1024.412,511.978,1024.412M511.978,46.521C254.641,46.521,46.021,255.141,46.021,512.478C46.021,769.771,254.641,978.391,511.978,978.391C769.359,978.391,977.979,769.771,977.979,512.478C977.935,255.141,769.359,46.521,511.978,46.521C511.978,46.521,511.978,46.521,511.978,46.521M324.578,287.899C324.578,287.899,767.679,518.534,767.679,518.534C767.679,518.534,324.755,749.435,324.755,749.435C324.755,749.435,324.578,287.899,324.578,287.899C324.578,287.899,324.578,287.899,324.578,287.899" class="icon-little play"/><glyph unicode="&#x0031;" d="M511.978,1024.412C229.221,1024.412,0,795.191,0,512.434C0,229.677,229.221,0.5,511.978,0.5C794.735,0.5,1024,229.677,1024,512.434C1024,795.191,794.735,1024.412,511.978,1024.412C511.978,1024.412,511.978,1024.412,511.978,1024.412M511.978,46.521C254.641,46.521,46.021,255.052,46.021,512.434C46.021,769.771,254.641,978.391,511.978,978.391C769.359,978.391,977.979,769.771,977.979,512.434C977.979,255.052,769.359,46.521,511.978,46.521C511.978,46.521,511.978,46.521,511.978,46.521M669.227,748.241C669.227,748.241,506.187,585.201,506.187,585.201C506.187,585.201,349.291,742.052,349.291,742.052C349.291,742.052,280.105,672.91,280.105,672.91C280.105,672.91,434.525,518.49,434.525,518.49C434.525,518.49,270.865,354.786,270.865,354.786C270.865,354.786,351.767,273.885,351.767,273.885C351.767,273.885,513.614,435.776,513.614,435.776C513.614,435.776,670.465,278.881,670.465,278.881C670.465,278.881,740.933,349.26,740.933,349.26C740.933,349.26,585.939,504.255,585.939,504.255C585.939,504.255,749.554,667.959,749.554,667.959C749.554,667.959,669.227,748.241,669.227,748.241C669.227,748.241,669.227,748.241,669.227,748.241" class="icon-little remove"/><glyph unicode="&#x0032;" d="M512.011,1024.433C229.242,1024.433,0,795.213,0,512.467C0,229.72,229.242,0.5,512.011,0.5C794.78,0.5,1024,229.72,1024,512.467C1024,795.213,794.78,1024.433,512.011,1024.433C512.011,1024.433,512.011,1024.433,512.011,1024.433M512.011,31.331C246.292,31.331,30.875,246.725,30.875,512.467C30.875,778.208,246.292,993.58,512.011,993.58C777.753,993.58,993.169,778.186,993.169,512.444C993.169,246.703,777.753,31.331,512.011,31.331C512.011,31.331,512.011,31.331,512.011,31.331M689.995,499.53C689.995,499.53,409.693,499.53,409.693,499.53C409.693,499.53,409.693,613.451,409.693,613.451C409.693,613.451,216.483,471.388,216.483,471.388C216.483,471.388,409.693,329.348,409.693,329.348C409.693,329.348,409.693,443.292,409.693,443.292C409.693,443.292,689.995,443.292,689.995,443.292C689.995,443.292,689.995,440.18,689.995,440.18C689.995,440.18,751.99,440.18,751.99,440.18C751.99,440.18,751.99,599.647,751.99,599.647C751.99,599.647,689.995,599.647,689.995,599.647C689.995,599.647,689.995,499.53,689.995,499.53C689.995,499.53,689.995,499.53,689.995,499.53" class="icon-logout"/><glyph unicode="&#x0033;" d="M594.325,421.639C594.325,421.639,594.325,400.588,594.325,400.588C656.811,400.588,707.604,451.759,707.604,514.645C707.604,537.519,700.735,558.77,689.176,576.642C689.176,576.642,673.793,561.259,673.793,561.259C681.774,547.5,686.708,531.695,686.708,514.645C686.708,463.363,645.251,421.639,594.325,421.639C594.325,421.639,594.325,421.639,594.325,421.639M468.687,356.175C468.687,356.175,421.739,309.25,421.739,309.25C421.739,309.25,468.687,261.991,468.687,261.991C468.687,261.991,468.687,356.175,468.687,356.175C468.687,356.175,468.687,356.175,468.687,356.175M926.159,813.603C926.159,813.603,904.041,791.485,904.041,791.485C960.369,712.683,993.646,616.276,993.646,512.022C993.646,246.297,778.247,30.876,512.478,30.876C408.224,30.876,311.795,64.131,232.993,120.481C232.993,120.481,210.853,98.363,210.853,98.363C295.456,36.567,399.666,0,512.456,0C795.23,0,1024.456,229.247,1024.456,512C1024.5,624.812,987.933,729.021,926.159,813.603C926.159,813.603,926.159,813.603,926.159,813.603M594.325,283.042C721.186,283.042,824.417,386.94,824.417,514.645C824.417,569.84,805.078,620.566,772.935,660.401C772.935,660.401,757.975,645.441,757.975,645.441C786.383,609.474,803.522,564.06,803.522,514.645C803.522,398.543,709.671,304.092,594.347,304.092C594.347,304.092,594.347,283.042,594.347,283.042C594.347,283.042,594.325,283.042,594.325,283.042M894.683,845.368C894.683,845.368,925.448,814.603,925.448,814.603C916.801,826.384,907.509,837.632,897.928,848.613C897.928,848.613,898.862,849.547,898.862,849.547C898.862,849.547,880.456,867.641,880.456,867.641C787.361,963.937,657.011,1024,512.5,1024C229.725,1024,0.5,794.775,0.5,512.022C0.5,348.684,77.079,203.328,196.204,109.589C196.204,109.589,177.554,128.239,177.554,128.239C177.554,128.239,894.683,845.368,894.683,845.368C894.683,845.368,894.683,845.368,894.683,845.368M31.332,512.022C31.332,777.747,246.753,993.146,512.5,993.146C640.05,993.146,755.752,943.242,841.867,862.24C841.867,862.24,699.646,720.041,699.646,720.041C668.036,736.557,632.359,746.249,594.347,746.249C594.347,746.249,594.347,725.198,594.347,725.198C626.468,725.198,656.766,717.485,683.974,704.37C683.974,704.37,606.995,627.391,606.995,627.391C602.816,627.902,598.682,628.68,594.347,628.68C594.347,628.68,594.347,614.742,594.347,614.742C594.347,614.742,468.709,489.126,468.709,489.126C468.709,489.126,468.709,767.278,468.709,767.278C468.709,767.278,307.282,604.784,307.282,604.784C307.282,604.784,192.492,593.225,192.492,593.225C192.492,593.225,192.492,436.021,192.492,436.021C192.492,436.021,307.282,424.462,307.282,424.462C307.282,424.462,355.519,375.892,355.519,375.892C355.519,375.892,162.282,182.678,162.282,182.678C81.258,268.793,31.332,384.472,31.332,512.022C31.332,512.022,31.332,512.022,31.332,512.022" class="icon-mute"/><glyph unicode="&#x0034;" d="M166.388,458.766C166.388,458.766,146.519,456.805,113.464,456.805C80.409,456.805,62.5,476.407,62.5,523.45C62.5,570.494,62.5,905.367,62.5,905.367C62.5,905.367,63.48,951.653,108.786,951.653C154.048,951.653,187.014,951.653,234.324,951.653C281.635,951.653,335.94,1021.06,410.381,1023.109C484.822,1025.114,783.61,1023.109,783.61,1023.109C783.61,1023.109,832.926,1003.998,832.926,957.711C832.926,911.425,800.138,914.633,800.138,903.852C800.138,895.878,813.369,897.303,818.448,897.303C833.505,897.303,852.037,896.368,852.037,896.368C852.037,896.368,930.532,895.388,930.532,817.918C930.532,740.447,870.124,756.173,870.124,744.59C870.124,733.052,890.126,734.389,894.938,734.389C899.749,734.389,958.732,708.506,958.732,660.928C958.732,601.589,906.342,589.516,897.388,589.516C888.434,589.516,886.563,570.761,897.21,570.761C907.901,570.761,961.672,557.664,961.672,491.954C961.672,426.29,915.163,413.014,894.67,413.014C876.138,413.014,651.345,390.873,609.113,386.151C600.337,385.127,605.683,373.856,605.683,373.856C605.683,373.856,657.76,275.626,666.002,172.54C674.243,69.454,637.981,37.335,611.608,18.357C585.19,-0.621,561.268,0.181,561.268,0.181C561.268,0.181,530.752,-4.719,520.06,36.488C509.324,77.696,517.565,138.727,429.359,262.395C396.393,306.899,320.526,294.559,280.121,388.557C239.715,482.599,166.388,458.766,166.388,458.766C166.388,458.766,166.388,458.766,166.388,458.766" class="icon-no like"/><glyph unicode="&#x0035;" d="M131,0C131,0,424.308,0,424.308,0C424.308,0,424.308,1024,424.308,1024C424.308,1024,131,1024,131,1024C131,1024,131,0,131,0C131,0,131,0,131,0M600.273,1024C600.273,1024,600.273,0,600.273,0C600.273,0,893.581,0,893.581,0C893.581,0,893.581,1024,893.581,1024C893.581,1024,600.273,1024,600.273,1024C600.273,1024,600.273,1024,600.273,1024" class="icon-pause"/><glyph unicode="&#x0036;" d="M512.022,1024.456C229.247,1024.456,0,795.23,0,512.478C0,229.725,229.247,0.5,512,0.5C794.753,0.5,1024,229.747,1024,512.478C1024.022,795.23,794.775,1024.456,512.022,1024.456C512.022,1024.456,512.022,1024.456,512.022,1024.456M512.022,31.332C246.275,31.332,30.854,246.753,30.854,512.478C30.854,778.203,246.275,993.624,512.022,993.624C777.77,993.624,993.191,778.225,993.191,512.478C993.168,246.753,777.77,31.332,512.022,31.332C512.022,31.332,512.022,31.332,512.022,31.332M488.66,689.976C488.66,689.976,488.66,514.278,488.66,514.278C488.66,514.278,383.383,414.67,383.383,414.67C383.383,414.67,406.746,386.395,406.746,386.395C406.746,386.395,527.471,488.226,527.471,488.226C527.471,488.226,525.071,689.976,525.071,689.976C525.071,689.976,488.66,689.976,488.66,689.976C488.66,689.976,488.66,689.976,488.66,689.976M810.157,558.603C788.706,710.16,659.845,826.707,504.064,826.707C333.279,826.707,194.837,686.664,194.837,513.923C194.837,341.181,333.279,201.139,504.064,201.139C504.064,201.139,504.064,268.181,504.064,268.181C439.2,268.181,378.137,293.745,332.257,340.181C286.354,386.551,261.102,448.303,261.102,513.923C261.102,579.543,286.354,641.295,332.257,687.664C378.137,734.123,439.178,759.664,504.064,759.664C568.951,759.664,629.991,734.123,675.872,687.664C711.172,651.987,734.245,607.24,743.026,558.603C743.026,558.603,668.737,558.603,668.737,558.603C668.737,558.603,769.123,407.979,769.123,407.979C769.123,407.979,874.199,558.603,874.199,558.603C874.199,558.603,810.157,558.603,810.157,558.603C810.157,558.603,810.157,558.603,810.157,558.603" class="icon-play history"/><glyph unicode="&#x0037;" d="M511.989,1024.456C229.22,1024.456,0,795.235,0,512.489C0,229.72,229.22,0.5,511.989,0.5C794.758,0.5,1024,229.742,1024,512.489C1024,795.235,794.78,1024.456,511.989,1024.456C511.989,1024.456,511.989,1024.456,511.989,1024.456M511.989,31.353C246.247,31.353,30.831,246.747,30.831,512.489C30.831,778.231,246.269,993.602,511.989,993.602C777.708,993.602,993.125,778.208,993.125,512.489C993.125,246.769,777.708,31.353,511.989,31.353C511.989,31.353,511.989,31.353,511.989,31.353M324.58,279.623C324.58,279.623,767.772,510.288,767.772,510.288C767.772,510.288,324.758,741.198,324.758,741.198C324.758,741.198,324.58,279.623,324.58,279.623C324.58,279.623,324.58,279.623,324.58,279.623" class="icon-play"/><glyph unicode="&#x0038;" d="M512,1024.478C229.225,1024.478,0,795.253,0,512.5C0,229.747,229.247,0.5,512,0.5C794.753,0.5,1024,229.747,1024,512.5C1024,795.253,794.753,1024.478,512,1024.478C512,1024.478,512,1024.478,512,1024.478M512,31.376C246.275,31.376,30.832,246.775,30.832,512.522C30.832,778.247,246.253,993.646,512,993.646C777.747,993.646,993.168,778.247,993.168,512.522C993.146,246.775,777.747,31.376,512,31.376C512,31.376,512,31.376,512,31.376M707.104,515.123C707.104,578.009,656.311,629.158,593.825,629.158C593.825,629.158,593.825,608.107,593.825,608.107C644.751,608.107,686.186,566.405,686.186,515.123C686.186,463.841,644.751,422.117,593.825,422.117C593.825,422.117,593.825,401.066,593.825,401.066C656.311,401.066,707.104,452.237,707.104,515.123C707.104,515.123,707.104,515.123,707.104,515.123M593.825,746.727C593.825,746.727,593.825,725.676,593.825,725.676C709.149,725.676,803,631.225,803,515.123C803,399.021,709.149,304.57,593.825,304.57C593.825,304.57,593.825,283.519,593.825,283.519C720.686,283.519,823.917,387.418,823.917,515.123C823.917,642.828,720.686,746.727,593.825,746.727C593.825,746.727,593.825,746.727,593.825,746.727M191.969,593.725C191.969,593.725,191.969,436.521,191.969,436.521C191.969,436.521,306.76,424.962,306.76,424.962C306.76,424.962,468.187,262.446,468.187,262.446C468.187,262.446,468.187,767.755,468.187,767.755C468.187,767.755,306.76,605.262,306.76,605.262C306.76,605.262,191.969,593.725,191.969,593.725C191.969,593.725,191.969,593.725,191.969,593.725" class="icon-remove mute"/><glyph unicode="&#x0039;" d="M542.867,1003.563C300.506,1003.563,99.992,820.46,66.636,582.268C66.636,582.268,0,582.268,0,582.268C0,582.268,129.001,348.221,129.001,348.221C129.001,348.221,20.494,348.221,20.494,348.221C20.494,348.221,20.494,286.766,20.494,286.766C20.494,286.766,245.772,286.766,245.772,286.766C245.772,286.766,245.772,348.221,245.772,348.221C245.772,348.221,131.933,348.221,131.933,348.221C131.933,348.221,260.934,582.268,260.934,582.268C260.934,582.268,171.05,582.268,171.05,582.268C184.746,658.684,220.654,729.034,275.565,785.082C346.952,858.061,441.915,898.24,542.867,898.24C643.819,898.24,738.782,858.061,810.169,785.082C881.581,712.205,920.9,615.169,920.9,512.044C920.9,408.919,881.581,311.884,810.169,238.981C738.782,166.028,643.819,125.824,542.867,125.824C542.867,125.824,542.867,20.5,542.867,20.5C808.602,20.5,1024,240.548,1024,512.019C1024,783.49,808.602,1003.563,542.867,1003.563C542.867,1003.563,542.867,1003.563,542.867,1003.563" class="icon-resume playing"/><glyph unicode="&#x0021;" d="M512.011,1024.433C229.242,1024.433,0,795.213,0,512.467C0,229.72,229.242,0.5,512.011,0.5C794.78,0.5,1024,229.742,1024,512.467C1024.022,795.235,794.78,1024.433,512.011,1024.433C512.011,1024.433,512.011,1024.433,512.011,1024.433M512.011,31.375C246.292,31.375,30.875,246.769,30.875,512.511C30.875,778.208,246.292,993.625,512.011,993.625C777.753,993.625,993.169,778.231,993.169,512.511C993.169,246.769,777.753,31.375,512.011,31.375C512.011,31.375,512.011,31.375,512.011,31.375M590.166,764.427C590.166,777.853,582.32,796.391,572.695,796.391C572.695,796.391,444.725,796.391,444.725,796.391C435.078,796.391,427.254,778.275,427.254,764.827C426.943,764.538,590.211,764.293,590.166,764.427C590.166,764.427,590.166,764.427,590.166,764.427M321.957,286.314C321.957,261.796,341.83,241.946,366.326,241.946C366.326,241.946,648.916,241.946,648.916,241.946C673.434,241.946,693.284,261.818,693.284,286.314C693.284,286.314,693.284,667.31,693.284,667.31C693.284,667.31,321.957,667.31,321.957,667.31C321.957,667.31,321.957,286.314,321.957,286.314C321.957,286.314,321.957,286.314,321.957,286.314M597.213,593.467C597.213,604.159,605.882,612.828,616.574,612.828C627.266,612.828,635.957,604.159,635.957,593.467C635.957,593.467,635.957,318.968,635.957,318.968C635.957,308.276,627.266,299.607,616.574,299.607C605.882,299.607,597.213,308.276,597.213,318.968C597.213,318.968,597.213,593.467,597.213,593.467C597.213,593.467,597.213,593.467,597.213,593.467M489.627,593.467C489.627,604.159,498.296,612.828,509.01,612.828C519.68,612.828,528.371,604.159,528.371,593.467C528.371,593.467,528.371,318.968,528.371,318.968C528.371,308.276,519.68,299.607,509.01,299.607C498.318,299.607,489.627,308.276,489.627,318.968C489.627,318.968,489.627,593.467,489.627,593.467C489.627,593.467,489.627,593.467,489.627,593.467M380.73,593.467C380.73,604.159,389.399,612.828,400.091,612.828C410.783,612.828,419.452,604.159,419.452,593.467C419.452,593.467,419.452,318.968,419.452,318.968C419.452,308.276,410.783,299.607,400.091,299.607C389.399,299.607,380.73,308.276,380.73,318.968C380.73,318.968,380.73,593.467,380.73,593.467C380.73,593.467,380.73,593.467,380.73,593.467M680.414,740.153C680.414,740.153,337.051,740.153,337.051,740.153C311.154,740.153,290.171,717.969,290.171,692.095C289.371,691.473,727.361,691.028,727.25,691.273C727.25,717.169,706.288,740.153,680.414,740.153C680.414,740.153,680.414,740.153,680.414,740.153" class="icon-trash"/><glyph unicode="&#x0022;" d="M982.48,675.937C982.48,675.937,955.648,1024,522.13,1024C59.432,1024,41.5,675.937,41.5,675.937C41.5,675.937,41.5,217.844,41.5,217.844C41.5,217.844,198.729,217.844,200.987,213.372C200.987,141.51,257.13,157.184,257.13,157.184C257.13,157.184,257.13,0,257.13,0C257.13,0,775.971,0,775.971,0C775.971,0,773.713,159.442,775.971,157.184C838.845,157.184,834.373,222.316,834.373,222.316C834.373,222.316,982.524,222.316,982.524,222.316C982.524,222.316,982.524,675.937,982.524,675.937C982.524,675.937,982.48,675.937,982.48,675.937M315.488,338.987C228.66,338.987,158.259,409.387,158.259,496.259C158.259,583.087,228.66,653.488,315.488,653.488C402.315,653.488,472.716,583.087,472.716,496.259C472.716,409.387,402.315,338.987,315.488,338.987C315.488,338.987,315.488,338.987,315.488,338.987M607.806,179.456C590.317,152.757,542.586,144.875,523.236,176.002C523.236,160.328,468.598,137.259,442.386,176.002C416.174,214.745,494.766,335.71,521.421,335.71C548.076,335.71,629.945,214.169,607.806,179.456C607.806,179.456,607.806,179.456,607.806,179.456M720.049,338.987C633.221,338.987,562.82,409.387,562.82,496.259C562.82,583.087,633.221,653.488,720.049,653.488C806.921,653.488,877.322,583.087,877.322,496.259C877.277,409.387,806.877,338.987,720.049,338.987C720.049,338.987,720.049,338.987,720.049,338.987" class="icon-troll"/><glyph unicode="&#x0023;" d="M872.068,876.347C872.068,876.347,873.58,877.881,873.58,877.881C873.58,877.881,838.437,912.446,838.437,912.446C838.437,912.446,835.325,909.356,835.325,909.356C747.166,981.266,634.646,1024.433,511.989,1024.433C229.242,1024.433,0,795.191,0,512.444C0,229.698,229.242,0.5,512.011,0.5C794.78,0.5,1024,229.72,1024,512.444C1024,654.796,965.85,783.543,872.068,876.347C872.068,876.347,872.068,876.347,872.068,876.347M137.172,211.204C70.798,293.672,30.875,398.346,30.875,512.467C30.875,778.164,246.292,993.558,512.011,993.558C626.132,993.558,730.806,953.636,813.274,887.261C813.274,887.261,629.066,703.054,629.066,703.054C589.655,716.28,547.666,724.927,503.831,724.927C295.017,724.927,121.012,536.473,121.012,514.512C121.012,500.686,189.12,422.441,292.238,366.248C292.238,366.248,137.172,211.204,137.172,211.204C137.172,211.204,137.172,211.204,137.172,211.204M585.321,659.33C585.321,659.33,576.941,650.972,576.941,650.972C561.803,659.686,545.22,666.132,527.393,669.266C547.354,667.755,566.582,664.043,585.321,659.33C585.321,659.33,585.321,659.33,585.321,659.33M367.97,442.002C367.97,442.002,334.228,408.237,334.228,408.237C251.471,448.093,196.789,503.775,196.789,514.89C196.789,531.205,316.756,650.728,467.665,668.133C398.624,653.062,346.898,591.667,346.898,518.09C346.876,490.194,354.922,464.453,367.97,442.002C367.97,442.002,367.97,442.002,367.97,442.002M512.011,31.331C394.267,31.331,286.436,73.676,202.813,143.918C202.813,143.918,183.896,124.98,183.896,124.98C183.896,124.98,152.287,156.588,152.287,156.588C152.287,156.588,869.423,873.68,869.423,873.68C869.423,873.68,901.032,842.093,901.032,842.093C901.032,842.093,880.56,821.621,880.56,821.621C950.779,737.997,993.147,630.189,993.147,512.444C993.147,246.725,777.731,31.331,512.011,31.331C512.011,31.331,512.011,31.331,512.011,31.331M721.003,662.087C721.003,662.087,681.303,622.364,681.303,622.364C758.992,581.197,810.384,526.626,810.384,514.89C810.384,496.618,688.972,381.185,532.928,367.893C602.259,382.763,654.273,444.314,654.273,518.09C654.273,540.764,649.272,562.192,640.47,581.531C640.47,581.531,437.257,378.318,437.257,378.318C445.348,374.672,453.75,371.582,462.486,369.36C452.528,370.582,442.769,372.249,433.144,374.228C433.144,374.228,385.331,326.414,385.331,326.414C422.653,314.855,462.442,307.631,503.853,307.631C715.624,307.631,886.183,490.394,886.183,514.534C886.139,529.405,820.254,605.626,721.003,662.087C721.003,662.087,721.003,662.087,721.003,662.087" class="icon-unwatched video"/><glyph unicode="&#x0024;" d="M512,1024.411C229.237,1024.411,0,795.196,0,512.456C0,229.715,229.237,0.5,512,0.5C794.763,0.5,1024,229.715,1024,512.456C1024,795.218,794.763,1024.411,512,1024.411C512,1024.411,512,1024.411,512,1024.411M512,31.352C246.264,31.352,30.852,246.764,30.852,512.456C30.852,778.169,246.264,993.581,512,993.581C777.714,993.581,993.125,778.191,993.125,512.456C993.125,246.764,777.714,31.352,512,31.352C512,31.352,512,31.352,512,31.352M699.382,547.398C699.382,547.398,581.818,501.986,581.818,501.986C571.549,501.986,563.236,493.317,563.236,482.626C563.236,471.956,571.549,463.287,581.818,463.287C581.818,463.287,699.382,508.699,699.382,508.699C709.674,508.699,718.009,517.368,718.009,528.037C718.009,538.707,709.674,547.398,699.382,547.398C699.382,547.398,699.382,547.398,699.382,547.398M319.528,395.114C319.528,395.114,437.114,349.702,437.114,349.702C447.383,349.702,455.696,358.371,455.696,369.04C455.696,379.732,447.361,388.401,437.114,388.401C437.114,388.401,319.528,433.791,319.528,433.791C309.258,433.791,300.945,425.144,300.945,414.452C300.945,403.783,309.258,395.114,319.528,395.114C319.528,395.114,319.528,395.114,319.528,395.114M699.382,433.791C699.382,433.791,581.818,388.401,581.818,388.401C571.549,388.401,563.236,379.732,563.236,369.04C563.236,358.371,571.549,349.702,581.818,349.702C581.818,349.702,699.382,395.114,699.382,395.114C709.674,395.114,718.009,403.783,718.009,414.452C718.009,425.144,709.674,433.791,699.382,433.791C699.382,433.791,699.382,433.791,699.382,433.791M319.528,508.699C319.528,508.699,437.114,463.287,437.114,463.287C447.383,463.287,455.696,471.956,455.696,482.626C455.696,493.317,447.361,501.986,437.114,501.986C437.114,501.986,319.528,547.398,319.528,547.398C309.258,547.398,300.945,538.707,300.945,528.037C300.945,517.368,309.258,508.699,319.528,508.699C319.528,508.699,319.528,508.699,319.528,508.699M319.528,622.418C319.528,622.418,437.114,577.006,437.114,577.006C447.383,577.006,455.696,585.675,455.696,596.366C455.696,607.036,447.361,615.705,437.114,615.705C437.114,615.705,319.528,661.094,319.528,661.094C309.258,661.094,300.945,652.425,300.945,641.756C300.945,631.064,309.258,622.418,319.528,622.418C319.528,622.418,319.528,622.418,319.528,622.418M699.382,661.116C699.382,661.116,581.818,615.727,581.818,615.727C571.549,615.727,563.236,607.058,563.236,596.389C563.236,585.697,571.549,577.028,581.818,577.028C581.818,577.028,699.382,622.44,699.382,622.44C709.674,622.44,718.009,631.086,718.009,641.778C718.009,652.448,709.674,661.116,699.382,661.116C699.382,661.116,699.382,661.116,699.382,661.116M225.948,749.74C225.948,749.74,225.948,302.334,225.948,302.334C225.948,302.334,489.172,262.902,489.172,262.902C489.172,262.902,489.172,256.922,489.172,256.922C489.172,256.922,509.133,259.923,509.133,259.923C509.133,259.923,529.071,256.922,529.071,256.922C529.071,256.922,529.071,262.902,529.071,262.902C529.071,262.902,792.295,302.334,792.295,302.334C792.295,302.334,792.295,749.74,792.295,749.74C792.295,749.74,509.133,707.306,509.133,707.306C509.133,707.306,225.948,749.74,225.948,749.74C225.948,749.74,225.948,749.74,225.948,749.74M488.727,294.665C488.727,294.665,266.336,340.055,266.336,340.055C266.336,340.055,266.336,711.996,266.336,711.996C266.336,711.996,488.727,666.585,488.727,666.585C488.727,666.585,488.727,294.665,488.727,294.665C488.727,294.665,488.727,294.665,488.727,294.665M529.56,666.585C529.56,666.585,751.951,711.996,751.951,711.996C751.951,711.996,751.951,340.077,751.951,340.077C751.951,340.077,529.56,294.688,529.56,294.688C529.56,294.688,529.56,666.585,529.56,666.585C529.56,666.585,529.56,666.585,529.56,666.585" class="icon-user guide"/><glyph unicode="&#x0025;" d="M0,266.253C0,266.253,538.062,512.021,538.062,512.021C538.062,512.021,0,756.783,0,756.783C0,756.783,0,1003.541,0,1003.541C0,1003.541,1024,510.04,1024,510.04C1024,510.04,0,20.5,0,20.5C0,20.5,0,266.253,0,266.253C0,266.253,0,266.253,0,266.253" class="icon-v play"/><glyph unicode="&#x0026;" d="M511.989,1024.433C229.22,1024.433,0,795.213,0,512.467C0,229.72,229.242,0.5,511.989,0.5C794.78,0.5,1024,229.742,1024,512.467C1024,795.213,794.78,1024.433,511.989,1024.433C511.989,1024.433,511.989,1024.433,511.989,1024.433M511.989,31.353C246.247,31.353,30.831,246.725,30.831,512.467C30.831,778.208,246.247,993.58,511.989,993.58C777.708,993.58,993.147,778.186,993.147,512.444C993.147,246.703,777.708,31.353,511.989,31.353C511.989,31.353,511.989,31.353,511.989,31.353M605.304,622.009C605.304,622.009,512.144,790.99,512.144,790.99C512.144,790.99,418.963,622.009,418.963,622.009C418.963,622.009,229.443,585.576,229.443,585.576C229.443,585.576,361.391,444.736,361.391,444.736C361.391,444.736,337.429,253.26,337.429,253.26C337.429,253.26,512.167,335.217,512.167,335.217C512.167,335.217,686.883,253.26,686.883,253.26C686.883,253.26,662.943,444.736,662.943,444.736C662.943,444.736,794.891,585.576,794.891,585.576C794.891,585.576,605.304,622.009,605.304,622.009C605.304,622.009,605.304,622.009,605.304,622.009" class="icon-v rated"/><glyph unicode="&#x0027;" d="M511.989,1024.433C229.22,1024.433,0,795.213,0,512.467C0,229.72,229.22,0.5,511.989,0.5C794.758,0.5,1024,229.742,1024,512.467C1024,795.235,794.78,1024.433,511.989,1024.433C511.989,1024.433,511.989,1024.433,511.989,1024.433M511.989,31.331C246.247,31.331,30.831,246.747,30.831,512.467C30.831,778.186,246.247,993.602,511.989,993.602C777.708,993.602,993.125,778.208,993.125,512.467C993.125,246.769,777.708,31.331,511.989,31.331C511.989,31.331,511.989,31.331,511.989,31.331M333.494,231.521C333.494,231.521,510.477,408.504,510.477,408.504C510.477,408.504,690.506,228.475,690.506,228.475C690.506,228.475,690.506,783.81,690.506,783.81C690.506,783.81,333.494,783.81,333.494,783.81C333.494,783.81,333.494,231.521,333.494,231.521C333.494,231.521,333.494,231.521,333.494,231.521" class="icon-video player bookmarks"/><glyph unicode="&#x0028;" d="M511.989,1024.433C229.22,1024.433,0,795.213,0,512.467C0,229.72,229.22,0.5,511.989,0.5C794.758,0.5,1024,229.742,1024,512.467C1024,795.235,794.78,1024.433,511.989,1024.433C511.989,1024.433,511.989,1024.433,511.989,1024.433M511.989,31.353C246.247,31.353,30.831,246.747,30.831,512.489C30.831,778.231,246.269,993.602,511.989,993.602C777.708,993.602,993.125,778.208,993.125,512.467C993.125,246.725,777.708,31.353,511.989,31.353C511.989,31.353,511.989,31.353,511.989,31.353M736.008,342.663C736.008,342.663,508.01,251.482,508.01,251.482C508.01,251.482,287.748,342.663,287.748,342.663C287.748,342.663,287.748,742.732,287.748,742.732C287.748,742.732,247.937,742.732,247.937,742.732C247.937,742.732,247.937,318.568,247.937,318.568C247.937,318.568,507.677,204.402,507.677,204.402C507.677,204.402,775.797,317.523,775.797,317.523C775.797,317.523,775.797,742.732,775.797,742.732C775.797,742.732,736.008,742.732,736.008,742.732C736.008,742.732,736.008,342.663,736.008,342.663C736.008,342.663,736.008,342.663,736.008,342.663M688.75,374.65C688.75,374.65,688.75,768.761,688.75,768.761C688.75,768.761,508.01,687.272,508.01,687.272C508.01,687.272,324.536,768.205,324.536,768.205C324.536,768.205,324.536,375.65,324.536,375.65C324.536,375.65,508.01,298.162,508.01,298.162C508.01,298.162,688.75,374.65,688.75,374.65C688.75,374.65,688.75,374.65,688.75,374.65" class="icon-video player chapters"/><glyph unicode="&#x0029;" d="M511.989,1024.433C229.22,1024.433,0,795.213,0,512.467C0,229.72,229.22,0.5,511.989,0.5C794.758,0.5,1024,229.72,1024,512.467C1024,795.213,794.78,1024.433,511.989,1024.433C511.989,1024.433,511.989,1024.433,511.989,1024.433M511.989,31.353C246.247,31.353,30.831,246.747,30.831,512.489C30.831,778.231,246.269,993.602,511.989,993.602C777.708,993.602,993.125,778.208,993.125,512.467C993.125,246.725,777.708,31.353,511.989,31.353C511.989,31.353,511.989,31.353,511.989,31.353M695.663,733.373C695.663,733.373,314.466,733.373,314.466,733.373C267.92,733.373,230.176,695.629,230.176,649.083C230.176,649.083,230.176,441.936,230.176,441.936C230.176,395.367,267.92,357.623,314.466,357.623C314.466,357.623,329.893,357.623,364.636,357.623C391.933,357.623,387.887,254.461,425.009,254.461C460.174,254.461,467.021,357.623,496.318,357.623C597.569,357.623,695.641,357.623,695.641,357.623C742.209,357.623,779.953,395.367,779.953,441.936C779.953,441.936,779.953,649.083,779.953,649.083C779.976,695.607,742.209,733.373,695.663,733.373C695.663,733.373,695.663,733.373,695.663,733.373" class="icon-video player comments"/><glyph unicode="&#x002a;" d="M422.261,115.464C203.091,115.464,25.428,293.11,25.428,512.261C25.428,731.412,203.091,909.057,422.261,909.057C518.343,909.057,606.451,874.903,675.107,818.071C675.107,818.071,698.097,831.821,698.097,831.821C624.087,895.747,527.73,934.503,422.261,934.503C189.048,934.503,0,745.455,0,512.242C0,279.048,189.048,90,422.261,90C651.091,90,837.28,272.045,844.21,499.171C844.21,499.171,817.7,480.416,817.7,480.416C801.457,276.17,630.669,115.464,422.261,115.464C422.261,115.464,422.261,115.464,422.261,115.464M400.463,524.58C400.463,524.58,232.057,365.268,232.057,365.268C232.057,365.268,265.661,327.557,265.661,327.557C265.661,327.557,451.19,490.408,451.19,490.408C451.19,490.408,451.19,837.724,451.19,837.724C451.19,837.724,400.463,837.724,400.463,837.724C400.463,837.724,400.463,524.58,400.463,524.58C400.463,524.58,400.463,524.58,400.463,524.58M612.611,702.134C612.611,702.134,766.863,545.81,766.863,545.81C766.863,545.81,1024,806.356,1024,806.356C1024,806.356,972.668,858.55,972.668,858.55C972.668,858.55,769.467,652.782,769.467,652.782C769.467,652.782,666.528,756.913,666.528,756.913C666.528,756.913,612.611,702.134,612.611,702.134C612.611,702.134,612.611,702.134,612.611,702.134" class="icon-watch late activer"/><glyph unicode="&#x002b;" d="M941.54,429.308C946.299,456.334,948.936,484.061,948.936,512.447C948.936,774.493,736.493,986.894,474.447,986.894C212.401,986.894,0,774.493,0,512.447C0,250.422,212.422,38,474.468,38C555.259,38,631.312,58.249,697.89,93.866C731.529,70.382,772.357,56.519,816.501,56.519C931.096,56.519,1024,149.423,1024,263.997C1024,331.563,991.556,391.425,941.54,429.308C941.54,429.308,941.54,429.308,941.54,429.308M915.441,446.426C886.025,462.411,852.345,471.495,816.501,471.495C701.907,471.495,608.982,378.592,608.982,263.997C608.982,204.753,633.949,151.462,673.788,113.641C613.782,83.607,546.133,66.613,474.488,66.613C228.201,66.592,28.571,266.222,28.571,512.468C28.571,758.693,228.201,958.323,474.468,958.323C720.714,958.323,920.343,758.714,920.343,512.468C920.343,490.014,918.654,467.973,915.441,446.426C915.441,446.426,915.441,446.426,915.441,446.426M453.806,530.595C453.806,530.595,264.58,351.586,264.58,351.586C264.58,351.586,302.339,309.213,302.339,309.213C302.339,309.213,510.805,492.218,510.805,492.218C510.805,492.218,510.805,846.406,510.805,846.406C510.805,846.406,453.786,846.406,453.786,846.406C453.786,846.406,453.786,530.595,453.786,530.595C453.786,530.595,453.806,530.595,453.806,530.595" class="icon-Watch Later with videos and"/><glyph unicode="&#x002c;" d="M511.989,1024.456C229.22,1024.456,0,795.235,0,512.489C0,229.742,229.242,0.5,511.989,0.5C794.78,0.5,1024,229.742,1024,512.489C1024,795.258,794.78,1024.456,511.989,1024.456C511.989,1024.456,511.989,1024.456,511.989,1024.456M511.989,31.375C246.247,31.375,30.831,246.792,30.831,512.511C30.831,778.231,246.247,993.625,511.989,993.625C777.708,993.625,993.147,778.231,993.147,512.511C993.125,246.792,777.708,31.375,511.989,31.375C511.989,31.375,511.989,31.375,511.989,31.375M481.136,530.65C481.136,530.65,276.945,337.506,276.945,337.506C276.945,337.506,317.69,291.76,317.69,291.76C317.69,291.76,542.664,489.238,542.664,489.238C542.664,489.238,542.664,898.576,542.664,898.576C542.664,898.576,481.136,898.576,481.136,898.576C481.136,898.576,481.136,530.65,481.136,530.65C481.136,530.65,481.136,530.65,481.136,530.65" class="icon-watch later"/><glyph unicode="&#x002d;" d="M512,1024.456C229.225,1024.456,0,795.23,0,512.478C0,229.725,229.247,0.5,512,0.5C794.753,0.5,1024,229.747,1024,512.478C1024.022,795.23,794.775,1024.456,512,1024.456C512,1024.456,512,1024.456,512,1024.456M512,31.354C246.253,31.354,30.832,246.753,30.832,512.478C30.832,778.203,246.253,993.624,512,993.624C777.725,993.624,993.168,778.225,993.168,512.478C993.168,246.775,777.725,31.354,512,31.354C512,31.354,512,31.354,512,31.354M224.135,414.715C224.135,414.715,439.067,414.715,439.067,414.715C439.067,414.715,437.222,201.183,437.222,201.183C437.222,201.183,483.08,201.183,483.08,201.183C483.08,201.183,483.08,456.038,483.08,456.038C483.08,456.038,224.113,456.038,224.113,456.038C224.113,456.038,224.113,414.715,224.113,414.715C224.113,414.715,224.135,414.715,224.135,414.715M579.821,793.03C579.821,793.03,533.962,793.03,533.962,793.03C533.962,793.03,533.962,538.174,533.962,538.174C533.962,538.174,792.93,538.174,792.93,538.174C792.93,538.174,792.93,579.476,792.93,579.476C792.93,579.476,577.976,579.476,577.976,579.476C577.976,579.476,579.821,793.03,579.821,793.03C579.821,793.03,579.821,793.03,579.821,793.03" class="icon-close full screen"/><glyph unicode="&#x002e;" d="M512.022,1024.456C229.247,1024.456,0,795.23,0,512.478C0,229.725,229.247,0.5,512,0.5C794.753,0.5,1024,229.747,1024,512.478C1024.022,795.23,794.775,1024.456,512.022,1024.456C512.022,1024.456,512.022,1024.456,512.022,1024.456M512.022,31.332C246.275,31.332,30.854,246.753,30.854,512.478C30.854,778.203,246.275,993.624,512.022,993.624C777.77,993.624,993.191,778.225,993.191,512.478C993.168,246.753,777.77,31.332,512.022,31.332C512.022,31.332,512.022,31.332,512.022,31.332M837.788,563.071C814.181,729.833,672.449,858.049,501.063,858.049C313.162,858.049,160.849,703.98,160.849,513.923C160.849,323.865,313.162,169.818,501.063,169.818C501.063,169.818,501.063,243.552,501.063,243.552C429.686,243.552,362.532,271.694,312.05,322.753C261.568,373.791,233.76,441.723,233.76,513.923C233.76,586.145,261.546,654.076,312.05,705.114C362.532,756.196,429.686,784.316,501.063,784.316C572.441,784.316,639.594,756.174,690.076,705.114C728.888,665.835,754.296,616.621,763.965,563.093C763.965,563.093,682.252,563.093,682.252,563.093C682.252,563.093,792.663,397.398,792.663,397.398C792.663,397.398,908.276,563.093,908.276,563.093C908.276,563.093,837.788,563.093,837.788,563.093C837.788,563.093,837.788,563.071,837.788,563.071" class="icon-replay"/><glyph unicode="&#x002f;" d="M707.055,715.991C707.055,715.991,330.215,715.991,330.215,715.991C305.03,715.991,284.58,696.652,284.58,672.823C284.58,648.972,305.03,629.655,330.215,629.655C330.215,629.655,707.055,629.655,707.055,629.655C732.284,629.655,752.712,648.972,752.712,672.823C752.712,696.674,732.284,715.991,707.055,715.991C707.055,715.991,707.055,715.991,707.055,715.991M707.055,555.034C707.055,555.034,330.215,555.034,330.215,555.034C305.03,555.034,284.58,535.695,284.58,511.866C284.58,488.038,305.03,468.721,330.215,468.721C330.215,468.721,707.055,468.721,707.055,468.721C732.284,468.721,752.712,488.038,752.712,511.866C752.712,535.695,732.284,555.034,707.055,555.034C707.055,555.034,707.055,555.034,707.055,555.034M512.511,1024.433C229.72,1024.433,0.5,795.213,0.5,512.467C0.5,229.698,229.72,0.5,512.511,0.5C795.28,0.5,1024.5,229.72,1024.5,512.467C1024.5,795.213,795.28,1024.433,512.511,1024.433C512.511,1024.433,512.511,1024.433,512.511,1024.433M512.511,31.331C246.769,31.331,31.353,246.725,31.353,512.467C31.353,778.164,246.769,993.58,512.511,993.58C778.208,993.58,993.647,778.186,993.647,512.467C993.647,246.747,778.208,31.331,512.511,31.331C512.511,31.331,512.511,31.331,512.511,31.331M707.055,397.79C707.055,397.79,330.215,397.79,330.215,397.79C305.03,397.79,284.58,378.473,284.58,354.644C284.58,330.793,305.03,311.477,330.215,311.477C330.215,311.477,707.055,311.477,707.055,311.477C732.284,311.477,752.712,330.793,752.712,354.644C752.712,378.473,732.284,397.79,707.055,397.79C707.055,397.79,707.055,397.79,707.055,397.79" class="icon-menu"/></font>
</defs>
</svg>
