<?xml version="1.0" standalone="no"?>
<!DOCTYPE svg PUBLIC "-//W3C//DTD SVG 1.1//EN" "http://www.w3.org/Graphics/SVG/1.1/DTD/svg11.dtd" >
<svg xmlns="http://www.w3.org/2000/svg" xmlns:xlink="http://www.w3.org/1999/xlink" version="1.1">
<metadata>
Created by FontForge 20160407 at Fri May  6 09:16:43 2016
 By Jimmy Wärting
\251 FontSite Inc., 1996-2013. All Rights Reserved. www.fontsite.com
</metadata>
<defs>
<font id="FunctionPro-CondensedExtraBd" horiz-adv-x="500" >
  <font-face 
    font-family="Function Pro Cond ExBd"
    font-weight="750"
    font-stretch="condensed"
    units-per-em="1000"
    panose-1="2 11 8 6 2 2 4 3 2 4"
    ascent="753"
    descent="-247"
    x-height="467"
    cap-height="667"
    bbox="-160 -247 983 912"
    underline-thickness="110"
    underline-position="-104"
    stemh="146"
    stemv="171"
    unicode-range="U+0020-FB02"
  />
<missing-glyph 
d="M50 0v668h400v-668h-400zM250 382l128 240h-256zM404 94v479l-128 -239zM96 94l128 240l-128 239v-479zM122 46h256l-128 240z" />
    <glyph glyph-name="f_i" unicode="fi" horiz-adv-x="547" 
d="M60 0v328h-50v139h50v86c0 58 10 97 33 126c30 37 71 57 121 57c25 0 46 -3 81 -12v-160c-17 13 -25 16 -36 16c-19 0 -26 -13 -26 -48v-65h62v-139h-62v-328h-173zM421 511c-55 0 -101 46 -101 101c0 56 45 101 101 101s101 -45 101 -102c0 -54 -46 -100 -101 -100z
M334 0v467h173v-467h-173z" />
    <glyph glyph-name="f_l" unicode="fl" horiz-adv-x="547" 
d="M60 0v328h-50v139h50v86c0 58 10 97 33 126c30 37 71 57 121 57c25 0 46 -3 81 -12v-160c-17 13 -25 16 -36 16c-19 0 -26 -13 -26 -48v-65h62v-139h-62v-328h-173zM334 0v729h173v-729h-173z" />
    <glyph glyph-name=".notdef" 
d="M50 0v668h400v-668h-400zM250 382l128 240h-256zM404 94v479l-128 -239zM96 94l128 240l-128 239v-479zM122 46h256l-128 240z" />
    <glyph glyph-name="space" unicode=" " horiz-adv-x="187" 
 />
    <glyph glyph-name="exclam" unicode="!" horiz-adv-x="322" 
d="M75 239v466h176v-466h-176zM60 92c0 55 46 101 101 101c57 0 102 -45 102 -103c0 -54 -46 -100 -102 -100c-55 0 -101 46 -101 102z" />
    <glyph glyph-name="quotedbl" unicode="&#x22;" horiz-adv-x="405" 
d="M238 392l-23 275h159l-24 -275h-112zM55 392l-24 275h159l-24 -275h-111z" />
    <glyph glyph-name="numbersign" unicode="#" horiz-adv-x="541" 
d="M101 0l24 201h-65v98h77l10 82h-64v98h77l23 188h102l-24 -188h54l23 188h103l-23 -188h62v-98h-75l-9 -82h63v-98h-76l-24 -201h-103l25 201h-54l-24 -201h-102zM239 299h54l10 82h-54z" />
    <glyph glyph-name="dollar" unicode="$" horiz-adv-x="532" 
d="M92 21v207c31 -47 74 -74 116 -74c31 0 52 17 52 43c0 15 -6 29 -19 41c-7 8 -7 8 -50 42c-71 56 -99 107 -99 178c0 57 19 110 54 151c24 28 46 42 90 61v93h81v-88c44 -6 65 -12 107 -33v-203c-39 50 -72 72 -109 72c-26 0 -45 -17 -45 -39c0 -21 3 -24 78 -82
c66 -51 93 -103 93 -176c0 -52 -16 -102 -44 -140c-23 -30 -42 -46 -85 -67v-101h-82v85c-64 3 -88 8 -138 30z" />
    <glyph glyph-name="percent" unicode="%" horiz-adv-x="689" 
d="M73 27l472 667l72 -50l-474 -667zM175 351c-90 0 -148 65 -148 166c0 97 58 160 146 160c86 0 143 -65 143 -162c0 -96 -58 -164 -141 -164zM172 448c17 0 27 23 27 64c0 44 -9 67 -27 67s-28 -23 -28 -66c0 -40 11 -65 28 -65zM374 156c0 97 58 160 146 160
c86 0 143 -65 143 -162c0 -96 -58 -164 -141 -164c-90 0 -148 65 -148 166zM491 152c0 -40 11 -65 28 -65s27 23 27 64c0 44 -9 67 -27 67s-28 -23 -28 -66z" />
    <glyph glyph-name="ampersand" unicode="&#x26;" horiz-adv-x="630" 
d="M425 0l-26 36c-48 -32 -97 -48 -148 -48c-116 0 -211 92 -211 206c0 73 40 134 115 177c-33 41 -52 90 -52 131c0 98 83 177 185 177c112 0 203 -81 203 -180c0 -66 -38 -125 -113 -174l65 -86c21 22 25 28 62 77l92 -122c-32 -34 -43 -46 -69 -70l92 -124h-195zM298 440
c34 34 41 45 41 67c0 19 -16 35 -36 35s-37 -16 -37 -35c0 -17 6 -29 32 -67zM308 160l-66 88c-22 -14 -31 -28 -31 -50c0 -30 23 -55 52 -55c16 0 29 5 45 17z" />
    <glyph glyph-name="quoteright" unicode="&#x2019;" horiz-adv-x="325" 
d="M33 346l82 321h176l-116 -321h-142z" />
    <glyph glyph-name="parenleft" unicode="(" horiz-adv-x="335" 
d="M302 -142l-130 -70c-84 152 -125 305 -125 472c0 166 41 320 125 472l130 -70c-64 -125 -100 -272 -100 -402s36 -277 100 -402z" />
    <glyph glyph-name="parenright" unicode=")" horiz-adv-x="335" 
d="M33 -142c64 126 100 272 100 402s-36 276 -100 402l129 70c85 -151 126 -306 126 -472s-41 -320 -126 -472z" />
    <glyph glyph-name="asterisk" unicode="*" horiz-adv-x="533" 
d="M207 372l-91 67l70 85l-107 28l35 107l103 -40l-7 110h113l-7 -110l103 40l35 -107l-107 -28l70 -85l-91 -67l-60 93z" />
    <glyph glyph-name="plus" unicode="+" horiz-adv-x="533" 
d="M214 110v178h-167v104h167v178h107v-178h166v-104h-166v-178h-107z" />
    <glyph glyph-name="comma" unicode="," horiz-adv-x="293" 
d="M4 -161l82 321h176l-116 -321h-142z" />
    <glyph glyph-name="hyphen" unicode="-" horiz-adv-x="217" 
d="M0 173v133h217v-133h-217z" />
    <glyph glyph-name="period" unicode="." horiz-adv-x="294" 
d="M45 92c0 55 45 100 100 100c57 0 102 -46 102 -103c0 -54 -46 -99 -101 -99s-101 46 -101 102z" />
    <glyph glyph-name="slash" unicode="/" horiz-adv-x="591" 
d="M3 -159l477 891l94 -50l-477 -894z" />
    <glyph glyph-name="zero" unicode="0" horiz-adv-x="532" 
d="M273 -12c-151 0 -242 132 -242 352c0 207 92 339 238 339s233 -130 233 -350c0 -208 -89 -341 -229 -341zM227 178c9 -23 21 -34 39 -34c40 0 59 60 59 188c0 132 -18 192 -59 192c-40 0 -58 -55 -58 -173c0 -70 8 -145 19 -173z" />
    <glyph glyph-name="one" unicode="1" horiz-adv-x="532" 
d="M206 1v509h-72v157h252v-667z" />
    <glyph glyph-name="two" unicode="2" horiz-adv-x="532" 
d="M29 0l182 243c83 111 110 166 110 229c0 35 -17 59 -42 59c-27 0 -43 -30 -43 -82c0 -8 0 -13 1 -24h-175c-1 11 -1 18 -1 24c0 134 93 230 222 230c126 0 214 -90 214 -218c0 -104 -51 -195 -175 -313c59 4 76 5 166 6v-154h-459z" />
    <glyph glyph-name="three" unicode="3" horiz-adv-x="533" 
d="M225 477h-173c9 124 92 202 215 202c118 0 208 -84 208 -194c0 -62 -26 -107 -81 -140c60 -34 90 -86 90 -155c0 -118 -94 -202 -226 -202c-93 0 -165 41 -200 112c-15 31 -19 50 -19 96h176c1 -42 14 -60 44 -60c29 0 49 25 49 62c0 44 -27 70 -73 70c-8 0 -14 0 -31 -2
v142c9 -1 18 -1 21 -1c52 0 74 20 74 68c0 33 -15 55 -38 55s-32 -13 -36 -53z" />
    <glyph glyph-name="four" unicode="4" horiz-adv-x="532" 
d="M27 135v140l201 392h221v-389h57v-143h-57v-135h-180v135h-242zM176 278h99l3 125c0 19 1 36 4 76c-59 -126 -69 -145 -106 -201z" />
    <glyph glyph-name="five" unicode="5" horiz-adv-x="532" 
d="M47 40l21 158c55 -32 100 -46 143 -46c55 0 93 30 93 75c0 46 -40 74 -107 74c-40 0 -73 -6 -117 -23l51 389h332v-157h-190l-14 -75c11 1 22 1 30 1c110 0 195 -89 195 -206c0 -138 -109 -242 -253 -242c-61 0 -126 19 -184 52z" />
    <glyph glyph-name="six" unicode="6" horiz-adv-x="532" 
d="M404 667l-107 -190c-11 -19 -16 -27 -33 -52c28 15 42 19 64 19c91 0 164 -94 164 -213c0 -144 -95 -243 -232 -243c-130 0 -218 97 -218 241c0 50 9 92 34 159c19 49 48 114 73 162l61 117h194zM268 132c33 0 51 33 51 94c0 56 -19 88 -52 88c-31 0 -49 -32 -49 -89
c0 -61 17 -93 50 -93z" />
    <glyph glyph-name="seven" unicode="7" horiz-adv-x="532" 
d="M39 0l161 355c28 62 53 105 86 155h-226v157h473l-300 -667h-194z" />
    <glyph glyph-name="eight" unicode="8" horiz-adv-x="532" 
d="M39 190c0 48 19 92 52 122c16 15 30 23 61 35c-68 24 -100 68 -100 140c0 111 90 192 211 192c125 0 219 -81 219 -187c0 -34 -11 -69 -28 -94c-15 -22 -29 -34 -64 -51c72 -30 104 -79 104 -157c0 -57 -21 -106 -61 -141c-44 -39 -105 -61 -167 -61
c-126 0 -227 90 -227 202zM267 419c23 0 38 23 38 58c0 36 -15 59 -39 59c-22 0 -37 -22 -37 -56c0 -38 14 -61 38 -61zM267 142c26 0 44 28 44 67c0 40 -18 67 -45 67c-25 0 -44 -29 -44 -68s18 -66 45 -66z" />
    <glyph glyph-name="nine" unicode="9" horiz-adv-x="532" 
d="M128 0l106 190c11 19 16 27 33 52c-27 -15 -41 -19 -63 -19c-91 0 -164 94 -164 213c0 144 95 243 232 243c130 0 218 -97 218 -241c0 -50 -8 -92 -34 -159c-18 -48 -49 -114 -74 -162l-61 -117h-193zM265 353c31 0 49 32 49 90c0 61 -17 93 -50 93s-51 -33 -51 -94
c0 -57 19 -89 52 -89z" />
    <glyph glyph-name="colon" unicode=":" horiz-adv-x="294" 
d="M146 276c-55 0 -101 46 -101 102c0 55 45 100 100 100c57 0 102 -46 102 -103c0 -54 -46 -99 -101 -99zM45 92c0 55 45 100 100 100c57 0 102 -46 102 -103c0 -54 -46 -99 -101 -99s-101 46 -101 102z" />
    <glyph glyph-name="semicolon" unicode=";" horiz-adv-x="293" 
d="M179 275c-55 0 -101 46 -101 102c0 55 45 100 100 100c57 0 102 -46 102 -103c0 -54 -46 -99 -101 -99zM4 -161l82 321h176l-116 -321h-142z" />
    <glyph glyph-name="less" unicode="&#x3c;" 
d="M33 260v158l433 240v-189l-233 -131l232 -132l1 -187z" />
    <glyph glyph-name="equal" unicode="=" horiz-adv-x="533" 
d="M40 368v94h453v-94h-453zM40 218v94h453v-94h-453z" />
    <glyph glyph-name="greater" unicode="&#x3e;" 
d="M33 19v189l233 131l-232 132l-1 187l433 -241v-158z" />
    <glyph glyph-name="question" unicode="?" horiz-adv-x="508" 
d="M169 241v163c12 -1 21 -1 27 -1c65 0 93 27 93 88c0 46 -14 74 -38 74c-26 0 -37 -23 -37 -76h-174c0 58 8 93 29 130c32 57 104 95 182 95c127 0 217 -92 217 -219c0 -96 -46 -163 -128 -185v-69h-171zM156 91c0 56 46 102 101 102c57 0 102 -45 102 -103
c0 -54 -46 -100 -102 -100c-55 0 -101 46 -101 101z" />
    <glyph glyph-name="at" unicode="@" horiz-adv-x="693" 
d="M556 126l38 -74c-85 -48 -138 -63 -220 -63c-68 0 -128 16 -178 47c-95 60 -153 174 -153 298c0 194 139 344 318 344c163 0 289 -129 289 -296c0 -130 -75 -240 -165 -240c-28 0 -46 12 -66 42c-34 -33 -56 -44 -88 -44c-71 0 -125 77 -125 179c0 112 65 197 150 197
c26 0 42 -7 66 -28l5 20h76l-26 -219c-1 -12 -2 -25 -2 -40c0 -19 4 -27 15 -27c36 0 73 77 73 154c0 127 -85 219 -202 219c-126 0 -224 -114 -224 -261c0 -150 97 -260 228 -260c65 0 136 19 191 52zM338 228c36 0 70 57 70 117c0 47 -20 82 -47 82
c-34 0 -60 -50 -60 -114c0 -50 16 -85 37 -85z" />
    <glyph glyph-name="A" unicode="A" horiz-adv-x="532" 
d="M5 0l160 667h221l141 -667h-187l-13 85h-121l-15 -85h-186zM230 228h76l-12 78c0 3 -2 18 -7 57l-5 40c-2 15 -3 30 -5 54l-5 51l-7 -53c-3 -24 -6 -65 -16 -122z" />
    <glyph glyph-name="B" unicode="B" horiz-adv-x="530" 
d="M47 0v667h209c82 0 135 -16 174 -52c37 -34 58 -84 58 -137c0 -48 -18 -87 -51 -112c-19 -15 -36 -21 -74 -24c48 -7 71 -16 94 -36c27 -25 43 -68 43 -115c0 -114 -81 -191 -201 -191h-252zM227 408c30 0 41 2 52 8c19 10 30 28 30 49c0 37 -23 58 -64 58
c-3 0 -10 0 -18 -1v-114zM227 145c7 -1 12 -1 15 -1c45 0 74 25 74 65s-28 64 -75 64c-2 0 -8 0 -14 -1v-127z" />
    <glyph glyph-name="C" unicode="C" horiz-adv-x="445" 
d="M422 205l-11 -193c-44 -18 -69 -24 -107 -24c-81 0 -154 36 -204 101c-47 61 -70 140 -70 242c0 112 28 196 87 260c54 58 125 88 208 88c35 0 57 -4 89 -16v-191c-30 30 -51 40 -83 40c-73 0 -117 -67 -117 -178c0 -108 42 -172 114 -172c34 0 58 11 94 43z" />
    <glyph glyph-name="D" unicode="D" horiz-adv-x="537" 
d="M47 0v667h156c99 0 170 -28 223 -88c56 -63 82 -142 82 -246c0 -109 -28 -197 -83 -256c-49 -54 -112 -77 -210 -77h-168zM227 161c64 3 97 60 97 167c0 105 -37 176 -91 173c-1 0 -3 0 -6 -1v-339z" />
    <glyph glyph-name="E" unicode="E" horiz-adv-x="411" 
d="M47 0v667h335v-157h-155v-97h139v-151h-139v-102h155v-160h-335z" />
    <glyph glyph-name="F" unicode="F" horiz-adv-x="388" 
d="M47 0v667h318v-157h-138v-97h129v-151h-129v-262h-180z" />
    <glyph glyph-name="G" unicode="G" horiz-adv-x="560" 
d="M531 385v-27c0 -118 -13 -193 -44 -255c-36 -71 -112 -115 -199 -115c-161 0 -258 128 -258 342c0 216 98 349 257 349c105 0 182 -55 229 -165l-174 -65c-5 43 -26 69 -54 69c-49 0 -74 -68 -74 -205c0 -115 21 -165 68 -165c39 0 63 36 63 97h-66v140h252z" />
    <glyph glyph-name="H" unicode="H" horiz-adv-x="539" 
d="M47 0v667h180v-236h86v236h180v-667h-180v268h-86v-268h-180z" />
    <glyph glyph-name="I" unicode="I" horiz-adv-x="273" 
d="M47 0v667h180v-667h-180z" />
    <glyph glyph-name="J" unicode="J" horiz-adv-x="354" 
d="M0 10v186c21 -26 44 -39 72 -39c38 0 55 26 55 83v427h180v-463c0 -79 -12 -120 -45 -159c-32 -37 -82 -57 -145 -57c-38 0 -72 6 -117 22z" />
    <glyph glyph-name="K" unicode="K" horiz-adv-x="541" 
d="M47 0v667h180l-5 -286l106 286h191l-144 -322l161 -345h-194l-120 307l5 -307h-180z" />
    <glyph glyph-name="L" unicode="L" horiz-adv-x="369" 
d="M47 0v667h180v-507h135v-160h-315z" />
    <glyph glyph-name="M" unicode="M" horiz-adv-x="766" 
d="M30 0l78 667h224l38 -225c8 -49 9 -63 14 -130c4 43 8 72 16 113l46 242h222l65 -667h-188l-14 304l-1 36l-1 42c0 4 -1 25 -2 43c-4 -42 -8 -73 -18 -128l-56 -297h-147l-52 321c-6 39 -8 62 -12 104c0 -27 1 -76 -3 -147l-16 -278h-193z" />
    <glyph glyph-name="N" unicode="N" horiz-adv-x="563" 
d="M47 0v667h172l90 -234c13 -34 18 -51 30 -89c9 -26 16 -48 25 -79c-15 130 -20 188 -20 252v150h172v-667h-172l-90 245c-27 75 -33 91 -46 139c8 -100 11 -157 11 -214v-170h-172z" />
    <glyph glyph-name="O" unicode="O" horiz-adv-x="567" 
d="M105 77c-49 61 -75 152 -75 262s26 194 79 255c48 56 109 85 177 85c154 0 251 -135 251 -348c0 -203 -101 -343 -250 -343c-68 0 -138 34 -182 89zM283 157c42 0 67 66 67 173c0 117 -23 181 -64 181c-42 0 -69 -68 -69 -177c0 -111 24 -177 66 -177z" />
    <glyph glyph-name="P" unicode="P" horiz-adv-x="505" 
d="M47 0v667h174c90 0 150 -16 194 -53c49 -41 74 -101 74 -174c0 -86 -35 -156 -94 -192c-35 -21 -78 -30 -140 -30c-4 0 -16 0 -28 1v-219h-180zM227 368h8c44 0 72 30 72 75c0 46 -28 82 -67 79l-13 -1v-153z" />
    <glyph glyph-name="Q" unicode="Q" horiz-adv-x="574" 
d="M399 -93l-61 89c-22 -6 -34 -8 -54 -8c-77 0 -148 40 -193 108c-42 62 -61 137 -61 236c0 111 25 197 75 260c44 55 109 87 179 87c150 0 253 -137 253 -338c0 -114 -25 -202 -75 -263l82 -92zM283 157c42 0 67 65 67 173c0 114 -25 181 -68 181c-39 0 -65 -70 -65 -178
c0 -111 25 -176 66 -176z" />
    <glyph glyph-name="R" unicode="R" horiz-adv-x="533" 
d="M47 0v667h184c82 0 142 -16 182 -48c49 -39 77 -103 77 -175c0 -82 -33 -135 -103 -167l134 -277h-195l-61 164c-21 56 -34 94 -40 113c2 -73 2 -74 2 -88v-189h-180zM227 359c4 -1 10 -1 12 -1c41 0 72 36 72 84c0 51 -27 75 -84 75v-158z" />
    <glyph glyph-name="S" unicode="S" horiz-adv-x="404" 
d="M33 17v209c35 -48 74 -73 114 -73c31 0 53 18 53 43c0 26 -4 31 -61 75c-77 60 -109 116 -109 189c0 60 26 123 68 165c35 35 81 54 135 54c43 0 86 -11 129 -34v-204c-29 45 -69 73 -105 73c-26 0 -48 -18 -48 -40c0 -23 9 -34 65 -74c76 -55 107 -109 107 -186
c0 -130 -90 -226 -212 -226c-45 0 -89 9 -136 29z" />
    <glyph glyph-name="T" unicode="T" horiz-adv-x="383" 
d="M99 0v507h-99v160h383v-160h-104v-507h-180z" />
    <glyph glyph-name="U" unicode="U" horiz-adv-x="545" 
d="M499 667v-472c0 -71 -18 -114 -67 -155c-40 -35 -90 -52 -150 -52c-67 0 -128 21 -170 58c-45 40 -65 93 -65 175v446h180v-430c0 -58 13 -80 46 -80c18 0 33 9 39 23s7 20 7 56v431h180z" />
    <glyph glyph-name="V" unicode="V" horiz-adv-x="518" 
d="M153 0l-153 667h189l33 -191c16 -93 22 -152 30 -244c4 64 11 127 28 214l42 221h196l-182 -667h-183z" />
    <glyph glyph-name="W" unicode="W" horiz-adv-x="753" 
d="M148 0l-148 667h178l29 -184l17 -114c3 -19 3 -22 13 -119c4 45 7 70 7 76c4 36 6 59 22 150l33 191h155l30 -160c15 -80 31 -196 38 -265c4 61 14 163 23 218l32 207h176l-135 -667h-173l-42 234l-6 36l-20 147l-5 -43l-5 -48c-4 -34 -5 -56 -9 -84l-34 -242h-176z" />
    <glyph glyph-name="X" unicode="X" horiz-adv-x="517" 
d="M0 0l162 346l-153 321h200l30 -90c1 -3 4 -11 6 -19l15 -49c8 38 10 48 16 67l27 91h202l-152 -321l164 -346h-200l-33 95c-15 42 -22 70 -26 84c-4 -14 -8 -24 -9 -29l-9 -30c-4 -14 -8 -25 -11 -32l-33 -88h-196z" />
    <glyph glyph-name="Y" unicode="Y" 
d="M166 0v283l-166 384h188l33 -99c17 -52 19 -61 30 -107c15 57 22 77 31 106l32 100h187l-155 -384v-283h-180z" />
    <glyph glyph-name="Z" unicode="Z" horiz-adv-x="515" 
d="M17 0v14l143 326c45 102 53 113 90 170h-193v157h441v-19l-163 -363c-10 -21 -31 -66 -64 -133c33 3 55 4 66 4l139 4v-160h-459z" />
    <glyph glyph-name="bracketleft" unicode="[" horiz-adv-x="349" 
d="M60 -209v938h255v-119h-102v-700h102v-119h-255z" />
    <glyph glyph-name="backslash" unicode="\" horiz-adv-x="591" 
d="M494 -212l-477 894l94 50l477 -891z" />
    <glyph glyph-name="bracketright" unicode="]" horiz-adv-x="349" 
d="M33 -90h103v700h-103v119h256v-938h-256v119z" />
    <glyph glyph-name="asciicircum" unicode="^" 
d="M6 337l139 335h209l140 -335h-165l-79 207l-79 -207h-165z" />
    <glyph glyph-name="underscore" unicode="_" 
d="M0 -49h500v-110h-500v110z" />
    <glyph glyph-name="quoteleft" unicode="&#x2018;" horiz-adv-x="332" 
d="M40 346l116 321h142l-81 -321h-177z" />
    <glyph glyph-name="a" unicode="a" horiz-adv-x="497" 
d="M457 0h-173c1 10 1 19 1 22c1 14 2 23 2 26c0 5 1 17 3 31c-32 -63 -67 -89 -121 -89c-88 0 -142 94 -142 247c0 148 56 240 147 240c49 0 81 -24 112 -84l-5 74h176v-467zM241 133c28 0 41 33 41 106c0 69 -10 95 -37 95c-29 0 -43 -37 -43 -116c0 -57 13 -85 39 -85z
" />
    <glyph glyph-name="b" unicode="b" horiz-adv-x="497" 
d="M40 0v729h173v-255l-1 -23v-24c0 -3 -1 -15 -2 -27c31 56 61 77 111 77c95 0 149 -91 149 -248c0 -80 -15 -140 -44 -183c-24 -34 -66 -56 -106 -56c-46 0 -73 19 -107 73c1 -11 1 -21 2 -24l1 -19c0 -3 0 -11 1 -20h-177zM248 139c27 0 43 34 43 94
c0 66 -15 100 -44 100c-25 0 -39 -35 -39 -95c0 -65 13 -99 40 -99z" />
    <glyph glyph-name="c" unicode="c" horiz-adv-x="303" 
d="M283 152v-159c-18 -2 -37 -3 -47 -3c-57 0 -109 22 -143 60c-41 46 -66 118 -66 186c0 138 95 241 221 241c8 0 20 -1 35 -2v-152c-50 -3 -77 -33 -77 -83c0 -48 29 -88 65 -88h12z" />
    <glyph glyph-name="d" unicode="d" horiz-adv-x="497" 
d="M281 20l1 19c1 3 1 13 2 24c-34 -54 -61 -73 -107 -73c-40 0 -82 22 -106 56c-29 43 -44 103 -44 183c0 157 54 248 149 248c50 0 80 -21 111 -77c-1 12 -2 26 -2 27c0 16 -1 32 -1 47v255h173v-729h-177c1 9 1 17 1 20zM249 139c27 0 40 34 40 99c0 60 -14 95 -39 95
c-28 0 -44 -34 -44 -98c0 -62 15 -96 43 -96z" />
    <glyph glyph-name="e" unicode="e" horiz-adv-x="481" 
d="M279 158l169 -3c-23 -107 -97 -165 -207 -165c-133 0 -214 89 -214 235c0 148 90 251 218 251c127 0 210 -98 210 -248c0 -6 0 -17 -1 -31h-254c3 -50 15 -72 40 -72c19 0 33 12 39 33zM202 290h81c-2 37 -17 59 -41 59c-23 0 -38 -22 -40 -59z" />
    <glyph glyph-name="f" unicode="f" horiz-adv-x="301" 
d="M60 0v328h-50v139h50v86c0 58 10 97 33 126c30 37 71 57 121 57c25 0 46 -3 81 -12v-160c-17 13 -25 16 -36 16c-19 0 -26 -13 -26 -48v-65h62v-139h-62v-328h-173z" />
    <glyph glyph-name="g" unicode="g" horiz-adv-x="493" 
d="M33 -48h177c2 -24 15 -38 37 -38c28 0 40 19 40 66v74c-30 -40 -68 -61 -109 -61c-90 0 -151 97 -151 241c0 143 62 243 150 243c41 0 67 -18 105 -71l-4 61h175v-481c0 -77 -18 -123 -64 -158c-38 -30 -88 -45 -146 -45c-127 0 -193 53 -210 169zM246 136
c26 0 39 33 39 99c0 67 -13 101 -37 101c-27 0 -42 -35 -42 -99c0 -62 15 -101 40 -101z" />
    <glyph glyph-name="h" unicode="h" horiz-adv-x="491" 
d="M40 0v729h173v-260c0 -24 -2 -41 -2 -51l-1 -22l-1 -18c28 66 70 99 123 99c38 0 76 -21 96 -54c16 -26 23 -57 23 -104v-319h-173v247c0 42 -7 57 -28 57c-25 0 -37 -22 -37 -69v-235h-173z" />
    <glyph glyph-name="i" unicode="i" horiz-adv-x="253" 
d="M127 511c-55 0 -101 46 -101 101c0 56 45 101 101 101s101 -45 101 -102c0 -54 -46 -100 -101 -100zM40 0v467h173v-467h-173z" />
    <glyph glyph-name="j" unicode="j" horiz-adv-x="254" 
d="M127 511c-55 0 -101 46 -101 101c0 56 45 101 101 101s101 -45 101 -102c0 -54 -46 -100 -101 -100zM41 -205l-1 672h174v-672h-173z" />
    <glyph glyph-name="k" unicode="k" horiz-adv-x="495" 
d="M40 0v729h173v-472c9 28 13 39 26 72l56 138h188l-115 -214l126 -253h-199l-67 181c-3 11 -7 22 -15 53v-234h-173z" />
    <glyph glyph-name="l" unicode="l" horiz-adv-x="253" 
d="M40 0v729h173v-729h-173z" />
    <glyph glyph-name="m" unicode="m" horiz-adv-x="733" 
d="M40 0v467h173c0 -11 -1 -24 -1 -24v-25c-1 -5 -1 -15 -2 -29c33 63 68 88 121 88c57 0 95 -30 123 -97c24 68 59 97 116 97c42 0 79 -19 100 -52c17 -27 23 -53 23 -105v-320h-173v245c0 50 -6 64 -26 64c-27 0 -40 -24 -40 -73v-236h-173v235c0 41 0 46 -4 54
c-5 11 -13 17 -25 17c-17 0 -31 -12 -35 -29c-3 -10 -4 -20 -4 -44v-233h-173z" />
    <glyph glyph-name="n" unicode="n" horiz-adv-x="491" 
d="M40 0v467h173l-2 -49l-2 -40c28 66 70 99 123 99c38 0 76 -21 96 -54c16 -26 23 -57 23 -104v-319h-173v247c0 42 -7 57 -28 57c-25 0 -37 -22 -37 -69v-235h-173z" />
    <glyph glyph-name="o" unicode="o" horiz-adv-x="487" 
d="M27 232c0 147 86 245 215 245c137 0 219 -94 219 -251c0 -144 -86 -236 -220 -236c-131 0 -214 94 -214 242zM244 121c29 0 49 46 49 111c0 69 -20 114 -49 114s-49 -46 -49 -112c0 -67 20 -113 49 -113z" />
    <glyph glyph-name="p" unicode="p" horiz-adv-x="495" 
d="M40 -209v676h173l-4 -66c29 55 59 76 107 76c91 0 152 -99 152 -244c0 -149 -58 -243 -149 -243c-45 0 -76 21 -110 73c2 -22 4 -65 4 -77v-195h-173zM247 136c26 0 42 39 42 102c0 60 -15 96 -41 96c-25 0 -40 -36 -40 -98s15 -100 39 -100z" />
    <glyph glyph-name="q" unicode="q" horiz-adv-x="495" 
d="M282 -209v195c0 12 2 55 4 77c-34 -53 -65 -73 -110 -73c-91 0 -149 94 -149 243c0 145 62 244 152 244c48 0 78 -21 107 -76l-4 66h173v-676h-173zM248 136c24 0 39 38 39 100s-15 98 -40 98s-41 -37 -41 -94c0 -65 16 -104 42 -104z" />
    <glyph glyph-name="r" unicode="r" horiz-adv-x="344" 
d="M40 0v467h173l-9 -91c23 65 72 103 130 102v-194c-21 12 -34 16 -48 16c-21 0 -42 -11 -55 -27c-14 -18 -18 -34 -18 -73v-200h-173z" />
    <glyph glyph-name="s" unicode="s" horiz-adv-x="395" 
d="M23 39l63 129c30 -31 61 -49 87 -49c19 0 33 10 33 24c0 16 -11 25 -45 37c-85 30 -122 72 -122 137c0 92 82 160 191 160c47 0 88 -11 139 -38l-59 -127c-30 30 -51 42 -71 42c-15 0 -27 -10 -27 -22c0 -18 13 -29 52 -45c44 -17 58 -25 74 -40c24 -22 38 -56 38 -92
c0 -42 -18 -85 -48 -115c-34 -34 -79 -50 -138 -50c-57 0 -95 11 -167 49z" />
    <glyph glyph-name="t" unicode="t" horiz-adv-x="301" 
d="M63 0v328h-49v139h49v137h173v-137h58v-139h-58v-328h-173z" />
    <glyph glyph-name="u" unicode="u" horiz-adv-x="499" 
d="M459 467v-287c0 -70 -20 -113 -67 -147c-40 -28 -90 -43 -143 -43c-52 0 -102 15 -142 43c-47 34 -67 77 -67 147v287h173v-263c0 -54 8 -69 37 -69c28 0 36 15 36 69v263h173z" />
    <glyph glyph-name="v" unicode="v" horiz-adv-x="446" 
d="M129 0l-129 467h175l27 -137c9 -48 9 -50 20 -158c9 72 15 110 23 149l30 146h171l-136 -467h-181z" />
    <glyph glyph-name="w" unicode="w" horiz-adv-x="682" 
d="M116 0l-116 467h170l27 -150c5 -29 13 -89 17 -131c3 35 10 85 23 145l30 136h148l25 -150c8 -48 11 -78 16 -131c9 71 17 114 28 165l25 116h173l-136 -467h-171l-36 280l-53 -280h-170z" />
    <glyph glyph-name="x" unicode="x" horiz-adv-x="482" 
d="M0 0l142 240l-134 227h197l19 -53l7 -23l8 -25c4 14 8 22 9 26l9 25l20 50h192l-138 -223l151 -244h-201l-16 43c-1 3 -3 11 -13 37l-3 8l-6 22c-11 -28 -14 -38 -28 -67l-21 -43h-194z" />
    <glyph glyph-name="y" unicode="y" horiz-adv-x="456" 
d="M139 19l-139 448h174l33 -134c8 -33 18 -86 22 -131c13 93 18 125 28 164l26 101h173l-215 -663h-178z" />
    <glyph glyph-name="z" unicode="z" horiz-adv-x="435" 
d="M17 0l113 242c13 28 24 50 44 86h-132v139h377l-111 -238c-17 -36 -23 -48 -45 -88h128v-141h-374z" />
    <glyph glyph-name="braceleft" unicode="{" horiz-adv-x="367" 
d="M106 -59v179c0 61 -12 79 -55 88v113c27 6 34 9 43 22c6 9 12 38 12 56v181c0 109 46 152 162 152c9 0 10 0 40 -1c12 -1 20 -1 42 -1v-121h-10h-20c-63 0 -69 -5 -69 -70v-149c0 -70 -13 -97 -60 -130c45 -31 60 -63 60 -131v-148c0 -66 5 -71 71 -71c6 0 9 0 28 1v-121
h-29c-6 -1 -21 -2 -44 -2h-11c-113 0 -160 45 -160 153z" />
    <glyph glyph-name="bar" unicode="|" 
d="M155 -167v834h191v-834h-191z" />
    <glyph glyph-name="braceright" unicode="}" horiz-adv-x="367" 
d="M17 -89h10h20c63 0 69 5 69 70v149c0 70 13 97 60 130c-45 31 -60 63 -60 131v148c0 66 -5 71 -71 71c-6 0 -9 0 -28 -1v121h29c6 1 14 0 26 1l18 1h11c113 0 160 -45 160 -153v-179c0 -61 12 -79 55 -88v-113c-27 -6 -34 -9 -43 -22c-6 -9 -12 -38 -12 -56v-181
c0 -109 -46 -152 -162 -152c-9 0 -10 0 -40 1c-12 1 -21 1 -42 1v121z" />
    <glyph glyph-name="asciitilde" unicode="~" horiz-adv-x="667" 
d="M156 561l-63 52c36 86 84 129 145 129c25 0 56 -9 113 -35c55 -24 64 -27 82 -27c31 0 54 19 79 65l63 -52c-38 -91 -82 -127 -155 -127c-25 0 -40 5 -112 37c-35 16 -58 23 -75 23c-30 0 -52 -19 -77 -65z" />
    <glyph glyph-name="exclamdown" unicode="&#xa1;" horiz-adv-x="322" 
d="M162 303c-57 0 -102 45 -102 103c0 54 46 100 102 100c55 0 101 -46 101 -101c0 -56 -46 -102 -101 -102zM71 -209v466h176v-466h-176z" />
    <glyph glyph-name="cent" unicode="&#xa2;" horiz-adv-x="532" 
d="M243 18v110c-82 47 -125 123 -125 222c0 58 18 115 49 159c20 28 39 44 76 63v79h84v-58c7 1 12 1 16 1c7 0 14 -1 32 -4v-148c-48 -2 -77 -34 -77 -86c0 -46 29 -83 65 -83c4 0 7 0 12 1v-162c-9 -1 -15 -1 -18 -1l-18 -1l-12 -1v-91h-84z" />
    <glyph glyph-name="sterling" unicode="&#xa3;" horiz-adv-x="532" 
d="M45 78c41 29 47 33 78 48c15 26 18 38 18 67c0 30 -4 52 -17 95h-62v93h33c-21 69 -24 82 -24 116c0 103 84 180 196 180c71 0 137 -32 194 -93l-96 -96c-23 37 -41 50 -66 50c-26 0 -48 -24 -48 -52c0 -13 1 -19 16 -68c6 -19 7 -23 9 -37h161v-93h-150v-12
c0 -37 -16 -81 -43 -117c30 -2 42 -5 74 -21c19 -9 25 -11 37 -11c22 0 37 9 53 32l89 -48c-30 -82 -84 -123 -158 -123c-27 0 -54 5 -84 17c-50 19 -52 21 -74 21c-29 0 -51 -8 -86 -30z" />
    <glyph glyph-name="fraction" unicode="&#x2044;" horiz-adv-x="139" 
d="M-88 -44l-72 39l385 716l74 -39z" />
    <glyph glyph-name="yen" unicode="&#xa5;" horiz-adv-x="533" 
d="M183 0v223h-160v72h154l-28 66h-126v72h95l-101 234h188l33 -99c17 -52 19 -62 30 -108c15 57 22 78 31 107l32 100h186l-93 -234h87v-72h-116l-27 -66h143v-72h-148v-223h-180z" />
    <glyph glyph-name="florin" unicode="&#x192;" horiz-adv-x="533" 
d="M75 23c28 -2 28 -2 31 -2c30 0 43 9 47 36l45 272h-55l23 140h55l17 97c21 121 65 167 163 167c25 0 30 -1 79 -11l-19 -138c-7 1 -13 1 -15 2c-12 1 -13 1 -18 1c-20 0 -31 -10 -35 -34l-15 -84h54l-24 -140h-53l-49 -288c-20 -119 -76 -173 -177 -173
c-22 0 -39 3 -76 13z" />
    <glyph glyph-name="section" unicode="&#xa7;" horiz-adv-x="533" 
d="M46 8h149c0 -30 2 -41 7 -56c10 -23 33 -37 64 -37c35 0 60 24 60 58c0 31 -14 45 -83 81c-66 35 -100 55 -126 75c-46 37 -68 82 -68 140c0 57 24 104 72 140c-43 53 -56 83 -56 134c0 111 89 190 212 190c78 0 141 -33 172 -89c18 -34 23 -57 23 -130v-5h-142
c-1 5 -1 8 -1 10l-1 25c-2 42 -25 68 -63 68c-34 0 -55 -19 -55 -50c0 -19 7 -33 22 -45c13 -11 13 -11 110 -62c105 -55 144 -104 144 -180c0 -53 -23 -99 -66 -134c52 -41 73 -83 73 -145c0 -122 -96 -210 -228 -210c-80 0 -152 33 -188 88c-24 36 -31 68 -31 134z
M268 205c39 0 65 26 65 65s-26 65 -65 65s-66 -26 -66 -63c0 -38 28 -67 66 -67z" />
    <glyph glyph-name="currency" unicode="&#xa4;" horiz-adv-x="706" 
d="M113 31l-89 89l105 104c-23 41 -36 87 -36 130c0 46 12 86 38 133l-107 106l90 90l108 -108c49 26 84 36 131 36s82 -9 129 -35l107 106l89 -89l-104 -104c28 -48 40 -88 40 -135c0 -45 -10 -82 -36 -129l104 -104l-88 -90l-104 104c-47 -28 -88 -40 -136 -40
c-47 0 -86 11 -137 39zM353 245c60 0 109 49 109 110c0 59 -49 109 -107 109c-62 0 -110 -48 -110 -110c0 -60 49 -109 108 -109z" />
    <glyph glyph-name="quotesingle" unicode="'" horiz-adv-x="222" 
d="M55 392l-24 275h159l-24 -275h-111z" />
    <glyph glyph-name="quotedblleft" unicode="&#x201c;" horiz-adv-x="568" 
d="M277 346l116 321h142l-82 -321h-176zM40 346l116 321h142l-81 -321h-177z" />
    <glyph glyph-name="guillemotleft" unicode="&#xab;" horiz-adv-x="483" 
d="M227 240l152 201l77 -58l-113 -143l113 -143l-77 -58zM179 39l-152 201l152 201l77 -58l-113 -143l113 -143z" />
    <glyph glyph-name="guilsinglleft" unicode="&#x2039;" horiz-adv-x="283" 
d="M179 39l-152 201l152 201l77 -58l-113 -143l113 -143z" />
    <glyph glyph-name="guilsinglright" unicode="&#x203a;" horiz-adv-x="283" 
d="M27 97l113 143l-113 143l78 58l151 -201l-151 -201z" />
    <glyph glyph-name="fi" unicode="&#xe103;" horiz-adv-x="547" 
d="M60 0v328h-50v139h50v86c0 58 10 97 33 126c30 37 71 57 121 57c25 0 46 -3 81 -12v-160c-17 13 -25 16 -36 16c-19 0 -26 -13 -26 -48v-65h62v-139h-62v-328h-173zM421 511c-55 0 -101 46 -101 101c0 56 45 101 101 101s101 -45 101 -102c0 -54 -46 -100 -101 -100z
M334 0v467h173v-467h-173z" />
    <glyph glyph-name="fl" unicode="&#xe104;" horiz-adv-x="547" 
d="M60 0v328h-50v139h50v86c0 58 10 97 33 126c30 37 71 57 121 57c25 0 46 -3 81 -12v-160c-17 13 -25 16 -36 16c-19 0 -26 -13 -26 -48v-65h62v-139h-62v-328h-173zM334 0v729h173v-729h-173z" />
    <glyph glyph-name="endash" unicode="&#x2013;" horiz-adv-x="532" 
d="M59 173v133h415v-133h-415z" />
    <glyph glyph-name="dagger" unicode="&#x2020;" horiz-adv-x="533" 
d="M187 -209v635h-160v140h160v163h160v-163h160v-140h-160v-635h-160z" />
    <glyph glyph-name="daggerdbl" unicode="&#x2021;" horiz-adv-x="533" 
d="M27 91v137h160v200h-160v137h160v164h160v-164h160v-137h-160v-200h160v-137h-160v-300h-160v300h-160z" />
    <glyph glyph-name="periodcentered" unicode="&#xb7;" horiz-adv-x="292" 
d="M146 139c-55 0 -101 46 -101 102c0 55 45 100 100 100c57 0 102 -46 102 -103c0 -54 -46 -99 -101 -99z" />
    <glyph glyph-name="paragraph" unicode="&#xb6;" horiz-adv-x="533" 
d="M137 -99v439c-73 3 -117 61 -117 154c0 114 57 173 166 173h327v-157h-66v-609h-116v609h-78v-609h-116z" />
    <glyph glyph-name="bullet" unicode="&#x2022;" horiz-adv-x="667" 
d="M335 201c-76 0 -139 62 -139 138c0 78 62 139 141 139c74 0 136 -63 136 -138c0 -77 -62 -139 -138 -139z" />
    <glyph glyph-name="quotesinglbase" unicode="&#x201a;" horiz-adv-x="325" 
d="M33 -161l82 321h176l-116 -321h-142z" />
    <glyph glyph-name="quotedblbase" unicode="&#x201e;" horiz-adv-x="562" 
d="M270 -161l81 321h177l-116 -321h-142zM33 -161l82 321h176l-116 -321h-142z" />
    <glyph glyph-name="quotedblright" unicode="&#x201d;" horiz-adv-x="568" 
d="M277 346l81 321h177l-116 -321h-142zM40 346l82 321h176l-116 -321h-142z" />
    <glyph glyph-name="guillemotright" unicode="&#xbb;" horiz-adv-x="483" 
d="M227 97l113 143l-113 143l78 58l151 -201l-151 -201zM27 97l113 143l-113 143l78 58l151 -201l-151 -201z" />
    <glyph glyph-name="ellipsis" unicode="&#x2026;" horiz-adv-x="1000" 
d="M732 92c0 55 45 100 100 100c57 0 102 -46 102 -103c0 -54 -46 -99 -101 -99s-101 46 -101 102zM398 92c0 55 45 100 100 100c57 0 102 -46 102 -103c0 -54 -46 -99 -101 -99s-101 46 -101 102zM65 92c0 55 45 100 100 100c57 0 102 -46 102 -103c0 -54 -46 -99 -101 -99
s-101 46 -101 102z" />
    <glyph glyph-name="perthousand" unicode="&#x2030;" horiz-adv-x="1009" 
d="M73 27l472 667l72 -50l-474 -667zM175 351c-90 0 -148 65 -148 166c0 97 58 160 146 160c86 0 143 -65 143 -162c0 -96 -58 -164 -141 -164zM172 448c17 0 27 23 27 64c0 44 -9 67 -27 67s-28 -23 -28 -66c0 -40 11 -65 28 -65zM694 156c0 97 58 160 146 160
c86 0 143 -65 143 -162c0 -96 -58 -164 -141 -164c-90 0 -148 65 -148 166zM374 156c0 97 58 160 146 160c86 0 143 -65 143 -162c0 -96 -58 -164 -141 -164c-90 0 -148 65 -148 166zM811 152c0 -40 11 -65 28 -65s27 23 27 64c0 44 -9 67 -27 67s-28 -23 -28 -66zM491 152
c0 -40 11 -65 28 -65s27 23 27 64c0 44 -9 67 -27 67s-28 -23 -28 -66z" />
    <glyph glyph-name="questiondown" unicode="&#xbf;" horiz-adv-x="508" 
d="M253 303c-57 0 -102 45 -102 103c0 54 46 100 102 100c55 0 101 -46 101 -101c0 -56 -46 -102 -101 -102zM294 7h174c0 -58 -8 -93 -29 -130c-32 -57 -104 -95 -182 -95c-127 0 -217 92 -217 219c0 96 46 163 128 185v69h171v-163c-12 1 -21 1 -27 1
c-65 0 -93 -27 -93 -88c0 -46 14 -74 38 -74c26 0 37 23 37 76z" />
    <glyph glyph-name="grave" unicode="`" 
d="M205 530l-88 148h140l47 -148h-99z" />
    <glyph glyph-name="acute" unicode="&#xb4;" 
d="M197 530l47 148h140l-88 -148h-99z" />
    <glyph glyph-name="circumflex" unicode="&#x2c6;" 
d="M98 530l77 139h156l71 -139h-127l-35 68l-39 -68h-103z" />
    <glyph glyph-name="tilde" unicode="&#x2dc;" 
d="M80 530c0 19 0 27 2 40c8 54 49 92 99 92c28 0 36 -3 93 -27c10 -4 20 -7 28 -7c18 0 27 11 28 37h90v-14c0 -70 -43 -119 -105 -119c-24 0 -40 5 -75 21c-23 11 -32 13 -42 13c-17 0 -26 -11 -27 -36h-91z" />
    <glyph glyph-name="macron" unicode="&#xaf;" 
d="M93 546v97h313v-97h-313z" />
    <glyph glyph-name="breve" unicode="&#x2d8;" 
d="M337 679h70c-10 -100 -62 -149 -156 -149c-56 0 -95 18 -125 59c-21 27 -30 50 -33 90h70c15 -40 38 -54 89 -54c47 0 70 14 85 54z" />
    <glyph glyph-name="dotaccent" unicode="&#x2d9;" 
d="M251 530c-43 0 -77 35 -77 77c0 41 34 75 75 75c43 0 77 -34 77 -77c0 -41 -34 -75 -75 -75z" />
    <glyph glyph-name="dieresis" unicode="&#xa8;" 
d="M346 530c-40 0 -73 33 -73 73s32 72 72 72c41 0 73 -33 73 -74c0 -38 -33 -71 -72 -71zM154 530c-40 0 -73 33 -73 73s32 72 72 72c41 0 73 -33 73 -74c0 -38 -33 -71 -72 -71z" />
    <glyph glyph-name="ring" unicode="&#x2da;" 
d="M273 524c-53 0 -96 43 -96 96s43 96 96 96s96 -43 96 -98c0 -51 -44 -94 -96 -94zM273 579c22 0 40 19 40 41c0 23 -18 41 -40 41c-23 0 -41 -19 -41 -41s18 -41 41 -41z" />
    <glyph glyph-name="cedilla" unicode="&#xb8;" 
d="M192 -170l98 123l81 -53l-113 -117z" />
    <glyph glyph-name="hungarumlaut" unicode="&#x2dd;" 
d="M287 530l47 148h123l-81 -148h-89zM120 530l47 148h123l-81 -148h-89z" />
    <glyph glyph-name="ogonek" unicode="&#x2db;" 
d="M346 -92l-7 -70c-16 -7 -25 -9 -43 -9c-60 0 -103 33 -103 80c0 31 18 62 53 91h61c-22 -19 -35 -42 -35 -63c0 -22 15 -35 41 -35c10 0 18 1 33 6z" />
    <glyph glyph-name="caron" unicode="&#x2c7;" 
d="M169 530l-71 139h127l35 -68l39 68h103l-76 -139h-157z" />
    <glyph glyph-name="emdash" unicode="&#x2014;" horiz-adv-x="650" 
d="M0 173v133h650v-133h-650z" />
    <glyph glyph-name="AE" unicode="&#xc6;" horiz-adv-x="615" 
d="M0 0l154 667h431v-157h-179l15 -97h150v-151h-124l18 -102h120v-160h-257l-12 85h-115l-15 -85h-186zM223 224h74l-23 171c-4 27 -7 63 -11 111l-8 -68l-4 -32c-1 -6 -2 -19 -5 -37z" />
    <glyph glyph-name="ordfeminine" unicode="&#xaa;" horiz-adv-x="284" 
d="M161 393l2 22c0 7 0 11 2 24c-18 -37 -38 -52 -69 -52c-50 0 -81 55 -81 142c0 85 32 138 84 138c28 0 46 -14 64 -48c-2 17 -2 19 -3 42h101v-268h-100zM137 470c16 0 23 19 23 61c0 39 -6 54 -21 54c-16 0 -24 -21 -24 -66c0 -33 7 -49 22 -49zM15 294v53h246v-53h-246
z" />
    <glyph glyph-name="Lslash" unicode="&#x141;" horiz-adv-x="375" 
d="M53 0v217l-53 -43v121l53 42v330h180v-233l89 72v-124l-89 -70v-152h136v-160h-316z" />
    <glyph glyph-name="Oslash" unicode="&#xd8;" horiz-adv-x="567" 
d="M17 24l61 92c-36 69 -48 120 -48 213c0 108 21 190 66 252c44 62 112 98 188 98c60 0 106 -19 158 -66l45 64l65 -45l-60 -86c32 -69 44 -125 44 -206c0 -105 -26 -199 -73 -262c-41 -54 -113 -90 -183 -90c-57 0 -101 17 -152 60l-48 -67zM213 294l116 181
c-11 28 -26 41 -48 41c-41 0 -70 -70 -70 -171c0 -10 1 -28 2 -51zM237 190c9 -26 25 -39 47 -39c42 0 71 69 71 169c0 11 -1 29 -2 51z" />
    <glyph glyph-name="OE" unicode="&#x152;" horiz-adv-x="708" 
d="M678 0h-335c-6 -1 -12 -1 -14 -1c-37 -5 -65 -7 -74 -7c-57 0 -118 35 -157 90c-46 64 -68 146 -68 253c0 114 26 199 80 264c39 47 97 75 152 75c12 0 35 -2 61 -4c5 -1 19 -3 34 -3h320v-157h-151v-97h136v-151h-136v-102h152v-160zM284 156c42 0 65 63 65 180
c0 116 -21 175 -63 175c-44 0 -69 -67 -69 -184c0 -109 24 -171 67 -171z" />
    <glyph glyph-name="ordmasculine" unicode="&#xba;" horiz-adv-x="280" 
d="M138 388c-75 0 -123 54 -123 139c0 84 49 140 123 140c79 0 126 -54 126 -143c0 -83 -49 -136 -126 -136zM140 463c16 0 27 27 27 64c0 39 -11 65 -28 65c-16 0 -27 -26 -27 -64c0 -39 11 -65 28 -65zM16 294v53h246v-53h-246z" />
    <glyph glyph-name="ae" unicode="&#xe6;" horiz-adv-x="735" 
d="M537 153l165 -3c-14 -54 -28 -81 -57 -108c-38 -36 -85 -52 -152 -52c-56 0 -95 14 -138 48c-45 -30 -100 -48 -150 -48c-103 0 -178 68 -178 162c0 91 66 149 170 149c27 0 50 -3 88 -10c-6 39 -36 57 -92 57c-42 0 -77 -8 -115 -27v136c60 16 96 21 139 21
c63 0 103 -13 144 -46c46 32 85 46 134 46c128 0 213 -99 213 -248c0 -9 0 -18 -1 -32h-255c2 -52 18 -80 45 -80c19 0 32 11 40 35zM452 291h87c-6 45 -20 65 -45 65s-38 -20 -42 -65zM196 149c0 -24 18 -40 45 -40s45 16 45 41s-18 41 -45 41s-45 -17 -45 -42z" />
    <glyph glyph-name="dotlessi" unicode="&#x131;" horiz-adv-x="253" 
d="M40 0v467h173v-467h-173z" />
    <glyph glyph-name="lslash" unicode="&#x142;" horiz-adv-x="293" 
d="M60 0v260l-47 -36v113l47 36v356h173v-276l47 37v-112l-47 -38v-340h-173z" />
    <glyph glyph-name="oslash" unicode="&#xf8;" horiz-adv-x="487" 
d="M27 -8l50 73c-34 48 -50 100 -50 167c0 147 86 245 215 245c39 0 71 -7 105 -23l46 65l68 -46l-50 -72c33 -46 50 -102 50 -172c0 -147 -85 -239 -220 -239c-39 0 -64 5 -100 21l-46 -67zM244 121c29 0 49 46 49 111c0 69 -20 114 -49 114s-49 -46 -49 -112
c0 -67 20 -113 49 -113z" />
    <glyph glyph-name="oe" unicode="&#x153;" horiz-adv-x="737" 
d="M539 155l164 -4c-24 -100 -102 -161 -208 -161c-46 0 -85 10 -129 33c-38 -25 -68 -33 -113 -33c-140 0 -226 93 -226 248c0 147 85 240 221 240c48 0 83 -9 127 -34c40 24 77 34 122 34c128 0 214 -98 214 -242c0 -8 0 -22 -1 -37h-257c3 -52 19 -80 46 -80
c19 0 33 12 40 36zM454 292h87c-6 44 -20 64 -46 64c-24 0 -37 -20 -41 -64zM245 121c29 0 49 46 49 112c0 70 -19 115 -49 115c-29 0 -49 -46 -49 -113c0 -68 20 -114 49 -114z" />
    <glyph glyph-name="germandbls" unicode="&#xdf;" horiz-adv-x="526" 
d="M59 0v328h-48v139h48c0 76 1 94 11 130c23 84 107 144 199 144c113 0 204 -86 204 -192c0 -73 -34 -125 -90 -139c28 -5 43 -11 59 -25c35 -32 57 -88 57 -148c0 -78 -34 -154 -86 -194c-39 -30 -77 -41 -137 -43v143c31 9 44 37 44 93c0 58 -14 88 -44 92v139
c23 2 33 21 33 61c0 38 -14 58 -39 58c-27 0 -38 -18 -38 -63v-523h-173z" />
    <glyph glyph-name="onesuperior" unicode="&#xe105;" horiz-adv-x="352" 
d="M136 267v303h-44v97h157v-401z" />
    <glyph glyph-name="logicalnot" unicode="&#xac;" 
d="M33 132v166h433v-298h-185v132h-248z" />
    <glyph glyph-name="mu" unicode="&#xb5;" horiz-adv-x="499" 
d="M175 4l39 -209h-174v672h173v-263c0 -54 8 -69 37 -69c28 0 36 15 36 69v263h173v-287c0 -70 -20 -114 -67 -147c-40 -28 -90 -43 -140 -43c-28 0 -49 4 -77 14z" />
    <glyph glyph-name="trademark" unicode="&#x2122;" horiz-adv-x="666" 
d="M236 287l46 380h136l28 -164l32 164h135l38 -380h-116l-9 195l-38 -195h-91l-31 186l-11 -186h-119zM55 287v284h-58v96h229v-96h-60v-284h-111z" />
    <glyph glyph-name="Eth" unicode="&#xd0;" horiz-adv-x="537" 
d="M47 0v290h-40v103h40v274h156c98 0 169 -28 222 -88c56 -63 82 -143 82 -246c0 -109 -28 -197 -82 -256c-50 -54 -113 -77 -210 -77h-168zM227 161c63 3 96 60 96 167c0 69 -17 125 -46 155c-13 13 -22 16 -50 17v-107h53v-103h-53v-129z" />
    <glyph glyph-name="onehalf" unicode="&#xbd;" horiz-adv-x="844" 
d="M192 -5l385 716l74 -39l-387 -716zM136 267v303h-44v97h157v-401zM517 0l114 147c50 65 66 98 66 135c0 20 -10 33 -24 33c-15 0 -24 -17 -24 -47c0 -3 0 -9 1 -16h-111c-1 8 -1 15 -1 18c0 80 58 137 138 137c77 0 132 -54 132 -132c0 -61 -30 -114 -103 -183
c33 2 45 3 98 3v-95h-286z" />
    <glyph glyph-name="plusminus" unicode="&#xb1;" horiz-adv-x="532" 
d="M213 117v171h-180v104h180v178h107v-178h180v-104h-180v-171h-107zM33 -27v104h467v-104h-467z" />
    <glyph glyph-name="Thorn" unicode="&#xde;" horiz-adv-x="505" 
d="M47 0v667h180v-93c66 -2 103 -8 143 -25c74 -33 119 -109 119 -203c0 -85 -35 -155 -94 -191c-35 -21 -77 -30 -140 -30h-28v-125h-180zM227 275c53 0 80 25 80 75c0 46 -28 78 -67 78c-3 0 -8 0 -13 -1v-152z" />
    <glyph glyph-name="onequarter" unicode="&#xbc;" horiz-adv-x="844" 
d="M192 -5l385 716l74 -39l-387 -716zM136 267v303h-44v97h157v-401zM519 80v86l124 234h138v-231h34v-89h-34v-80h-114v80h-148zM616 169h55l1 72c0 10 1 18 2 35c-30 -62 -40 -80 -58 -107z" />
    <glyph glyph-name="divide" unicode="&#xf7;" horiz-adv-x="533" 
d="M267 445c-46 0 -83 37 -83 83c0 45 37 82 82 82c46 0 83 -37 83 -84c0 -44 -37 -81 -82 -81zM40 288v104h453v-104h-453zM184 154c0 45 37 82 82 82c46 0 83 -37 83 -84c0 -44 -37 -81 -82 -81c-46 0 -83 37 -83 83z" />
    <glyph glyph-name="brokenbar" unicode="&#xa6;" 
d="M155 305v362h191v-362h-191zM155 153h191v-320h-191v320z" />
    <glyph glyph-name="degree" unicode="&#xb0;" horiz-adv-x="533" 
d="M267 367c-91 0 -165 71 -165 158c0 89 74 159 167 159c89 0 163 -72 163 -158c0 -88 -74 -159 -165 -159zM266 449c42 0 76 35 76 77c0 41 -34 76 -75 76c-43 0 -77 -34 -77 -77c0 -41 34 -76 76 -76z" />
    <glyph glyph-name="thorn" unicode="&#xfe;" horiz-adv-x="495" 
d="M40 -209v938h173v-262c0 -16 -2 -41 -4 -66c29 55 59 76 107 76c91 0 152 -99 152 -244c0 -149 -58 -243 -149 -243c-45 0 -76 21 -110 73c2 -22 4 -65 4 -77v-195h-173zM247 136c26 0 42 39 42 102c0 60 -15 96 -41 96c-25 0 -40 -36 -40 -98s15 -100 39 -100z" />
    <glyph glyph-name="threequarters" unicode="&#xbe;" horiz-adv-x="844" 
d="M192 -5l385 716l74 -39l-387 -716zM156 550h-110c5 76 57 124 133 124c73 0 129 -51 129 -117c0 -37 -16 -64 -47 -84c34 -19 53 -51 53 -92c0 -70 -58 -121 -140 -121c-80 0 -136 49 -136 118v9h111c1 -26 8 -35 26 -35c16 0 28 14 28 34c0 25 -16 39 -44 39
c-6 0 -8 0 -20 -1v89l15 -1c30 -2 43 11 43 39c0 18 -8 31 -21 31c-14 0 -17 -6 -20 -32zM519 80v86l124 234h138v-231h34v-89h-34v-80h-114v80h-148zM616 169h55l1 72c0 10 1 18 2 35c-30 -62 -40 -80 -58 -107z" />
    <glyph glyph-name="twosuperior" unicode="&#xe107;" horiz-adv-x="352" 
d="M26 267l114 147c50 65 66 98 66 135c0 20 -10 33 -24 33c-15 0 -24 -17 -24 -47c0 -3 0 -9 1 -16h-111c-1 8 -1 15 -1 18c0 80 58 137 138 137c77 0 132 -54 132 -132c0 -61 -30 -114 -103 -183c33 2 45 3 98 3v-95h-286z" />
    <glyph glyph-name="registered" unicode="&#xae;" horiz-adv-x="760" 
d="M33 333c0 195 155 349 352 349c186 0 341 -158 341 -349c0 -192 -155 -348 -346 -348s-347 157 -347 348zM112 333c0 -152 121 -276 268 -276c146 0 266 124 266 276c0 150 -119 276 -263 276c-151 0 -271 -122 -271 -276zM236 133v400h123c52 0 91 -10 117 -28
c34 -24 53 -63 53 -107c0 -46 -22 -78 -62 -98l-2 -1l85 -166h-137l-50 128v-128h-127zM363 351c24 0 40 19 40 46c0 26 -13 39 -40 41v-87z" />
    <glyph glyph-name="minus" unicode="&#x2212;" horiz-adv-x="533" 
d="M40 288v104h453v-104h-453z" />
    <glyph glyph-name="eth" unicode="&#xf0;" horiz-adv-x="488" 
d="M386 663l-84 -46c104 -91 160 -220 160 -369c0 -86 -18 -145 -58 -191c-39 -44 -93 -67 -160 -67c-134 0 -217 93 -217 242c0 92 35 168 96 211c32 22 64 32 112 33c-13 33 -30 61 -46 80l-109 -60l-36 63l92 50c-7 5 -14 9 -16 10c-39 24 -46 28 -79 42l45 70
c37 -8 112 -41 150 -66l115 63zM244 120c29 0 49 46 49 111c0 69 -20 114 -50 114c-29 0 -49 -46 -49 -112c0 -68 20 -113 50 -113z" />
    <glyph glyph-name="multiply" unicode="&#xd7;" horiz-adv-x="532" 
d="M129 128l-74 75l136 136l-137 137l76 77l138 -138l136 137l74 -75l-136 -136l137 -137l-76 -77l-137 138z" />
    <glyph glyph-name="threesuperior" unicode="&#xe108;" horiz-adv-x="352" 
d="M156 550h-110c5 76 57 124 133 124c73 0 129 -51 129 -117c0 -37 -16 -64 -47 -84c34 -19 53 -51 53 -92c0 -70 -58 -121 -140 -121c-80 0 -136 49 -136 118v9h111c1 -26 8 -35 26 -35c16 0 28 14 28 34c0 25 -16 39 -44 39c-6 0 -8 0 -20 -1v89l15 -1c30 -2 43 11 43 39
c0 18 -8 31 -21 31c-14 0 -17 -6 -20 -32z" />
    <glyph glyph-name="copyright" unicode="&#xa9;" horiz-adv-x="760" 
d="M33 333c0 195 155 349 352 349c186 0 341 -158 341 -349c0 -192 -155 -348 -346 -348s-347 157 -347 348zM112 333c0 -152 121 -276 268 -276c146 0 266 124 266 276c0 150 -119 276 -263 276c-151 0 -271 -122 -271 -276zM484 270l-8 -128c-34 -13 -47 -16 -74 -16
c-108 0 -179 82 -179 206c0 126 76 208 193 208c25 0 35 -2 62 -11v-127l-10 9l-5 4c-15 15 -27 20 -44 20c-42 0 -67 -39 -67 -102c0 -61 24 -98 65 -98c23 0 29 3 67 35z" />
    <glyph glyph-name="Aacute" unicode="&#xc1;" horiz-adv-x="532" 
d="M231 720l43 151h141l-84 -151h-100zM5 0l160 667h221l141 -667h-187l-13 85h-121l-15 -85h-186zM230 228h76l-12 78c0 3 -2 18 -7 57l-5 40c-2 15 -3 30 -5 54l-5 51l-7 -53c-3 -24 -6 -65 -16 -122z" />
    <glyph glyph-name="Acircumflex" unicode="&#xc2;" horiz-adv-x="532" 
d="M125 720l87 138h153l82 -138h-135l-35 60l-38 -60h-114zM5 0l160 667h221l141 -667h-187l-13 85h-121l-15 -85h-186zM230 228h76l-12 78c0 3 -2 18 -7 57l-5 40c-2 15 -3 30 -5 54l-5 51l-7 -53c-3 -24 -6 -65 -16 -122z" />
    <glyph glyph-name="Adieresis" unicode="&#xc4;" horiz-adv-x="532" 
d="M379 720c-40 0 -73 33 -73 73s33 72 72 72c41 0 73 -33 73 -73c0 -39 -33 -72 -72 -72zM180 720c-40 0 -72 32 -72 72s32 72 72 72s72 -32 72 -72c0 -39 -33 -72 -72 -72zM5 0l160 667h221l141 -667h-187l-13 85h-121l-15 -85h-186zM230 228h76l-12 78c0 3 -2 18 -7 57
l-5 40c-2 15 -3 30 -5 54l-5 51l-7 -53c-3 -24 -6 -65 -16 -122z" />
    <glyph glyph-name="Agrave" unicode="&#xc0;" horiz-adv-x="532" 
d="M225 720l-84 151h141l43 -151h-100zM5 0l160 667h221l141 -667h-187l-13 85h-121l-15 -85h-186zM230 228h76l-12 78c0 3 -2 18 -7 57l-5 40c-2 15 -3 30 -5 54l-5 51l-7 -53c-3 -24 -6 -65 -16 -122z" />
    <glyph glyph-name="Aring" unicode="&#xc5;" horiz-adv-x="532" 
d="M280 713c-48 0 -87 39 -87 87s39 87 86 87c49 0 87 -39 87 -88c0 -47 -39 -86 -86 -86zM280 763c20 0 37 17 37 36c0 21 -17 38 -37 38s-37 -17 -37 -37s17 -37 37 -37zM5 0l160 667h221l141 -667h-187l-13 85h-121l-15 -85h-186zM230 228h76l-12 78c0 3 -2 18 -7 57
l-5 40c-2 15 -3 30 -5 54l-5 51l-7 -53c-3 -24 -6 -65 -16 -122z" />
    <glyph glyph-name="Atilde" unicode="&#xc3;" horiz-adv-x="532" 
d="M110 720c0 19 0 27 2 40c8 54 49 92 99 92c28 0 36 -3 93 -27c10 -4 20 -7 28 -7c18 0 27 11 28 37h90v-14c0 -70 -43 -119 -105 -119c-24 0 -40 5 -75 21c-23 11 -32 13 -42 13c-17 0 -26 -11 -27 -36h-91zM5 0l160 667h221l141 -667h-187l-13 85h-121l-15 -85h-186z
M230 228h76l-12 78c0 3 -2 18 -7 57l-5 40c-2 15 -3 30 -5 54l-5 51l-7 -53c-3 -24 -6 -65 -16 -122z" />
    <glyph glyph-name="Ccedilla" unicode="&#xc7;" horiz-adv-x="445" 
d="M422 205l-11 -193c-44 -18 -69 -24 -107 -24c-81 0 -154 36 -204 101c-47 61 -70 140 -70 242c0 112 28 196 87 260c54 58 125 88 208 88c35 0 57 -4 89 -16v-191c-30 30 -51 40 -83 40c-73 0 -117 -67 -117 -178c0 -108 42 -172 114 -172c34 0 58 11 94 43zM149 -194
l121 147l92 -59l-140 -133z" />
    <glyph glyph-name="Eacute" unicode="&#xc9;" horiz-adv-x="411" 
d="M171 720l43 151h141l-84 -151h-100zM47 0v667h335v-157h-155v-97h139v-151h-139v-102h155v-160h-335z" />
    <glyph glyph-name="Ecircumflex" unicode="&#xca;" horiz-adv-x="411" 
d="M57 720l87 138h153l82 -138h-135l-35 60l-38 -60h-114zM47 0v667h335v-157h-155v-97h139v-151h-139v-102h155v-160h-335z" />
    <glyph glyph-name="Edieresis" unicode="&#xcb;" horiz-adv-x="411" 
d="M317 720c-40 0 -73 33 -73 73s33 72 72 72c41 0 73 -33 73 -73c0 -39 -33 -72 -72 -72zM118 720c-40 0 -72 32 -72 72s32 72 72 72s72 -32 72 -72c0 -39 -33 -72 -72 -72zM47 0v667h335v-157h-155v-97h139v-151h-139v-102h155v-160h-335z" />
    <glyph glyph-name="Egrave" unicode="&#xc8;" horiz-adv-x="411" 
d="M172 720l-84 151h141l43 -151h-100zM47 0v667h335v-157h-155v-97h139v-151h-139v-102h155v-160h-335z" />
    <glyph glyph-name="Iacute" unicode="&#xcd;" horiz-adv-x="273" 
d="M92 720l43 151h141l-84 -151h-100zM47 0v667h180v-667h-180z" />
    <glyph glyph-name="Icircumflex" unicode="&#xce;" horiz-adv-x="273" 
d="M-1 720l81 138h152l76 -138h-136l-28 60l-31 -60h-114zM47 0v667h180v-667h-180z" />
    <glyph glyph-name="Idieresis" unicode="&#xcf;" horiz-adv-x="273" 
d="M228 720c-35 0 -64 29 -64 64s29 63 63 63c36 0 64 -29 64 -64c0 -34 -29 -63 -63 -63zM60 720c-35 0 -64 29 -64 64s28 63 64 63c35 0 63 -28 63 -63s-29 -64 -63 -64zM46 0v667h180v-667h-180z" />
    <glyph glyph-name="Igrave" unicode="&#xcc;" horiz-adv-x="273" 
d="M89 720l-84 151h141l43 -151h-100zM47 0v667h180v-667h-180z" />
    <glyph glyph-name="Ntilde" unicode="&#xd1;" horiz-adv-x="563" 
d="M125 720c0 19 0 27 2 40c8 54 49 92 99 92c28 0 36 -3 93 -27c10 -4 20 -7 28 -7c18 0 27 11 28 37h90v-14c0 -70 -43 -119 -105 -119c-24 0 -40 5 -75 21c-23 11 -32 13 -42 13c-17 0 -26 -11 -27 -36h-91zM47 0v667h172l90 -234c13 -34 18 -51 30 -89
c9 -26 16 -48 25 -79c-15 130 -20 188 -20 252v150h172v-667h-172l-90 245c-27 75 -33 91 -46 139c8 -100 11 -157 11 -214v-170h-172z" />
    <glyph glyph-name="Oacute" unicode="&#xd3;" horiz-adv-x="567" 
d="M235 720l43 151h141l-84 -151h-100zM105 77c-49 61 -75 152 -75 262s26 194 79 255c48 56 109 85 177 85c154 0 251 -135 251 -348c0 -203 -101 -343 -250 -343c-68 0 -138 34 -182 89zM283 157c42 0 67 66 67 173c0 117 -23 181 -64 181c-42 0 -69 -68 -69 -177
c0 -111 24 -177 66 -177z" />
    <glyph glyph-name="Ocircumflex" unicode="&#xd4;" horiz-adv-x="567" 
d="M136 720l87 138h153l82 -138h-135l-35 60l-38 -60h-114zM105 77c-49 61 -75 152 -75 262s26 194 79 255c48 56 109 85 177 85c154 0 251 -135 251 -348c0 -203 -101 -343 -250 -343c-68 0 -138 34 -182 89zM283 157c42 0 67 66 67 173c0 117 -23 181 -64 181
c-42 0 -69 -68 -69 -177c0 -111 24 -177 66 -177z" />
    <glyph glyph-name="Odieresis" unicode="&#xd6;" horiz-adv-x="567" 
d="M387 720c-40 0 -73 33 -73 73s33 72 72 72c41 0 73 -33 73 -73c0 -39 -33 -72 -72 -72zM188 720c-40 0 -72 32 -72 72s32 72 72 72s72 -32 72 -72c0 -39 -33 -72 -72 -72zM105 77c-49 61 -75 152 -75 262s26 194 79 255c48 56 109 85 177 85c154 0 251 -135 251 -348
c0 -203 -101 -343 -250 -343c-68 0 -138 34 -182 89zM283 157c42 0 67 66 67 173c0 117 -23 181 -64 181c-42 0 -69 -68 -69 -177c0 -111 24 -177 66 -177z" />
    <glyph glyph-name="Ograve" unicode="&#xd2;" horiz-adv-x="567" 
d="M239 720l-84 151h141l43 -151h-100zM105 77c-49 61 -75 152 -75 262s26 194 79 255c48 56 109 85 177 85c154 0 251 -135 251 -348c0 -203 -101 -343 -250 -343c-68 0 -138 34 -182 89zM283 157c42 0 67 66 67 173c0 117 -23 181 -64 181c-42 0 -69 -68 -69 -177
c0 -111 24 -177 66 -177z" />
    <glyph glyph-name="Otilde" unicode="&#xd5;" horiz-adv-x="567" 
d="M127 720c0 19 0 27 2 40c8 54 49 92 99 92c28 0 36 -3 93 -27c10 -4 20 -7 28 -7c18 0 27 11 28 37h90v-14c0 -70 -43 -119 -105 -119c-24 0 -40 5 -75 21c-23 11 -32 13 -42 13c-17 0 -26 -11 -27 -36h-91zM105 77c-49 61 -75 152 -75 262s26 194 79 255
c48 56 109 85 177 85c154 0 251 -135 251 -348c0 -203 -101 -343 -250 -343c-68 0 -138 34 -182 89zM283 157c42 0 67 66 67 173c0 117 -23 181 -64 181c-42 0 -69 -68 -69 -177c0 -111 24 -177 66 -177z" />
    <glyph glyph-name="Scaron" unicode="&#x160;" horiz-adv-x="404" 
d="M150 720l-82 138h136l34 -60l38 60h114l-87 -138h-153zM33 17v209c35 -48 74 -73 114 -73c31 0 53 18 53 43c0 26 -4 31 -61 75c-77 60 -109 116 -109 189c0 60 26 123 68 165c35 35 81 54 135 54c43 0 86 -11 129 -34v-204c-29 45 -69 73 -105 73c-26 0 -48 -18 -48 -40
c0 -23 9 -34 65 -74c76 -55 107 -109 107 -186c0 -130 -90 -226 -212 -226c-45 0 -89 9 -136 29z" />
    <glyph glyph-name="Uacute" unicode="&#xda;" horiz-adv-x="545" 
d="M228 720l43 151h141l-84 -151h-100zM499 667v-472c0 -71 -18 -114 -67 -155c-40 -35 -90 -52 -150 -52c-67 0 -128 21 -170 58c-45 40 -65 93 -65 175v446h180v-430c0 -58 13 -80 46 -80c18 0 33 9 39 23s7 20 7 56v431h180z" />
    <glyph glyph-name="Ucircumflex" unicode="&#xdb;" horiz-adv-x="545" 
d="M125 720l87 138h153l82 -138h-135l-35 60l-38 -60h-114zM499 667v-472c0 -71 -18 -114 -67 -155c-40 -35 -90 -52 -150 -52c-67 0 -128 21 -170 58c-45 40 -65 93 -65 175v446h180v-430c0 -58 13 -80 46 -80c18 0 33 9 39 23s7 20 7 56v431h180z" />
    <glyph glyph-name="Udieresis" unicode="&#xdc;" horiz-adv-x="545" 
d="M376 720c-40 0 -73 33 -73 73s33 72 72 72c41 0 73 -33 73 -73c0 -39 -33 -72 -72 -72zM177 720c-40 0 -72 32 -72 72s32 72 72 72s72 -32 72 -72c0 -39 -33 -72 -72 -72zM499 667v-472c0 -71 -18 -114 -67 -155c-40 -35 -90 -52 -150 -52c-67 0 -128 21 -170 58
c-45 40 -65 93 -65 175v446h180v-430c0 -58 13 -80 46 -80c18 0 33 9 39 23s7 20 7 56v431h180z" />
    <glyph glyph-name="Ugrave" unicode="&#xd9;" horiz-adv-x="545" 
d="M225 720l-84 151h141l43 -151h-100zM499 667v-472c0 -71 -18 -114 -67 -155c-40 -35 -90 -52 -150 -52c-67 0 -128 21 -170 58c-45 40 -65 93 -65 175v446h180v-430c0 -58 13 -80 46 -80c18 0 33 9 39 23s7 20 7 56v431h180z" />
    <glyph glyph-name="Yacute" unicode="&#xdd;" 
d="M215 720l43 151h141l-84 -151h-100zM166 0v283l-166 384h188l33 -99c17 -52 19 -61 30 -107c15 57 22 77 31 106l32 100h187l-155 -384v-283h-180z" />
    <glyph glyph-name="Ydieresis" unicode="&#x178;" 
d="M353 720c-40 0 -73 33 -73 73s33 72 72 72c41 0 73 -33 73 -73c0 -39 -33 -72 -72 -72zM154 720c-40 0 -72 32 -72 72s32 72 72 72s72 -32 72 -72c0 -39 -33 -72 -72 -72zM166 0v283l-166 384h188l33 -99c17 -52 19 -61 30 -107c15 57 22 77 31 106l32 100h187l-155 -384
v-283h-180z" />
    <glyph glyph-name="Zcaron" unicode="&#x17d;" horiz-adv-x="515" 
d="M213 720l-82 128h139l29 -47l33 47h114l-92 -128h-141zM17 0v14l143 326c45 102 53 113 90 170h-193v157h441v-19l-163 -363c-10 -21 -31 -66 -64 -133c33 3 55 4 66 4l139 4v-160h-459z" />
    <glyph glyph-name="aacute" unicode="&#xe1;" horiz-adv-x="497" 
d="M206 530l47 148h140l-88 -148h-99zM457 0h-173c1 10 1 19 1 22c1 14 2 23 2 26c0 5 1 17 3 31c-32 -63 -67 -89 -121 -89c-88 0 -142 94 -142 247c0 148 56 240 147 240c49 0 81 -24 112 -84l-5 74h176v-467zM241 133c28 0 41 33 41 106c0 69 -10 95 -37 95
c-29 0 -43 -37 -43 -116c0 -57 13 -85 39 -85z" />
    <glyph glyph-name="acircumflex" unicode="&#xe2;" horiz-adv-x="497" 
d="M110 530l77 139h156l71 -139h-127l-35 68l-39 -68h-103zM457 0h-173c1 10 1 19 1 22c1 14 2 23 2 26c0 5 1 17 3 31c-32 -63 -67 -89 -121 -89c-88 0 -142 94 -142 247c0 148 56 240 147 240c49 0 81 -24 112 -84l-5 74h176v-467zM241 133c28 0 41 33 41 106
c0 69 -10 95 -37 95c-29 0 -43 -37 -43 -116c0 -57 13 -85 39 -85z" />
    <glyph glyph-name="adieresis" unicode="&#xe4;" horiz-adv-x="497" 
d="M356 530c-40 0 -73 33 -73 73s32 72 72 72c41 0 73 -33 73 -74c0 -38 -33 -71 -72 -71zM164 530c-40 0 -73 33 -73 73s32 72 72 72c41 0 73 -33 73 -74c0 -38 -33 -71 -72 -71zM457 0h-173c1 10 1 19 1 22c1 14 2 23 2 26c0 5 1 17 3 31c-32 -63 -67 -89 -121 -89
c-88 0 -142 94 -142 247c0 148 56 240 147 240c49 0 81 -24 112 -84l-5 74h176v-467zM241 133c28 0 41 33 41 106c0 69 -10 95 -37 95c-29 0 -43 -37 -43 -116c0 -57 13 -85 39 -85z" />
    <glyph glyph-name="agrave" unicode="&#xe0;" horiz-adv-x="497" 
d="M210 530l-88 148h140l47 -148h-99zM457 0h-173c1 10 1 19 1 22c1 14 2 23 2 26c0 5 1 17 3 31c-32 -63 -67 -89 -121 -89c-88 0 -142 94 -142 247c0 148 56 240 147 240c49 0 81 -24 112 -84l-5 74h176v-467zM241 133c28 0 41 33 41 106c0 69 -10 95 -37 95
c-29 0 -43 -37 -43 -116c0 -57 13 -85 39 -85z" />
    <glyph glyph-name="aring" unicode="&#xe5;" horiz-adv-x="497" 
d="M256 524c-53 0 -96 43 -96 96s43 96 96 96s96 -43 96 -98c0 -51 -44 -94 -96 -94zM256 579c22 0 40 19 40 41c0 23 -18 41 -40 41c-23 0 -41 -19 -41 -41s18 -41 41 -41zM457 0h-173c1 10 1 19 1 22c1 14 2 23 2 26c0 5 1 17 3 31c-32 -63 -67 -89 -121 -89
c-88 0 -142 94 -142 247c0 148 56 240 147 240c49 0 81 -24 112 -84l-5 74h176v-467zM241 133c28 0 41 33 41 106c0 69 -10 95 -37 95c-29 0 -43 -37 -43 -116c0 -57 13 -85 39 -85z" />
    <glyph glyph-name="atilde" unicode="&#xe3;" horiz-adv-x="497" 
d="M96 530c0 19 0 27 2 40c8 54 49 92 99 92c28 0 36 -3 93 -27c10 -4 20 -7 28 -7c18 0 27 11 28 37h90v-14c0 -70 -43 -119 -105 -119c-24 0 -40 5 -75 21c-23 11 -32 13 -42 13c-17 0 -26 -11 -27 -36h-91zM457 0h-173c1 10 1 19 1 22c1 14 2 23 2 26c0 5 1 17 3 31
c-32 -63 -67 -89 -121 -89c-88 0 -142 94 -142 247c0 148 56 240 147 240c49 0 81 -24 112 -84l-5 74h176v-467zM241 133c28 0 41 33 41 106c0 69 -10 95 -37 95c-29 0 -43 -37 -43 -116c0 -57 13 -85 39 -85z" />
    <glyph glyph-name="ccedilla" unicode="&#xe7;" horiz-adv-x="303" 
d="M283 152v-159c-18 -2 -37 -3 -47 -3c-57 0 -109 22 -143 60c-41 46 -66 118 -66 186c0 138 95 241 221 241c8 0 20 -1 35 -2v-152c-50 -3 -77 -33 -77 -83c0 -48 29 -88 65 -88h12zM178 -47l81 -53l-113 -117l-66 47z" />
    <glyph glyph-name="eacute" unicode="&#xe9;" horiz-adv-x="481" 
d="M198 530l47 148h140l-88 -148h-99zM279 158l169 -3c-23 -107 -97 -165 -207 -165c-133 0 -214 89 -214 235c0 148 90 251 218 251c127 0 210 -98 210 -248c0 -6 0 -17 -1 -31h-254c3 -50 15 -72 40 -72c19 0 33 12 39 33zM202 290h81c-2 37 -17 59 -41 59
c-23 0 -38 -22 -40 -59z" />
    <glyph glyph-name="ecircumflex" unicode="&#xea;" horiz-adv-x="481" 
d="M105 530l77 139h156l71 -139h-127l-35 68l-39 -68h-103zM279 158l169 -3c-23 -107 -97 -165 -207 -165c-133 0 -214 89 -214 235c0 148 90 251 218 251c127 0 210 -98 210 -248c0 -6 0 -17 -1 -31h-254c3 -50 15 -72 40 -72c19 0 33 12 39 33zM202 290h81
c-2 37 -17 59 -41 59c-23 0 -38 -22 -40 -59z" />
    <glyph glyph-name="edieresis" unicode="&#xeb;" horiz-adv-x="481" 
d="M341 530c-40 0 -73 33 -73 73s32 72 72 72c41 0 73 -33 73 -74c0 -38 -33 -71 -72 -71zM149 530c-40 0 -73 33 -73 73s32 72 72 72c41 0 73 -33 73 -74c0 -38 -33 -71 -72 -71zM279 158l169 -3c-23 -107 -97 -165 -207 -165c-133 0 -214 89 -214 235
c0 148 90 251 218 251c127 0 210 -98 210 -248c0 -6 0 -17 -1 -31h-254c3 -50 15 -72 40 -72c19 0 33 12 39 33zM202 290h81c-2 37 -17 59 -41 59c-23 0 -38 -22 -40 -59z" />
    <glyph glyph-name="egrave" unicode="&#xe8;" horiz-adv-x="481" 
d="M196 530l-88 148h140l47 -148h-99zM279 158l169 -3c-23 -107 -97 -165 -207 -165c-133 0 -214 89 -214 235c0 148 90 251 218 251c127 0 210 -98 210 -248c0 -6 0 -17 -1 -31h-254c3 -50 15 -72 40 -72c19 0 33 12 39 33zM202 290h81c-2 37 -17 59 -41 59
c-23 0 -38 -22 -40 -59z" />
    <glyph glyph-name="iacute" unicode="&#xed;" horiz-adv-x="253" 
d="M77 530l47 148h140l-88 -148h-99zM40 0v467h173v-467h-173z" />
    <glyph glyph-name="icircumflex" unicode="&#xee;" horiz-adv-x="253" 
d="M-2 530l70 139h156l65 -139h-127l-28 68l-33 -68h-103zM40 0v467h173v-467h-173z" />
    <glyph glyph-name="idieresis" unicode="&#xef;" horiz-adv-x="253" 
d="M214 530c-35 0 -64 29 -64 64s29 63 63 63c36 0 64 -29 64 -64c0 -34 -29 -63 -63 -63zM53 530c-35 0 -64 29 -64 64s28 63 64 63c35 0 63 -28 63 -63s-29 -64 -63 -64zM40 0v467h173v-467h-173z" />
    <glyph glyph-name="igrave" unicode="&#xec;" horiz-adv-x="253" 
d="M81 530l-88 148h140l47 -148h-99zM40 0v467h173v-467h-173z" />
    <glyph glyph-name="ntilde" unicode="&#xf1;" horiz-adv-x="491" 
d="M86 530c0 19 0 27 2 40c8 54 49 92 99 92c28 0 36 -3 93 -27c10 -4 20 -7 28 -7c18 0 27 11 28 37h90v-14c0 -70 -43 -119 -105 -119c-24 0 -40 5 -75 21c-23 11 -32 13 -42 13c-17 0 -26 -11 -27 -36h-91zM40 0v467h173l-2 -49l-2 -40c28 66 70 99 123 99
c38 0 76 -21 96 -54c16 -26 23 -57 23 -104v-319h-173v247c0 42 -7 57 -28 57c-25 0 -37 -22 -37 -69v-235h-173z" />
    <glyph glyph-name="oacute" unicode="&#xf3;" horiz-adv-x="487" 
d="M194 530l47 148h140l-88 -148h-99zM27 232c0 147 86 245 215 245c137 0 219 -94 219 -251c0 -144 -86 -236 -220 -236c-131 0 -214 94 -214 242zM244 121c29 0 49 46 49 111c0 69 -20 114 -49 114s-49 -46 -49 -112c0 -67 20 -113 49 -113z" />
    <glyph glyph-name="ocircumflex" unicode="&#xf4;" horiz-adv-x="487" 
d="M105 530l77 139h156l71 -139h-127l-35 68l-39 -68h-103zM27 232c0 147 86 245 215 245c137 0 219 -94 219 -251c0 -144 -86 -236 -220 -236c-131 0 -214 94 -214 242zM244 121c29 0 49 46 49 111c0 69 -20 114 -49 114s-49 -46 -49 -112c0 -67 20 -113 49 -113z" />
    <glyph glyph-name="odieresis" unicode="&#xf6;" horiz-adv-x="487" 
d="M344 530c-40 0 -73 33 -73 73s32 72 72 72c41 0 73 -33 73 -74c0 -38 -33 -71 -72 -71zM152 530c-40 0 -73 33 -73 73s32 72 72 72c41 0 73 -33 73 -74c0 -38 -33 -71 -72 -71zM27 232c0 147 86 245 215 245c137 0 219 -94 219 -251c0 -144 -86 -236 -220 -236
c-131 0 -214 94 -214 242zM244 121c29 0 49 46 49 111c0 69 -20 114 -49 114s-49 -46 -49 -112c0 -67 20 -113 49 -113z" />
    <glyph glyph-name="ograve" unicode="&#xf2;" horiz-adv-x="487" 
d="M199 530l-88 148h140l47 -148h-99zM27 232c0 147 86 245 215 245c137 0 219 -94 219 -251c0 -144 -86 -236 -220 -236c-131 0 -214 94 -214 242zM244 121c29 0 49 46 49 111c0 69 -20 114 -49 114s-49 -46 -49 -112c0 -67 20 -113 49 -113z" />
    <glyph glyph-name="otilde" unicode="&#xf5;" horiz-adv-x="487" 
d="M84 530c0 19 0 27 2 40c8 54 49 92 99 92c28 0 36 -3 93 -27c10 -4 20 -7 28 -7c18 0 27 11 28 37h90v-14c0 -70 -43 -119 -105 -119c-24 0 -40 5 -75 21c-23 11 -32 13 -42 13c-17 0 -26 -11 -27 -36h-91zM27 232c0 147 86 245 215 245c137 0 219 -94 219 -251
c0 -144 -86 -236 -220 -236c-131 0 -214 94 -214 242zM244 121c29 0 49 46 49 111c0 69 -20 114 -49 114s-49 -46 -49 -112c0 -67 20 -113 49 -113z" />
    <glyph glyph-name="scaron" unicode="&#x161;" horiz-adv-x="395" 
d="M143 530l-71 139h127l35 -68l39 68h103l-76 -139h-157zM23 39l63 129c30 -31 61 -49 87 -49c19 0 33 10 33 24c0 16 -11 25 -45 37c-85 30 -122 72 -122 137c0 92 82 160 191 160c47 0 88 -11 139 -38l-59 -127c-30 30 -51 42 -71 42c-15 0 -27 -10 -27 -22
c0 -18 13 -29 52 -45c44 -17 58 -25 74 -40c24 -22 38 -56 38 -92c0 -42 -18 -85 -48 -115c-34 -34 -79 -50 -138 -50c-57 0 -95 11 -167 49z" />
    <glyph glyph-name="uacute" unicode="&#xfa;" horiz-adv-x="499" 
d="M203 530l47 148h140l-88 -148h-99zM459 467v-287c0 -70 -20 -113 -67 -147c-40 -28 -90 -43 -143 -43c-52 0 -102 15 -142 43c-47 34 -67 77 -67 147v287h173v-263c0 -54 8 -69 37 -69c28 0 36 15 36 69v263h173z" />
    <glyph glyph-name="ucircumflex" unicode="&#xfb;" horiz-adv-x="499" 
d="M108 530l77 139h156l71 -139h-127l-35 68l-39 -68h-103zM459 467v-287c0 -70 -20 -113 -67 -147c-40 -28 -90 -43 -143 -43c-52 0 -102 15 -142 43c-47 34 -67 77 -67 147v287h173v-263c0 -54 8 -69 37 -69c28 0 36 15 36 69v263h173z" />
    <glyph glyph-name="udieresis" unicode="&#xfc;" horiz-adv-x="499" 
d="M350 530c-40 0 -73 33 -73 73s32 72 72 72c41 0 73 -33 73 -74c0 -38 -33 -71 -72 -71zM158 530c-40 0 -73 33 -73 73s32 72 72 72c41 0 73 -33 73 -74c0 -38 -33 -71 -72 -71zM459 467v-287c0 -70 -20 -113 -67 -147c-40 -28 -90 -43 -143 -43c-52 0 -102 15 -142 43
c-47 34 -67 77 -67 147v287h173v-263c0 -54 8 -69 37 -69c28 0 36 15 36 69v263h173z" />
    <glyph glyph-name="ugrave" unicode="&#xf9;" horiz-adv-x="499" 
d="M201 530l-88 148h140l47 -148h-99zM459 467v-287c0 -70 -20 -113 -67 -147c-40 -28 -90 -43 -143 -43c-52 0 -102 15 -142 43c-47 34 -67 77 -67 147v287h173v-263c0 -54 8 -69 37 -69c28 0 36 15 36 69v263h173z" />
    <glyph glyph-name="yacute" unicode="&#xfd;" horiz-adv-x="456" 
d="M185 530l47 148h140l-88 -148h-99zM139 19l-139 448h174l33 -134c8 -33 18 -86 22 -131c13 93 18 125 28 164l26 101h173l-215 -663h-178z" />
    <glyph glyph-name="ydieresis" unicode="&#xff;" horiz-adv-x="456" 
d="M328 530c-40 0 -73 33 -73 73s32 72 72 72c41 0 73 -33 73 -74c0 -38 -33 -71 -72 -71zM136 530c-40 0 -73 33 -73 73s32 72 72 72c41 0 73 -33 73 -74c0 -38 -33 -71 -72 -71zM139 19l-139 448h174l33 -134c8 -33 18 -86 22 -131c13 93 18 125 28 164l26 101h173
l-215 -663h-178z" />
    <glyph glyph-name="zcaron" unicode="&#x17e;" horiz-adv-x="435" 
d="M158 530l-71 139h127l35 -68l39 68h103l-76 -139h-157zM17 0l113 242c13 28 24 50 44 86h-132v139h377l-111 -238c-17 -36 -23 -48 -45 -88h128v-141h-374z" />
    <glyph glyph-name="twodotenleader" unicode="&#x2025;" 
d="M279 97c0 52 43 95 95 95c54 0 97 -43 97 -98c0 -51 -43 -94 -96 -94s-96 44 -96 97zM29 97c0 52 43 95 95 95c54 0 97 -43 97 -98c0 -51 -43 -94 -96 -94s-96 44 -96 97z" />
    <glyph glyph-name="onedotenleader" unicode="&#x2024;" horiz-adv-x="250" 
d="M29 97c0 52 43 95 95 95c54 0 97 -43 97 -98c0 -51 -43 -94 -96 -94s-96 44 -96 97z" />
    <glyph glyph-name="onethird" unicode="&#x2153;" horiz-adv-x="844" 
d="M192 -5l385 716l74 -39l-387 -716zM136 267v303h-44v97h157v-401zM529 112v9h111c1 -27 8 -36 26 -36c16 0 28 14 28 35c0 25 -16 40 -44 40c-4 0 -10 0 -20 -2v88h15c30 0 43 11 43 38c0 19 -8 31 -21 31c-14 0 -17 -6 -20 -32h-110c6 76 57 123 133 123
c73 0 129 -51 129 -116c0 -37 -15 -64 -47 -83c34 -19 53 -52 53 -92c0 -71 -58 -122 -140 -122c-80 0 -136 49 -136 119z" />
    <glyph glyph-name="twothirds" unicode="&#x2154;" horiz-adv-x="844" 
d="M192 -5l385 716l74 -39l-387 -716zM26 267l114 147c50 65 66 98 66 135c0 20 -10 33 -24 33c-15 0 -24 -17 -24 -47c0 -3 0 -9 1 -16h-111c-1 8 -1 15 -1 18c0 80 58 137 138 137c77 0 132 -54 132 -132c0 -61 -30 -114 -103 -183c33 2 45 3 98 3v-95h-286zM529 112v9
h111c1 -27 8 -36 26 -36c16 0 28 14 28 35c0 25 -16 40 -44 40c-4 0 -10 0 -20 -2v88h15c30 0 43 11 43 38c0 19 -8 31 -21 31c-14 0 -17 -6 -20 -32h-110c6 76 57 123 133 123c73 0 129 -51 129 -116c0 -37 -15 -64 -47 -83c34 -19 53 -52 53 -92c0 -71 -58 -122 -140 -122
c-80 0 -136 49 -136 119z" />
    <glyph glyph-name="oneeighth" unicode="&#x215b;" horiz-adv-x="844" 
d="M192 -5l385 716l74 -39l-387 -716zM136 267v303h-44v97h157v-401zM527 115c0 44 22 76 65 93c-38 14 -57 42 -57 83c0 67 56 116 131 116c77 0 135 -49 135 -113c0 -40 -17 -67 -53 -86c40 -17 60 -48 60 -93c0 -70 -60 -122 -141 -122c-78 0 -140 54 -140 122zM647 287
c0 -21 8 -34 21 -34s21 13 21 32c0 20 -8 33 -21 33s-21 -12 -21 -31zM643 125c0 -22 10 -37 25 -37c14 0 24 16 24 38c0 23 -10 38 -25 38c-14 0 -24 -17 -24 -39z" />
    <glyph glyph-name="threeeighths" unicode="&#x215c;" horiz-adv-x="844" 
d="M192 -5l385 716l74 -39l-387 -716zM156 550h-110c5 76 57 124 133 124c73 0 129 -51 129 -117c0 -37 -16 -64 -47 -84c34 -19 53 -51 53 -92c0 -70 -58 -121 -140 -121c-80 0 -136 49 -136 118v9h111c1 -26 8 -35 26 -35c16 0 28 14 28 34c0 25 -16 39 -44 39
c-6 0 -8 0 -20 -1v89l15 -1c30 -2 43 11 43 39c0 18 -8 31 -21 31c-14 0 -17 -6 -20 -32zM527 115c0 44 22 76 65 93c-38 14 -57 42 -57 83c0 67 56 116 131 116c77 0 135 -49 135 -113c0 -40 -17 -67 -53 -86c40 -17 60 -48 60 -93c0 -70 -60 -122 -141 -122
c-78 0 -140 54 -140 122zM647 287c0 -21 8 -34 21 -34s21 13 21 32c0 20 -8 33 -21 33s-21 -12 -21 -31zM643 125c0 -22 10 -37 25 -37c14 0 24 16 24 38c0 23 -10 38 -25 38c-14 0 -24 -17 -24 -39z" />
    <glyph glyph-name="fiveeighths" unicode="&#x215d;" horiz-adv-x="844" 
d="M193 -5l385 716l74 -39l-387 -716zM41 292l14 98c35 -21 62 -29 88 -29c33 0 55 17 55 43s-24 42 -63 42c-25 0 -46 -4 -74 -15l32 236h206v-97h-116l-8 -41c6 1 12 1 15 1c69 0 122 -54 122 -124c0 -83 -68 -146 -157 -146c-37 0 -78 11 -114 32zM527 115
c0 44 23 76 66 93c-38 14 -58 42 -58 83c0 67 56 116 131 116c78 0 136 -49 136 -113c0 -40 -17 -67 -53 -86c40 -17 60 -48 60 -93c0 -70 -60 -122 -141 -122c-79 0 -141 54 -141 122zM647 287c0 -21 8 -34 22 -34c13 0 21 13 21 32c0 20 -9 33 -22 33s-21 -12 -21 -31z
M643 125c0 -22 10 -37 25 -37s25 16 25 38c0 23 -10 38 -25 38c-14 0 -25 -17 -25 -39z" />
    <glyph glyph-name="seveneighths" unicode="&#x215e;" horiz-adv-x="844" 
d="M193 -5l385 716l74 -39l-388 -716zM35 267l99 214c16 35 31 60 51 89h-136v97h294l-185 -400h-123zM527 115c0 44 23 76 66 93c-38 14 -58 42 -58 83c0 67 56 116 131 116c77 0 135 -49 135 -113c0 -40 -17 -67 -53 -86c41 -17 61 -48 61 -93c0 -70 -60 -122 -141 -122
c-79 0 -141 54 -141 122zM647 287c0 -21 8 -34 21 -34s21 13 21 32c0 20 -8 33 -21 33s-21 -12 -21 -31zM643 125c0 -22 10 -37 25 -37s25 16 25 38c0 23 -10 38 -25 38c-14 0 -25 -17 -25 -39z" />
    <glyph glyph-name="Dcroat" unicode="&#x110;" horiz-adv-x="537" 
d="M47 0v290h-40v103h40v274h156c98 0 169 -28 222 -88c56 -63 82 -143 82 -246c0 -109 -28 -197 -82 -256c-50 -54 -113 -77 -210 -77h-168zM227 161c63 3 96 60 96 167c0 69 -17 125 -46 155c-13 13 -22 16 -50 17v-107h53v-103h-53v-129z" />
    <glyph glyph-name="dcroat" unicode="&#x111;" horiz-adv-x="497" 
d="M281 20l1 19c1 3 1 13 2 24c-34 -54 -62 -73 -107 -73c-40 0 -82 22 -106 56c-29 43 -44 103 -44 183c0 157 54 248 148 248c51 0 81 -20 112 -77c-1 12 -2 26 -2 27c0 16 -1 32 -1 47v62h-94v97h94v96h173v-96h47v-97h-47v-536h-177c1 9 1 17 1 20zM250 139
c26 0 39 33 39 99c0 61 -14 95 -38 95c-29 0 -44 -34 -44 -98c0 -62 15 -96 43 -96z" />
    <glyph glyph-name="Euro" unicode="&#x20ac;" horiz-adv-x="504" 
d="M31 283l18 94h43c15 184 129 302 293 302c34 0 58 -4 88 -16l-34 -163c-16 9 -30 12 -47 12c-64 0 -105 -48 -116 -135h135l-18 -94h-115c10 -76 51 -121 110 -121c26 0 48 7 72 25v-179c-35 -15 -60 -20 -96 -20c-151 0 -258 116 -272 295h-61z" />
    <glyph glyph-name="estimated" unicode="&#x212e;" horiz-adv-x="871" 
d="M671 131h100c-75 -95 -188 -142 -336 -142c-107 0 -200 31 -275 94c-75 64 -112 147 -112 250c0 104 37 187 112 249c75 63 170 95 281 95c113 0 204 -34 276 -100c71 -65 106 -153 106 -262h-613v-184c58 -68 136 -102 233 -102c96 0 173 35 228 102zM210 357h458v171
c-53 71 -131 108 -232 108c-100 0 -175 -37 -226 -108v-171z" />
    <glyph glyph-name="zero.superior" unicode="&#x2070;" horiz-adv-x="352" 
d="M181 260c-94 0 -150 79 -150 210c0 125 57 204 147 204s144 -78 144 -210c0 -124 -55 -204 -141 -204zM176 356c23 0 34 35 34 109c0 77 -11 113 -34 113c-22 0 -33 -32 -33 -101c0 -81 11 -121 33 -121z" />
    <glyph glyph-name="one.superior" unicode="&#xb9;" horiz-adv-x="352" 
d="M136 267v303h-44v97h157v-401z" />
    <glyph glyph-name="two.superior" unicode="&#xb2;" horiz-adv-x="352" 
d="M26 267l114 147c50 65 66 98 66 135c0 20 -10 33 -24 33c-15 0 -24 -17 -24 -47c0 -3 0 -9 1 -16h-111c-1 8 -1 15 -1 18c0 80 58 137 138 137c77 0 132 -54 132 -132c0 -61 -30 -114 -103 -183c33 2 45 3 98 3v-95h-286z" />
    <glyph glyph-name="three.superior" unicode="&#xb3;" horiz-adv-x="352" 
d="M156 550h-110c5 76 57 124 133 124c73 0 129 -51 129 -117c0 -37 -16 -64 -47 -84c34 -19 53 -51 53 -92c0 -70 -58 -121 -140 -121c-80 0 -136 49 -136 118v9h111c1 -26 8 -35 26 -35c16 0 28 14 28 34c0 25 -16 39 -44 39c-6 0 -8 0 -20 -1v89l15 -1c30 -2 43 11 43 39
c0 18 -8 31 -21 31c-14 0 -17 -6 -20 -32z" />
    <glyph glyph-name="four.superior" unicode="&#x2074;" horiz-adv-x="352" 
d="M175 267v80h-147v86l123 234h138v-231h35v-89h-35v-80h-114zM124 436h55l1 72c0 10 1 18 2 35c-32 -67 -38 -78 -58 -107z" />
    <glyph glyph-name="five.superior" unicode="&#x2075;" horiz-adv-x="353" 
d="M41 292l14 98c35 -21 62 -29 88 -29c33 0 55 17 55 43s-24 42 -63 42c-25 0 -46 -4 -74 -15l32 236h206v-97h-116l-8 -41c6 1 12 1 15 1c69 0 122 -54 122 -124c0 -83 -68 -146 -157 -146c-37 0 -78 11 -114 32z" />
    <glyph glyph-name="six.superior" unicode="&#x2076;" horiz-adv-x="352" 
d="M197 551l-15 -24c12 5 21 7 32 7c58 0 103 -57 103 -128c0 -86 -59 -146 -144 -146c-80 0 -135 59 -135 145c0 46 22 111 66 192l38 70h122zM177 349c20 0 30 19 30 53c0 33 -11 51 -30 51c-18 0 -28 -18 -28 -51c0 -35 10 -53 28 -53z" />
    <glyph glyph-name="seven.superior" unicode="&#x2077;" horiz-adv-x="353" 
d="M35 267l99 214c16 35 31 60 51 89h-136v97h294l-185 -400h-123z" />
    <glyph glyph-name="eight.superior" unicode="&#x2078;" horiz-adv-x="352" 
d="M176 260c-78 0 -140 54 -140 122c0 44 22 76 65 93c-37 14 -57 42 -57 83c0 67 56 116 131 116c77 0 135 -49 135 -113c0 -40 -17 -67 -53 -86c40 -17 60 -48 60 -93c0 -70 -60 -122 -141 -122zM177 520c13 0 21 13 21 32c0 20 -8 33 -21 33s-21 -12 -21 -31
c0 -21 8 -34 21 -34zM177 355c14 0 24 16 24 38c0 23 -10 38 -25 38c-14 0 -24 -17 -24 -39s10 -37 25 -37z" />
    <glyph glyph-name="nine.superior" unicode="&#x2079;" horiz-adv-x="352" 
d="M88 267l67 116l16 25c-13 -6 -21 -8 -33 -8c-57 0 -102 57 -102 129c0 85 59 145 144 145c80 0 135 -59 135 -145c0 -46 -21 -109 -66 -192l-38 -70h-123zM176 481c18 0 28 18 28 51c0 35 -10 53 -28 53c-20 0 -30 -19 -30 -53c0 -33 11 -51 30 -51z" />
    <glyph glyph-name="period.superior" unicode="&#xf6e8;" horiz-adv-x="202" 
d="M102 261c-38 0 -70 30 -70 66c0 35 31 64 69 64c39 0 70 -29 70 -66c0 -35 -32 -64 -69 -64z" />
    <glyph glyph-name="comma.superior" unicode="&#xf6e2;" horiz-adv-x="202" 
d="M4 173l54 199h125l-78 -199h-101z" />
    <glyph glyph-name="dollar.superior" unicode="&#xf6e4;" horiz-adv-x="352" 
d="M152 211v50c-37 2 -54 6 -84 19v131c21 -32 46 -48 73 -48c18 0 30 9 30 23c0 12 -5 20 -21 32c-65 50 -82 75 -82 123c0 60 31 105 88 127v56h53v-52c26 -4 39 -8 65 -21v-127c-26 34 -45 47 -68 47c-14 0 -25 -9 -25 -21s1 -13 46 -48c41 -32 57 -61 57 -106
c0 -57 -27 -99 -78 -124v-61h-54z" />
    <glyph glyph-name="cent.superior" unicode="&#xf6e0;" horiz-adv-x="352" 
d="M160 277v66c-50 28 -76 74 -76 133c0 61 27 109 76 133v48h55v-34h8c5 0 10 -1 22 -2v-92c-30 -1 -47 -19 -47 -49c0 -27 17 -48 38 -48c2 0 5 0 9 1v-100c-6 -1 -11 -1 -13 -1l-12 -1h-5v-54h-55z" />
    <glyph glyph-name="hyphen.superior" unicode="&#xf6e6;" horiz-adv-x="187" 
d="M20 367v91h148v-91h-148z" />
    <glyph glyph-name="plus.superior" unicode="&#x207a;" horiz-adv-x="334" 
d="M105 329v90h-94v117h94v91h125v-91h93v-117h-93v-90h-125z" />
    <glyph glyph-name="minus.superior" unicode="&#x207b;" horiz-adv-x="334" 
d="M11 419v117h313v-117h-313z" />
    <glyph glyph-name="parenleft.superior" unicode="&#x207d;" horiz-adv-x="227" 
d="M114 144c-58 98 -82 182 -82 282c0 101 24 185 82 283l92 -46c-43 -78 -65 -160 -65 -237s22 -156 65 -236z" />
    <glyph glyph-name="parenright.superior" unicode="&#x207e;" horiz-adv-x="228" 
d="M114 144l-92 46c44 82 65 159 65 236c0 78 -22 157 -65 237l92 46c58 -99 82 -181 82 -283c0 -101 -24 -183 -82 -282z" />
    <glyph glyph-name="zero.numerator" unicode="&#xf661;" horiz-adv-x="352" 
d="M181 260c-94 0 -150 79 -150 210c0 125 57 204 147 204s144 -78 144 -210c0 -124 -55 -204 -141 -204zM176 356c23 0 34 35 34 109c0 77 -11 113 -34 113c-22 0 -33 -32 -33 -101c0 -81 11 -121 33 -121z" />
    <glyph glyph-name="one.numerator" unicode="&#xf662;" horiz-adv-x="352" 
d="M136 267v303h-44v97h157v-400h-113z" />
    <glyph glyph-name="two.numerator" unicode="&#xf663;" horiz-adv-x="352" 
d="M26 267l114 147c50 65 66 98 66 135c0 20 -10 33 -24 33c-15 0 -24 -17 -24 -47c0 -3 0 -9 1 -16h-111c-1 8 -1 15 -1 18c0 80 58 137 138 137c77 0 132 -54 132 -132c0 -61 -30 -114 -103 -183c33 2 45 3 98 3v-95h-286z" />
    <glyph glyph-name="three.numerator" unicode="&#xf664;" horiz-adv-x="352" 
d="M156 550h-110c5 76 57 124 133 124c73 0 129 -51 129 -117c0 -37 -16 -64 -47 -84c34 -19 53 -51 53 -92c0 -70 -58 -121 -140 -121c-80 0 -136 49 -136 118v9h111c1 -26 8 -35 26 -35c16 0 28 14 28 34c0 25 -16 39 -44 39c-6 0 -8 0 -20 -1v89l15 -1c30 -2 43 11 43 39
c0 18 -8 31 -21 31c-14 0 -17 -6 -20 -32z" />
    <glyph glyph-name="four.numerator" unicode="&#xf665;" horiz-adv-x="352" 
d="M175 267v80h-147v86l123 234h138v-231h35v-89h-35v-80h-114zM124 436h55l1 72c0 10 1 18 2 35c-32 -67 -38 -78 -58 -107z" />
    <glyph glyph-name="five.numerator" unicode="&#xf666;" horiz-adv-x="353" 
d="M41 292l14 98c35 -21 62 -29 88 -29c33 0 55 17 55 43s-24 42 -63 42c-25 0 -46 -4 -74 -15l32 236h206v-97h-116l-8 -41c6 1 12 1 15 1c69 0 122 -54 122 -124c0 -83 -68 -146 -157 -146c-37 0 -78 11 -114 32z" />
    <glyph glyph-name="six.numerator" unicode="&#xf667;" horiz-adv-x="352" 
d="M197 551l-15 -24c12 5 21 7 32 7c58 0 103 -57 103 -128c0 -86 -59 -146 -144 -146c-80 0 -135 59 -135 145c0 46 22 111 66 192l38 70h122zM177 349c20 0 30 19 30 53c0 33 -11 51 -30 51c-18 0 -28 -18 -28 -51c0 -35 10 -53 28 -53z" />
    <glyph glyph-name="seven.numerator" unicode="&#xf668;" horiz-adv-x="353" 
d="M35 267l99 214c16 35 31 60 51 89h-136v97h294l-185 -400h-123z" />
    <glyph glyph-name="eight.numerator" unicode="&#xf669;" horiz-adv-x="352" 
d="M176 260c-78 0 -140 54 -140 122c0 44 22 76 65 93c-37 14 -57 42 -57 83c0 67 56 116 131 116c77 0 135 -49 135 -113c0 -40 -17 -67 -53 -86c40 -17 60 -48 60 -93c0 -70 -60 -122 -141 -122zM177 520c13 0 21 13 21 32c0 20 -8 33 -21 33s-21 -12 -21 -31
c0 -21 8 -34 21 -34zM177 355c14 0 24 16 24 38c0 23 -10 38 -25 38c-14 0 -24 -17 -24 -39s10 -37 25 -37z" />
    <glyph glyph-name="nine.numerator" unicode="&#xf66a;" horiz-adv-x="352" 
d="M88 267l67 116l16 25c-13 -6 -21 -8 -33 -8c-57 0 -102 57 -102 129c0 85 59 145 144 145c80 0 135 -59 135 -145c0 -46 -21 -109 -66 -192l-38 -70h-123zM176 481c18 0 28 18 28 51c0 35 -10 53 -28 53c-20 0 -30 -19 -30 -53c0 -33 11 -51 30 -51z" />
    <glyph glyph-name="zero.denominator" unicode="&#xf655;" horiz-adv-x="352" 
d="M181 -7c-94 0 -150 79 -150 210c0 125 57 204 147 204s144 -78 144 -210c0 -124 -55 -204 -141 -204zM176 89c23 0 34 35 34 109c0 77 -11 113 -34 113c-22 0 -33 -32 -33 -101c0 -81 11 -121 33 -121z" />
    <glyph glyph-name="one.denominator" unicode="&#xf656;" horiz-adv-x="352" 
d="M136 0v303h-44v97h157v-400h-113z" />
    <glyph glyph-name="two.denominator" unicode="&#xf657;" horiz-adv-x="352" 
d="M26 0l114 147c50 65 66 98 66 135c0 20 -10 33 -24 33c-15 0 -24 -17 -24 -47c0 -3 0 -9 1 -16h-111c-1 8 -1 15 -1 18c0 80 58 137 138 137c77 0 132 -54 132 -132c0 -61 -30 -114 -103 -183c33 2 45 3 98 3v-95h-286z" />
    <glyph glyph-name="three.denominator" unicode="&#xf658;" horiz-adv-x="352" 
d="M38 112v9h111c1 -27 8 -36 26 -36c16 0 28 14 28 35c0 25 -16 40 -44 40c-4 0 -10 0 -20 -2v88h15c30 0 43 11 43 38c0 19 -8 31 -21 31c-14 0 -17 -6 -20 -32h-110c6 76 57 123 133 123c73 0 129 -51 129 -116c0 -37 -15 -64 -47 -83c34 -19 53 -52 53 -92
c0 -71 -58 -122 -140 -122c-80 0 -136 49 -136 119z" />
    <glyph glyph-name="four.denominator" unicode="&#xf659;" horiz-adv-x="352" 
d="M28 80v86l123 234h138v-231h35v-89h-35v-80h-114v80h-147zM124 169h55l1 72c0 10 1 18 2 35c-32 -67 -38 -78 -58 -107z" />
    <glyph glyph-name="five.denominator" unicode="&#xf65a;" horiz-adv-x="353" 
d="M41 25l14 98c35 -21 61 -30 88 -30c33 0 55 18 55 43c0 27 -24 43 -63 43c-25 0 -44 -4 -74 -15l32 236h206v-97h-116l-8 -40h15c69 0 122 -54 122 -124c0 -83 -68 -146 -157 -146c-38 0 -77 11 -114 32z" />
    <glyph glyph-name="six.denominator" unicode="&#xf65b;" horiz-adv-x="352" 
d="M197 284l-15 -25c12 6 21 8 32 8c58 0 103 -57 103 -128c0 -86 -59 -146 -144 -146c-80 0 -135 59 -135 145c0 46 23 112 66 192l38 70h122zM177 82c20 0 30 19 30 53c0 33 -11 51 -30 51c-18 0 -28 -18 -28 -51c0 -35 10 -53 28 -53z" />
    <glyph glyph-name="seven.denominator" unicode="&#xf65c;" horiz-adv-x="353" 
d="M35 0l99 214c16 35 32 61 51 89h-136v97h294l-185 -400h-123z" />
    <glyph glyph-name="eight.denominator" unicode="&#xf65d;" horiz-adv-x="352" 
d="M36 115c0 44 22 76 65 93c-37 14 -57 42 -57 83c0 67 56 116 131 116c77 0 135 -49 135 -113c0 -40 -17 -67 -53 -86c40 -17 60 -48 60 -93c0 -70 -60 -122 -141 -122c-78 0 -140 54 -140 122zM177 253c13 0 21 13 21 32c0 20 -8 33 -21 33s-21 -12 -21 -31
c0 -21 8 -34 21 -34zM152 125c0 -22 10 -37 25 -37c14 0 24 16 24 38c0 23 -10 38 -25 38c-14 0 -24 -17 -24 -39z" />
    <glyph glyph-name="nine.denominator" unicode="&#xf65e;" horiz-adv-x="352" 
d="M88 0l67 116l16 25c-13 -6 -21 -8 -33 -8c-57 0 -102 57 -102 129c0 85 59 145 144 145c80 0 135 -59 135 -145c0 -46 -21 -109 -66 -192l-38 -70h-123zM176 214c18 0 28 18 28 51c0 35 -10 53 -28 53c-20 0 -30 -19 -30 -53c0 -33 11 -51 30 -51z" />
    <glyph glyph-name="lessequal" unicode="&#x2264;" 
d="M33 357v158l433 157v-177l-227 -60l226 -59l1 -176zM33 8v166h433v-166h-433z" />
    <glyph glyph-name="greaterequal" unicode="&#x2265;" 
d="M33 200l1 176l226 59l-227 60v177l433 -157v-158zM33 8v166h433v-166h-433z" />
    <glyph glyph-name="approxequal" unicode="&#x2248;" 
d="M97 348l-90 64c40 104 88 150 156 150c23 0 48 -7 111 -32c51 -20 55 -21 69 -21c23 0 37 10 60 43l90 -64c-44 -108 -87 -149 -157 -149c-28 0 -48 6 -112 32c-37 15 -54 20 -69 20c-21 0 -36 -12 -58 -43zM97 107l-90 63c40 104 88 150 156 150c27 0 40 -4 147 -45
c13 -5 23 -7 32 -7c24 0 38 9 61 42l90 -63c-44 -108 -87 -149 -157 -149c-28 0 -49 6 -112 31c-38 15 -54 20 -69 20c-21 0 -36 -11 -58 -42z" />
    <glyph glyph-name="notequal" unicode="&#x2260;" 
d="M65 75l27 42h-59v158h116l38 65h-153v158h217l72 133l116 -65l-40 -68h67v-158h-130l-38 -65h168v-158h-225l-60 -107z" />
    <glyph glyph-name="infinity" unicode="&#x221e;" horiz-adv-x="667" 
d="M179 178c-95 0 -162 67 -162 162c0 93 68 161 161 161c56 0 105 -26 153 -81c43 52 99 81 157 81c95 0 162 -67 162 -161s-67 -162 -161 -162c-57 0 -107 27 -152 82c-50 -56 -100 -82 -158 -82zM397 335c22 -31 47 -47 73 -47c30 0 54 23 54 52c0 28 -24 51 -55 51
c-26 0 -50 -17 -75 -52zM273 339l-3 4c-23 32 -47 48 -73 48c-30 0 -54 -23 -54 -52c0 -28 24 -51 55 -51c26 0 49 15 75 51z" />
    <glyph glyph-name="lozenge" unicode="&#x25ca;" horiz-adv-x="667" 
d="M334 -26l-260 360l260 359l259 -359zM334 63l197 271l-197 270l-197 -270z" />
    <glyph glyph-name="integral" unicode="&#x222b;" 
d="M49 -67c19 -8 31 -11 45 -11c25 0 47 14 55 35c5 13 5 13 5 117v324c0 167 0 167 11 210c24 90 106 145 219 145c30 0 52 -2 97 -10l-29 -170c-19 7 -31 10 -45 10c-27 0 -46 -12 -55 -34c-4 -10 -5 -23 -5 -57v-380c0 -156 0 -156 -6 -187c-20 -112 -99 -172 -226 -172
c-31 0 -53 2 -95 10z" />
    <glyph glyph-name="partialdiff" unicode="&#x2202;" 
d="M47 524l20 138c135 -13 226 -46 299 -107c83 -70 122 -161 122 -282c0 -176 -92 -281 -246 -281c-136 0 -232 97 -232 233c0 117 87 206 201 206c48 0 80 -9 107 -30c-32 72 -124 114 -271 123zM169 216c0 -46 36 -83 78 -83c44 0 79 37 79 83s-35 83 -77 83
c-45 0 -80 -37 -80 -83z" />
    <glyph glyph-name="product" unicode="&#x220f;" horiz-adv-x="667" 
d="M15 -104h72v714h-72v143h637v-143h-71v-714h71v-143h-290v143h59v714h-175v-714h58v-143h-289v143z" />
    <glyph glyph-name="radical" unicode="&#x221a;" horiz-adv-x="667" 
d="M141 0l-48 236h-93v148h194l21 -90c8 -36 13 -102 15 -145h10c6 78 28 211 49 297l91 381h287v-148h-156l-159 -679h-211z" />
    <glyph glyph-name="summation" unicode="&#x2211;" horiz-adv-x="667" 
d="M33 -57l227 324l-227 296v190h600v-268h-161l-20 103h-218l238 -321l-236 -349h225l11 110h170v-275h-609v190z" />
    <glyph glyph-name="Delta" unicode="&#x2206;" horiz-adv-x="662" 
d="M9 0l228 667h186l230 -667h-644zM237 155h184l-90 323z" />
    <glyph glyph-name="Omega" unicode="&#x2126;" horiz-adv-x="667" 
d="M28 0v152h120c-38 24 -57 40 -76 64c-30 40 -47 94 -47 155c0 177 134 313 308 313c176 0 309 -135 309 -313c0 -102 -35 -164 -123 -219h120v-152h-273v139c72 37 106 103 106 207c0 113 -56 191 -139 191c-80 0 -138 -80 -138 -192c0 -104 33 -169 106 -206v-139h-273z
" />
    <glyph glyph-name="pi" unicode="&#x3c0;" horiz-adv-x="655" 
d="M93 0v348h-73v132h615v-132h-73v-348h-167v348h-135v-348h-167z" />
    <glyph glyph-name="Abreve" unicode="&#x102;" horiz-adv-x="532" 
d="M370 866h69c-8 -94 -67 -149 -161 -149c-91 0 -151 56 -159 149h70c15 -40 38 -54 90 -54s75 14 91 54zM5 0l160 667h221l141 -667h-187l-13 85h-121l-15 -85h-186zM230 228h76l-12 78c0 3 -2 18 -7 57l-5 40c-2 15 -3 30 -5 54l-5 51l-7 -53c-3 -24 -6 -65 -16 -122z
" />
    <glyph glyph-name="Amacron" unicode="&#x100;" horiz-adv-x="532" 
d="M116 734v93h320v-93h-320zM5 0l160 667h221l141 -667h-187l-13 85h-121l-15 -85h-186zM230 228h76l-12 78c0 3 -2 18 -7 57l-5 40c-2 15 -3 30 -5 54l-5 51l-7 -53c-3 -24 -6 -65 -16 -122z" />
    <glyph glyph-name="Aogonek" unicode="&#x104;" horiz-adv-x="532" 
d="M5 0l160 667h221l141 -667h-53c-24 -26 -35 -45 -35 -65c0 -21 15 -34 38 -34c11 0 20 2 38 7l-9 -72c-21 -8 -34 -10 -55 -10c-60 0 -98 31 -98 80c0 31 16 59 57 94h-70l-13 85h-121l-15 -85h-186zM230 228h76l-12 78c-1 7 -2 9 -7 55l-5 46c-2 22 -5 44 -10 101
l-7 -53c-3 -25 -6 -66 -16 -122z" />
    <glyph glyph-name="Cacute" unicode="&#x106;" horiz-adv-x="445" 
d="M255 720l43 151h131l-84 -151h-90zM422 205l-11 -193c-44 -18 -69 -24 -107 -24c-81 0 -154 36 -204 101c-47 61 -70 140 -70 242c0 112 28 196 87 260c54 58 125 88 208 88c35 0 57 -4 89 -16v-191c-30 30 -51 40 -83 40c-73 0 -117 -67 -117 -178
c0 -108 42 -172 114 -172c34 0 58 11 94 43z" />
    <glyph glyph-name="Ccaron" unicode="&#x10c;" horiz-adv-x="445" 
d="M217 720l-82 138h136l34 -60l38 60h114l-87 -138h-153zM422 205l-11 -193c-44 -18 -69 -24 -107 -24c-81 0 -154 36 -204 101c-47 61 -70 140 -70 242c0 112 28 196 87 260c54 58 125 88 208 88c35 0 57 -4 89 -16v-191c-30 30 -51 40 -83 40c-73 0 -117 -67 -117 -178
c0 -108 42 -172 114 -172c34 0 58 11 94 43z" />
    <glyph glyph-name="Dcaron" unicode="&#x10e;" horiz-adv-x="537" 
d="M160 720l-82 138h136l34 -60l38 60h114l-87 -138h-153zM47 0v667h156c99 0 170 -28 223 -88c56 -63 82 -142 82 -246c0 -109 -28 -197 -83 -256c-49 -54 -112 -77 -210 -77h-168zM227 161c64 3 97 60 97 167c0 105 -37 176 -91 173c-1 0 -3 0 -6 -1v-339z" />
    <glyph glyph-name="Ecaron" unicode="&#x11a;" horiz-adv-x="411" 
d="M143 720l-82 138h136l34 -60l38 60h114l-87 -138h-153zM47 0v667h335v-157h-155v-97h139v-151h-139v-102h155v-160h-335z" />
    <glyph glyph-name="Edotaccent" unicode="&#x116;" horiz-adv-x="411" 
d="M225 720c-42 0 -76 34 -76 76s34 76 76 76s76 -34 76 -76c0 -41 -35 -76 -76 -76zM47 0v667h335v-157h-155v-97h139v-151h-139v-102h155v-160h-335z" />
    <glyph glyph-name="Emacron" unicode="&#x112;" horiz-adv-x="411" 
d="M57 734v93h320v-93h-320zM47 0v667h335v-157h-155v-97h139v-151h-139v-102h155v-160h-335z" />
    <glyph glyph-name="Eogonek" unicode="&#x118;" horiz-adv-x="411" 
d="M47 0v667h335v-157h-155v-97h139v-151h-139v-102h155v-160h-46c-24 -25 -35 -45 -35 -65c0 -21 15 -34 38 -34c10 0 20 2 38 7l-9 -72c-22 -8 -35 -10 -56 -10c-59 0 -98 31 -98 80c0 32 16 59 57 94h-224z" />
    <glyph glyph-name="Gbreve" unicode="&#x11e;" horiz-adv-x="560" 
d="M378 866h69c-8 -94 -67 -149 -161 -149c-91 0 -151 56 -159 149h70c15 -40 38 -54 90 -54s75 14 91 54zM531 385v-27c0 -118 -13 -193 -44 -255c-36 -71 -112 -115 -199 -115c-161 0 -258 128 -258 342c0 216 98 349 257 349c105 0 182 -55 229 -165l-174 -65
c-5 43 -26 69 -54 69c-49 0 -74 -68 -74 -205c0 -115 21 -165 68 -165c39 0 63 36 63 97h-66v140h252z" />
    <glyph glyph-name="Gcommaaccent" unicode="&#x122;" horiz-adv-x="560" 
d="M531 385v-27c0 -118 -13 -193 -44 -255c-36 -71 -112 -115 -199 -115c-161 0 -258 128 -258 342c0 216 98 349 257 349c105 0 182 -55 229 -165l-174 -65c-5 43 -26 69 -54 69c-49 0 -74 -68 -74 -205c0 -115 21 -165 68 -165c39 0 63 36 63 97h-66v140h252zM227 -54h124
l-82 -160h-99z" />
    <glyph glyph-name="Idotaccent" unicode="&#x130;" horiz-adv-x="273" 
d="M141 720c-42 0 -76 34 -76 76s34 76 76 76s76 -34 76 -76c0 -41 -35 -76 -76 -76zM47 0v667h180v-667h-180z" />
    <glyph glyph-name="Imacron" unicode="&#x12a;" horiz-adv-x="273" 
d="M0 734v93h280v-93h-280zM47 0v667h180v-667h-180z" />
    <glyph glyph-name="Iogonek" unicode="&#x12e;" horiz-adv-x="273" 
d="M47 0v667h180v-667h-44c-26 -26 -36 -45 -36 -65c0 -21 15 -34 38 -34c11 0 20 2 38 7l-9 -72c-21 -8 -34 -10 -55 -10c-60 0 -98 31 -98 80c0 32 16 58 57 94h-71z" />
    <glyph glyph-name="Kcommaaccent" unicode="&#x136;" horiz-adv-x="541" 
d="M47 0v667h180l-5 -286l106 286h191l-144 -322l161 -345h-194l-120 307l5 -307h-180zM211 -54h124l-82 -160h-99z" />
    <glyph glyph-name="Lacute" unicode="&#x139;" horiz-adv-x="369" 
d="M101 720l44 151h131l-84 -151h-91zM47 0v667h180v-507h135v-160h-315z" />
    <glyph glyph-name="Lcaron" unicode="&#x13d;" horiz-adv-x="448" 
d="M267 507l57 160h124l-82 -160h-99zM47 0v667h180v-507h135v-160h-315z" />
    <glyph glyph-name="Lcommaaccent" unicode="&#x13b;" horiz-adv-x="369" 
d="M47 0v667h180v-507h135v-160h-315zM142 -54h124l-82 -160h-99z" />
    <glyph glyph-name="Nacute" unicode="&#x143;" horiz-adv-x="563" 
d="M239 720l44 151h131l-84 -151h-91zM47 0v667h172l90 -234c13 -34 18 -51 30 -89c9 -26 16 -48 25 -79c-15 130 -20 188 -20 252v150h172v-667h-172l-90 245c-27 75 -33 91 -46 139c8 -100 11 -157 11 -214v-170h-172z" />
    <glyph glyph-name="Ncaron" unicode="&#x147;" horiz-adv-x="563" 
d="M206 720l-82 138h136l34 -60l38 60h114l-87 -138h-153zM47 0v667h172l90 -234c13 -34 18 -51 30 -89c9 -26 16 -48 25 -79c-15 130 -20 188 -20 252v150h172v-667h-172l-90 245c-27 75 -33 91 -46 139c8 -100 11 -157 11 -214v-170h-172z" />
    <glyph glyph-name="Ncommaaccent" unicode="&#x145;" horiz-adv-x="563" 
d="M47 0v667h172l90 -234c13 -34 18 -51 30 -89c9 -26 16 -48 25 -79c-15 130 -20 188 -20 252v150h172v-667h-172l-90 245c-27 75 -33 91 -46 139c8 -100 11 -157 11 -214v-170h-172zM222 -54h124l-82 -160h-99z" />
    <glyph glyph-name="Ohungarumlaut" unicode="&#x150;" horiz-adv-x="567" 
d="M325 720l43 151h131l-84 -151h-90zM158 720l43 151h131l-84 -151h-90zM105 77c-49 61 -75 152 -75 262s26 194 79 255c48 56 109 85 177 85c154 0 251 -135 251 -348c0 -203 -101 -343 -250 -343c-68 0 -138 34 -182 89zM283 157c42 0 67 66 67 173
c0 117 -23 181 -64 181c-42 0 -69 -68 -69 -177c0 -111 24 -177 66 -177z" />
    <glyph glyph-name="Omacron" unicode="&#x14c;" horiz-adv-x="567" 
d="M127 734v93h320v-93h-320zM105 77c-49 61 -75 152 -75 262s26 194 79 255c48 56 109 85 177 85c154 0 251 -135 251 -348c0 -203 -101 -343 -250 -343c-68 0 -138 34 -182 89zM283 157c42 0 67 66 67 173c0 117 -23 181 -64 181c-42 0 -69 -68 -69 -177
c0 -111 24 -177 66 -177z" />
    <glyph glyph-name="Racute" unicode="&#x154;" horiz-adv-x="533" 
d="M192 720l43 151h131l-84 -151h-90zM47 0v667h184c82 0 142 -16 182 -48c49 -39 77 -103 77 -175c0 -82 -33 -135 -103 -167l134 -277h-195l-61 164c-21 56 -34 94 -40 113c2 -73 2 -74 2 -88v-189h-180zM227 359c4 -1 10 -1 12 -1c41 0 72 36 72 84c0 51 -27 75 -84 75
v-158z" />
    <glyph glyph-name="Rcaron" unicode="&#x158;" horiz-adv-x="533" 
d="M168 720l-82 138h136l34 -60l38 60h114l-87 -138h-153zM47 0v667h184c82 0 142 -16 182 -48c49 -39 77 -103 77 -175c0 -82 -33 -135 -103 -167l134 -277h-195l-61 164c-21 56 -34 94 -40 113c2 -73 2 -74 2 -88v-189h-180zM227 359c4 -1 10 -1 12 -1c41 0 72 36 72 84
c0 51 -27 75 -84 75v-158z" />
    <glyph glyph-name="Rcommaaccent" unicode="&#x156;" horiz-adv-x="533" 
d="M47 0v667h184c82 0 142 -16 182 -48c49 -39 77 -103 77 -175c0 -82 -33 -135 -103 -167l134 -277h-195l-61 164c-21 56 -34 94 -40 113c2 -73 2 -74 2 -88v-189h-180zM227 359c4 -1 10 -1 12 -1c41 0 72 36 72 84c0 51 -27 75 -84 75v-158zM208 -54h124l-82 -160h-99z
" />
    <glyph glyph-name="Sacute" unicode="&#x15a;" horiz-adv-x="404" 
d="M180 720l44 151h131l-85 -151h-90zM33 17v209c35 -48 74 -73 114 -73c31 0 53 18 53 43c0 26 -4 31 -61 75c-77 60 -109 116 -109 189c0 60 26 123 68 165c35 35 81 54 135 54c43 0 86 -11 129 -34v-204c-29 45 -69 73 -105 73c-26 0 -48 -18 -48 -40c0 -23 9 -34 65 -74
c76 -55 107 -109 107 -186c0 -130 -90 -226 -212 -226c-45 0 -89 9 -136 29z" />
    <glyph glyph-name="Scedilla" unicode="&#x15e;" horiz-adv-x="404" 
d="M33 17v209c35 -48 74 -73 114 -73c31 0 53 18 53 43c0 26 -4 31 -61 75c-77 60 -109 116 -109 189c0 60 26 123 68 165c35 35 81 54 135 54c43 0 86 -11 129 -34v-204c-29 45 -69 73 -105 73c-26 0 -48 -18 -48 -40c0 -23 9 -34 65 -74c76 -55 107 -109 107 -186
c0 -130 -90 -226 -212 -226c-45 0 -89 9 -136 29zM163 -47l92 -59l-140 -133l-73 45z" />
    <glyph glyph-name="Scommaaccent" unicode="&#x218;" horiz-adv-x="404" 
d="M33 17v209c35 -48 74 -73 114 -73c31 0 53 18 53 43c0 26 -4 31 -61 75c-77 60 -109 116 -109 189c0 60 26 123 68 165c35 35 81 54 135 54c43 0 86 -11 129 -34v-204c-29 45 -69 73 -105 73c-26 0 -48 -18 -48 -40c0 -23 9 -34 65 -74c76 -55 107 -109 107 -186
c0 -130 -90 -226 -212 -226c-45 0 -89 9 -136 29zM125 -54h117l-81 -160h-93z" />
    <glyph glyph-name="Tcaron" unicode="&#x164;" horiz-adv-x="383" 
d="M116 720l-82 138h136l34 -60l38 60h114l-87 -138h-153zM99 0v507h-99v160h383v-160h-104v-507h-180z" />
    <glyph glyph-name="Tcommaaccent" unicode="&#x162;" horiz-adv-x="383" 
d="M99 0v507h-99v160h383v-160h-104v-507h-180zM128 -54h124l-82 -160h-99z" />
    <glyph glyph-name="Uhungarumlaut" unicode="&#x170;" horiz-adv-x="545" 
d="M315 720l43 151h131l-84 -151h-90zM148 720l43 151h131l-84 -151h-90zM499 667v-472c0 -71 -18 -114 -67 -155c-40 -35 -90 -52 -150 -52c-67 0 -128 21 -170 58c-45 40 -65 93 -65 175v446h180v-430c0 -58 13 -80 46 -80c18 0 33 9 39 23s7 20 7 56v431h180z" />
    <glyph glyph-name="Umacron" unicode="&#x16a;" horiz-adv-x="545" 
d="M116 734v93h320v-93h-320zM499 667v-472c0 -71 -18 -114 -67 -155c-40 -35 -90 -52 -150 -52c-67 0 -128 21 -170 58c-45 40 -65 93 -65 175v446h180v-430c0 -58 13 -80 46 -80c18 0 33 9 39 23s7 20 7 56v431h180z" />
    <glyph glyph-name="Uogonek" unicode="&#x172;" horiz-adv-x="545" 
d="M439 -92l-9 -72c-21 -8 -34 -10 -55 -10c-60 0 -98 31 -98 82c0 29 11 55 34 81c-10 -1 -18 -1 -30 -1c-66 0 -127 21 -169 58c-45 40 -65 93 -65 175v446h180v-430c0 -58 13 -80 46 -80c18 0 33 9 39 23s7 20 7 56v431h180v-472c0 -77 -24 -125 -81 -167
c-2 -2 -5 -4 -5 -4l-3 -3c-26 -26 -46 -60 -46 -86c0 -21 14 -34 37 -34c11 0 20 2 38 7z" />
    <glyph glyph-name="Uring" unicode="&#x16e;" horiz-adv-x="545" 
d="M277 713c-48 0 -87 39 -87 87s39 87 86 87c49 0 87 -39 87 -88c0 -47 -39 -86 -86 -86zM277 763c20 0 37 17 37 36c0 21 -17 38 -37 38s-37 -17 -37 -37s17 -37 37 -37zM499 667v-472c0 -71 -18 -114 -67 -155c-40 -35 -90 -52 -150 -52c-67 0 -128 21 -170 58
c-45 40 -65 93 -65 175v446h180v-430c0 -58 13 -80 46 -80c18 0 33 9 39 23s7 20 7 56v431h180z" />
    <glyph glyph-name="Zacute" unicode="&#x179;" horiz-adv-x="515" 
d="M236 720l44 151h131l-84 -151h-91zM17 0v14l143 326c45 102 53 113 90 170h-193v157h441v-19l-163 -363c-10 -21 -31 -66 -64 -133c33 3 55 4 66 4l139 4v-160h-459z" />
    <glyph glyph-name="Zdotaccent" unicode="&#x17b;" horiz-adv-x="515" 
d="M289 720c-42 0 -76 34 -76 76s34 76 76 76s76 -34 76 -76c0 -41 -35 -76 -76 -76zM17 0v14l143 326c45 102 53 113 90 170h-193v157h441v-19l-163 -363c-10 -21 -31 -66 -64 -133c33 3 55 4 66 4l139 4v-160h-459z" />
    <glyph glyph-name="abreve" unicode="&#x103;" horiz-adv-x="497" 
d="M339 679h70c-10 -100 -62 -149 -156 -149c-56 0 -95 18 -125 59c-21 27 -30 50 -33 90h70c15 -40 38 -54 89 -54c47 0 70 14 85 54zM457 0h-173c1 10 1 19 1 22c1 14 2 23 2 26c0 5 1 17 3 31c-32 -63 -67 -89 -121 -89c-88 0 -142 94 -142 247c0 148 56 240 147 240
c49 0 81 -24 112 -84l-5 74h176v-467zM241 133c28 0 41 33 41 106c0 69 -10 95 -37 95c-29 0 -43 -37 -43 -116c0 -57 13 -85 39 -85z" />
    <glyph glyph-name="amacron" unicode="&#x101;" horiz-adv-x="497" 
d="M109 546v97h313v-97h-313zM457 0h-173c1 10 1 19 1 22c1 14 2 23 2 26c0 5 1 17 3 31c-32 -63 -67 -89 -121 -89c-88 0 -142 94 -142 247c0 148 56 240 147 240c49 0 81 -24 112 -84l-5 74h176v-467zM241 133c28 0 41 33 41 106c0 69 -10 95 -37 95
c-29 0 -43 -37 -43 -116c0 -57 13 -85 39 -85z" />
    <glyph glyph-name="aogonek" unicode="&#x105;" horiz-adv-x="497" 
d="M385 -92l-8 -70c-15 -7 -25 -9 -43 -9c-60 0 -103 33 -103 80c0 31 18 62 53 91c1 10 1 19 1 22c1 14 2 23 2 26c0 5 1 17 3 31c-32 -63 -67 -89 -121 -89c-88 0 -142 94 -142 247c0 148 56 240 147 240c49 0 81 -24 112 -84l-3 43c0 4 -1 17 -2 31h176v-467h-112
c-22 -19 -35 -42 -35 -63c0 -22 15 -35 41 -35c10 0 19 1 34 6zM241 133c28 0 41 33 41 106c0 69 -10 95 -37 95c-29 0 -43 -37 -43 -116c0 -57 13 -85 39 -85z" />
    <glyph glyph-name="cacute" unicode="&#x107;" horiz-adv-x="303" 
d="M155 530l47 148h124l-82 -148h-89zM283 152v-159c-18 -2 -37 -3 -47 -3c-57 0 -109 22 -143 60c-41 46 -66 118 -66 186c0 138 95 241 221 241c8 0 20 -1 35 -2v-152c-50 -3 -77 -33 -77 -83c0 -48 29 -88 65 -88h12z" />
    <glyph glyph-name="ccaron" unicode="&#x10d;" horiz-adv-x="303" 
d="M114 530l-65 139h127l29 -68l32 68h103l-70 -139h-156zM283 152v-159c-18 -2 -37 -3 -47 -3c-57 0 -109 22 -143 60c-41 46 -66 118 -66 186c0 138 95 241 221 241c8 0 20 -1 35 -2v-152c-50 -3 -77 -33 -77 -83c0 -48 29 -88 65 -88h12z" />
    <glyph glyph-name="dcaron" unicode="&#x10f;" horiz-adv-x="671" 
d="M490 569l58 160h117l-82 -160h-93zM281 20l1 19c1 3 1 13 2 24c-34 -54 -61 -73 -107 -73c-40 0 -82 22 -106 56c-29 43 -44 103 -44 183c0 157 54 248 149 248c50 0 80 -21 111 -77c-1 12 -2 26 -2 27c0 16 -1 32 -1 47v255h173v-729h-177c1 9 1 17 1 20zM249 139
c27 0 40 34 40 99c0 60 -14 95 -39 95c-28 0 -44 -34 -44 -98c0 -62 15 -96 43 -96z" />
    <glyph glyph-name="ecaron" unicode="&#x11b;" horiz-adv-x="481" 
d="M163 530l-71 139h127l35 -68l39 68h103l-76 -139h-157zM279 158l169 -3c-23 -107 -97 -165 -207 -165c-133 0 -214 89 -214 235c0 148 90 251 218 251c127 0 210 -98 210 -248c0 -6 0 -17 -1 -31h-254c3 -50 15 -72 40 -72c19 0 33 12 39 33zM202 290h81
c-2 37 -17 59 -41 59c-23 0 -38 -22 -40 -59z" />
    <glyph glyph-name="edotaccent" unicode="&#x117;" horiz-adv-x="481" 
d="M242 530c-43 0 -77 35 -77 77c0 41 34 75 75 75c43 0 77 -34 77 -77c0 -41 -34 -75 -75 -75zM279 158l169 -3c-23 -107 -97 -165 -207 -165c-133 0 -214 89 -214 235c0 148 90 251 218 251c127 0 210 -98 210 -248c0 -6 0 -17 -1 -31h-254c3 -50 15 -72 40 -72
c19 0 33 12 39 33zM202 290h81c-2 37 -17 59 -41 59c-23 0 -38 -22 -40 -59z" />
    <glyph glyph-name="emacron" unicode="&#x113;" horiz-adv-x="481" 
d="M84 546v97h313v-97h-313zM279 158l169 -3c-23 -107 -97 -165 -207 -165c-133 0 -214 89 -214 235c0 148 90 251 218 251c127 0 210 -98 210 -248c0 -6 0 -17 -1 -31h-254c3 -50 15 -72 40 -72c19 0 33 12 39 33zM202 290h81c-2 37 -17 59 -41 59c-23 0 -38 -22 -40 -59z
" />
    <glyph glyph-name="eogonek" unicode="&#x119;" horiz-adv-x="481" 
d="M382 -92l-8 -70c-16 -7 -25 -9 -43 -9c-60 0 -103 33 -103 81c0 27 12 53 37 81c-14 -1 -19 -1 -26 -1c-131 0 -212 90 -212 235c0 148 90 251 218 251c127 0 210 -98 210 -248c0 -6 0 -17 -1 -31h-254c3 -49 15 -71 40 -71c19 0 33 12 39 32l169 -3
c-10 -52 -33 -92 -71 -122c-5 -4 -9 -7 -16 -11c-33 -26 -54 -58 -54 -84c0 -23 15 -36 41 -36c10 0 18 1 34 6zM202 290h81c-2 37 -17 59 -41 59c-23 0 -38 -22 -40 -59z" />
    <glyph glyph-name="gbreve" unicode="&#x11f;" horiz-adv-x="493" 
d="M337 679h70c-10 -100 -61 -149 -156 -149c-56 0 -95 18 -125 59c-21 27 -29 50 -33 90h70c16 -40 38 -54 90 -54c47 0 69 14 84 54zM33 -48h177c2 -24 15 -38 37 -38c28 0 40 19 40 66v74c-30 -40 -68 -61 -109 -61c-90 0 -151 97 -151 241c0 143 62 243 150 243
c41 0 67 -18 105 -71l-4 61h175v-481c0 -77 -18 -123 -64 -158c-38 -30 -88 -45 -146 -45c-127 0 -193 53 -210 169zM246 136c26 0 39 33 39 99c0 67 -13 101 -37 101c-27 0 -42 -35 -42 -99c0 -62 15 -101 40 -101z" />
    <glyph glyph-name="gcommaaccent" unicode="&#x123;" horiz-adv-x="493" 
d="M193 530l81 160h93l-57 -160h-117zM33 -48h177c2 -24 15 -38 37 -38c28 0 40 19 40 66v74c-30 -40 -68 -61 -109 -61c-90 0 -151 97 -151 241c0 143 62 243 150 243c41 0 67 -18 105 -71l-4 61h175v-481c0 -77 -18 -123 -64 -158c-38 -30 -88 -45 -146 -45
c-127 0 -193 53 -210 169zM246 136c26 0 39 33 39 99c0 67 -13 101 -37 101c-27 0 -42 -35 -42 -99c0 -62 15 -101 40 -101z" />
    <glyph glyph-name="imacron" unicode="&#x12b;" horiz-adv-x="253" 
d="M-10 546v97h280v-97h-280zM40 0v467h173v-467h-173z" />
    <glyph glyph-name="iogonek" unicode="&#x12f;" horiz-adv-x="253" 
d="M127 511c-55 0 -101 46 -101 101c0 56 45 101 101 101s101 -45 101 -102c0 -54 -46 -100 -101 -100zM40 0v467h173v-467h-44c-23 -20 -35 -42 -35 -63c0 -22 15 -35 41 -35c10 0 18 1 33 6l-7 -70c-16 -7 -25 -9 -43 -9c-60 0 -103 33 -103 80c0 31 18 63 53 91h-68z" />
    <glyph glyph-name="kcommaaccent" unicode="&#x137;" horiz-adv-x="495" 
d="M40 0v729h173v-472c9 28 13 39 26 72l56 138h188l-115 -214l126 -253h-199l-67 181c-3 11 -7 22 -15 53v-234h-173zM188 -54h117l-81 -160h-93z" />
    <glyph glyph-name="lacute" unicode="&#x13a;" horiz-adv-x="253" 
d="M81 761l44 151h131l-84 -151h-91zM40 0v729h173v-729h-173z" />
    <glyph glyph-name="lcaron" unicode="&#x13e;" horiz-adv-x="428" 
d="M247 569l57 160h117l-82 -160h-92zM40 0v729h173v-729h-173z" />
    <glyph glyph-name="lcommaaccent" unicode="&#x13c;" horiz-adv-x="253" 
d="M40 0v729h173v-729h-173zM67 -54h117l-81 -160h-93z" />
    <glyph glyph-name="nacute" unicode="&#x144;" horiz-adv-x="491" 
d="M203 530l47 148h123l-81 -148h-89zM40 0v467h173l-2 -49l-2 -40c28 66 70 99 123 99c38 0 76 -21 96 -54c16 -26 23 -57 23 -104v-319h-173v247c0 42 -7 57 -28 57c-25 0 -37 -22 -37 -69v-235h-173z" />
    <glyph glyph-name="ncaron" unicode="&#x148;" horiz-adv-x="491" 
d="M168 530l-71 139h127l35 -68l39 68h103l-76 -139h-157zM40 0v467h173l-2 -49l-2 -40c28 66 70 99 123 99c38 0 76 -21 96 -54c16 -26 23 -57 23 -104v-319h-173v247c0 42 -7 57 -28 57c-25 0 -37 -22 -37 -69v-235h-173z" />
    <glyph glyph-name="ncommaaccent" unicode="&#x146;" horiz-adv-x="491" 
d="M40 0v467h173l-2 -49l-2 -40c28 66 70 99 123 99c38 0 76 -21 96 -54c16 -26 23 -57 23 -104v-319h-173v247c0 42 -7 57 -28 57c-25 0 -37 -22 -37 -69v-235h-173zM184 -54h117l-81 -160h-93z" />
    <glyph glyph-name="ohungarumlaut" unicode="&#x151;" horiz-adv-x="487" 
d="M288 530l47 148h123l-81 -148h-89zM121 530l47 148h123l-81 -148h-89zM27 232c0 147 86 245 215 245c137 0 219 -94 219 -251c0 -144 -86 -236 -220 -236c-131 0 -214 94 -214 242zM244 121c29 0 49 46 49 111c0 69 -20 114 -49 114s-49 -46 -49 -112
c0 -67 20 -113 49 -113z" />
    <glyph glyph-name="omacron" unicode="&#x14d;" horiz-adv-x="487" 
d="M91 546v97h313v-97h-313zM27 232c0 147 86 245 215 245c137 0 219 -94 219 -251c0 -144 -86 -236 -220 -236c-131 0 -214 94 -214 242zM244 121c29 0 49 46 49 111c0 69 -20 114 -49 114s-49 -46 -49 -112c0 -67 20 -113 49 -113z" />
    <glyph glyph-name="racute" unicode="&#x155;" horiz-adv-x="344" 
d="M148 530l47 148h124l-82 -148h-89zM40 0v467h173l-9 -91c23 65 72 103 130 102v-194c-21 12 -34 16 -48 16c-21 0 -42 -11 -55 -27c-14 -18 -18 -34 -18 -73v-200h-173z" />
    <glyph glyph-name="rcaron" unicode="&#x159;" horiz-adv-x="344" 
d="M111 530l-71 139h127l35 -68l39 68h103l-76 -139h-157zM40 0v467h173l-9 -91c23 65 72 103 130 102v-194c-21 12 -34 16 -48 16c-21 0 -42 -11 -55 -27c-14 -18 -18 -34 -18 -73v-200h-173z" />
    <glyph glyph-name="rcommaaccent" unicode="&#x157;" horiz-adv-x="344" 
d="M40 0v467h173l-9 -91c23 65 72 103 130 102v-194c-21 12 -34 16 -48 16c-21 0 -42 -11 -55 -27c-14 -18 -18 -34 -18 -73v-200h-173zM72 -54h117l-81 -160h-93z" />
    <glyph glyph-name="sacute" unicode="&#x15b;" horiz-adv-x="395" 
d="M183 530l47 148h123l-81 -148h-89zM23 39l63 129c30 -31 61 -49 87 -49c19 0 33 10 33 24c0 16 -11 25 -45 37c-85 30 -122 72 -122 137c0 92 82 160 191 160c47 0 88 -11 139 -38l-59 -127c-30 30 -51 42 -71 42c-15 0 -27 -10 -27 -22c0 -18 13 -29 52 -45
c44 -17 58 -25 74 -40c24 -22 38 -56 38 -92c0 -42 -18 -85 -48 -115c-34 -34 -79 -50 -138 -50c-57 0 -95 11 -167 49z" />
    <glyph glyph-name="scedilla" unicode="&#x15f;" horiz-adv-x="395" 
d="M23 39l63 129c30 -31 61 -49 87 -49c19 0 33 10 33 24c0 16 -11 25 -45 37c-85 30 -122 72 -122 137c0 92 82 160 191 160c47 0 88 -11 139 -38l-59 -127c-30 30 -51 42 -71 42c-15 0 -27 -10 -27 -22c0 -18 13 -29 52 -45c44 -17 58 -25 74 -40c24 -22 38 -56 38 -92
c0 -42 -18 -85 -48 -115c-34 -34 -79 -50 -138 -50c-57 0 -95 11 -167 49zM180 -47l81 -53l-113 -117l-66 47z" />
    <glyph glyph-name="scommaaccent" unicode="&#x219;" horiz-adv-x="395" 
d="M23 39l63 129c30 -31 61 -49 87 -49c19 0 33 10 33 24c0 16 -11 25 -45 37c-85 30 -122 72 -122 137c0 92 82 160 191 160c47 0 88 -11 139 -38l-59 -127c-30 30 -51 42 -71 42c-15 0 -27 -10 -27 -22c0 -18 13 -29 52 -45c44 -17 58 -25 74 -40c24 -22 38 -56 38 -92
c0 -42 -18 -85 -48 -115c-34 -34 -79 -50 -138 -50c-57 0 -95 11 -167 49zM134 -54h117l-81 -160h-93z" />
    <glyph glyph-name="tcaron" unicode="&#x165;" horiz-adv-x="455" 
d="M273 510l58 160h117l-82 -160h-93zM63 0v328h-49v139h49v137h173v-137h58v-139h-58v-328h-173z" />
    <glyph glyph-name="tcommaaccent" unicode="&#x163;" horiz-adv-x="301" 
d="M63 0v328h-49v139h49v137h173v-137h58v-139h-58v-328h-173zM91 -54h117l-81 -160h-93z" />
    <glyph glyph-name="uhungarumlaut" unicode="&#x171;" horiz-adv-x="499" 
d="M290 530l47 148h123l-81 -148h-89zM123 530l47 148h123l-81 -148h-89zM459 467v-287c0 -70 -20 -113 -67 -147c-40 -28 -90 -43 -143 -43c-52 0 -102 15 -142 43c-47 34 -67 77 -67 147v287h173v-263c0 -54 8 -69 37 -69c28 0 36 15 36 69v263h173z" />
    <glyph glyph-name="umacron" unicode="&#x16b;" horiz-adv-x="499" 
d="M96 546v97h313v-97h-313zM459 467v-287c0 -70 -20 -113 -67 -147c-40 -28 -90 -43 -143 -43c-52 0 -102 15 -142 43c-47 34 -67 77 -67 147v287h173v-263c0 -54 8 -69 37 -69c28 0 36 15 36 69v263h173z" />
    <glyph glyph-name="uogonek" unicode="&#x173;" horiz-adv-x="499" 
d="M396 -92l-8 -70c-15 -7 -24 -9 -42 -9c-61 0 -103 33 -103 81c0 27 12 54 36 82c-11 -2 -19 -2 -30 -2c-52 0 -102 15 -142 43c-47 34 -67 77 -67 147v287h173v-263c0 -54 8 -69 37 -69c28 0 36 15 36 69v263h173v-287c0 -79 -24 -123 -87 -160c-32 -27 -49 -57 -49 -83
c0 -22 15 -35 40 -35c10 0 18 1 33 6z" />
    <glyph glyph-name="uring" unicode="&#x16f;" horiz-adv-x="499" 
d="M253 524c-53 0 -96 43 -96 96s43 96 96 96s96 -43 96 -98c0 -51 -44 -94 -96 -94zM253 579c22 0 40 19 40 41c0 23 -18 41 -40 41c-23 0 -41 -19 -41 -41s18 -41 41 -41zM459 467v-287c0 -70 -20 -113 -67 -147c-40 -28 -90 -43 -143 -43c-52 0 -102 15 -142 43
c-47 34 -67 77 -67 147v287h173v-263c0 -54 8 -69 37 -69c28 0 36 15 36 69v263h173z" />
    <glyph glyph-name="zacute" unicode="&#x17a;" horiz-adv-x="435" 
d="M195 530l47 148h123l-81 -148h-89zM17 0l113 242c13 28 24 50 44 86h-132v139h377l-111 -238c-17 -36 -23 -48 -45 -88h128v-141h-374z" />
    <glyph glyph-name="zdotaccent" unicode="&#x17c;" horiz-adv-x="435" 
d="M239 530c-43 0 -77 35 -77 77c0 41 34 75 75 75c43 0 77 -34 77 -77c0 -41 -34 -75 -75 -75zM17 0l113 242c13 28 24 50 44 86h-132v139h377l-111 -238c-17 -36 -23 -48 -45 -88h128v-141h-374z" />
    <glyph glyph-name="onehalf.alt" unicode="&#xec73;" horiz-adv-x="253" 
d="M98 394v205h-31v68h114v-273h-83zM4 307v53h246v-53h-246zM20 0l81 102c34 42 46 66 46 90c0 13 -6 21 -15 21c-10 0 -16 -11 -16 -30c0 -2 0 -7 1 -12h-81v13c0 54 41 94 98 94c55 0 94 -37 94 -90c0 -41 -21 -79 -70 -123c20 2 28 2 67 2v-67h-205z" />
    <glyph glyph-name="onethird.alt" unicode="&#xec74;" horiz-adv-x="253" 
d="M98 394v205h-31v68h114v-273h-83zM4 307v53h246v-53h-246zM26 84h81c0 -18 4 -24 16 -24c11 0 19 9 19 22c0 16 -11 26 -29 26c-3 0 -7 0 -16 -1v63c5 -1 9 -1 12 -1c20 0 29 7 29 24c0 12 -5 20 -14 20s-11 -4 -13 -21h-80c4 53 41 86 96 86c52 0 92 -35 92 -80
c0 -24 -11 -44 -32 -57c23 -12 36 -35 36 -62c0 -49 -42 -84 -100 -84c-61 0 -97 33 -97 89z" />
    <glyph glyph-name="twothirds.alt" unicode="&#xec75;" horiz-adv-x="253" 
d="M20 393l81 102c34 42 46 66 46 91c0 12 -6 21 -15 21c-10 0 -16 -11 -16 -31c0 -2 0 -7 1 -12h-81v13c0 55 41 95 98 95c55 0 94 -38 94 -91c0 -41 -22 -79 -70 -123c20 2 28 2 67 2v-67h-205zM4 307v53h246v-53h-246zM26 84h81c0 -18 4 -24 16 -24c11 0 19 9 19 22
c0 16 -11 26 -29 26c-3 0 -7 0 -16 -1v63c5 -1 9 -1 12 -1c20 0 29 7 29 24c0 12 -5 20 -14 20s-11 -4 -13 -21h-80c4 53 41 86 96 86c52 0 92 -35 92 -80c0 -24 -11 -44 -32 -57c23 -12 36 -35 36 -62c0 -49 -42 -84 -100 -84c-61 0 -97 33 -97 89z" />
    <glyph glyph-name="onequarter.alt" unicode="&#xec76;" horiz-adv-x="253" 
d="M98 394v205h-31v68h114v-273h-83zM4 307v53h246v-53h-246zM21 55v60l88 158h99v-155h24v-63h-24v-55h-83v55h-104zM93 118h35l1 47c0 4 0 8 1 17c-22 -41 -25 -47 -37 -64z" />
    <glyph glyph-name="threequarters.alt" unicode="&#xec77;" horiz-adv-x="253" 
d="M111 585h-80c4 54 40 87 96 87c52 0 92 -35 92 -81c0 -24 -11 -44 -32 -57c23 -12 36 -35 36 -62c0 -48 -42 -83 -100 -83c-61 0 -97 33 -97 88h81c0 -17 4 -23 16 -23c11 0 19 9 19 22c0 15 -11 25 -29 25c-3 0 -7 0 -16 -1v63c5 -1 10 -1 12 -1c21 0 29 7 29 24
c0 12 -5 20 -14 20s-11 -4 -13 -21zM4 307v53h246v-53h-246zM21 55v60l88 158h99v-155h24v-63h-24v-55h-83v55h-104zM93 118h35l1 47c0 4 0 8 1 17c-22 -41 -25 -47 -37 -64z" />
    <glyph glyph-name="oneeighth.alt" unicode="&#xec7c;" horiz-adv-x="253" 
d="M98 394v205h-31v68h114v-273h-83zM4 307v53h246v-53h-246zM26 79c0 29 15 51 44 63c-24 9 -38 29 -38 56c0 46 40 80 93 80c55 0 97 -34 97 -78c0 -26 -12 -46 -36 -58c27 -12 41 -33 41 -63c0 -48 -43 -84 -101 -84c-55 0 -100 37 -100 84zM127 174c9 0 14 8 14 20
c0 13 -6 21 -14 21c-9 0 -14 -8 -14 -19c0 -14 5 -22 14 -22zM110 86c0 -14 7 -24 17 -24c9 0 16 10 16 25c0 14 -7 24 -17 24c-9 0 -16 -11 -16 -25z" />
    <glyph glyph-name="threeeighths.alt" unicode="&#xec7d;" horiz-adv-x="253" 
d="M111 585h-80c4 54 40 87 96 87c52 0 92 -35 92 -81c0 -24 -11 -44 -32 -57c23 -12 36 -35 36 -62c0 -48 -42 -83 -100 -83c-61 0 -97 33 -97 88h81c0 -17 4 -23 16 -23c11 0 19 9 19 22c0 15 -11 25 -29 25c-3 0 -7 0 -16 -1v63c5 -1 10 -1 12 -1c21 0 29 7 29 24
c0 12 -5 20 -14 20s-11 -4 -13 -21zM4 307v53h246v-53h-246zM26 79c0 29 15 51 44 63c-24 9 -38 29 -38 56c0 46 40 80 93 80c55 0 97 -34 97 -78c0 -26 -12 -46 -36 -58c27 -12 41 -33 41 -63c0 -48 -43 -84 -101 -84c-55 0 -100 37 -100 84zM127 174c9 0 14 8 14 20
c0 13 -6 21 -14 21c-9 0 -14 -8 -14 -19c0 -14 5 -22 14 -22zM110 86c0 -14 7 -24 17 -24c9 0 16 10 16 25c0 14 -7 24 -17 24c-9 0 -16 -11 -16 -25z" />
    <glyph glyph-name="fiveeighths.alt" unicode="&#xec7e;" horiz-adv-x="253" 
d="M132 599l-5 -25c4 1 7 1 8 1c50 0 88 -37 88 -86c0 -57 -48 -100 -112 -100c-26 0 -55 8 -81 22l10 69c25 -14 44 -20 63 -20c22 0 37 11 37 28s-16 27 -43 27c-18 0 -32 -3 -54 -11l23 163h148v-68h-82zM4 307v53h246v-53h-246zM26 79c0 29 15 51 44 63
c-24 9 -38 29 -38 56c0 46 40 80 93 80c55 0 97 -34 97 -78c0 -26 -12 -46 -36 -58c27 -12 41 -33 41 -63c0 -48 -43 -84 -101 -84c-55 0 -100 37 -100 84zM127 174c9 0 14 8 14 20c0 13 -6 21 -14 21c-9 0 -14 -8 -14 -19c0 -14 5 -22 14 -22zM110 86c0 -14 7 -24 17 -24
c9 0 16 10 16 25c0 14 -7 24 -17 24c-9 0 -16 -11 -16 -25z" />
    <glyph glyph-name="seveneighths.alt" unicode="&#xec7f;" horiz-adv-x="253" 
d="M25 393l70 147c12 24 23 42 35 59h-95v68h210l-131 -274h-89zM4 307v53h246v-53h-246zM26 79c0 29 15 51 44 63c-24 9 -38 29 -38 56c0 46 40 80 93 80c55 0 97 -34 97 -78c0 -26 -12 -46 -36 -58c27 -12 41 -33 41 -63c0 -48 -43 -84 -101 -84c-55 0 -100 37 -100 84z
M127 174c9 0 14 8 14 20c0 13 -6 21 -14 21c-9 0 -14 -8 -14 -19c0 -14 5 -22 14 -22zM110 86c0 -14 7 -24 17 -24c9 0 16 10 16 25c0 14 -7 24 -17 24c-9 0 -16 -11 -16 -25z" />
    <glyph glyph-name="uni00A0" unicode="&#xa0;" horiz-adv-x="187" 
 />
    <glyph glyph-name="uni00AD" unicode="&#xad;" horiz-adv-x="217" 
d="M0 173v133h217v-133h-217z" />
    <glyph glyph-name="uni021A" unicode="&#x21a;" horiz-adv-x="383" 
d="M99 0v507h-99v160h383v-160h-104v-507h-180zM128 -54h124l-82 -160h-99z" />
    <glyph glyph-name="i.dot" horiz-adv-x="253" 
d="M127 511c-55 0 -101 46 -101 101c0 56 45 101 101 101s101 -45 101 -102c0 -54 -46 -100 -101 -100zM40 0v467h173v-467h-173z" />
    <glyph glyph-name="uni021B" unicode="&#x21b;" horiz-adv-x="301" 
d="M63 0v328h-49v139h49v137h173v-137h58v-139h-58v-328h-173zM91 -54h117l-81 -160h-93z" />
    <glyph glyph-name="uni03A9" unicode="&#x3a9;" horiz-adv-x="667" 
d="M28 0v152h120c-38 24 -57 40 -76 64c-30 40 -47 94 -47 155c0 177 134 313 308 313c176 0 309 -135 309 -313c0 -102 -35 -164 -123 -219h120v-152h-273v139c72 37 106 103 106 207c0 113 -56 191 -139 191c-80 0 -138 -80 -138 -192c0 -104 33 -169 106 -206v-139h-273z
" />
    <glyph glyph-name="uni2032" unicode="&#x2032;" horiz-adv-x="222" 
d="M55 392l-24 275h159l-24 -275h-111z" />
    <glyph glyph-name="uni2033" unicode="&#x2033;" horiz-adv-x="405" 
d="M238 392l-23 275h159l-24 -275h-112zM55 392l-24 275h159l-24 -275h-111z" />
    <glyph glyph-name="uni2113" unicode="&#x2113;" 
d="M273 267l-11 -12c-13 -90 -19 -144 -19 -164c0 -16 4 -25 12 -25s8 0 30 40c10 19 16 24 27 24c15 0 24 -11 24 -29c0 -62 -59 -126 -116 -126c-66 0 -103 61 -104 172c-19 -25 -28 -34 -35 -34c-10 0 -21 21 -21 41c0 17 3 22 34 58c9 10 15 19 31 41
c19 118 43 206 76 283c38 87 86 130 146 130c58 0 96 -43 96 -108c0 -40 -17 -92 -46 -143c-33 -57 -37 -53 -124 -148zM273 341c2 3 2 3 6 6c44 51 92 154 92 199c0 20 -8 32 -20 32c-30 0 -55 -77 -78 -237z" />
    <glyph glyph-name="uni2117" unicode="&#x2117;" horiz-adv-x="760" 
d="M33 333c0 195 155 349 352 349c186 0 341 -158 341 -349c0 -192 -155 -348 -346 -348s-347 157 -347 348zM112 333c0 -152 121 -276 268 -276c146 0 266 124 266 276c0 150 -119 276 -263 276c-151 0 -271 -122 -271 -276zM249 133v400h123c119 0 167 -57 167 -135
c0 -46 -36 -137 -163 -137v-128h-127zM376 351c24 0 45 14 45 46s-18 39 -45 41v-87z" />
    <glyph glyph-name="apple" unicode="&#xf8ff;" horiz-adv-x="800" 
d="M35 101v649h629c56 0 101 -45 101 -101v-649h-629c-56 0 -101 45 -101 101zM233 628v-169c0 -45 24 -72 70 -72s70 27 70 72v169c0 46 -24 72 -70 72s-70 -26 -70 -72zM400 390h54v234c0 15 5 23 16 23c10 0 16 -8 16 -23v-234h54v240c0 46 -18 68 -58 68
c-5 0 -23 -2 -27 -10v9h-55v-307zM581 459c0 -45 24 -72 70 -72s70 27 70 72v34h-54v-31c0 -15 -6 -23 -16 -23s-16 8 -16 23v128h78v52h-79v55h-54v-55h-18v-52h19v-131zM92 390h54v103h59v60h-59v84h67v60h-121v-307zM319 624v-162c0 -15 -6 -22 -16 -22s-16 7 -16 22v162
c0 15 6 23 16 23s16 -8 16 -23zM526 122c0 -45 24 -72 70 -72s70 27 70 72v12h-54v-9c0 -15 -6 -22 -16 -22s-16 7 -16 22v39h86v127c0 46 -24 72 -70 72s-70 -26 -70 -72v-169zM90 131c0 -52 25 -81 73 -81s73 33 73 89c0 28 -5 53 -66 95c-15 10 -26 19 -26 38
c0 27 6 38 19 38c12 0 18 -11 18 -32v-25h54v29c0 53 -24 81 -72 81s-74 -33 -74 -89c0 -28 5 -55 67 -96c15 -10 25 -19 25 -37c0 -27 -6 -38 -19 -38c-12 0 -18 11 -18 32v10h-54v-14zM365 122c0 -45 24 -72 70 -72s70 27 70 72v34h-54v-31c0 -15 -6 -22 -16 -22
s-16 7 -16 22v128h78v52h-79v55h-54v-55h-18v-52h19v-131zM266 299h54v61h-54v-61zM580 210v77c0 15 6 23 16 23s16 -8 16 -23v-77h-32zM266 53h54v215h-54v-215zM706 53h6v27l9 -21h4l9 21v-27h6v35h-8l-9 -21l-9 21h-8v-35zM674 82h10v-29h6v29h10v6h-26v-6z" />
    </font>
</defs>
</svg>
